<?xml version="1.0" standalone="no"?>
<!DOCTYPE svg PUBLIC "-//W3C//DTD SVG 20010904//EN"
 "http://www.w3.org/TR/2001/REC-SVG-20010904/DTD/svg10.dtd">
<svg version="1.0" xmlns="http://www.w3.org/2000/svg"
 width="16.000000pt" height="16.000000pt" viewBox="0 0 16.000000 16.000000"
 preserveAspectRatio="xMidYMid meet">
<metadata>
Created by potrace 1.11, written by Peter Selinger 2001-2013
</metadata>
<g transform="translate(0.000000,16.000000) scale(0.001782,-0.001782)"
fill="#000000" stroke="none">
<path d="M4298 8975 c-1 -1 -37 -6 -78 -10 -41 -4 -84 -9 -95 -11 -10 -2 -37
-6 -60 -9 -22 -4 -71 -13 -110 -21 -99 -21 -104 -22 -125 -29 -10 -3 -27 -7
-37 -9 -35 -7 -209 -67 -250 -86 -24 -11 -49 -20 -56 -20 -7 0 -18 -5 -25 -12
-7 -7 -12 -8 -12 -2 0 5 -4 4 -8 -1 -4 -6 -36 -24 -72 -39 -36 -16 -82 -40
-102 -53 -21 -13 -38 -20 -38 -16 0 5 -4 3 -8 -3 -4 -6 -23 -19 -42 -29 -85
-44 -368 -247 -377 -272 -3 -7 -9 -13 -15 -13 -16 0 -196 -180 -285 -285 -197
-234 -348 -494 -456 -786 -36 -96 -100 -329 -111 -404 -4 -23 -9 -52 -11 -65
-3 -14 -8 -45 -11 -70 -3 -25 -8 -56 -12 -70 -3 -14 -8 -1515 -9 -3336 l-3
-3310 2597 0 2598 1 0 3275 c0 2874 -3 3358 -19 3446 -2 11 -7 39 -11 64 -3
25 -8 56 -11 70 -2 14 -15 70 -29 125 -15 55 -28 108 -30 118 -10 46 -106 306
-123 332 -4 5 -7 12 -7 15 -2 28 -188 353 -226 396 -11 11 -19 25 -19 31 0 6
-3 13 -7 15 -5 2 -30 32 -58 68 -72 94 -97 122 -220 246 -107 108 -141 138
-219 199 -21 17 -44 35 -50 40 -42 38 -256 173 -376 237 -232 122 -603 240
-835 263 -22 2 -58 7 -80 11 -42 6 -461 15 -467 9z m133 -562 c0 -57 0 -1091
-1 -1114 0 -13 -39 -26 -140 -44 -73 -13 -158 -39 -185 -57 -5 -3 -53 -28
-106 -55 l-96 -50 -41 69 c-23 38 -42 73 -42 79 0 5 -4 9 -10 9 -5 0 -10 4
-10 9 0 5 -21 45 -47 88 -71 121 -268 455 -345 586 -38 65 -66 121 -64 126 7
11 171 108 266 158 190 99 376 163 568 198 15 2 52 9 82 15 30 6 75 14 100 17
25 3 47 7 49 9 14 13 21 -2 22 -43z m354 22 c108 -17 111 -18 246 -50 195 -46
370 -122 606 -262 102 -61 111 -69 98 -83 -8 -9 -15 -20 -15 -23 0 -4 -19 -37
-42 -74 -22 -38 -49 -81 -58 -98 -10 -16 -41 -70 -70 -120 -29 -49 -68 -117
-87 -150 -46 -81 -57 -99 -64 -105 -3 -3 -12 -18 -21 -35 -24 -47 -38 -71
-122 -212 l-79 -132 -81 44 c-112 61 -211 104 -256 110 -8 1 -28 5 -45 8 -33
8 -64 14 -110 23 -16 3 -31 7 -33 9 -3 3 -4 543 -3 1018 l1 157 23 -5 c12 -3
63 -12 112 -20z m-1618 -505 c3 -11 9 -20 14 -20 5 0 9 -4 9 -9 0 -10 131
-227 150 -248 5 -7 10 -14 10 -16 0 -2 88 -147 195 -321 l194 -318 -90 -86
c-50 -48 -127 -122 -172 -165 -44 -43 -87 -82 -94 -88 -9 -8 -41 8 -125 62
-62 41 -115 76 -118 79 -3 3 -30 21 -60 40 -30 19 -57 37 -60 40 -12 13 -151
100 -159 100 -5 0 -11 4 -13 8 -1 4 -60 45 -130 91 l-126 82 23 52 c35 80 74
156 113 222 38 66 150 234 167 251 5 6 21 25 35 44 36 47 210 220 222 220 5 0
12 -9 15 -20z m2860 -68 c101 -101 120 -122 189 -217 65 -89 113 -164 154
-240 18 -33 37 -66 43 -72 5 -7 6 -13 3 -13 -4 0 2 -13 13 -29 12 -16 21 -34
21 -40 0 -7 9 -29 20 -51 l20 -38 -143 -94 c-78 -51 -146 -95 -152 -97 -5 -2
-12 -7 -15 -10 -9 -10 -69 -51 -76 -51 -3 0 -23 -13 -43 -29 -20 -15 -40 -30
-46 -32 -5 -2 -77 -49 -158 -103 l-148 -99 -46 44 c-25 24 -65 62 -88 84 -125
118 -225 218 -225 227 0 5 11 26 25 46 14 20 25 42 25 48 0 7 4 14 8 16 4 2
50 73 102 158 52 85 98 158 103 161 5 3 8 9 8 13 -1 3 5 16 13 29 17 26 127
207 223 364 37 62 71 113 75 113 5 0 47 -39 95 -88z m-1576 -935 c0 -56 1
-229 3 -385 2 -228 0 -280 -11 -270 -7 7 -44 58 -82 113 -38 55 -75 105 -80
112 -6 7 -11 16 -11 22 0 5 -3 11 -8 13 -7 3 -39 46 -128 175 -26 37 -51 70
-56 71 -4 2 -8 9 -8 15 -1 7 -14 27 -30 46 -31 37 -31 52 3 69 12 6 45 24 72
40 80 46 170 69 302 79 l33 3 1 -103z m304 88 c71 -11 118 -26 175 -56 81 -43
113 -64 117 -74 2 -6 -40 -71 -92 -145 -52 -74 -100 -142 -105 -150 -6 -8 -32
-46 -60 -85 -117 -166 -174 -245 -177 -245 -2 0 3 741 6 763 1 8 49 5 136 -8z
m-2161 -196 c14 -11 26 -17 26 -13 0 4 8 0 18 -8 9 -8 141 -89 292 -179 151
-90 277 -166 280 -169 3 -3 23 -15 45 -26 l40 -22 3 -276 c2 -258 1 -276 -15
-276 -162 -3 -806 0 -811 4 -4 2 -7 148 -6 323 1 284 6 395 20 466 2 12 7 38
10 57 11 59 45 140 58 140 7 0 25 -9 40 -21z m3952 6 c0 -6 6 -23 13 -40 14
-32 38 -151 47 -225 6 -49 12 -689 7 -705 -2 -7 -148 -9 -418 -7 l-415 2 0 60
c-1 33 -1 130 -1 215 0 85 0 182 1 214 l0 60 98 58 c53 32 106 63 117 70 11 7
29 17 40 23 11 6 44 25 72 43 128 78 290 174 337 200 28 16 55 33 61 38 12 12
40 7 41 -6z m-1121 -250 c17 -21 32 -43 34 -49 2 -6 10 -17 18 -24 21 -21 16
-36 -19 -57 -18 -11 -35 -20 -38 -20 -3 0 -43 -19 -90 -42 -47 -22 -141 -69
-210 -102 -69 -34 -131 -61 -137 -61 -7 0 -13 -5 -13 -11 0 -5 -4 -8 -9 -5 -5
3 -14 -1 -21 -9 -7 -8 -18 -15 -24 -15 -6 0 -32 -11 -58 -25 -64 -34 -73 -32
-43 13 14 20 28 44 32 52 4 8 22 38 40 67 18 29 33 56 33 62 0 5 3 11 8 13 9
4 72 107 72 119 0 5 5 9 10 9 6 0 10 4 10 10 0 5 34 65 76 132 41 67 82 135
91 151 l15 30 96 -100 c54 -55 111 -117 127 -138z m-1469 80 c47 -76 113 -184
147 -240 34 -55 67 -110 74 -122 32 -56 40 -71 66 -110 15 -24 27 -46 27 -50
0 -5 -66 24 -147 64 -296 144 -525 253 -533 253 -39 0 10 83 119 200 43 47 92
99 107 117 16 17 35 31 43 30 7 -1 51 -65 97 -142z m-390 -400 c6 -5 26 -21
44 -35 18 -14 49 -38 69 -53 74 -58 100 -79 254 -198 86 -67 155 -124 153
-127 -4 -3 -501 -6 -596 -3 -28 1 -28 -6 -16 186 5 77 32 241 43 258 4 7 20
-2 49 -28z m2003 -56 c5 -35 13 -84 17 -109 3 -25 8 -91 9 -147 2 -89 0 -103
-14 -104 -20 -1 -604 -1 -610 0 -2 1 9 11 25 23 16 12 31 25 34 28 3 3 21 17
40 30 19 13 37 27 40 31 3 3 68 54 145 113 77 59 152 117 166 129 14 12 38 31
53 42 15 11 37 28 49 38 27 23 33 13 46 -74z m-2347 -908 c3 0 5 -308 5 -683
l-2 -683 -392 0 c-256 0 -393 3 -393 10 -6 144 -3 1356 3 1358 7 2 765 1 779
-2z m1133 -681 l0 -685 -380 -1 c-209 0 -386 2 -392 4 -10 3 -13 148 -13 681
0 373 2 680 4 682 3 2 179 4 393 4 l388 0 0 -685z m1136 675 c0 -14 0 -1293 0
-1330 l-1 -30 -392 0 -393 0 -1 680 c-1 374 0 682 2 685 5 10 784 5 785 -5z
m1129 6 c4 -1 5 -1341 1 -1361 -2 -9 -769 -6 -777 3 -10 10 -12 1350 -3 1357
6 4 762 5 779 1z m-3395 -2351 l0 -685 -392 -1 c-268 0 -393 3 -394 10 -3 67
1 1347 4 1353 3 5 180 8 394 8 l388 0 0 -685z m1131 0 l-1 -685 -392 0 -393
-1 0 681 c0 375 2 684 4 686 3 2 180 4 394 4 l390 0 -2 -685z m1130 678 c8 -8
9 -1342 1 -1355 -3 -5 -180 -9 -394 -9 l-388 1 -1 680 c0 374 3 682 7 685 11
8 767 6 775 -2z m1134 1 c3 -4 5 -312 4 -686 l0 -678 -391 -1 c-347 0 -392 2
-395 15 -6 28 -2 1336 4 1346 7 12 770 15 778 4z m-3394 -2331 l1 -685 -393 0
-394 0 0 51 c-5 555 0 1310 8 1315 6 3 183 6 394 5 l383 -1 1 -685z m1120 683
c9 -1 12 -177 10 -683 l-1 -683 -392 -1 -393 -1 0 683 c0 446 3 683 10 686 8
2 727 2 766 -1z m1145 -31 c0 -38 0 -1215 -1 -1291 l0 -46 -392 1 -393 1 -1
682 c0 682 0 682 20 685 12 2 189 3 394 3 l372 0 1 -35z m1127 23 c5 -8 8
-1289 3 -1349 -1 -13 -760 -17 -776 -4 -11 9 -14 1338 -3 1355 9 15 767 12
776 -2z"/>
</g>
</svg>
