<?xml version="1.0" encoding="UTF-8"?>
<svg width="200px" height="231px" viewBox="0 0 200 231" version="1.1" xmlns="http://www.w3.org/2000/svg" xmlns:xlink="http://www.w3.org/1999/xlink">
    <!-- Generator: Sketch 41.2 (35397) - http://www.bohemiancoding.com/sketch -->
    <title>Footer-Logo</title>
    <desc>Created with Sketch.</desc>
    <defs></defs>
    <g id="Page-1" stroke="none" stroke-width="1" fill="none" fill-rule="evenodd">
        <g id="SofterLight-Logo4">
            <g id="Layer_x0020_1">
                <g id="_2903479779104">
                    <polygon id="Shape" points="0 0 200 0 200 230.088293 0 230.088293"></polygon>
                    <path d="M143.28632,61.5525742 C143.28632,37.6332989 123.907809,18.2547873 99.9885334,18.2547873 C76.0921913,18.2547873 56.6907465,37.6332989 56.6907465,61.5525742 L56.6907465,61.5525742 L56.6907465,155.509689 L143.309254,155.509689 L143.309254,61.5525742 L143.28632,61.5525742 Z M140.87834,61.9883041 C140.87834,39.4220846 122.577686,21.0984979 99.9885334,21.0984979 C77.422314,21.0984979 59.0987272,39.4220846 59.0987272,61.9883041 L59.0987272,61.9883041 L59.0987272,152.849444 L140.901273,152.849444 L140.901273,61.9883041 L140.87834,61.9883041 Z" id="Shape" fill="#FEFEFE"></path>
                    <path d="M133.608531,61.6901731 C133.608531,43.1372549 118.564385,28.0701754 99.9885334,28.0701754 C81.4356152,28.0701754 66.3914689,43.1372549 66.3914689,61.6901731 L66.3914689,61.6901731 L66.3914689,144.020181 L133.608531,144.020181 L133.608531,61.6901731 L133.608531,61.6901731 Z M93.7736498,55.1771586 C93.7736498,55.1771586 95.4019035,54.0305011 96.5485609,53.7323701 C97.7181516,53.4342392 99.461071,53.2966403 99.461071,53.2966403 L99.5528036,63.4101594 L93.7736498,55.1771586 Z M97.2824217,65.0842793 L91.8931315,56.163284 C91.8931315,56.163284 88.1779612,59.672056 88.1320949,60.6352483 L97.2824217,65.0842793 Z M86.7790391,68.707717 L94.9891068,68.707717 L87.3982341,62.8368306 C87.3982341,62.8368306 86.6643734,65.4282766 86.7790391,68.707717 Z M107.327141,55.1771586 C107.327141,55.1771586 105.698888,54.0305011 104.529297,53.7323701 C103.38264,53.4342392 101.616787,53.2966403 101.616787,53.2966403 L101.525054,63.4101594 L107.327141,55.1771586 Z M103.818369,65.0842793 L109.20766,56.163284 C109.20766,56.163284 112.899897,59.672056 112.968696,60.6352483 L103.818369,65.0842793 Z M114.298819,68.707717 L106.111684,68.707717 L113.702557,62.8368306 C113.702557,62.8368306 114.436418,65.4282766 114.298819,68.707717 Z M116.248137,39.9954134 C116.248137,39.9954134 112.510033,37.5874326 109.436991,36.4866414 C106.386882,35.3629171 102.029584,34.8354546 102.029584,34.8354546 L102.029584,50.0171999 C102.029584,50.0171999 104.598097,50.4758629 105.400757,50.7510607 C106.203417,51.0262585 108.886596,52.49398 108.886596,52.49398 L116.248137,39.9954134 Z M125.834193,51.5766541 L115.743607,58.2731338 L111.019379,53.709437 L118.610251,41.3255361 C121.797959,43.9628483 124.320605,47.9073501 125.834193,51.5766541 Z M127.462447,68.5701181 L127.462447,61.5755074 C127.462447,59.0299278 126.980851,56.4155487 126.361656,55.6587547 L116.660933,61.4837748 L116.660933,68.5701181 L127.462447,68.5701181 Z M85.0590529,39.9954134 C85.0590529,39.9954134 88.7971563,37.5874326 91.8472652,36.4866414 C94.9203073,35.3629171 99.2546726,34.8354546 99.2546726,34.8354546 L99.2546726,50.0171999 C99.2546726,50.0171999 96.709093,50.4758629 95.9064327,50.7510607 C95.1037725,51.0262585 92.3976608,52.49398 92.3976608,52.49398 L85.0590529,39.9954134 Z M75.4729962,51.5766541 L85.540649,58.2731338 L90.2648779,53.709437 L82.6969384,41.3255361 C79.4862974,43.9628483 76.963651,47.9073501 75.4729962,51.5766541 Z M73.8218094,68.5701181 L73.8218094,61.5755074 C73.8218094,59.0299278 74.3263387,56.4155487 74.9226006,55.6587547 L84.623323,61.4837748 L84.623323,68.5701181 L73.8218094,68.5701181 Z M73.4778122,75.748194 L83.6601307,75.748194 L83.6601307,93.4525857 L73.4778122,93.4525857 L73.4778122,75.748194 Z M117.394794,75.748194 L127.600046,75.748194 L127.600046,93.4525857 L117.394794,93.4525857 L117.394794,75.748194 Z M102.763445,75.748194 L112.945763,75.748194 L112.945763,93.4525857 L102.763445,93.4525857 L102.763445,75.748194 Z M88.1091618,75.748194 L98.3144135,75.748194 L98.3144135,93.4525857 L88.1091618,93.4525857 L88.1091618,75.748194 Z M73.4778122,118.701984 L83.6601307,118.701984 L83.6601307,136.406375 L73.4778122,136.406375 L73.4778122,118.701984 Z M117.394794,118.701984 L127.600046,118.701984 L127.600046,136.406375 L117.394794,136.406375 L117.394794,118.701984 Z M102.763445,118.701984 L112.945763,118.701984 L112.945763,136.406375 L102.763445,136.406375 L102.763445,118.701984 Z M88.1091618,118.701984 L98.3144135,118.701984 L98.3144135,136.406375 L88.1091618,136.406375 L88.1091618,118.701984 Z M73.4778122,97.328288 L83.6601307,97.328288 L83.6601307,115.055613 L73.4778122,115.055613 L73.4778122,97.328288 Z M117.394794,97.328288 L127.600046,97.328288 L127.600046,115.055613 L117.394794,115.055613 L117.394794,97.328288 Z M102.763445,97.328288 L112.945763,97.328288 L112.945763,115.055613 L102.763445,115.055613 L102.763445,97.328288 Z M88.1091618,97.328288 L98.3144135,97.328288 L98.3144135,115.055613 L88.1091618,115.055613 L88.1091618,97.328288 Z" id="Shape" fill="#FEFEFE"></path>
                    <path d="M36.7618392,187.134503 C36.7618392,188.28116 36.5554409,189.290219 36.1426442,190.184612 C35.7069143,191.079005 35.1335856,191.835799 34.3767917,192.454994 C33.6429309,193.074189 32.748538,193.555785 31.7394794,193.853916 C30.7304208,194.17498 29.6296296,194.335512 28.460039,194.335512 C27.6573787,194.335512 26.9005848,194.266713 26.1896571,194.129114 C25.5016627,193.991515 24.8595345,193.80805 24.332072,193.601651 C23.7816764,193.418186 23.3230134,193.188854 22.9331499,192.982456 C22.5662195,192.776058 22.3139548,192.592593 22.1763559,192.432061 C22.0158239,192.294462 21.9240913,192.088063 21.8552918,191.858732 C21.7864924,191.6294 21.7406261,191.308336 21.7406261,190.941406 C21.7406261,190.643275 21.7635592,190.413943 21.7864924,190.253411 C21.8094255,190.069946 21.8552918,189.909414 21.9011581,189.794748 C21.9470244,189.680083 22.0158239,189.611283 22.0846233,189.565417 C22.1534228,189.519551 22.2451554,189.496617 22.3598211,189.496617 C22.5203532,189.496617 22.7726178,189.611283 23.0936819,189.817681 C23.414746,190.047013 23.8275427,190.276344 24.332072,190.528609 C24.8366013,190.757941 25.4328632,191.010205 26.166724,191.216604 C26.8547185,191.445935 27.6803119,191.560601 28.620571,191.560601 C29.3314987,191.560601 29.9736269,191.445935 30.5469556,191.26247 C31.1432175,191.079005 31.6477468,190.82674 32.0605435,190.45981 C32.4733402,190.115812 32.7944043,189.703016 33.0237358,189.198486 C33.2530673,188.693957 33.3677331,188.120628 33.3677331,187.4785 C33.3677331,186.790506 33.207201,186.217177 32.9090701,185.712648 C32.588006,185.231051 32.1752093,184.795322 31.6477468,184.428391 C31.1432175,184.061461 30.5469556,183.717464 29.9048274,183.396399 C29.2397661,183.098269 28.5517716,182.777204 27.8637771,182.45614 C27.1757826,182.135076 26.5107212,181.791079 25.8456599,181.401215 C25.2035317,181.011352 24.6072698,180.552689 24.1027405,180.025226 C23.5752781,179.497764 23.1624814,178.878569 22.8414173,178.167641 C22.5203532,177.456714 22.3598211,176.608187 22.3598211,175.622062 C22.3598211,174.59007 22.5432863,173.695677 22.9102167,172.893017 C23.3000803,172.090357 23.8046096,171.425295 24.4696709,170.8749 C25.1347323,170.347437 25.9144594,169.934641 26.8088522,169.659443 C27.7261782,169.361312 28.7123036,169.223713 29.7672285,169.223713 C30.3176241,169.223713 30.8450866,169.269579 31.3954822,169.361312 C31.9458778,169.453044 32.4504071,169.590643 32.9320032,169.751175 C33.4135994,169.911707 33.8493292,170.072239 34.2391928,170.278638 C34.6061232,170.462103 34.8583878,170.622635 34.9730535,170.737301 C35.0877193,170.8749 35.1794519,170.966632 35.202385,171.035432 C35.2482513,171.104231 35.2711845,171.195964 35.2941176,171.287696 C35.3170508,171.402362 35.3399839,171.539961 35.3629171,171.67756 C35.3629171,171.838092 35.3858502,172.021557 35.3858502,172.273822 C35.3858502,172.503153 35.3629171,172.686619 35.3629171,172.870084 C35.3399839,173.053549 35.2941176,173.191148 35.2711845,173.328747 C35.2253182,173.443412 35.1794519,173.535145 35.1106524,173.581011 C35.041853,173.649811 34.9501204,173.672744 34.8813209,173.672744 C34.7207889,173.672744 34.5143906,173.581011 34.2162596,173.397546 C33.9181287,173.214081 33.5741314,173.030616 33.1384016,172.801284 C32.7026717,172.594886 32.1981424,172.388488 31.6248137,172.205022 C31.0285518,172.021557 30.3864236,171.929825 29.6525628,171.929825 C28.9645683,171.929825 28.3683064,172.021557 27.8637771,172.205022 C27.3821809,172.388488 26.9464511,172.617819 26.625387,172.91595 C26.3043229,173.237014 26.0520583,173.581011 25.8915262,173.993808 C25.7309942,174.406605 25.6392616,174.842335 25.6392616,175.323931 C25.6392616,175.988992 25.7997936,176.585254 26.1208577,177.06685 C26.4419218,177.548446 26.8547185,177.984176 27.3821809,178.37404 C27.9096434,178.74097 28.4829721,179.084967 29.1709666,179.406031 C29.836028,179.727096 30.5010893,180.025226 31.212017,180.346291 C31.9000115,180.667355 32.5650728,181.034285 33.2301342,181.401215 C33.8951955,181.791079 34.4914574,182.249742 35.0189198,182.777204 C35.5463823,183.281734 35.959179,183.900929 36.2802431,184.611856 C36.6013072,185.322784 36.7618392,186.171311 36.7618392,187.134503 Z M56.8054122,184.818255 C56.8054122,186.217177 56.621947,187.4785 56.2550166,188.648091 C55.8880862,189.794748 55.3376906,190.803807 54.626763,191.652333 C53.8929022,192.50086 52.9985093,193.142988 51.9206513,193.624584 C50.8198601,194.083247 49.5585369,194.335512 48.1366816,194.335512 C46.7377594,194.335512 45.5223025,194.129114 44.4903107,193.716317 C43.4353859,193.30352 42.5868593,192.684325 41.8988648,191.904598 C41.2108703,191.101938 40.6834079,190.138746 40.3394106,189.015021 C40.0183465,187.891297 39.8348813,186.60704 39.8348813,185.162252 C39.8348813,183.786263 40.0183465,182.502007 40.3852769,181.355349 C40.7292742,180.185759 41.2796698,179.1767 41.9905974,178.328173 C42.7244582,177.479647 43.618851,176.837519 44.6967091,176.378856 C45.7745671,175.897259 47.0358904,175.667928 48.4806788,175.667928 C49.879601,175.667928 51.0950579,175.874326 52.1270497,176.310056 C53.1819745,176.722853 54.0305011,177.319115 54.7184956,178.098842 C55.4064901,178.901502 55.9339525,179.864694 56.2779498,180.988419 C56.621947,182.135076 56.8054122,183.396399 56.8054122,184.818255 Z M53.5489049,185.024653 C53.5489049,184.107327 53.4571723,183.235867 53.2966403,182.410274 C53.1361082,181.607614 52.8379773,180.873753 52.4481137,180.254558 C52.0582502,179.658296 51.5307878,179.153767 50.8657264,178.80977 C50.2006651,178.442839 49.3521385,178.259374 48.3660131,178.259374 C47.4486871,178.259374 46.6460268,178.419906 45.9809655,178.74097 C45.3159041,179.084967 44.7884417,179.54363 44.3527118,180.139892 C43.916982,180.736154 43.5959179,181.447082 43.3895196,182.272675 C43.1831212,183.075335 43.0913886,183.969728 43.0913886,184.955854 C43.0913886,185.87318 43.1601881,186.744639 43.3436533,187.570233 C43.5041853,188.395826 43.8023162,189.106754 44.1921798,189.725949 C44.5820433,190.322211 45.1324389,190.803807 45.7975003,191.170737 C46.4625616,191.514735 47.288155,191.6982 48.2972136,191.6982 C49.1916065,191.6982 49.9942667,191.537668 50.6593281,191.216604 C51.3243894,190.89554 51.874785,190.436877 52.3105148,189.840615 C52.7233115,189.244353 53.0443756,188.533425 53.250774,187.730765 C53.4571723,186.905171 53.5489049,186.010779 53.5489049,185.024653 Z M65.336544,178.649237 L65.336544,193.509919 C65.336544,193.624584 65.3136108,193.693384 65.2677445,193.762183 C65.2218782,193.830983 65.1301456,193.899782 65.0154799,193.945648 C64.9008141,193.991515 64.7402821,194.037381 64.5338837,194.060314 C64.3274854,194.083247 64.0752207,194.10618 63.7770898,194.10618 C63.4789588,194.10618 63.2266942,194.083247 63.0202958,194.060314 C62.8368306,194.037381 62.6762986,193.991515 62.5386997,193.945648 C62.4240339,193.899782 62.3552345,193.830983 62.286435,193.762183 C62.2405687,193.693384 62.2176356,193.624584 62.2176356,193.509919 L62.2176356,178.649237 L59.8096549,178.649237 C59.6032565,178.649237 59.4656576,178.557505 59.3509919,178.351107 C59.2592593,178.144708 59.213393,177.823644 59.213393,177.364981 C59.213393,177.112716 59.213393,176.929251 59.2363261,176.768719 C59.2592593,176.585254 59.3051256,176.470588 59.3509919,176.355922 C59.3968582,176.241257 59.4656576,176.172457 59.5344571,176.126591 C59.6261897,176.080725 59.7179223,176.057792 59.8096549,176.057792 L62.2176356,176.057792 L62.2176356,174.314872 C62.2176356,173.122348 62.3323013,172.090357 62.5386997,171.24183 C62.7680312,170.393304 63.0890953,169.705309 63.5477583,169.154913 C63.9834881,168.604518 64.5568169,168.214654 65.2448114,167.939456 C65.9328059,167.687192 66.7354661,167.572526 67.6757253,167.572526 C68.1343883,167.572526 68.5930513,167.618392 69.0287811,167.710125 C69.464511,167.801858 69.785575,167.89359 69.9690402,167.96239 C70.1754386,168.054122 70.2901043,168.122922 70.3818369,168.214654 C70.4506364,168.283454 70.4965027,168.375186 70.542369,168.489852 C70.5882353,168.627451 70.6341016,168.76505 70.6570347,168.925582 C70.6570347,169.109047 70.6799679,169.315445 70.6799679,169.544777 C70.6799679,169.774108 70.6570347,169.980507 70.6570347,170.118106 C70.6341016,170.278638 70.5882353,170.393304 70.5653021,170.485036 C70.5194358,170.553836 70.4735695,170.622635 70.4277032,170.645568 C70.3818369,170.691434 70.3130375,170.691434 70.2671712,170.691434 C70.1525054,170.691434 70.0378397,170.668501 69.9231739,170.622635 C69.785575,170.553836 69.6479761,170.485036 69.4415778,170.416237 C69.2581126,170.347437 69.0287811,170.301571 68.7765165,170.232771 C68.5242518,170.186905 68.2261209,170.141039 67.8821236,170.141039 C67.4005275,170.141039 67.0106639,170.232771 66.6895998,170.37037 C66.3685357,170.530902 66.1162711,170.760234 65.9098727,171.081298 C65.7034744,171.425295 65.5658755,171.815159 65.4741429,172.342621 C65.3594771,172.847151 65.336544,173.466346 65.336544,174.200206 L65.336544,176.057792 L72.996216,176.057792 L72.996216,171.998624 C72.996216,171.906891 73.0191492,171.815159 73.0650155,171.746359 C73.1108818,171.67756 73.2026144,171.60876 73.3172801,171.539961 C73.4319459,171.494095 73.5924779,171.448228 73.7988763,171.425295 C73.9823415,171.402362 74.2575393,171.379429 74.5786034,171.379429 C74.8767343,171.379429 75.128999,171.402362 75.3124642,171.425295 C75.5188625,171.448228 75.6793946,171.494095 75.7940603,171.539961 C75.9087261,171.60876 76.0004587,171.67756 76.046325,171.746359 C76.0921913,171.815159 76.1151244,171.906891 76.1151244,171.998624 L76.1151244,176.057792 L80.4265566,176.057792 C80.5412223,176.057792 80.6100218,176.080725 80.7017544,176.126591 C80.7705538,176.172457 80.8393533,176.241257 80.9081527,176.355922 C80.954019,176.470588 80.9769522,176.585254 81.0228185,176.768719 C81.0457516,176.929251 81.0686848,177.112716 81.0686848,177.364981 C81.0686848,177.823644 80.9998853,178.144708 80.9081527,178.351107 C80.7705538,178.557505 80.6329549,178.649237 80.4494897,178.649237 L76.1151244,178.649237 L76.1151244,188.097695 C76.1151244,189.267286 76.2985896,190.138746 76.6196537,190.735007 C76.963651,191.331269 77.582846,191.6294 78.4772388,191.6294 C78.7524366,191.6294 79.0047013,191.606467 79.2340328,191.537668 C79.4633643,191.491801 79.6697626,191.423002 79.8532278,191.354202 C80.0137599,191.308336 80.1742919,191.239537 80.3118908,191.19367 C80.4494897,191.124871 80.5412223,191.101938 80.6329549,191.101938 C80.7017544,191.101938 80.7705538,191.101938 80.8164201,191.147804 C80.8622864,191.170737 80.9081527,191.239537 80.9310859,191.331269 C80.9769522,191.423002 80.9998853,191.537668 81.0228185,191.675267 C81.0457516,191.835799 81.0686848,192.019264 81.0686848,192.248595 C81.0686848,192.615526 81.0457516,192.913657 80.9769522,193.120055 C80.9310859,193.326453 80.8393533,193.486985 80.7476207,193.578718 C80.6558881,193.693384 80.495356,193.785116 80.3118908,193.876849 C80.1284256,193.968582 79.8990941,194.037381 79.6468295,194.083247 C79.3945648,194.152047 79.119367,194.197913 78.8212361,194.243779 C78.5231051,194.266713 78.2479074,194.289646 77.9727096,194.289646 C77.0783167,194.289646 76.2985896,194.17498 75.6793946,193.945648 C75.0601995,193.716317 74.5327371,193.349387 74.1428735,192.890724 C73.7300768,192.409127 73.454879,191.812865 73.2714138,191.101938 C73.0879486,190.368077 72.996216,189.519551 72.996216,188.556358 L72.996216,178.649237 L65.336544,178.649237 Z M99.2088063,184.290792 C99.2088063,184.772388 99.0941406,185.116386 98.8418759,185.322784 C98.6125444,185.529182 98.3144135,185.643848 98.0162825,185.643848 L86.8478386,185.643848 C86.8478386,186.584107 86.9625043,187.432634 87.1459695,188.189428 C87.3294347,188.946222 87.6504988,189.58835 88.0862286,190.138746 C88.5219585,190.689141 89.0952872,191.101938 89.8062149,191.377136 C90.5171425,191.675267 91.3656691,191.812865 92.3976608,191.812865 C93.2003211,191.812865 93.9112487,191.744066 94.5304438,191.6294 C95.172572,191.491801 95.7229675,191.354202 96.1816305,191.19367 C96.6402935,191.010205 97.0072239,190.872606 97.3053549,190.735007 C97.6034858,190.620342 97.8098842,190.551542 97.9704162,190.551542 C98.0621488,190.551542 98.1309483,190.574475 98.2226809,190.620342 C98.2685472,190.643275 98.3373466,190.712074 98.3602798,190.803807 C98.4061461,190.89554 98.4290792,191.010205 98.4520124,191.170737 C98.4749455,191.331269 98.4749455,191.514735 98.4749455,191.744066 L98.4749455,192.156863 C98.4520124,192.294462 98.4290792,192.386194 98.4290792,192.477927 C98.4061461,192.569659 98.3602798,192.661392 98.3144135,192.730191 C98.2685472,192.821924 98.2226809,192.890724 98.1538814,192.959523 C98.085082,193.028322 97.8786836,193.142988 97.5346864,193.280587 C97.2136223,193.441119 96.7549593,193.601651 96.2274968,193.762183 C95.6771012,193.899782 95.0579062,194.037381 94.3469786,194.152047 C93.6360509,194.266713 92.879257,194.335512 92.0765967,194.335512 C90.6776746,194.335512 89.4622176,194.129114 88.4302259,193.73925 C87.375301,193.349387 86.4809082,192.776058 85.7699805,192.019264 C85.0590529,191.239537 84.5315904,190.276344 84.16466,189.129687 C83.7977296,187.960096 83.6142644,186.629974 83.6142644,185.093453 C83.6142644,183.625731 83.7977296,182.318541 84.1875932,181.148951 C84.5545236,180.002293 85.1049192,178.993235 85.8158468,178.190574 C86.5267745,177.387914 87.375301,176.768719 88.3843596,176.332989 C89.3934182,175.897259 90.5171425,175.667928 91.7555326,175.667928 C93.0856553,175.667928 94.2323128,175.897259 95.1496388,176.310056 C96.0898979,176.745786 96.869625,177.319115 97.4658869,178.052976 C98.0621488,178.763903 98.4978787,179.61243 98.7960096,180.598555 C99.0712074,181.561748 99.2088063,182.616672 99.2088063,183.717464 L99.2088063,184.290792 Z M96.0898979,183.350533 C96.1357642,181.72228 95.7688338,180.438023 95.0120399,179.497764 C94.2323128,178.580438 93.1085885,178.098842 91.6179337,178.098842 C90.8382066,178.098842 90.1502121,178.259374 89.5768834,178.534572 C89.0035546,178.832703 88.5219585,179.222566 88.1320949,179.704162 C87.7422314,180.185759 87.4211673,180.736154 87.2147689,181.355349 C87.0083706,181.997477 86.8937049,182.662539 86.8478386,183.350533 L96.0898979,183.350533 Z M113.908955,177.640179 C113.908955,177.915377 113.908955,178.144708 113.886022,178.328173 C113.886022,178.511639 113.863089,178.672171 113.817223,178.763903 C113.79429,178.878569 113.72549,178.947368 113.679624,179.016168 C113.633758,179.084967 113.542025,179.1079 113.450292,179.1079 C113.335627,179.1079 113.220961,179.084967 113.083362,179.016168 C112.92283,178.947368 112.762298,178.901502 112.578833,178.855636 C112.418301,178.786836 112.211902,178.74097 111.982571,178.695104 C111.753239,178.626304 111.500975,178.603371 111.24871,178.603371 C110.927646,178.603371 110.606582,178.672171 110.308451,178.786836 C110.01032,178.924435 109.689256,179.130834 109.368192,179.428965 C109.024194,179.727096 108.680197,180.094026 108.313267,180.575622 C107.96927,181.057218 107.556473,181.65348 107.120743,182.341475 L107.120743,193.509919 C107.120743,193.624584 107.09781,193.693384 107.02901,193.762183 C106.983144,193.830983 106.914345,193.899782 106.799679,193.945648 C106.685013,193.991515 106.524481,194.037381 106.318083,194.060314 C106.111684,194.083247 105.85942,194.10618 105.538356,194.10618 C105.240225,194.10618 104.98796,194.083247 104.781562,194.060314 C104.575163,194.037381 104.414631,193.991515 104.299966,193.945648 C104.1853,193.899782 104.093567,193.830983 104.047701,193.762183 C104.001835,193.693384 103.978902,193.624584 103.978902,193.509919 L103.978902,176.539388 C103.978902,176.424722 104.001835,176.355922 104.047701,176.26419 C104.093567,176.218324 104.162367,176.149524 104.277032,176.080725 C104.391698,176.034858 104.529297,175.988992 104.712762,175.966059 C104.873294,175.943126 105.125559,175.943126 105.400757,175.943126 C105.675955,175.943126 105.928219,175.943126 106.088751,175.966059 C106.29515,175.988992 106.432749,176.034858 106.524481,176.080725 C106.616214,176.149524 106.707946,176.218324 106.753813,176.26419 C106.776746,176.355922 106.822612,176.424722 106.822612,176.539388 L106.822612,178.993235 C107.281275,178.328173 107.717005,177.777778 108.129802,177.342048 C108.542598,176.906318 108.909529,176.562321 109.276459,176.332989 C109.64339,176.080725 110.01032,175.920193 110.354317,175.805527 C110.721248,175.713794 111.088178,175.667928 111.455108,175.667928 C111.61564,175.667928 111.799106,175.690861 112.005504,175.690861 C112.211902,175.713794 112.418301,175.759661 112.647632,175.805527 C112.876964,175.851393 113.083362,175.920193 113.266827,175.988992 C113.450292,176.034858 113.564958,176.103658 113.656691,176.172457 C113.72549,176.218324 113.771356,176.287123 113.79429,176.355922 C113.817223,176.401789 113.840156,176.470588 113.863089,176.562321 C113.886022,176.654053 113.908955,176.768719 113.908955,176.952184 L113.908955,177.640179 Z M139.20422,192.569659 C139.20422,192.821924 139.181287,193.028322 139.158353,193.188854 C139.13542,193.37232 139.089554,193.509919 139.043688,193.624584 C138.974888,193.762183 138.906089,193.830983 138.837289,193.899782 C138.745557,193.945648 138.653824,193.991515 138.539158,193.991515 L127.737645,193.991515 C127.439514,193.991515 127.164316,193.876849 126.912051,193.693384 C126.659787,193.486985 126.522188,193.142988 126.522188,192.661392 L126.522188,170.072239 C126.522188,169.957574 126.545121,169.865841 126.61392,169.797042 C126.659787,169.728242 126.751519,169.659443 126.866185,169.613576 C127.003784,169.56771 127.164316,169.544777 127.370714,169.498911 C127.600046,169.475978 127.852311,169.453044 128.150441,169.453044 C128.471506,169.453044 128.72377,169.475978 128.930169,169.498911 C129.136567,169.544777 129.320032,169.56771 129.434698,169.613576 C129.572297,169.659443 129.641096,169.728242 129.686963,169.797042 C129.755762,169.865841 129.778695,169.957574 129.778695,170.072239 L129.778695,191.170737 L138.539158,191.170737 C138.653824,191.170737 138.745557,191.19367 138.837289,191.239537 C138.906089,191.308336 138.974888,191.377136 139.043688,191.491801 C139.089554,191.606467 139.13542,191.744066 139.158353,191.927531 C139.181287,192.088063 139.20422,192.317395 139.20422,192.569659 Z M145.556702,193.509919 C145.556702,193.624584 145.510836,193.693384 145.46497,193.762183 C145.419103,193.830983 145.350304,193.899782 145.212705,193.945648 C145.098039,193.991515 144.96044,194.037381 144.754042,194.060314 C144.547644,194.083247 144.295379,194.10618 143.974315,194.10618 C143.676184,194.10618 143.423919,194.083247 143.217521,194.060314 C143.011123,194.037381 142.850591,193.991515 142.735925,193.945648 C142.621259,193.899782 142.529526,193.830983 142.48366,193.762183 C142.437794,193.693384 142.414861,193.624584 142.414861,193.509919 L142.414861,176.539388 C142.414861,176.447655 142.437794,176.355922 142.48366,176.287123 C142.529526,176.218324 142.621259,176.149524 142.735925,176.103658 C142.850591,176.057792 143.011123,176.011925 143.217521,175.988992 C143.423919,175.966059 143.676184,175.943126 143.974315,175.943126 C144.295379,175.943126 144.547644,175.966059 144.754042,175.988992 C144.96044,176.011925 145.098039,176.057792 145.212705,176.103658 C145.350304,176.149524 145.419103,176.218324 145.46497,176.287123 C145.510836,176.355922 145.556702,176.447655 145.556702,176.539388 L145.556702,193.509919 Z M145.900699,170.8061 C145.900699,171.539961 145.763101,172.04449 145.46497,172.296755 C145.189772,172.571953 144.685243,172.709552 143.951382,172.709552 C143.217521,172.709552 142.712992,172.571953 142.437794,172.319688 C142.162596,172.067423 142.024997,171.562894 142.024997,170.851967 C142.024997,170.118106 142.162596,169.613576 142.460727,169.361312 C142.735925,169.086114 143.240454,168.948515 143.974315,168.948515 C144.708176,168.948515 145.212705,169.086114 145.487903,169.338379 C145.763101,169.590643 145.900699,170.095173 145.900699,170.8061 Z M160.096319,192.248595 C160.096319,192.615526 160.050453,192.913657 160.004587,193.120055 C159.95872,193.326453 159.889921,193.486985 159.775255,193.578718 C159.683523,193.693384 159.52299,193.785116 159.339525,193.876849 C159.133127,193.968582 158.903795,194.037381 158.651531,194.083247 C158.399266,194.152047 158.124068,194.197913 157.825937,194.243779 C157.527806,194.266713 157.252609,194.289646 156.954478,194.289646 C156.083018,194.289646 155.326224,194.17498 154.707029,193.945648 C154.087834,193.716317 153.560372,193.349387 153.170508,192.890724 C152.757711,192.409127 152.482513,191.812865 152.276115,191.101938 C152.115583,190.368077 152.02385,189.519551 152.02385,188.556358 L152.02385,178.649237 L149.61587,178.649237 C149.432405,178.649237 149.294806,178.557505 149.18014,178.351107 C149.065474,178.144708 148.996675,177.823644 148.996675,177.364981 C148.996675,177.112716 149.019608,176.929251 149.042541,176.768719 C149.088407,176.585254 149.134274,176.470588 149.18014,176.355922 C149.226006,176.241257 149.294806,176.172457 149.363605,176.126591 C149.455338,176.080725 149.54707,176.057792 149.638803,176.057792 L152.02385,176.057792 L152.02385,172.021557 C152.02385,171.952758 152.02385,171.861025 152.069717,171.792226 C152.115583,171.700493 152.207316,171.654627 152.321981,171.585827 C152.436647,171.539961 152.597179,171.494095 152.803578,171.471162 C153.009976,171.448228 153.262241,171.425295 153.583305,171.425295 C153.881436,171.425295 154.156633,171.448228 154.340099,171.471162 C154.546497,171.494095 154.707029,171.539961 154.821695,171.585827 C154.936361,171.654627 155.00516,171.700493 155.073959,171.792226 C155.119826,171.861025 155.142759,171.952758 155.142759,172.021557 L155.142759,176.057792 L159.477124,176.057792 C159.568857,176.057792 159.660589,176.080725 159.729389,176.126591 C159.798188,176.172457 159.866988,176.241257 159.935787,176.355922 C159.981653,176.470588 160.02752,176.585254 160.050453,176.768719 C160.073386,176.929251 160.096319,177.112716 160.096319,177.364981 C160.096319,177.823644 160.02752,178.144708 159.912854,178.351107 C159.798188,178.557505 159.660589,178.649237 159.477124,178.649237 L155.142759,178.649237 L155.142759,188.097695 C155.142759,189.267286 155.326224,190.138746 155.647288,190.735007 C155.991285,191.331269 156.61048,191.6294 157.504873,191.6294 C157.780071,191.6294 158.055269,191.606467 158.261667,191.537668 C158.490999,191.491801 158.697397,191.423002 158.880862,191.354202 C159.041394,191.308336 159.201926,191.239537 159.316592,191.19367 C159.454191,191.124871 159.568857,191.101938 159.660589,191.101938 C159.729389,191.101938 159.775255,191.101938 159.844055,191.147804 C159.889921,191.170737 159.935787,191.239537 159.95872,191.331269 C160.004587,191.423002 160.02752,191.537668 160.050453,191.675267 C160.073386,191.835799 160.096319,192.019264 160.096319,192.248595 Z M178.236441,184.290792 C178.236441,184.772388 178.121775,185.116386 177.86951,185.322784 C177.640179,185.529182 177.342048,185.643848 177.043917,185.643848 L165.898406,185.643848 C165.898406,186.584107 165.990139,187.432634 166.173604,188.189428 C166.357069,188.946222 166.678133,189.58835 167.113863,190.138746 C167.549593,190.689141 168.122922,191.101938 168.833849,191.377136 C169.544777,191.675267 170.393304,191.812865 171.425295,191.812865 C172.227956,191.812865 172.938883,191.744066 173.558078,191.6294 C174.200206,191.491801 174.750602,191.354202 175.209265,191.19367 C175.667928,191.010205 176.034858,190.872606 176.332989,190.735007 C176.63112,190.620342 176.860452,190.551542 176.998051,190.551542 C177.089783,190.551542 177.181516,190.574475 177.250315,190.620342 C177.296182,190.643275 177.364981,190.712074 177.387914,190.803807 C177.433781,190.89554 177.456714,191.010205 177.479647,191.170737 C177.50258,191.331269 177.50258,191.514735 177.50258,191.744066 L177.50258,192.156863 C177.479647,192.294462 177.456714,192.386194 177.456714,192.477927 C177.433781,192.569659 177.387914,192.661392 177.342048,192.730191 C177.296182,192.821924 177.250315,192.890724 177.181516,192.959523 C177.112716,193.028322 176.906318,193.142988 176.562321,193.280587 C176.241257,193.441119 175.782594,193.601651 175.255131,193.762183 C174.704736,193.899782 174.085541,194.037381 173.374613,194.152047 C172.663685,194.266713 171.929825,194.335512 171.104231,194.335512 C169.728242,194.335512 168.489852,194.129114 167.45786,193.73925 C166.402935,193.349387 165.531476,192.776058 164.797615,192.019264 C164.086687,191.239537 163.559225,190.276344 163.192294,189.129687 C162.825364,187.960096 162.641899,186.629974 162.641899,185.093453 C162.641899,183.625731 162.825364,182.318541 163.215228,181.148951 C163.582158,180.002293 164.132554,178.993235 164.843481,178.190574 C165.554409,177.387914 166.402935,176.768719 167.411994,176.332989 C168.421053,175.897259 169.544777,175.667928 170.783167,175.667928 C172.11329,175.667928 173.259947,175.897259 174.177273,176.310056 C175.117532,176.745786 175.897259,177.319115 176.493521,178.052976 C177.089783,178.763903 177.548446,179.61243 177.823644,180.598555 C178.098842,181.561748 178.236441,182.616672 178.236441,183.717464 L178.236441,184.290792 Z M175.117532,183.350533 C175.163399,181.72228 174.796468,180.438023 174.039674,179.497764 C173.259947,178.580438 172.136223,178.098842 170.645568,178.098842 C169.865841,178.098842 169.20078,178.259374 168.604518,178.534572 C168.031189,178.832703 167.549593,179.222566 167.159729,179.704162 C166.769866,180.185759 166.448802,180.736154 166.242403,181.355349 C166.036005,181.997477 165.921339,182.662539 165.898406,183.350533 L175.117532,183.350533 Z" id="Shape" fill="#FEFEFE"></path>
                    <path d="M33.1613347,211.810572 C33.1384016,211.879372 33.0925353,211.948171 33.046669,212.016971 C33.0008027,212.062837 32.9320032,212.108703 32.8402706,212.131636 C32.748538,212.154569 32.6338723,212.177503 32.5192065,212.200436 C32.3816076,212.200436 32.2210756,212.223369 32.0376104,212.223369 C31.8541452,212.223369 31.6936131,212.200436 31.5560142,212.200436 C31.4184153,212.177503 31.3037496,212.154569 31.212017,212.131636 C31.1432175,212.108703 31.0744181,212.062837 31.0285518,212.016971 C30.9826855,211.948171 30.9597523,211.879372 30.9368192,211.810572 L28.3912395,202.683179 L28.3912395,202.683179 L26.0520583,211.810572 C26.0291251,211.879372 26.006192,211.948171 25.9603257,212.016971 C25.9144594,212.062837 25.8456599,212.108703 25.7768605,212.131636 C25.6851279,212.154569 25.5933953,212.177503 25.4557964,212.200436 C25.3181975,212.200436 25.1576654,212.223369 24.9742002,212.223369 C24.7678019,212.223369 24.5843367,212.200436 24.4467378,212.200436 C24.3091389,212.177503 24.1944731,212.154569 24.1256737,212.131636 C24.0339411,212.108703 23.9651416,212.062837 23.9192753,212.016971 C23.873409,211.948171 23.8275427,211.879372 23.8275427,211.810572 L20.6398349,200.642128 C20.5939686,200.504529 20.5710354,200.389864 20.5710354,200.321064 C20.5710354,200.229331 20.5939686,200.183465 20.6398349,200.137599 C20.7086343,200.091733 20.7774338,200.068799 20.8920995,200.045866 C21.0296984,200.045866 21.1672973,200.022933 21.3736957,200.022933 C21.580094,200.022933 21.7176929,200.022933 21.8323587,200.045866 C21.9470244,200.045866 22.038757,200.068799 22.0846233,200.091733 C22.1534228,200.114666 22.1992891,200.160532 22.2222222,200.206398 C22.2451554,200.229331 22.2451554,200.298131 22.2680885,200.36693 L24.9742002,210.480449 L24.9742002,210.480449 L27.5656461,200.389864 C27.5885793,200.321064 27.6115124,200.252265 27.6344456,200.206398 C27.6573787,200.160532 27.703245,200.137599 27.7720445,200.091733 C27.8179108,200.091733 27.9096434,200.068799 28.0243091,200.045866 C28.1389749,200.045866 28.2995069,200.022933 28.4829721,200.022933 C28.6664373,200.022933 28.8040362,200.045866 28.8957688,200.045866 C29.0104346,200.068799 29.079234,200.091733 29.1480335,200.091733 C29.2168329,200.137599 29.2626992,200.160532 29.2856324,200.206398 C29.3085655,200.252265 29.3314987,200.321064 29.3544318,200.389864 L32.129343,210.480449 L32.129343,210.480449 L34.7895883,200.36693 C34.8125215,200.321064 34.8354546,200.252265 34.8583878,200.206398 C34.8583878,200.160532 34.9042541,200.137599 34.9730535,200.091733 C35.0189198,200.091733 35.1106524,200.068799 35.2253182,200.045866 C35.3170508,200.045866 35.4775828,200.022933 35.661048,200.022933 C35.8445132,200.022933 35.9821121,200.045866 36.0967779,200.045866 C36.2114436,200.068799 36.2802431,200.091733 36.3261094,200.137599 C36.3719757,200.183465 36.417842,200.252265 36.3949088,200.321064 C36.3949088,200.412797 36.3719757,200.527462 36.3490425,200.665061 L33.1613347,211.810572 Z M40.2018117,211.902305 C40.2018117,211.971104 40.1788786,212.016971 40.1559454,212.039904 C40.1330123,212.08577 40.087146,212.108703 40.0183465,212.131636 C39.9724802,212.154569 39.8807476,212.177503 39.789015,212.200436 C39.6743493,212.200436 39.5367504,212.223369 39.3991515,212.223369 C39.2386194,212.223369 39.1239537,212.200436 39.0092879,212.200436 C38.8946222,212.177503 38.8258227,212.154569 38.7570233,212.131636 C38.6882238,212.108703 38.6423575,212.08577 38.6194244,212.039904 C38.5964912,212.016971 38.5964912,211.971104 38.5964912,211.902305 L38.5964912,200.321064 C38.5964912,200.275198 38.5964912,200.229331 38.6423575,200.206398 C38.6652907,200.160532 38.711157,200.137599 38.7799564,200.114666 C38.8487559,200.091733 38.9175553,200.068799 39.0322211,200.045866 C39.1239537,200.045866 39.2386194,200.022933 39.3991515,200.022933 C39.5367504,200.022933 39.6743493,200.045866 39.789015,200.045866 C39.8807476,200.068799 39.9724802,200.091733 40.0183465,200.114666 C40.087146,200.137599 40.1330123,200.160532 40.1559454,200.206398 C40.1788786,200.229331 40.2018117,200.275198 40.2018117,200.321064 L40.2018117,211.902305 Z M52.5398463,211.489508 C52.5398463,211.604174 52.5169132,211.71884 52.4710469,211.810572 C52.4251806,211.879372 52.3793143,211.971104 52.3105148,212.016971 C52.2417154,212.062837 52.1499828,212.108703 52.0811834,212.131636 C51.9894508,212.154569 51.8977182,212.177503 51.8289187,212.177503 L51.3014563,212.177503 C51.1179911,212.177503 50.9803922,212.154569 50.8657264,212.131636 C50.7281275,212.08577 50.6134618,212.016971 50.498796,211.948171 C50.3841303,211.856438 50.2694645,211.71884 50.1547988,211.581241 C50.040133,211.420709 49.9254673,211.21431 49.8108015,210.984979 L46.1185644,204.105034 C45.912166,203.761037 45.7287008,203.394106 45.5452356,203.004243 C45.3388373,202.614379 45.1553721,202.224516 44.99484,201.880518 L44.9719069,201.880518 C44.9719069,202.316248 44.99484,202.774911 44.99484,203.233574 L44.99484,204.632496 L44.99484,211.902305 C44.99484,211.948171 44.99484,211.994037 44.9719069,212.039904 C44.9489737,212.08577 44.9031074,212.108703 44.834308,212.131636 C44.7655085,212.154569 44.6967091,212.177503 44.5820433,212.200436 C44.4903107,212.200436 44.3527118,212.223369 44.1921798,212.223369 C44.0316477,212.223369 43.916982,212.200436 43.8023162,212.200436 C43.7105836,212.177503 43.618851,212.154569 43.5729847,212.131636 C43.5041853,212.108703 43.458319,212.08577 43.4353859,212.039904 C43.4124527,211.994037 43.4124527,211.948171 43.4124527,211.902305 L43.4124527,200.779727 C43.4124527,200.527462 43.4812521,200.343997 43.618851,200.252265 C43.7564499,200.137599 43.916982,200.091733 44.077514,200.091733 L44.8572411,200.091733 C45.0407063,200.091733 45.2012384,200.091733 45.3388373,200.137599 C45.453503,200.160532 45.5681688,200.206398 45.6599014,200.298131 C45.7745671,200.36693 45.8662997,200.458663 45.9580323,200.596262 C46.0497649,200.710928 46.1414975,200.87146 46.2561633,201.077858 L49.0769407,206.352483 C49.2604059,206.69648 49.420938,206.994611 49.58147,207.315675 C49.7420021,207.613806 49.9025341,207.911937 50.0630662,208.233001 C50.2006651,208.508199 50.3611971,208.80633 50.498796,209.10446 C50.6593281,209.379658 50.796927,209.677789 50.9345259,209.97592 L50.957459,209.97592 C50.9345259,209.471391 50.9345259,208.966862 50.9345259,208.439399 L50.9345259,206.902878 L50.9345259,200.36693 C50.9345259,200.321064 50.9345259,200.275198 50.957459,200.252265 C51.0033253,200.206398 51.0262585,200.183465 51.0950579,200.137599 C51.1638574,200.114666 51.2326568,200.091733 51.3473226,200.091733 C51.4390552,200.068799 51.5766541,200.068799 51.7371861,200.068799 C51.8977182,200.068799 52.0123839,200.068799 52.1270497,200.091733 C52.2187822,200.091733 52.3105148,200.114666 52.3563811,200.137599 C52.4251806,200.183465 52.4710469,200.206398 52.49398,200.252265 C52.5169132,200.275198 52.5398463,200.321064 52.5398463,200.36693 L52.5398463,211.489508 Z M65.0154799,205.939686 C65.0154799,206.994611 64.877881,207.889004 64.6026832,208.668731 C64.3504185,209.471391 63.9376218,210.113519 63.4330925,210.618048 C62.9285632,211.122578 62.286435,211.512441 61.5525742,211.764706 C60.7957803,212.016971 59.9243206,212.154569 58.8923289,212.154569 L56.3238161,212.154569 C56.1862172,212.154569 56.0486183,212.108703 55.9110194,212.016971 C55.7963536,211.902305 55.7275542,211.741773 55.7275542,211.512441 L55.7275542,200.733861 C55.7275542,200.504529 55.7963536,200.321064 55.9110194,200.229331 C56.0486183,200.137599 56.1862172,200.091733 56.3238161,200.091733 L59.0528609,200.091733 C60.1077858,200.091733 60.9792455,200.229331 61.7131063,200.481596 C62.4240339,200.756794 63.043229,201.146657 63.5248251,201.651187 C64.0064213,202.155716 64.3733517,202.774911 64.6256163,203.508772 C64.877881,204.2197 65.0154799,205.045293 65.0154799,205.939686 Z M63.3184268,206.008485 C63.3184268,205.366357 63.2496273,204.747162 63.0890953,204.196766 C62.9285632,203.623438 62.6762986,203.141842 62.3323013,202.729045 C61.9883041,202.316248 61.5525742,201.995184 61.0021786,201.765853 C60.4747162,201.536521 59.8096549,201.421855 58.9611283,201.421855 L57.3328747,201.421855 L57.3328747,210.824447 L58.9840615,210.824447 C59.7637886,210.824447 60.4059168,210.732714 60.9333792,210.526316 C61.4608416,210.342851 61.9195046,210.04472 62.2635019,209.654856 C62.6074991,209.242059 62.8826969,208.73753 63.0661621,208.141268 C63.2496273,207.545006 63.3184268,206.834079 63.3184268,206.008485 Z M77.582846,205.985552 C77.582846,206.948744 77.4681803,207.843137 77.2388488,208.622864 C77.0095173,209.402591 76.66552,210.067653 76.206857,210.618048 C75.748194,211.168444 75.1748653,211.581241 74.4868708,211.879372 C73.7988763,212.177503 72.9732829,212.338035 72.0559569,212.338035 C71.161564,212.338035 70.3818369,212.200436 69.7167756,211.925238 C69.0517143,211.65004 68.5013187,211.260177 68.0655888,210.732714 C67.629859,210.228185 67.3087949,209.586057 67.1023965,208.829263 C66.8959982,208.049536 66.7813324,207.178076 66.7813324,206.19195 C66.7813324,205.228758 66.8959982,204.380232 67.1253297,203.600505 C67.3546612,202.820777 67.6986584,202.155716 68.1802546,201.60532 C68.6159844,201.077858 69.2122463,200.642128 69.9002408,200.36693 C70.5882353,200.068799 71.3908955,199.908267 72.3082215,199.908267 C73.2026144,199.908267 73.9594083,200.045866 74.6244697,200.321064 C75.289531,200.573329 75.8399266,200.963192 76.2756565,201.490655 C76.7113863,201.995184 77.0324504,202.637312 77.2617819,203.394106 C77.4681803,204.1509 77.582846,204.999427 77.582846,205.985552 Z M75.8857929,206.100218 C75.8857929,205.412223 75.8169935,204.770095 75.7023277,204.196766 C75.5647288,203.600505 75.3812636,203.095975 75.0831327,202.660245 C74.8079349,202.224516 74.4410045,201.903451 73.9594083,201.651187 C73.4778122,201.421855 72.9044834,201.284256 72.2164889,201.284256 C71.5055613,201.284256 70.9322325,201.421855 70.4506364,201.67412 C69.9919734,201.949318 69.6021098,202.293315 69.3039789,202.729045 C69.005848,203.164775 68.7994496,203.669304 68.6847839,204.242633 C68.547185,204.815961 68.4783855,205.435157 68.4783855,206.077285 C68.4783855,206.788212 68.547185,207.430341 68.6618507,208.026602 C68.7765165,208.622864 68.9829148,209.127394 69.2581126,209.563123 C69.5333104,209.998853 69.9231739,210.342851 70.3818369,210.572182 C70.8404999,210.801514 71.4367618,210.939112 72.1476895,210.939112 C72.8586171,210.939112 73.4319459,210.801514 73.913542,210.549249 C74.3951382,210.274051 74.7850017,209.930054 75.0601995,209.494324 C75.3583305,209.035661 75.5647288,208.531132 75.7023277,207.93487 C75.8169935,207.361541 75.8857929,206.742346 75.8857929,206.100218 Z M91.4574017,211.810572 C91.4344685,211.879372 91.4115354,211.948171 91.3427359,212.016971 C91.2968696,212.062837 91.2280702,212.108703 91.1363376,212.131636 C91.0675381,212.154569 90.9528724,212.177503 90.8152735,212.200436 C90.7006077,212.200436 90.5400757,212.223369 90.3566105,212.223369 C90.1731453,212.223369 89.9896801,212.200436 89.8750143,212.200436 C89.7374154,212.177503 89.6227497,212.154569 89.5310171,212.131636 C89.4392845,212.108703 89.3934182,212.062837 89.3475519,212.016971 C89.3016856,211.948171 89.2558193,211.879372 89.2328861,211.810572 L86.7102397,202.683179 L86.6873065,202.683179 L84.3481252,211.810572 C84.3481252,211.879372 84.3022589,211.948171 84.2563926,212.016971 C84.2105263,212.062837 84.16466,212.108703 84.0729274,212.131636 C84.004128,212.154569 83.8894622,212.177503 83.7747965,212.200436 C83.6371976,212.200436 83.4766655,212.223369 83.2702672,212.223369 C83.0638688,212.223369 82.9033368,212.200436 82.7657379,212.200436 C82.628139,212.177503 82.5134732,212.154569 82.4217406,212.131636 C82.3529412,212.108703 82.2841417,212.062837 82.2382754,212.016971 C82.1924091,211.948171 82.1465428,211.879372 82.1236097,211.810572 L78.9359018,200.642128 C78.9129687,200.504529 78.8900355,200.389864 78.8900355,200.321064 C78.8671024,200.229331 78.9129687,200.183465 78.958835,200.137599 C79.0047013,200.091733 79.0964339,200.068799 79.2110996,200.045866 C79.3257654,200.045866 79.4862974,200.022933 79.6926958,200.022933 C79.876161,200.022933 80.036693,200.022933 80.1513588,200.045866 C80.2660245,200.045866 80.334824,200.068799 80.4036234,200.091733 C80.4494897,200.114666 80.495356,200.160532 80.5182892,200.206398 C80.5412223,200.229331 80.5641555,200.298131 80.5641555,200.36693 L83.2932003,210.480449 L83.2932003,210.480449 L85.8617131,200.389864 C85.8846463,200.321064 85.9075794,200.252265 85.9305126,200.206398 C85.9763789,200.160532 86.0222452,200.137599 86.0681115,200.091733 C86.1369109,200.091733 86.2286435,200.068799 86.3433093,200.045866 C86.457975,200.045866 86.5955739,200.022933 86.8019723,200.022933 C86.9625043,200.022933 87.1001032,200.045866 87.2147689,200.045866 C87.3065015,200.068799 87.3982341,200.091733 87.4441004,200.091733 C87.5128999,200.137599 87.5587662,200.160532 87.5816993,200.206398 C87.6275656,200.252265 87.6504988,200.321064 87.6734319,200.389864 L90.4254099,210.480449 L90.4483431,210.480449 L93.1085885,200.36693 C93.1315216,200.321064 93.1315216,200.252265 93.1544548,200.206398 C93.1773879,200.160532 93.2232542,200.137599 93.2691205,200.091733 C93.33792,200.091733 93.4296526,200.068799 93.5213852,200.045866 C93.6360509,200.045866 93.7736498,200.022933 93.957115,200.022933 C94.1405802,200.022933 94.3011123,200.045866 94.415778,200.045866 C94.5075106,200.068799 94.5992432,200.091733 94.6451095,200.137599 C94.6909758,200.183465 94.713909,200.252265 94.713909,200.321064 C94.713909,200.412797 94.6909758,200.527462 94.6680427,200.665061 L91.4574017,211.810572 Z M109.276459,210.457516 L109.276459,210.709781 C109.253526,210.77858 109.253526,210.84738 109.230593,210.916179 C109.20766,210.962046 109.20766,211.007912 109.184727,211.053778 C109.13886,211.099645 109.092994,211.145511 109.047128,211.21431 C108.978328,211.28311 108.840729,211.374842 108.657264,211.512441 C108.450866,211.627107 108.198601,211.764706 107.90047,211.879372 C107.602339,211.994037 107.281275,212.108703 106.891412,212.177503 C106.501548,212.269235 106.088751,212.315101 105.630088,212.315101 C104.850361,212.315101 104.139434,212.177503 103.520239,211.925238 C102.87811,211.65004 102.350648,211.260177 101.891985,210.755647 C101.456255,210.251118 101.112258,209.60899 100.859993,208.875129 C100.630662,208.118335 100.515996,207.246875 100.515996,206.283683 C100.515996,205.274624 100.630662,204.380232 100.905859,203.600505 C101.158124,202.820777 101.525054,202.155716 101.983717,201.60532 C102.465314,201.054925 103.015709,200.642128 103.657837,200.36693 C104.322899,200.068799 105.033826,199.931201 105.836487,199.931201 C106.180484,199.931201 106.524481,199.977067 106.845545,200.022933 C107.166609,200.091733 107.487673,200.183465 107.762871,200.275198 C108.038069,200.36693 108.290334,200.481596 108.496732,200.619195 C108.726064,200.756794 108.886596,200.848527 108.955395,200.940259 C109.047128,201.009059 109.092994,201.077858 109.115927,201.123724 C109.161793,201.169591 109.161793,201.215457 109.184727,201.284256 C109.20766,201.330123 109.20766,201.421855 109.230593,201.490655 L109.230593,201.788786 C109.230593,201.903451 109.230593,202.018117 109.20766,202.10985 C109.20766,202.178649 109.184727,202.270382 109.161793,202.316248 C109.13886,202.385048 109.115927,202.430914 109.070061,202.453847 C109.047128,202.47678 109.001261,202.499713 108.955395,202.499713 C108.863662,202.499713 108.726064,202.430914 108.588465,202.316248 C108.427933,202.201582 108.221534,202.063983 107.96927,201.903451 C107.717005,201.765853 107.418874,201.628254 107.074877,201.513588 C106.707946,201.398922 106.29515,201.330123 105.79062,201.330123 C105.263158,201.330123 104.758629,201.444788 104.322899,201.651187 C103.887169,201.857585 103.497305,202.178649 103.199174,202.591446 C102.87811,203.004243 102.648779,203.531705 102.465314,204.127967 C102.304782,204.724229 102.213049,205.412223 102.213049,206.19195 C102.213049,206.948744 102.281848,207.636739 102.465314,208.210068 C102.625846,208.80633 102.855177,209.310859 103.176241,209.700722 C103.474372,210.090586 103.864236,210.388717 104.299966,210.595115 C104.758629,210.801514 105.263158,210.893246 105.836487,210.893246 C106.318083,210.893246 106.753813,210.824447 107.09781,210.709781 C107.46474,210.595115 107.762871,210.457516 108.015136,210.319917 C108.267401,210.182319 108.473799,210.04472 108.634331,209.930054 C108.817796,209.815388 108.932462,209.746589 109.024194,209.746589 C109.070061,209.746589 109.115927,209.769522 109.13886,209.769522 C109.184727,209.792455 109.20766,209.838321 109.20766,209.884188 C109.230593,209.930054 109.253526,209.998853 109.253526,210.113519 C109.276459,210.205252 109.276459,210.319917 109.276459,210.457516 Z M121.339296,205.985552 C121.339296,206.948744 121.22463,207.843137 120.995299,208.622864 C120.765967,209.402591 120.42197,210.067653 119.963307,210.618048 C119.504644,211.168444 118.931315,211.581241 118.243321,211.879372 C117.532393,212.177503 116.729733,212.338035 115.812407,212.338035 C114.918014,212.338035 114.138287,212.200436 113.473226,211.925238 C112.808164,211.65004 112.257769,211.260177 111.822039,210.732714 C111.386309,210.228185 111.065245,209.586057 110.858846,208.829263 C110.652448,208.049536 110.537782,207.178076 110.537782,206.19195 C110.537782,205.228758 110.652448,204.380232 110.88178,203.600505 C111.111111,202.820777 111.455108,202.155716 111.913771,201.60532 C112.372434,201.077858 112.968696,200.642128 113.656691,200.36693 C114.344685,200.068799 115.147345,199.908267 116.064671,199.908267 C116.959064,199.908267 117.715858,200.045866 118.38092,200.321064 C119.045981,200.573329 119.596377,200.963192 120.032106,201.490655 C120.467836,201.995184 120.7889,202.637312 121.018232,203.394106 C121.22463,204.1509 121.339296,204.999427 121.339296,205.985552 Z M119.642243,206.100218 C119.642243,205.412223 119.573443,204.770095 119.458778,204.196766 C119.321179,203.600505 119.137714,203.095975 118.839583,202.660245 C118.564385,202.224516 118.197454,201.903451 117.715858,201.651187 C117.234262,201.421855 116.660933,201.284256 115.972939,201.284256 C115.262011,201.284256 114.688682,201.421855 114.207086,201.67412 C113.748423,201.949318 113.35856,202.293315 113.060429,202.729045 C112.762298,203.164775 112.5559,203.669304 112.441234,204.242633 C112.303635,204.815961 112.234835,205.435157 112.234835,206.077285 C112.234835,206.788212 112.303635,207.430341 112.418301,208.026602 C112.532966,208.622864 112.739365,209.127394 113.014563,209.563123 C113.28976,209.998853 113.656691,210.342851 114.138287,210.572182 C114.59695,210.801514 115.193212,210.939112 115.904139,210.939112 C116.592134,210.939112 117.188396,210.801514 117.669992,210.549249 C118.151588,210.274051 118.541452,209.930054 118.816649,209.494324 C119.11478,209.035661 119.321179,208.531132 119.435845,207.93487 C119.573443,207.361541 119.642243,206.742346 119.642243,206.100218 Z M137.002637,211.902305 C137.002637,211.971104 136.979704,212.016971 136.956771,212.039904 C136.933838,212.08577 136.887972,212.108703 136.819172,212.131636 C136.750373,212.154569 136.681573,212.177503 136.566907,212.200436 C136.475175,212.200436 136.337576,212.223369 136.177044,212.223369 C136.039445,212.223369 135.901846,212.200436 135.810114,212.200436 C135.695448,212.177503 135.626648,212.154569 135.557849,212.131636 C135.489049,212.108703 135.443183,212.08577 135.42025,212.039904 C135.397317,212.016971 135.397317,211.971104 135.397317,211.902305 L135.397317,201.398922 L135.374384,201.398922 L131.131751,211.971104 C131.108818,212.016971 131.085885,212.039904 131.040018,212.062837 C131.017085,212.108703 130.948286,212.131636 130.902419,212.154569 C130.83362,212.177503 130.741887,212.200436 130.650155,212.200436 C130.558422,212.200436 130.46669,212.223369 130.329091,212.223369 C130.214425,212.223369 130.099759,212.200436 130.008027,212.200436 C129.916294,212.177503 129.824561,212.154569 129.778695,212.131636 C129.709896,212.131636 129.664029,212.08577 129.618163,212.062837 C129.59523,212.039904 129.572297,211.994037 129.549364,211.971104 L125.490196,201.398922 L125.467263,201.398922 L125.467263,211.902305 C125.467263,211.971104 125.467263,212.016971 125.44433,212.039904 C125.421397,212.08577 125.37553,212.108703 125.306731,212.131636 C125.237931,212.154569 125.146199,212.177503 125.054466,212.200436 C124.962734,212.200436 124.825135,212.223369 124.664603,212.223369 C124.504071,212.223369 124.389405,212.200436 124.274739,212.200436 C124.183007,212.177503 124.091274,212.154569 124.022474,212.131636 C123.976608,212.108703 123.930742,212.08577 123.907809,212.039904 C123.884876,212.016971 123.884876,211.971104 123.884876,211.902305 L123.884876,200.825593 C123.884876,200.550396 123.953675,200.36693 124.091274,200.252265 C124.228873,200.137599 124.366472,200.091733 124.549937,200.091733 L125.536062,200.091733 C125.742461,200.091733 125.902993,200.114666 126.063525,200.137599 C126.224057,200.183465 126.338723,200.229331 126.453388,200.321064 C126.568054,200.412797 126.659787,200.504529 126.751519,200.619195 C126.820319,200.756794 126.889118,200.894393 126.934985,201.077858 L130.39789,209.815388 L130.443756,209.815388 L134.021328,201.100791 C134.090127,200.917326 134.18186,200.756794 134.250659,200.619195 C134.342392,200.481596 134.434125,200.389864 134.525857,200.298131 C134.61759,200.229331 134.732255,200.183465 134.846921,200.137599 C134.961587,200.091733 135.122119,200.091733 135.259718,200.091733 L136.29171,200.091733 C136.383442,200.091733 136.475175,200.091733 136.566907,200.137599 C136.65864,200.160532 136.72744,200.206398 136.796239,200.252265 C136.842105,200.321064 136.887972,200.389864 136.933838,200.481596 C136.979704,200.573329 137.002637,200.687994 137.002637,200.825593 L137.002637,211.902305 Z M147.620686,203.623438 C147.620686,204.2197 147.50602,204.770095 147.299622,205.251691 C147.116156,205.733287 146.840959,206.146084 146.451095,206.490081 C146.084165,206.834079 145.625502,207.109276 145.098039,207.292742 C144.570577,207.476207 143.928449,207.567939 143.171655,207.567939 L141.795666,207.567939 L141.795666,211.902305 C141.795666,211.971104 141.795666,212.016971 141.772732,212.039904 C141.726866,212.08577 141.681,212.108703 141.635134,212.131636 C141.566334,212.154569 141.497535,212.177503 141.382869,212.200436 C141.291136,212.200436 141.153537,212.223369 140.993005,212.223369 C140.855406,212.223369 140.717808,212.200436 140.603142,212.200436 C140.511409,212.177503 140.419677,212.154569 140.37381,212.131636 C140.305011,212.108703 140.259145,212.08577 140.236211,212.039904 C140.213278,212.016971 140.190345,211.971104 140.190345,211.902305 L140.190345,200.779727 C140.190345,200.527462 140.259145,200.343997 140.396743,200.252265 C140.534342,200.137599 140.671941,200.091733 140.832473,200.091733 L143.423919,200.091733 C143.676184,200.091733 143.928449,200.091733 144.15778,200.114666 C144.410045,200.137599 144.685243,200.183465 145.006307,200.252265 C145.350304,200.321064 145.671368,200.458663 146.015365,200.665061 C146.359362,200.848527 146.63456,201.100791 146.863892,201.375989 C147.116156,201.67412 147.299622,201.995184 147.414287,202.385048 C147.551886,202.751978 147.620686,203.164775 147.620686,203.623438 Z M145.923633,203.761037 C145.923633,203.256507 145.8319,202.843711 145.648435,202.522646 C145.46497,202.178649 145.235638,201.949318 144.96044,201.765853 C144.708176,201.628254 144.410045,201.513588 144.134847,201.467722 C143.836716,201.421855 143.561518,201.398922 143.28632,201.398922 L141.795666,201.398922 L141.795666,206.26075 L143.263387,206.26075 C143.744983,206.26075 144.134847,206.19195 144.455911,206.077285 C144.776975,205.939686 145.052173,205.779154 145.258571,205.549822 C145.487903,205.320491 145.648435,205.068226 145.763101,204.747162 C145.877766,204.449031 145.923633,204.105034 145.923633,203.761037 Z M157.688338,211.581241 C157.734205,211.71884 157.757138,211.833505 157.780071,211.925238 C157.780071,211.994037 157.757138,212.062837 157.711272,212.108703 C157.642472,212.154569 157.573673,212.177503 157.459007,212.200436 C157.344341,212.200436 157.183809,212.223369 157.000344,212.223369 C156.793946,212.223369 156.633414,212.200436 156.518748,212.200436 C156.404082,212.200436 156.335283,212.177503 156.266483,212.154569 C156.197684,212.131636 156.174751,212.108703 156.128884,212.062837 C156.105951,212.016971 156.083018,211.971104 156.060085,211.925238 L155.028093,208.989795 L150.005733,208.989795 L149.019608,211.879372 C148.996675,211.948171 148.973742,211.994037 148.950808,212.039904 C148.904942,212.062837 148.859076,212.108703 148.813209,212.131636 C148.74441,212.154569 148.675611,212.177503 148.560945,212.200436 C148.446279,212.200436 148.30868,212.223369 148.125215,212.223369 C147.94175,212.223369 147.804151,212.200436 147.689485,212.200436 C147.574819,212.177503 147.50602,212.154569 147.460154,212.108703 C147.391354,212.062837 147.391354,211.994037 147.391354,211.902305 C147.391354,211.833505 147.414287,211.71884 147.460154,211.581241 L151.519321,200.36693 C151.542254,200.298131 151.565187,200.229331 151.611054,200.206398 C151.65692,200.160532 151.702786,200.114666 151.794519,200.091733 C151.863318,200.068799 151.955051,200.045866 152.09265,200.045866 C152.207316,200.022933 152.367848,200.022933 152.551313,200.022933 C152.734778,200.022933 152.918243,200.022933 153.032909,200.045866 C153.170508,200.045866 153.285174,200.068799 153.353973,200.091733 C153.445706,200.114666 153.491572,200.160532 153.537438,200.206398 C153.583305,200.252265 153.629171,200.298131 153.652104,200.36693 L157.688338,211.581241 Z M152.505447,201.697053 L152.482513,201.697053 L150.41853,207.705538 L154.615296,207.705538 L152.505447,201.697053 Z M168.833849,211.489508 C168.833849,211.604174 168.810916,211.71884 168.76505,211.810572 C168.719184,211.879372 168.673317,211.971104 168.604518,212.016971 C168.535718,212.062837 168.466919,212.108703 168.375186,212.131636 C168.306387,212.154569 168.214654,212.177503 168.122922,212.177503 L167.595459,212.177503 C167.434927,212.177503 167.297328,212.154569 167.159729,212.131636 C167.045064,212.08577 166.907465,212.016971 166.792799,211.948171 C166.701066,211.856438 166.586401,211.71884 166.471735,211.581241 C166.357069,211.420709 166.242403,211.21431 166.104804,210.984979 L162.412567,204.105034 C162.229102,203.761037 162.022704,203.394106 161.839239,203.004243 C161.63284,202.614379 161.449375,202.224516 161.288843,201.880518 L161.26591,201.880518 C161.288843,202.316248 161.288843,202.774911 161.311776,203.233574 L161.311776,204.632496 L161.311776,211.902305 C161.311776,211.948171 161.288843,211.994037 161.26591,212.039904 C161.242977,212.08577 161.19711,212.108703 161.128311,212.131636 C161.082445,212.154569 160.990712,212.177503 160.898979,212.200436 C160.784314,212.200436 160.669648,212.223369 160.509116,212.223369 C160.348584,212.223369 160.210985,212.200436 160.119252,212.200436 C160.004587,212.177503 159.935787,212.154569 159.866988,212.131636 C159.821121,212.108703 159.775255,212.08577 159.752322,212.039904 C159.729389,211.994037 159.706456,211.948171 159.706456,211.902305 L159.706456,200.779727 C159.706456,200.527462 159.775255,200.343997 159.912854,200.252265 C160.050453,200.137599 160.210985,200.091733 160.371517,200.091733 L161.174177,200.091733 C161.357642,200.091733 161.518175,200.091733 161.63284,200.137599 C161.770439,200.160532 161.862172,200.206398 161.976838,200.298131 C162.06857,200.36693 162.160303,200.458663 162.252035,200.596262 C162.343768,200.710928 162.458434,200.87146 162.550166,201.077858 L165.393877,206.352483 C165.554409,206.69648 165.737874,206.994611 165.898406,207.315675 C166.058938,207.613806 166.21947,207.911937 166.357069,208.233001 C166.517601,208.508199 166.6552,208.80633 166.815732,209.10446 C166.953331,209.379658 167.113863,209.677789 167.251462,209.97592 L167.251462,209.97592 C167.251462,209.471391 167.228529,208.966862 167.228529,208.439399 L167.228529,206.902878 L167.228529,200.36693 C167.228529,200.321064 167.251462,200.275198 167.274395,200.252265 C167.297328,200.206398 167.343195,200.183465 167.411994,200.137599 C167.45786,200.114666 167.549593,200.091733 167.641326,200.091733 C167.755991,200.068799 167.89359,200.068799 168.054122,200.068799 C168.191721,200.068799 168.306387,200.068799 168.421053,200.091733 C168.535718,200.091733 168.604518,200.114666 168.673317,200.137599 C168.719184,200.183465 168.76505,200.206398 168.787983,200.252265 C168.810916,200.275198 168.833849,200.321064 168.833849,200.36693 L168.833849,211.489508 Z M175.874326,207.453274 L175.874326,211.902305 C175.874326,211.971104 175.851393,212.016971 175.82846,212.039904 C175.805527,212.08577 175.759661,212.108703 175.713794,212.131636 C175.644995,212.154569 175.553262,212.177503 175.46153,212.200436 C175.346864,212.200436 175.232198,212.223369 175.071666,212.223369 C174.911134,212.223369 174.796468,212.200436 174.681803,212.200436 C174.59007,212.177503 174.498337,212.154569 174.429538,212.131636 C174.383672,212.108703 174.337805,212.08577 174.314872,212.039904 C174.269006,212.016971 174.269006,211.971104 174.269006,211.902305 L174.269006,207.453274 L170.851967,200.642128 C170.783167,200.504529 170.737301,200.389864 170.737301,200.321064 C170.714368,200.229331 170.737301,200.183465 170.783167,200.137599 C170.829033,200.091733 170.897833,200.068799 171.035432,200.045866 C171.150097,200.045866 171.31063,200.022933 171.517028,200.022933 C171.700493,200.022933 171.861025,200.045866 171.975691,200.045866 C172.090357,200.068799 172.182089,200.068799 172.250889,200.091733 C172.319688,200.114666 172.365554,200.160532 172.388488,200.183465 C172.434354,200.229331 172.457287,200.275198 172.503153,200.343997 L174.15434,203.806903 C174.314872,204.1509 174.475404,204.494897 174.635936,204.861828 C174.773535,205.205825 174.934067,205.572755 175.094599,205.939686 L175.117532,205.939686 C175.255131,205.595689 175.415663,205.228758 175.553262,204.884761 C175.713794,204.540764 175.874326,204.196766 176.011925,203.852769 L177.686045,200.36693 C177.708978,200.298131 177.731911,200.229331 177.777778,200.206398 C177.800711,200.160532 177.86951,200.114666 177.915377,200.091733 C177.984176,200.068799 178.052976,200.068799 178.167641,200.045866 C178.259374,200.045866 178.396973,200.022933 178.557505,200.022933 C178.786836,200.022933 178.970302,200.045866 179.084967,200.045866 C179.222566,200.068799 179.314299,200.091733 179.360165,200.137599 C179.406031,200.183465 179.428965,200.252265 179.406031,200.321064 C179.383098,200.412797 179.360165,200.527462 179.291366,200.642128 L175.874326,207.453274 Z" id="Shape" fill="#FEFEFE"></path>
                </g>
            </g>
        </g>
    </g>
</svg>