<?xml version="1.0" encoding="UTF-8"?>
<svg width="360px" height="270px" viewBox="0 0 360 270" version="1.1" xmlns="http://www.w3.org/2000/svg" xmlns:xlink="http://www.w3.org/1999/xlink">
    <!-- Generator: Sketch 41.2 (35397) - http://www.bohemiancoding.com/sketch -->
    <title>Team Page Logo</title>
    <desc>Created with Sketch.</desc>
    <defs></defs>
    <g id="Page-1" stroke="none" stroke-width="1" fill="none" fill-rule="evenodd">
        <rect id="Rectangle" fill="#84B4E3" x="0" y="0" width="62.6500015" height="270"></rect>
        <rect id="Rectangle" fill="#84B4E3" x="296" y="0" width="62.6500015" height="270"></rect>
        <g id="SofterLight-Logo4" transform="translate(62.000000, 0.000000)">
            <g id="Layer_x0020_1">
                <g id="_2903479779104">
                    <polygon id="Shape" fill="#84B4E3" points="0 0 234.692515 0 234.692515 270 0 270"></polygon>
                    <path d="M168.141134,72.2296422 C168.141134,44.1612678 145.401176,21.4213097 117.332802,21.4213097 C89.2913386,21.4213097 66.5244693,44.1612678 66.5244693,72.2296422 L66.5244693,72.2296422 L66.5244693,182.4848 L168.168045,182.4848 L168.168045,72.2296422 L168.141134,72.2296422 Z M165.315459,72.7409548 C165.315459,46.2603409 143.840327,24.7582976 117.332802,24.7582976 C90.8521878,24.7582976 69.3501445,46.2603409 69.3501445,72.7409548 L69.3501445,72.7409548 L69.3501445,179.363102 L165.34237,179.363102 L165.34237,72.7409548 L165.315459,72.7409548 Z" id="Shape" fill="#FEFEFE"></path>
                    <path d="M156.784611,72.3911093 C156.784611,50.6199542 139.130868,32.9393003 117.332802,32.9393003 C95.5616466,32.9393003 77.9079039,50.6199542 77.9079039,72.3911093 L77.9079039,72.3911093 L77.9079039,169.002292 L156.784611,169.002292 L156.784611,72.3911093 L156.784611,72.3911093 Z M110.039868,64.7483305 C110.039868,64.7483305 111.950563,63.4027709 113.296123,63.0529253 C114.668594,62.7030798 116.713844,62.5416127 116.713844,62.5416127 L116.821489,74.4094488 L110.039868,64.7483305 Z M114.157281,76.3739659 L107.833151,65.9055118 C107.833151,65.9055118 103.473537,70.0229243 103.419715,71.1531945 L114.157281,76.3739659 Z M101.831955,80.6259344 L111.466162,80.6259344 L102.558557,73.736669 C102.558557,73.736669 101.697399,76.7776338 101.831955,80.6259344 Z M125.944384,64.7483305 C125.944384,64.7483305 124.033689,63.4027709 122.661218,63.0529253 C121.315658,62.7030798 119.243496,62.5416127 119.243496,62.5416127 L119.135852,74.4094488 L125.944384,64.7483305 Z M121.826971,76.3739659 L128.151101,65.9055118 C128.151101,65.9055118 132.483803,70.0229243 132.564537,71.1531945 L121.826971,76.3739659 Z M134.125386,80.6259344 L124.51809,80.6259344 L133.425695,73.736669 C133.425695,73.736669 134.286853,76.7776338 134.125386,80.6259344 Z M136.412838,46.9331207 C136.412838,46.9331207 132.026313,44.1074454 128.420213,42.8157082 C124.841025,41.4970597 119.727898,40.8781023 119.727898,40.8781023 L119.727898,58.6933121 C119.727898,58.6933121 122.741952,59.2315359 123.683843,59.5544702 C124.625735,59.8774046 127.774345,61.5997209 127.774345,61.5997209 L136.412838,46.9331207 Z M147.661716,60.5232732 L135.820791,68.3813416 L130.277086,63.0260142 L139.184691,48.4939699 C142.925346,51.5887571 145.885578,56.2174823 147.661716,60.5232732 Z M149.572411,80.4644673 L149.572411,72.2565534 C149.572411,69.2694109 149.007276,66.2015349 148.280674,65.3134656 L136.897239,72.1489086 L136.897239,80.4644673 L149.572411,80.4644673 Z M99.8136151,46.9331207 C99.8136151,46.9331207 104.20014,44.1074454 107.779328,42.8157082 C111.385428,41.4970597 116.471644,40.8781023 116.471644,40.8781023 L116.471644,58.6933121 C116.471644,58.6933121 113.484501,59.2315359 112.542609,59.5544702 C111.600718,59.8774046 108.425197,61.5997209 108.425197,61.5997209 L99.8136151,46.9331207 Z M88.5647364,60.5232732 L100.37875,68.3813416 L105.922456,63.0260142 L97.0417622,48.4939699 C93.2741952,51.5887571 90.3139639,56.2174823 88.5647364,60.5232732 Z M86.6271305,80.4644673 L86.6271305,72.2565534 C86.6271305,69.2694109 87.2191767,66.2015349 87.9188677,65.3134656 L99.3023024,72.1489086 L99.3023024,80.4644673 L86.6271305,80.4644673 Z M86.2234626,88.8876707 L98.1720323,88.8876707 L98.1720323,109.663112 L86.2234626,109.663112 L86.2234626,88.8876707 Z M137.758397,88.8876707 L149.733878,88.8876707 L149.733878,109.663112 L137.758397,109.663112 L137.758397,88.8876707 Z M120.589056,88.8876707 L132.537626,88.8876707 L132.537626,109.663112 L120.589056,109.663112 L120.589056,88.8876707 Z M103.392804,88.8876707 L115.368285,88.8876707 L115.368285,109.663112 L103.392804,109.663112 L103.392804,88.8876707 Z M86.2234626,139.292335 L98.1720323,139.292335 L98.1720323,160.067776 L86.2234626,160.067776 L86.2234626,139.292335 Z M137.758397,139.292335 L149.733878,139.292335 L149.733878,160.067776 L137.758397,160.067776 L137.758397,139.292335 Z M120.589056,139.292335 L132.537626,139.292335 L132.537626,160.067776 L120.589056,160.067776 L120.589056,139.292335 Z M103.392804,139.292335 L115.368285,139.292335 L115.368285,160.067776 L103.392804,160.067776 L103.392804,139.292335 Z M86.2234626,114.211103 L98.1720323,114.211103 L98.1720323,135.013456 L86.2234626,135.013456 L86.2234626,114.211103 Z M137.758397,114.211103 L149.733878,114.211103 L149.733878,135.013456 L137.758397,135.013456 L137.758397,114.211103 Z M120.589056,114.211103 L132.537626,114.211103 L132.537626,135.013456 L120.589056,135.013456 L120.589056,114.211103 Z M103.392804,114.211103 L115.368285,114.211103 L115.368285,135.013456 L103.392804,135.013456 L103.392804,114.211103 Z" id="Shape" fill="#FEFEFE"></path>
                    <path d="M43.1386425,219.595335 C43.1386425,220.940895 42.8964417,222.124988 42.4120403,223.174524 C41.9007276,224.224061 41.2279478,225.11213 40.3398784,225.838732 C39.4787202,226.565334 38.4291837,227.130469 37.2450912,227.480315 C36.0609987,227.857072 34.7692614,228.04545 33.3967906,228.04545 C32.4548988,228.04545 31.5668295,227.964716 30.7325825,227.803249 C29.9252467,227.641782 29.1717333,227.426493 28.5527758,227.184292 C27.9069072,226.969002 27.3686833,226.69989 26.9111931,226.45769 C26.480614,226.215489 26.1845909,226.000199 26.0231237,225.811821 C25.8347453,225.650354 25.7271006,225.408153 25.646367,225.139041 C25.5656334,224.869929 25.511811,224.493173 25.511811,224.062593 C25.511811,223.712748 25.5387222,223.443636 25.5656334,223.255258 C25.5925446,223.039968 25.646367,222.85159 25.7001894,222.717034 C25.7540118,222.582478 25.8347453,222.501744 25.9154789,222.447922 C25.9962125,222.394099 26.1038573,222.367188 26.2384132,222.367188 C26.4267916,222.367188 26.7228147,222.501744 27.0995714,222.743945 C27.4763281,223.013057 27.9607296,223.282169 28.5527758,223.578192 C29.1448221,223.847304 29.8445131,224.143327 30.7056713,224.385528 C31.5130071,224.65464 32.48181,224.789196 33.5851689,224.789196 C34.4194159,224.789196 35.1729293,224.65464 35.8457092,224.43935 C36.5454002,224.224061 37.1374464,223.928037 37.6218479,223.497458 C38.1062494,223.09379 38.4830061,222.609389 38.752118,222.017343 C39.0212299,221.425297 39.1557859,220.752517 39.1557859,219.999003 C39.1557859,219.191667 38.9674076,218.518888 38.617562,217.926841 C38.2408053,217.361706 37.7564039,216.850394 37.1374464,216.419815 C36.5454002,215.989236 35.8457092,215.585568 35.0921958,215.208811 C34.3117712,214.858965 33.5044354,214.482209 32.6970996,214.105452 C31.8897638,213.728695 31.1093392,213.325027 30.3289146,212.867537 C29.5754012,212.410047 28.8757102,211.871823 28.2836639,211.252866 C27.6647065,210.633908 27.180305,209.907306 26.8035483,209.073059 C26.4267916,208.238812 26.2384132,207.243098 26.2384132,206.085916 C26.2384132,204.874913 26.4537028,203.825376 26.8842819,202.883485 C27.3417722,201.941593 27.9338184,201.161168 28.714243,200.5153 C29.4946676,199.896342 30.4096482,199.411941 31.4591847,199.089006 C32.5356324,198.739161 33.6928137,198.577694 34.9307286,198.577694 C35.5765972,198.577694 36.1955547,198.631516 36.8414233,198.739161 C37.4872919,198.846806 38.0793382,199.008273 38.6444732,199.196651 C39.2096083,199.385029 39.720921,199.573408 40.1784112,199.815608 C40.6089903,200.030898 40.9050135,200.219276 41.0395694,200.353832 C41.1741254,200.5153 41.2817702,200.622944 41.3086814,200.703678 C41.3625037,200.784411 41.3894149,200.892056 41.4163261,200.999701 C41.4432373,201.134257 41.4701485,201.295724 41.4970597,201.457191 C41.4970597,201.64557 41.5239709,201.860859 41.5239709,202.156882 C41.5239709,202.425994 41.4970597,202.641284 41.4970597,202.856573 C41.4701485,203.071863 41.4163261,203.23333 41.3894149,203.394797 C41.3355925,203.529353 41.2817702,203.636998 41.2010366,203.69082 C41.120303,203.771554 41.0126582,203.798465 40.9319246,203.798465 C40.7435463,203.798465 40.5013456,203.69082 40.1515,203.475531 C39.8016545,203.260241 39.3979866,203.044952 38.886674,202.77584 C38.3753613,202.533639 37.7833151,202.291438 37.1105352,202.076149 C36.4108442,201.860859 35.6573308,201.753214 34.7961726,201.753214 C33.9888368,201.753214 33.2891458,201.860859 32.6970996,202.076149 C32.1319645,202.291438 31.6206518,202.56055 31.2438951,202.910396 C30.8671384,203.287152 30.5711153,203.69082 30.382737,204.175222 C30.1943586,204.659623 30.0867138,205.170936 30.0867138,205.736071 C30.0867138,206.516496 30.2750922,207.216187 30.6518489,207.781322 C31.0286056,208.346457 31.5130071,208.857769 32.1319645,209.31526 C32.750922,209.745839 33.4237018,210.149507 34.2310376,210.526263 C35.0114622,210.90302 35.7918868,211.252866 36.6261338,211.629622 C37.4334696,212.006379 38.2138941,212.436958 38.9943187,212.867537 C39.7747433,213.325027 40.4744344,213.863251 41.0933918,214.482209 C41.7123492,215.074255 42.1967507,215.800857 42.5735074,216.635104 C42.9502641,217.469351 43.1386425,218.465065 43.1386425,219.595335 Z M66.6590252,216.877305 C66.6590252,218.518888 66.4437357,219.999003 66.0131566,221.371474 C65.5825775,222.717034 64.9367089,223.901126 64.1024619,224.89684 C63.2413037,225.892555 62.1917672,226.646068 60.9269411,227.211203 C59.6352038,227.749427 58.1550882,228.04545 56.4865942,228.04545 C54.8450115,228.04545 53.4187182,227.803249 52.2077145,227.318848 C50.9697997,226.834446 49.9740855,226.107844 49.1667497,225.192864 C48.3594139,224.250972 47.7404565,223.120702 47.3367886,221.802053 C46.9600319,220.483405 46.7447424,218.976378 46.7447424,217.280973 C46.7447424,215.666301 46.9600319,214.159274 47.390611,212.813715 C47.7942789,211.441244 48.4401475,210.257151 49.2743945,209.261437 C50.1355527,208.265723 51.1850892,207.51221 52.4499153,206.973986 C53.7147414,206.408851 55.194857,206.139739 56.8902621,206.139739 C58.5318449,206.139739 59.9581381,206.38194 61.1691418,206.893252 C62.4070567,207.377654 63.4027709,208.077345 64.2101066,208.992325 C65.0174424,209.934217 65.6363999,211.064487 66.0400678,212.383136 C66.4437357,213.728695 66.6590252,215.208811 66.6590252,216.877305 Z M62.8376358,217.119506 C62.8376358,216.043058 62.729991,215.020433 62.5416127,214.05163 C62.3532343,213.109738 62.0033888,212.24858 61.5458985,211.521977 C61.0884083,210.822286 60.4694508,210.23024 59.6890262,209.826572 C58.9086016,209.395993 57.9128875,209.180704 56.7557062,209.180704 C55.6792584,209.180704 54.7373667,209.369082 53.9569421,209.745839 C53.1765175,210.149507 52.5575601,210.68773 52.0462474,211.387422 C51.5349347,212.087113 51.158178,212.92136 50.9159773,213.890162 C50.6737765,214.832054 50.5661318,215.881591 50.5661318,217.038772 C50.5661318,218.11522 50.6468653,219.137845 50.8621549,220.106648 C51.0505332,221.075451 51.4003788,221.909698 51.857869,222.6363 C52.3153593,223.335991 52.9612279,223.901126 53.7416525,224.331705 C54.5220771,224.735373 55.4908801,224.950663 56.6749726,224.950663 C57.7245091,224.950663 58.6664009,224.762284 59.4468255,224.385528 C60.2272501,224.008771 60.8731187,223.470547 61.3844314,222.770856 C61.8688329,222.071165 62.2455896,221.236918 62.4877903,220.295026 C62.729991,219.326223 62.8376358,218.276687 62.8376358,217.119506 Z M76.669989,209.638194 L76.669989,227.076647 C76.669989,227.211203 76.6430778,227.291937 76.5892555,227.37267 C76.5354331,227.453404 76.4277883,227.534137 76.2932323,227.58796 C76.1586764,227.641782 75.970298,227.695605 75.7280973,227.722516 C75.4858965,227.749427 75.1898734,227.776338 74.8400279,227.776338 C74.4901824,227.776338 74.1941593,227.749427 73.9519585,227.722516 C73.736669,227.695605 73.5482906,227.641782 73.3868235,227.58796 C73.2522675,227.534137 73.1715339,227.453404 73.0908004,227.37267 C73.036978,227.291937 73.0100668,227.211203 73.0100668,227.076647 L73.0100668,209.638194 L70.1843915,209.638194 C69.9421908,209.638194 69.7807236,209.530549 69.6461676,209.288348 C69.5385229,209.046148 69.4847005,208.669391 69.4847005,208.131167 C69.4847005,207.835144 69.4847005,207.619854 69.5116117,207.431476 C69.5385229,207.216187 69.5923453,207.081631 69.6461676,206.947075 C69.69999,206.812519 69.7807236,206.731785 69.8614572,206.677963 C69.969102,206.62414 70.0767467,206.597229 70.1843915,206.597229 L73.0100668,206.597229 L73.0100668,204.551978 C73.0100668,203.152596 73.1446227,201.941593 73.3868235,200.945879 C73.6559354,199.950164 74.0326921,199.142829 74.570916,198.49696 C75.0822286,197.851091 75.7550085,197.393601 76.5623443,197.070667 C77.3696801,196.774644 78.3115718,196.640088 79.4149307,196.640088 C79.9531546,196.640088 80.4913785,196.69391 81.0026911,196.801555 C81.5140038,196.9092 81.8907605,197.016844 82.10605,197.097578 C82.3482508,197.205223 82.4828067,197.285956 82.5904515,197.393601 C82.6711851,197.474335 82.7250075,197.581979 82.7788299,197.716535 C82.8326522,197.878003 82.8864746,198.03947 82.9133858,198.227848 C82.9133858,198.443138 82.940297,198.685338 82.940297,198.95445 C82.940297,199.223562 82.9133858,199.465763 82.9133858,199.62723 C82.8864746,199.815608 82.8326522,199.950164 82.8057411,200.057809 C82.7519187,200.138543 82.6980963,200.219276 82.6442739,200.246188 C82.5904515,200.30001 82.5097179,200.30001 82.4558955,200.30001 C82.3213396,200.30001 82.1867836,200.273099 82.0522276,200.219276 C81.8907605,200.138543 81.7292933,200.057809 81.4870926,199.977076 C81.271803,199.896342 81.0026911,199.84252 80.706668,199.761786 C80.4106449,199.707964 80.0607994,199.654141 79.6571315,199.654141 C79.0919964,199.654141 78.6345061,199.761786 78.2577494,199.923253 C77.8809927,200.111632 77.5849696,200.380744 77.3427689,200.7575 C77.1005681,201.161168 76.939101,201.618658 76.8314562,202.237616 C76.6969002,202.829662 76.669989,203.556264 76.669989,204.417423 L76.669989,206.597229 L85.6583275,206.597229 L85.6583275,201.833948 C85.6583275,201.726303 85.6852387,201.618658 85.7390611,201.537925 C85.7928835,201.457191 85.9005283,201.376458 86.0350842,201.295724 C86.1696402,201.241902 86.3580185,201.188079 86.6002193,201.161168 C86.8155088,201.134257 87.1384431,201.107346 87.5151998,201.107346 C87.8650454,201.107346 88.1610685,201.134257 88.376358,201.161168 C88.6185588,201.188079 88.8069371,201.241902 88.9414931,201.295724 C89.076049,201.376458 89.1836938,201.457191 89.2375162,201.537925 C89.2913386,201.618658 89.3182498,201.726303 89.3182498,201.833948 L89.3182498,206.597229 L94.3775541,206.597229 C94.51211,206.597229 94.5928436,206.62414 94.7004884,206.677963 C94.781222,206.731785 94.8619555,206.812519 94.9426891,206.947075 C94.9965115,207.081631 95.0234227,207.216187 95.0772451,207.431476 C95.1041563,207.619854 95.1310675,207.835144 95.1310675,208.131167 C95.1310675,208.669391 95.0503339,209.046148 94.9426891,209.288348 C94.781222,209.530549 94.6197548,209.638194 94.4044653,209.638194 L89.3182498,209.638194 L89.3182498,220.725606 C89.3182498,222.098076 89.5335393,223.120702 89.910296,223.820393 C90.3139639,224.520084 91.0405661,224.869929 92.0901027,224.869929 C92.413037,224.869929 92.7090601,224.843018 92.978172,224.762284 C93.247284,224.708462 93.4894847,224.627728 93.7047742,224.546995 C93.8931526,224.493173 94.0815309,224.412439 94.2429981,224.358617 C94.4044653,224.277883 94.51211,224.250972 94.6197548,224.250972 C94.7004884,224.250972 94.781222,224.250972 94.8350444,224.304794 C94.8888667,224.331705 94.9426891,224.412439 94.9696003,224.520084 C95.0234227,224.627728 95.0503339,224.762284 95.0772451,224.923752 C95.1041563,225.11213 95.1310675,225.32742 95.1310675,225.596531 C95.1310675,226.027111 95.1041563,226.376956 95.0234227,226.619157 C94.9696003,226.861358 94.8619555,227.049736 94.7543108,227.157381 C94.646666,227.291937 94.4582877,227.399581 94.2429981,227.507226 C94.0277086,227.614871 93.7585966,227.695605 93.4625735,227.749427 C93.1665504,227.83016 92.8436161,227.883983 92.4937706,227.937805 C92.143925,227.964716 91.8209907,227.991628 91.4980564,227.991628 C90.4485199,227.991628 89.5335393,227.857072 88.8069371,227.58796 C88.0803349,227.318848 87.4613775,226.888269 87.0038872,226.350045 C86.5194857,225.78491 86.1965514,225.085219 85.9812618,224.250972 C85.7659723,223.389814 85.6583275,222.394099 85.6583275,221.263829 L85.6583275,209.638194 L76.669989,209.638194 Z M116.417821,216.258347 C116.417821,216.823483 116.283265,217.22715 115.987242,217.469351 C115.71813,217.711552 115.368285,217.846108 115.018439,217.846108 L101.912688,217.846108 C101.912688,218.949467 102.047244,219.945181 102.262534,220.83325 C102.477823,221.72132 102.85458,222.474833 103.365893,223.120702 C103.877205,223.76657 104.549985,224.250972 105.384232,224.573906 C106.218479,224.923752 107.214193,225.085219 108.425197,225.085219 C109.367089,225.085219 110.201336,225.004485 110.927938,224.869929 C111.681451,224.708462 112.32732,224.546995 112.865544,224.358617 C113.403768,224.143327 113.834347,223.98186 114.184192,223.820393 C114.534038,223.685837 114.776238,223.605103 114.964617,223.605103 C115.072262,223.605103 115.152995,223.632014 115.26064,223.685837 C115.314462,223.712748 115.395196,223.793482 115.422107,223.901126 C115.475929,224.008771 115.502841,224.143327 115.529752,224.331705 C115.556663,224.520084 115.556663,224.735373 115.556663,225.004485 L115.556663,225.488887 C115.529752,225.650354 115.502841,225.757999 115.502841,225.865643 C115.475929,225.973288 115.422107,226.080933 115.368285,226.161667 C115.314462,226.269311 115.26064,226.350045 115.179906,226.430778 C115.099173,226.511512 114.856972,226.646068 114.453304,226.807535 C114.076547,226.995913 113.538324,227.184292 112.919366,227.37267 C112.273497,227.534137 111.546895,227.695605 110.712648,227.83016 C109.878401,227.964716 108.990332,228.04545 108.04844,228.04545 C106.406857,228.04545 104.980564,227.803249 103.76956,227.345759 C102.531646,226.888269 101.482109,226.215489 100.647862,225.32742 C99.8136151,224.412439 99.1946576,223.282169 98.7640785,221.936609 C98.3334995,220.564138 98.1182099,219.003289 98.1182099,217.200239 C98.1182099,215.477923 98.3334995,213.943985 98.7909897,212.571514 C99.2215688,211.225954 99.8674375,210.041862 100.701684,209.09997 C101.535931,208.158078 102.531646,207.431476 103.715738,206.920163 C104.899831,206.408851 106.218479,206.139739 107.671683,206.139739 C109.232533,206.139739 110.578092,206.408851 111.65454,206.893252 C112.757899,207.404565 113.672879,208.077345 114.372571,208.938503 C115.072262,209.77275 115.583574,210.768464 115.93342,211.925645 C116.256354,213.055915 116.417821,214.29383 116.417821,215.585568 L116.417821,216.258347 Z M112.757899,215.154989 C112.811721,213.244294 112.381142,211.737267 111.493073,210.633908 C110.578092,209.55746 109.259444,208.992325 107.510216,208.992325 C106.595236,208.992325 105.7879,209.180704 105.11512,209.503638 C104.44234,209.853484 103.877205,210.310974 103.419715,210.876109 C102.962225,211.441244 102.585468,212.087113 102.343267,212.813715 C102.101066,213.567228 101.966511,214.347653 101.912688,215.154989 L112.757899,215.154989 Z M133.667896,208.454101 C133.667896,208.777036 133.667896,209.046148 133.640985,209.261437 C133.640985,209.476727 133.614074,209.665105 133.560251,209.77275 C133.53334,209.907306 133.452606,209.988039 133.398784,210.068773 C133.344962,210.149507 133.237317,210.176418 133.129672,210.176418 C132.995116,210.176418 132.86056,210.149507 132.699093,210.068773 C132.510715,209.988039 132.322336,209.934217 132.107047,209.880395 C131.918668,209.799661 131.676468,209.745839 131.407356,209.692016 C131.138244,209.611283 130.842221,209.584372 130.546198,209.584372 C130.169441,209.584372 129.792684,209.665105 129.442839,209.799661 C129.092993,209.961128 128.716236,210.203329 128.33948,210.553175 C127.935812,210.90302 127.532144,211.333599 127.101565,211.898734 C126.697897,212.463869 126.213495,213.16356 125.702183,213.970896 L125.702183,227.076647 C125.702183,227.211203 125.675272,227.291937 125.594538,227.37267 C125.540716,227.453404 125.459982,227.534137 125.325426,227.58796 C125.19087,227.641782 125.002492,227.695605 124.760291,227.722516 C124.51809,227.749427 124.222067,227.776338 123.84531,227.776338 C123.495465,227.776338 123.199442,227.749427 122.957241,227.722516 C122.71504,227.695605 122.526662,227.641782 122.392106,227.58796 C122.25755,227.534137 122.149905,227.453404 122.096083,227.37267 C122.042261,227.291937 122.015349,227.211203 122.015349,227.076647 L122.015349,207.162364 C122.015349,207.027808 122.042261,206.947075 122.096083,206.83943 C122.149905,206.785607 122.230639,206.704874 122.365195,206.62414 C122.499751,206.570318 122.661218,206.516496 122.876508,206.489584 C123.064886,206.462673 123.360909,206.462673 123.683843,206.462673 C124.006778,206.462673 124.302801,206.462673 124.491179,206.489584 C124.73338,206.516496 124.894847,206.570318 125.002492,206.62414 C125.110137,206.704874 125.217781,206.785607 125.271604,206.83943 C125.298515,206.947075 125.352337,207.027808 125.352337,207.162364 L125.352337,210.041862 C125.890561,209.261437 126.401874,208.615569 126.886275,208.104256 C127.370677,207.592943 127.801256,207.189275 128.231835,206.920163 C128.662414,206.62414 129.092993,206.435762 129.496661,206.301206 C129.92724,206.193561 130.357819,206.139739 130.788398,206.139739 C130.976777,206.139739 131.192066,206.16665 131.434267,206.16665 C131.676468,206.193561 131.918668,206.247384 132.18778,206.301206 C132.456892,206.355028 132.699093,206.435762 132.914383,206.516496 C133.129672,206.570318 133.264228,206.651052 133.371873,206.731785 C133.452606,206.785607 133.506429,206.866341 133.53334,206.947075 C133.560251,207.000897 133.587162,207.081631 133.614074,207.189275 C133.640985,207.29692 133.667896,207.431476 133.667896,207.646766 L133.667896,208.454101 Z M163.350942,225.973288 C163.350942,226.269311 163.324031,226.511512 163.29712,226.69989 C163.270208,226.91518 163.216386,227.076647 163.162564,227.211203 C163.08183,227.37267 163.001096,227.453404 162.920363,227.534137 C162.812718,227.58796 162.705073,227.641782 162.570517,227.641782 L149.895345,227.641782 C149.5455,227.641782 149.222566,227.507226 148.926542,227.291937 C148.630519,227.049736 148.469052,226.646068 148.469052,226.080933 L148.469052,199.573408 C148.469052,199.438852 148.495963,199.331207 148.576697,199.250473 C148.630519,199.16974 148.738164,199.089006 148.87272,199.035184 C149.034187,198.981362 149.222566,198.95445 149.464766,198.900628 C149.733878,198.873717 150.029901,198.846806 150.379747,198.846806 C150.756504,198.846806 151.052527,198.873717 151.294727,198.900628 C151.536928,198.95445 151.752218,198.981362 151.886774,199.035184 C152.048241,199.089006 152.128974,199.16974 152.182797,199.250473 C152.26353,199.331207 152.290442,199.438852 152.290442,199.573408 L152.290442,224.331705 L162.570517,224.331705 C162.705073,224.331705 162.812718,224.358617 162.920363,224.412439 C163.001096,224.493173 163.08183,224.573906 163.162564,224.708462 C163.216386,224.843018 163.270208,225.004485 163.29712,225.219775 C163.324031,225.408153 163.350942,225.677265 163.350942,225.973288 Z M170.805342,227.076647 C170.805342,227.211203 170.75152,227.291937 170.697698,227.37267 C170.643875,227.453404 170.563142,227.534137 170.401674,227.58796 C170.267119,227.641782 170.105651,227.695605 169.863451,227.722516 C169.62125,227.749427 169.325227,227.776338 168.94847,227.776338 C168.598625,227.776338 168.302601,227.749427 168.060401,227.722516 C167.8182,227.695605 167.629822,227.641782 167.495266,227.58796 C167.36071,227.534137 167.253065,227.453404 167.199242,227.37267 C167.14542,227.291937 167.118509,227.211203 167.118509,227.076647 L167.118509,207.162364 C167.118509,207.054719 167.14542,206.947075 167.199242,206.866341 C167.253065,206.785607 167.36071,206.704874 167.495266,206.651052 C167.629822,206.597229 167.8182,206.543407 168.060401,206.516496 C168.302601,206.489584 168.598625,206.462673 168.94847,206.462673 C169.325227,206.462673 169.62125,206.489584 169.863451,206.516496 C170.105651,206.543407 170.267119,206.597229 170.401674,206.651052 C170.563142,206.704874 170.643875,206.785607 170.697698,206.866341 C170.75152,206.947075 170.805342,207.054719 170.805342,207.162364 L170.805342,227.076647 Z M171.20901,200.434566 C171.20901,201.295724 171.047543,201.88777 170.697698,202.183793 C170.374763,202.506728 169.782717,202.668195 168.921559,202.668195 C168.060401,202.668195 167.468354,202.506728 167.14542,202.210705 C166.822486,201.914682 166.661019,201.322635 166.661019,200.488388 C166.661019,199.62723 166.822486,199.035184 167.172331,198.739161 C167.495266,198.416226 168.087312,198.254759 168.94847,198.254759 C169.809628,198.254759 170.401674,198.416226 170.724609,198.71225 C171.047543,199.008273 171.20901,199.600319 171.20901,200.434566 Z M187.867039,225.596531 C187.867039,226.027111 187.813216,226.376956 187.759394,226.619157 C187.705572,226.861358 187.624838,227.049736 187.490282,227.157381 C187.382637,227.291937 187.194259,227.399581 186.978969,227.507226 C186.736769,227.614871 186.467657,227.695605 186.171634,227.749427 C185.87561,227.83016 185.552676,227.883983 185.202831,227.937805 C184.852985,227.964716 184.530051,227.991628 184.180205,227.991628 C183.15758,227.991628 182.269511,227.857072 181.542908,227.58796 C180.816306,227.318848 180.197349,226.888269 179.739858,226.350045 C179.255457,225.78491 178.932523,225.085219 178.690322,224.250972 C178.501944,223.389814 178.394299,222.394099 178.394299,221.263829 L178.394299,209.638194 L175.568624,209.638194 C175.353334,209.638194 175.191867,209.530549 175.057311,209.288348 C174.922755,209.046148 174.842021,208.669391 174.842021,208.131167 C174.842021,207.835144 174.868933,207.619854 174.895844,207.431476 C174.949666,207.216187 175.003488,207.081631 175.057311,206.947075 C175.111133,206.812519 175.191867,206.731785 175.2726,206.677963 C175.380245,206.62414 175.48789,206.597229 175.595535,206.597229 L178.394299,206.597229 L178.394299,201.860859 C178.394299,201.780126 178.394299,201.672481 178.448121,201.591747 C178.501944,201.484102 178.609588,201.43028 178.744144,201.349546 C178.8787,201.295724 179.067079,201.241902 179.309279,201.214991 C179.55148,201.188079 179.847503,201.161168 180.22426,201.161168 C180.574105,201.161168 180.89704,201.188079 181.112329,201.214991 C181.35453,201.241902 181.542908,201.295724 181.677464,201.349546 C181.81202,201.43028 181.892754,201.484102 181.973487,201.591747 C182.02731,201.672481 182.054221,201.780126 182.054221,201.860859 L182.054221,206.597229 L187.140437,206.597229 C187.248081,206.597229 187.355726,206.62414 187.43646,206.677963 C187.517193,206.731785 187.597927,206.812519 187.67866,206.947075 C187.732483,207.081631 187.786305,207.216187 187.813216,207.431476 C187.840128,207.619854 187.867039,207.835144 187.867039,208.131167 C187.867039,208.669391 187.786305,209.046148 187.651749,209.288348 C187.517193,209.530549 187.355726,209.638194 187.140437,209.638194 L182.054221,209.638194 L182.054221,220.725606 C182.054221,222.098076 182.269511,223.120702 182.646267,223.820393 C183.049935,224.520084 183.776537,224.869929 184.826074,224.869929 C185.149008,224.869929 185.471943,224.843018 185.714143,224.762284 C185.983255,224.708462 186.225456,224.627728 186.440746,224.546995 C186.629124,224.493173 186.817502,224.412439 186.952058,224.358617 C187.113525,224.277883 187.248081,224.250972 187.355726,224.250972 C187.43646,224.250972 187.490282,224.250972 187.571016,224.304794 C187.624838,224.331705 187.67866,224.412439 187.705572,224.520084 C187.759394,224.627728 187.786305,224.762284 187.813216,224.923752 C187.840128,225.11213 187.867039,225.32742 187.867039,225.596531 Z M209.153792,216.258347 C209.153792,216.823483 209.019237,217.22715 208.723213,217.469351 C208.454101,217.711552 208.104256,217.846108 207.75441,217.846108 L194.675571,217.846108 C194.675571,218.949467 194.783215,219.945181 194.998505,220.83325 C195.213794,221.72132 195.590551,222.474833 196.101864,223.120702 C196.613177,223.76657 197.285956,224.250972 198.120203,224.573906 C198.95445,224.923752 199.950164,225.085219 201.161168,225.085219 C202.10306,225.085219 202.937307,225.004485 203.663909,224.869929 C204.417423,224.708462 205.063291,224.546995 205.601515,224.358617 C206.139739,224.143327 206.570318,223.98186 206.920163,223.820393 C207.270009,223.685837 207.539121,223.605103 207.700588,223.605103 C207.808233,223.605103 207.915878,223.632014 207.996611,223.685837 C208.050434,223.712748 208.131167,223.793482 208.158078,223.901126 C208.211901,224.008771 208.238812,224.143327 208.265723,224.331705 C208.292634,224.520084 208.292634,224.735373 208.292634,225.004485 L208.292634,225.488887 C208.265723,225.650354 208.238812,225.757999 208.238812,225.865643 C208.211901,225.973288 208.158078,226.080933 208.104256,226.161667 C208.050434,226.269311 207.996611,226.350045 207.915878,226.430778 C207.835144,226.511512 207.592943,226.646068 207.189275,226.807535 C206.812519,226.995913 206.274295,227.184292 205.655337,227.37267 C205.009469,227.534137 204.282867,227.695605 203.44862,227.83016 C202.614373,227.964716 201.753214,228.04545 200.784411,228.04545 C199.16974,228.04545 197.716535,227.803249 196.505532,227.345759 C195.267617,226.888269 194.244992,226.215489 193.383833,225.32742 C192.549586,224.412439 191.930629,223.282169 191.50005,221.936609 C191.069471,220.564138 190.854181,219.003289 190.854181,217.200239 C190.854181,215.477923 191.069471,213.943985 191.526961,212.571514 C191.95754,211.225954 192.603409,210.041862 193.437656,209.09997 C194.271903,208.158078 195.267617,207.431476 196.451709,206.920163 C197.635802,206.408851 198.95445,206.139739 200.407655,206.139739 C201.968504,206.139739 203.314064,206.408851 204.390511,206.893252 C205.49387,207.404565 206.408851,208.077345 207.108542,208.938503 C207.808233,209.77275 208.346457,210.768464 208.669391,211.925645 C208.992325,213.055915 209.153792,214.29383 209.153792,215.585568 L209.153792,216.258347 Z M205.49387,215.154989 C205.547693,213.244294 205.117114,211.737267 204.229044,210.633908 C203.314064,209.55746 201.995415,208.992325 200.246188,208.992325 C199.331207,208.992325 198.550782,209.180704 197.851091,209.503638 C197.178312,209.853484 196.613177,210.310974 196.155686,210.876109 C195.698196,211.441244 195.321439,212.087113 195.079239,212.813715 C194.837038,213.567228 194.702482,214.347653 194.675571,215.154989 L205.49387,215.154989 Z" id="Shape" fill="#FEFEFE"></path>
                    <path d="M38.9135852,248.551779 C38.886674,248.632513 38.8328516,248.713246 38.7790292,248.79398 C38.7252068,248.847802 38.6444732,248.901625 38.5368285,248.928536 C38.4291837,248.955447 38.2946277,248.982358 38.1600718,249.009269 C37.9986046,249.009269 37.8102263,249.036181 37.5949367,249.036181 C37.3796472,249.036181 37.1912688,249.009269 37.0298017,249.009269 C36.8683345,248.982358 36.7337785,248.955447 36.6261338,248.928536 C36.5454002,248.901625 36.4646666,248.847802 36.4108442,248.79398 C36.3570218,248.713246 36.3301106,248.632513 36.3031994,248.551779 L33.316057,237.841124 L33.316057,237.841124 L30.5711153,248.551779 C30.5442041,248.632513 30.5172929,248.713246 30.4634705,248.79398 C30.4096482,248.847802 30.3289146,248.901625 30.248181,248.928536 C30.1405362,248.955447 30.0328915,248.982358 29.8714243,249.009269 C29.7099571,249.009269 29.5215788,249.036181 29.3062892,249.036181 C29.0640885,249.036181 28.848799,249.009269 28.6873318,249.009269 C28.5258646,248.982358 28.3913087,248.955447 28.3105751,248.928536 C28.2029303,248.901625 28.1221968,248.847802 28.0683744,248.79398 C28.014552,248.713246 27.9607296,248.632513 27.9607296,248.551779 L24.2200738,235.446028 C24.1662514,235.284561 24.1393402,235.150005 24.1393402,235.069271 C24.1393402,234.961627 24.1662514,234.907804 24.2200738,234.853982 C24.3008073,234.800159 24.3815409,234.773248 24.5160969,234.746337 C24.677564,234.746337 24.8390312,234.719426 25.0812319,234.719426 C25.3234327,234.719426 25.4848998,234.719426 25.6194558,234.746337 C25.7540118,234.746337 25.8616565,234.773248 25.9154789,234.800159 C25.9962125,234.827071 26.0500349,234.880893 26.0769461,234.934715 C26.1038573,234.961627 26.1038573,235.04236 26.1307685,235.123094 L29.3062892,246.99093 L29.3062892,246.99093 L32.3472541,235.150005 C32.3741653,235.069271 32.4010764,234.988538 32.4279876,234.934715 C32.4548988,234.880893 32.5087212,234.853982 32.5894548,234.800159 C32.6432772,234.800159 32.750922,234.773248 32.8854779,234.746337 C33.0200339,234.746337 33.2084122,234.719426 33.4237018,234.719426 C33.6389913,234.719426 33.8004585,234.746337 33.9081033,234.746337 C34.0426592,234.773248 34.1233928,234.800159 34.2041264,234.800159 C34.28486,234.853982 34.3386823,234.880893 34.3655935,234.934715 C34.3925047,234.988538 34.4194159,235.069271 34.4463271,235.150005 L37.7025815,246.99093 L37.7025815,246.99093 L40.8242799,235.123094 C40.8511911,235.069271 40.8781023,234.988538 40.9050135,234.934715 C40.9050135,234.880893 40.9588358,234.853982 41.0395694,234.800159 C41.0933918,234.800159 41.2010366,234.773248 41.3355925,234.746337 C41.4432373,234.746337 41.6316157,234.719426 41.8469052,234.719426 C42.0621948,234.719426 42.2236619,234.746337 42.3582179,234.746337 C42.4927738,234.773248 42.5735074,234.800159 42.6273298,234.853982 C42.6811522,234.907804 42.7349746,234.988538 42.7080634,235.069271 C42.7080634,235.176916 42.6811522,235.311472 42.654241,235.472939 L38.9135852,248.551779 Z M47.1753214,248.659424 C47.1753214,248.740157 47.1484102,248.79398 47.1214991,248.820891 C47.0945879,248.874713 47.0407655,248.901625 46.9600319,248.928536 C46.9062095,248.955447 46.7985647,248.982358 46.69092,249.009269 C46.556364,249.009269 46.3948968,249.036181 46.2334297,249.036181 C46.0450513,249.036181 45.9104954,249.009269 45.7759394,249.009269 C45.6413834,248.982358 45.5606499,248.955447 45.4799163,248.928536 C45.3991827,248.901625 45.3453603,248.874713 45.3184491,248.820891 C45.2915379,248.79398 45.2915379,248.740157 45.2915379,248.659424 L45.2915379,235.069271 C45.2915379,235.015449 45.2915379,234.961627 45.3453603,234.934715 C45.3722715,234.880893 45.4260939,234.853982 45.5068275,234.827071 C45.587561,234.800159 45.6682946,234.773248 45.8028506,234.746337 C45.9104954,234.746337 46.0450513,234.719426 46.2334297,234.719426 C46.3948968,234.719426 46.556364,234.746337 46.69092,234.746337 C46.7985647,234.773248 46.9062095,234.800159 46.9600319,234.827071 C47.0407655,234.853982 47.0945879,234.880893 47.1214991,234.934715 C47.1484102,234.961627 47.1753214,235.015449 47.1753214,235.069271 L47.1753214,248.659424 Z M61.6535433,248.175022 C61.6535433,248.309578 61.6266321,248.444134 61.5728097,248.551779 C61.5189873,248.632513 61.465165,248.740157 61.3844314,248.79398 C61.3036978,248.847802 61.196053,248.901625 61.1153194,248.928536 C61.0076747,248.955447 60.9000299,248.982358 60.8192963,248.982358 L60.2003389,248.982358 C59.9850493,248.982358 59.8235822,248.955447 59.6890262,248.928536 C59.5275591,248.874713 59.3930031,248.79398 59.2584471,248.713246 C59.1238912,248.605602 58.9893352,248.444134 58.8547792,248.282667 C58.7202233,248.094289 58.5856673,247.852088 58.4511113,247.582976 L54.1184092,239.509618 C53.8762085,239.10595 53.660919,238.675371 53.4456294,238.217881 C53.2034287,237.760391 52.9881391,237.3029 52.7997608,236.899233 L52.7728496,236.899233 C52.7728496,237.410545 52.7997608,237.948769 52.7997608,238.486993 L52.7997608,240.128576 L52.7997608,248.659424 C52.7997608,248.713246 52.7997608,248.767069 52.7728496,248.820891 C52.7459384,248.874713 52.692116,248.901625 52.6113824,248.928536 C52.5306489,248.955447 52.4499153,248.982358 52.3153593,249.009269 C52.2077145,249.009269 52.0462474,249.036181 51.857869,249.036181 C51.6694907,249.036181 51.5349347,249.009269 51.4003788,249.009269 C51.292734,248.982358 51.1850892,248.955447 51.1312668,248.928536 C51.0505332,248.901625 50.9967109,248.874713 50.9697997,248.820891 C50.9428885,248.767069 50.9428885,248.713246 50.9428885,248.659424 L50.9428885,235.607495 C50.9428885,235.311472 51.023622,235.096183 51.1850892,234.988538 C51.3465564,234.853982 51.5349347,234.800159 51.7233131,234.800159 L52.6382936,234.800159 C52.8535832,234.800159 53.0419615,234.800159 53.2034287,234.853982 C53.3379847,234.880893 53.4725406,234.934715 53.5801854,235.04236 C53.7147414,235.123094 53.8223861,235.230739 53.9300309,235.392206 C54.0376757,235.526762 54.1453204,235.71514 54.2798764,235.957341 L57.5899532,242.146915 C57.8052427,242.550583 57.9936211,242.900429 58.1819994,243.277185 C58.3703778,243.627031 58.5587561,243.976876 58.7471345,244.353633 C58.9086016,244.676567 59.09698,245.026413 59.2584471,245.376258 C59.4468255,245.699193 59.6082926,246.049038 59.7697598,246.398884 L59.796671,246.398884 C59.7697598,245.806837 59.7697598,245.214791 59.7697598,244.595834 L59.7697598,242.792784 L59.7697598,235.123094 C59.7697598,235.069271 59.7697598,235.015449 59.796671,234.988538 C59.8504934,234.934715 59.8774046,234.907804 59.9581381,234.853982 C60.0388717,234.827071 60.1196053,234.800159 60.2541613,234.800159 C60.361806,234.773248 60.5232732,234.773248 60.7116515,234.773248 C60.9000299,234.773248 61.0345859,234.773248 61.1691418,234.800159 C61.2767866,234.800159 61.3844314,234.827071 61.4382538,234.853982 C61.5189873,234.907804 61.5728097,234.934715 61.5997209,234.988538 C61.6266321,235.015449 61.6535433,235.069271 61.6535433,235.123094 L61.6535433,248.175022 Z M76.2932323,241.662514 C76.2932323,242.900429 76.1317652,243.949965 75.8088309,244.864946 C75.5128077,245.806837 75.0284063,246.560351 74.43636,247.152397 C73.8443138,247.744443 73.0908004,248.201934 72.2296422,248.497957 C71.3415728,248.79398 70.3189475,248.955447 69.1079438,248.955447 L66.0938902,248.955447 C65.932423,248.955447 65.7709558,248.901625 65.6094887,248.79398 C65.4749327,248.659424 65.3941991,248.471046 65.3941991,248.201934 L65.3941991,235.553673 C65.3941991,235.284561 65.4749327,235.069271 65.6094887,234.961627 C65.7709558,234.853982 65.932423,234.800159 66.0938902,234.800159 L69.2963221,234.800159 C70.534237,234.800159 71.5568624,234.961627 72.4180205,235.25765 C73.2522675,235.580584 73.9788697,236.038074 74.5440048,236.630121 C75.1091398,237.222167 75.5397189,237.948769 75.8357421,238.809927 C76.1317652,239.644174 76.2932323,240.612977 76.2932323,241.662514 Z M74.301804,241.743247 C74.301804,240.989734 74.2210705,240.263132 74.0326921,239.617263 C73.8443138,238.944483 73.5482906,238.379348 73.1446227,237.894947 C72.7409548,237.410545 72.2296422,237.033788 71.5837735,236.764677 C70.9648161,236.495565 70.1843915,236.361009 69.1886774,236.361009 L67.2779827,236.361009 L67.2779827,247.394598 L69.2155886,247.394598 C70.1305691,247.394598 70.8840825,247.286953 71.50304,247.044752 C72.1219974,246.829463 72.6602213,246.479617 73.0638892,246.022127 C73.4675571,245.537726 73.7904914,244.945679 74.0057809,244.245988 C74.2210705,243.546297 74.301804,242.71205 74.301804,241.743247 Z M91.0405661,241.716336 C91.0405661,242.846606 90.9060102,243.896143 90.6368982,244.811123 C90.3677863,245.726104 89.9641184,246.506528 89.4258945,247.152397 C88.8876707,247.798266 88.2148909,248.282667 87.4075551,248.632513 C86.6002193,248.982358 85.6314163,249.170737 84.5549686,249.170737 C83.5054321,249.170737 82.5904515,249.009269 81.8100269,248.686335 C81.0296023,248.363401 80.3837337,247.90591 79.872421,247.286953 C79.3611083,246.694907 78.9843516,245.941393 78.7421509,245.053324 C78.4999502,244.138343 78.3653942,243.115718 78.3653942,241.958537 C78.3653942,240.828267 78.4999502,239.832553 78.7690621,238.917572 C79.038174,238.002591 79.4418419,237.222167 80.006977,236.576298 C80.5182896,235.957341 81.2179807,235.446028 82.0253165,235.123094 C82.8326522,234.773248 83.774544,234.58487 84.8509917,234.58487 C85.9005283,234.58487 86.7885976,234.746337 87.5690222,235.069271 C88.3494468,235.365295 88.9953155,235.822785 89.5066281,236.441742 C90.0179408,237.033788 90.3946975,237.787302 90.6638094,238.675371 C90.9060102,239.563441 91.0405661,240.559155 91.0405661,241.716336 Z M89.0491378,241.850892 C89.0491378,241.043556 88.9684043,240.290043 88.8338483,239.617263 C88.6723811,238.917572 88.4570916,238.325526 88.1072461,237.814213 C87.7843118,237.3029 87.3537327,236.926144 86.7885976,236.630121 C86.2234626,236.361009 85.5506827,236.199542 84.743347,236.199542 C83.9091,236.199542 83.2363201,236.361009 82.6711851,236.657032 C82.1329612,236.979966 81.6754709,237.383634 81.3256254,237.894947 C80.9757799,238.406259 80.7335792,238.998306 80.5990232,239.671085 C80.4375561,240.343865 80.3568225,241.070467 80.3568225,241.823981 C80.3568225,242.658228 80.4375561,243.411741 80.572112,244.111432 C80.706668,244.811123 80.9488687,245.40317 81.271803,245.914482 C81.5947374,246.425795 82.0522276,246.829463 82.5904515,247.098575 C83.1286754,247.367687 83.8283664,247.529154 84.6626134,247.529154 C85.4968604,247.529154 86.1696402,247.367687 86.7347752,247.071664 C87.2999103,246.748729 87.7574006,246.345061 88.0803349,245.833749 C88.4301804,245.295525 88.6723811,244.703479 88.8338483,244.003788 C88.9684043,243.331008 89.0491378,242.604405 89.0491378,241.850892 Z M107.321838,248.551779 C107.294927,248.632513 107.268016,248.713246 107.187282,248.79398 C107.13346,248.847802 107.052726,248.901625 106.945081,248.928536 C106.864348,248.955447 106.729792,248.982358 106.568325,249.009269 C106.433769,249.009269 106.24539,249.036181 106.030101,249.036181 C105.814811,249.036181 105.599522,249.009269 105.464966,249.009269 C105.303498,248.982358 105.168942,248.955447 105.061298,248.928536 C104.953653,248.901625 104.899831,248.847802 104.846008,248.79398 C104.792186,248.713246 104.738363,248.632513 104.711452,248.551779 L101.751221,237.841124 L101.72431,237.841124 L98.9793681,248.551779 C98.9793681,248.632513 98.9255457,248.713246 98.8717233,248.79398 C98.8179009,248.847802 98.7640785,248.901625 98.6564338,248.928536 C98.5757002,248.955447 98.4411442,248.982358 98.3065883,249.009269 C98.1451211,249.009269 97.9567427,249.036181 97.714542,249.036181 C97.4723413,249.036181 97.2839629,249.009269 97.1224958,249.009269 C96.9610286,248.982358 96.8264726,248.955447 96.7188279,248.928536 C96.6380943,248.901625 96.5573607,248.847802 96.5035383,248.79398 C96.4497159,248.713246 96.3958936,248.632513 96.3689824,248.551779 L92.6283265,235.446028 C92.6014153,235.284561 92.5745041,235.150005 92.5745041,235.069271 C92.5475929,234.961627 92.6014153,234.907804 92.6552377,234.853982 C92.7090601,234.800159 92.8167049,234.773248 92.9512608,234.746337 C93.0858168,234.746337 93.2741952,234.719426 93.5163959,234.719426 C93.7316854,234.719426 93.9200638,234.719426 94.0546198,234.746337 C94.1891757,234.746337 94.2699093,234.773248 94.3506429,234.800159 C94.4044653,234.827071 94.4582877,234.880893 94.4851988,234.934715 C94.51211,234.961627 94.5390212,235.04236 94.5390212,235.123094 L97.7414532,246.99093 L97.7414532,246.99093 L100.755507,235.150005 C100.782418,235.069271 100.809329,234.988538 100.83624,234.934715 C100.890063,234.880893 100.943885,234.853982 100.997708,234.800159 C101.078441,234.800159 101.186086,234.773248 101.320642,234.746337 C101.455198,234.746337 101.616665,234.719426 101.858866,234.719426 C102.047244,234.719426 102.208711,234.746337 102.343267,234.746337 C102.450912,234.773248 102.558557,234.800159 102.612379,234.800159 C102.693113,234.853982 102.746935,234.880893 102.773846,234.934715 C102.827669,234.988538 102.85458,235.069271 102.881491,235.150005 L106.110834,246.99093 L106.137745,246.99093 L109.259444,235.123094 C109.286355,235.069271 109.286355,234.988538 109.313266,234.934715 C109.340177,234.880893 109.394,234.853982 109.447822,234.800159 C109.528556,234.800159 109.636201,234.773248 109.743845,234.746337 C109.878401,234.746337 110.039868,234.719426 110.255158,234.719426 C110.470448,234.719426 110.658826,234.746337 110.793382,234.746337 C110.901027,234.773248 111.008671,234.800159 111.062494,234.853982 C111.116316,234.907804 111.143227,234.988538 111.143227,235.069271 C111.143227,235.176916 111.116316,235.311472 111.089405,235.472939 L107.321838,248.551779 Z M128.231835,246.964019 L128.231835,247.260042 C128.204924,247.340775 128.204924,247.421509 128.178013,247.502243 C128.151101,247.556065 128.151101,247.609887 128.12419,247.66371 C128.070368,247.717532 128.016545,247.771355 127.962723,247.852088 C127.881989,247.932822 127.720522,248.040466 127.505233,248.201934 C127.263032,248.33649 126.967009,248.497957 126.617163,248.632513 C126.267318,248.767069 125.890561,248.901625 125.433071,248.982358 C124.975581,249.090003 124.491179,249.143825 123.952955,249.143825 C123.037975,249.143825 122.203728,248.982358 121.477125,248.686335 C120.723612,248.363401 120.104655,247.90591 119.566431,247.313864 C119.055118,246.721818 118.65145,245.968305 118.355427,245.107146 C118.086315,244.219077 117.951759,243.196452 117.951759,242.066182 C117.951759,240.882089 118.086315,239.832553 118.409249,238.917572 C118.705273,238.002591 119.135852,237.222167 119.674076,236.576298 C120.239211,235.93043 120.885079,235.446028 121.638593,235.123094 C122.419017,234.773248 123.253264,234.611781 124.195156,234.611781 C124.598824,234.611781 125.002492,234.665604 125.379248,234.719426 C125.756005,234.800159 126.132762,234.907804 126.455696,235.015449 C126.778631,235.123094 127.074654,235.25765 127.316854,235.419117 C127.585966,235.580584 127.774345,235.688229 127.855078,235.795874 C127.962723,235.876607 128.016545,235.957341 128.043457,236.011163 C128.097279,236.064986 128.097279,236.118808 128.12419,236.199542 C128.151101,236.253364 128.151101,236.361009 128.178013,236.441742 L128.178013,236.791588 C128.178013,236.926144 128.178013,237.0607 128.151101,237.168344 C128.151101,237.249078 128.12419,237.356723 128.097279,237.410545 C128.070368,237.491279 128.043457,237.545101 127.989634,237.572012 C127.962723,237.598924 127.908901,237.625835 127.855078,237.625835 C127.747433,237.625835 127.585966,237.545101 127.424499,237.410545 C127.236121,237.275989 126.99392,237.114522 126.697897,236.926144 C126.401874,236.764677 126.052028,236.603209 125.64836,236.468653 C125.217781,236.334097 124.73338,236.253364 124.141334,236.253364 C123.522376,236.253364 122.93033,236.38792 122.419017,236.630121 C121.907705,236.872321 121.450214,237.249078 121.100369,237.73348 C120.723612,238.217881 120.4545,238.836838 120.239211,239.536529 C120.050832,240.23622 119.943187,241.043556 119.943187,241.958537 C119.943187,242.846606 120.023921,243.653942 120.239211,244.326722 C120.427589,245.026413 120.696701,245.618459 121.073458,246.075949 C121.423303,246.53344 121.880793,246.883285 122.392106,247.125486 C122.93033,247.367687 123.522376,247.475331 124.195156,247.475331 C124.760291,247.475331 125.271604,247.394598 125.675272,247.260042 C126.105851,247.125486 126.455696,246.964019 126.751719,246.802552 C127.047742,246.641084 127.289943,246.479617 127.478322,246.345061 C127.693611,246.210505 127.828167,246.129772 127.935812,246.129772 C127.989634,246.129772 128.043457,246.156683 128.070368,246.156683 C128.12419,246.183594 128.151101,246.237417 128.151101,246.291239 C128.178013,246.345061 128.204924,246.425795 128.204924,246.560351 C128.231835,246.667996 128.231835,246.802552 128.231835,246.964019 Z M142.387122,241.716336 C142.387122,242.846606 142.252567,243.896143 141.983455,244.811123 C141.714343,245.726104 141.310675,246.506528 140.772451,247.152397 C140.234227,247.798266 139.561447,248.282667 138.754111,248.632513 C137.919864,248.982358 136.977973,249.170737 135.901525,249.170737 C134.851988,249.170737 133.937008,249.009269 133.156583,248.686335 C132.376159,248.363401 131.73029,247.90591 131.218977,247.286953 C130.707665,246.694907 130.330908,245.941393 130.088707,245.053324 C129.846507,244.138343 129.711951,243.115718 129.711951,241.958537 C129.711951,240.828267 129.846507,239.832553 130.115618,238.917572 C130.38473,238.002591 130.788398,237.222167 131.326622,236.576298 C131.864846,235.957341 132.564537,235.446028 133.371873,235.123094 C134.179209,234.773248 135.1211,234.58487 136.197548,234.58487 C137.247085,234.58487 138.135154,234.746337 138.915579,235.069271 C139.696003,235.365295 140.341872,235.822785 140.853184,236.441742 C141.364497,237.033788 141.741254,237.787302 142.010366,238.675371 C142.252567,239.563441 142.387122,240.559155 142.387122,241.716336 Z M140.395694,241.850892 C140.395694,241.043556 140.314961,240.290043 140.180405,239.617263 C140.018938,238.917572 139.803648,238.325526 139.453802,237.814213 C139.130868,237.3029 138.700289,236.926144 138.135154,236.630121 C137.570019,236.361009 136.897239,236.199542 136.089903,236.199542 C135.255656,236.199542 134.582877,236.361009 134.017741,236.657032 C133.479518,236.979966 133.022027,237.383634 132.672182,237.894947 C132.322336,238.406259 132.080136,238.998306 131.94558,239.671085 C131.784112,240.343865 131.703379,241.070467 131.703379,241.823981 C131.703379,242.658228 131.784112,243.411741 131.918668,244.111432 C132.053224,244.811123 132.295425,245.40317 132.618359,245.914482 C132.941294,246.425795 133.371873,246.829463 133.937008,247.098575 C134.475232,247.367687 135.174923,247.529154 136.00917,247.529154 C136.816506,247.529154 137.516197,247.367687 138.081332,247.071664 C138.646467,246.748729 139.103957,246.345061 139.426891,245.833749 C139.776737,245.295525 140.018938,244.703479 140.153493,244.003788 C140.314961,243.331008 140.395694,242.604405 140.395694,241.850892 Z M160.767467,248.659424 C160.767467,248.740157 160.740556,248.79398 160.713645,248.820891 C160.686734,248.874713 160.632911,248.901625 160.552178,248.928536 C160.471444,248.955447 160.390711,248.982358 160.256155,249.009269 C160.14851,249.009269 159.987043,249.036181 159.798664,249.036181 C159.637197,249.036181 159.47573,249.009269 159.368085,249.009269 C159.233529,248.982358 159.152796,248.955447 159.072062,248.928536 C158.991329,248.901625 158.937506,248.874713 158.910595,248.820891 C158.883684,248.79398 158.883684,248.740157 158.883684,248.659424 L158.883684,236.334097 L158.856773,236.334097 L153.878202,248.740157 C153.851291,248.79398 153.82438,248.820891 153.770557,248.847802 C153.743646,248.901625 153.662912,248.928536 153.60909,248.955447 C153.528356,248.982358 153.420712,249.009269 153.313067,249.009269 C153.205422,249.009269 153.097777,249.036181 152.93631,249.036181 C152.801754,249.036181 152.667198,249.009269 152.559553,249.009269 C152.451909,248.982358 152.344264,248.955447 152.290442,248.928536 C152.209708,248.928536 152.155886,248.874713 152.102063,248.847802 C152.075152,248.820891 152.048241,248.767069 152.02133,248.740157 L147.258048,236.334097 L147.231137,236.334097 L147.231137,248.659424 C147.231137,248.740157 147.231137,248.79398 147.204226,248.820891 C147.177315,248.874713 147.123492,248.901625 147.042759,248.928536 C146.962025,248.955447 146.854381,248.982358 146.746736,249.009269 C146.639091,249.009269 146.477624,249.036181 146.289245,249.036181 C146.100867,249.036181 145.966311,249.009269 145.831755,249.009269 C145.72411,248.982358 145.616466,248.955447 145.535732,248.928536 C145.48191,248.901625 145.428087,248.874713 145.401176,248.820891 C145.374265,248.79398 145.374265,248.740157 145.374265,248.659424 L145.374265,235.661318 C145.374265,235.338383 145.454999,235.123094 145.616466,234.988538 C145.777933,234.853982 145.9394,234.800159 146.15469,234.800159 L147.311871,234.800159 C147.554072,234.800159 147.74245,234.827071 147.930828,234.853982 C148.119207,234.907804 148.253763,234.961627 148.388319,235.069271 C148.522875,235.176916 148.630519,235.284561 148.738164,235.419117 C148.818898,235.580584 148.899631,235.742051 148.953454,235.957341 L153.017044,246.210505 L153.070866,246.210505 L157.269012,235.984252 C157.349746,235.768962 157.457391,235.580584 157.538124,235.419117 C157.645769,235.25765 157.753414,235.150005 157.861059,235.04236 C157.968703,234.961627 158.103259,234.907804 158.237815,234.853982 C158.372371,234.800159 158.56075,234.800159 158.722217,234.800159 L159.93322,234.800159 C160.040865,234.800159 160.14851,234.800159 160.256155,234.853982 C160.363799,234.880893 160.444533,234.934715 160.525267,234.988538 C160.579089,235.069271 160.632911,235.150005 160.686734,235.25765 C160.740556,235.365295 160.767467,235.49985 160.767467,235.661318 L160.767467,248.659424 Z M173.22735,238.944483 C173.22735,239.644174 173.092794,240.290043 172.850593,240.855178 C172.635303,241.420313 172.312369,241.904714 171.854879,242.308382 C171.4243,242.71205 170.886076,243.034985 170.267119,243.250274 C169.648161,243.465564 168.894648,243.573208 168.006578,243.573208 L166.391907,243.573208 L166.391907,248.659424 C166.391907,248.740157 166.391907,248.79398 166.364996,248.820891 C166.311173,248.874713 166.257351,248.901625 166.203528,248.928536 C166.122795,248.955447 166.042061,248.982358 165.907505,249.009269 C165.79986,249.009269 165.638393,249.036181 165.450015,249.036181 C165.288548,249.036181 165.127081,249.009269 164.992525,249.009269 C164.88488,248.982358 164.777235,248.955447 164.723413,248.928536 C164.642679,248.901625 164.588857,248.874713 164.561946,248.820891 C164.535034,248.79398 164.508123,248.740157 164.508123,248.659424 L164.508123,235.607495 C164.508123,235.311472 164.588857,235.096183 164.750324,234.988538 C164.911791,234.853982 165.073258,234.800159 165.261637,234.800159 L168.302601,234.800159 C168.598625,234.800159 168.894648,234.800159 169.16376,234.827071 C169.459783,234.853982 169.782717,234.907804 170.159474,234.988538 C170.563142,235.069271 170.939898,235.230739 171.343566,235.472939 C171.747234,235.688229 172.070168,235.984252 172.33928,236.307186 C172.635303,236.657032 172.850593,237.033788 172.985149,237.491279 C173.146616,237.921858 173.22735,238.406259 173.22735,238.944483 Z M171.235921,239.10595 C171.235921,238.513904 171.128277,238.029503 170.912987,237.652746 C170.697698,237.249078 170.428586,236.979966 170.105651,236.764677 C169.809628,236.603209 169.459783,236.468653 169.136848,236.414831 C168.787003,236.361009 168.464069,236.334097 168.141134,236.334097 L166.391907,236.334097 L166.391907,242.03927 L168.114223,242.03927 C168.679358,242.03927 169.136848,241.958537 169.513605,241.823981 C169.890362,241.662514 170.213296,241.474135 170.455497,241.205023 C170.724609,240.935911 170.912987,240.639888 171.047543,240.263132 C171.182099,239.913286 171.235921,239.509618 171.235921,239.10595 Z M185.041364,248.282667 C185.095186,248.444134 185.122097,248.57869 185.149008,248.686335 C185.149008,248.767069 185.122097,248.847802 185.068275,248.901625 C184.987541,248.955447 184.906808,248.982358 184.772252,249.009269 C184.637696,249.009269 184.449317,249.036181 184.234028,249.036181 C183.991827,249.036181 183.803449,249.009269 183.668893,249.009269 C183.534337,249.009269 183.453603,248.982358 183.37287,248.955447 C183.292136,248.928536 183.265225,248.901625 183.211402,248.847802 C183.184491,248.79398 183.15758,248.740157 183.130669,248.686335 L181.919665,245.241702 L176.026114,245.241702 L174.868933,248.632513 C174.842021,248.713246 174.81511,248.767069 174.788199,248.820891 C174.734377,248.847802 174.680554,248.901625 174.626732,248.928536 C174.545998,248.955447 174.465265,248.982358 174.330709,249.009269 C174.196153,249.009269 174.034686,249.036181 173.819396,249.036181 C173.604106,249.036181 173.442639,249.009269 173.308083,249.009269 C173.173527,248.982358 173.092794,248.955447 173.038971,248.901625 C172.958238,248.847802 172.958238,248.767069 172.958238,248.659424 C172.958238,248.57869 172.985149,248.444134 173.038971,248.282667 L177.802253,235.123094 C177.829164,235.04236 177.856075,234.961627 177.909897,234.934715 C177.96372,234.880893 178.017542,234.827071 178.125187,234.800159 C178.20592,234.773248 178.313565,234.746337 178.475032,234.746337 C178.609588,234.719426 178.797967,234.719426 179.013256,234.719426 C179.228546,234.719426 179.443835,234.719426 179.578391,234.746337 C179.739858,234.746337 179.874414,234.773248 179.955148,234.800159 C180.062793,234.827071 180.116615,234.880893 180.170438,234.934715 C180.22426,234.988538 180.278082,235.04236 180.304994,235.123094 L185.041364,248.282667 Z M178.959434,236.683943 L178.932523,236.683943 L176.510515,243.734676 L181.435264,243.734676 L178.959434,236.683943 Z M198.120203,248.175022 C198.120203,248.309578 198.093292,248.444134 198.03947,248.551779 C197.985647,248.632513 197.931825,248.740157 197.851091,248.79398 C197.770358,248.847802 197.689624,248.901625 197.581979,248.928536 C197.501246,248.955447 197.393601,248.982358 197.285956,248.982358 L196.666999,248.982358 C196.478621,248.982358 196.317153,248.955447 196.155686,248.928536 C196.02113,248.874713 195.859663,248.79398 195.725107,248.713246 C195.617462,248.605602 195.482906,248.444134 195.34835,248.282667 C195.213794,248.094289 195.079239,247.852088 194.917771,247.582976 L190.585069,239.509618 C190.36978,239.10595 190.127579,238.675371 189.912289,238.217881 C189.670089,237.760391 189.454799,237.3029 189.266421,236.899233 L189.23951,236.899233 C189.266421,237.410545 189.266421,237.948769 189.293332,238.486993 L189.293332,240.128576 L189.293332,248.659424 C189.293332,248.713246 189.266421,248.767069 189.23951,248.820891 C189.212598,248.874713 189.158776,248.901625 189.078042,248.928536 C189.02422,248.955447 188.916575,248.982358 188.808931,249.009269 C188.674375,249.009269 188.539819,249.036181 188.35144,249.036181 C188.163062,249.036181 188.001595,249.009269 187.89395,249.009269 C187.759394,248.982358 187.67866,248.955447 187.597927,248.928536 C187.544104,248.901625 187.490282,248.874713 187.463371,248.820891 C187.43646,248.767069 187.409548,248.713246 187.409548,248.659424 L187.409548,235.607495 C187.409548,235.311472 187.490282,235.096183 187.651749,234.988538 C187.813216,234.853982 188.001595,234.800159 188.189973,234.800159 L189.131865,234.800159 C189.347154,234.800159 189.535533,234.800159 189.670089,234.853982 C189.831556,234.880893 189.939201,234.934715 190.073757,235.04236 C190.181401,235.123094 190.289046,235.230739 190.396691,235.392206 C190.504336,235.526762 190.638892,235.71514 190.746536,235.957341 L194.083524,242.146915 C194.271903,242.550583 194.487192,242.900429 194.675571,243.277185 C194.863949,243.627031 195.052327,243.976876 195.213794,244.353633 C195.402173,244.676567 195.56364,245.026413 195.752018,245.376258 C195.913485,245.699193 196.101864,246.049038 196.263331,246.398884 L196.263331,246.398884 C196.263331,245.806837 196.23642,245.214791 196.23642,244.595834 L196.23642,242.792784 L196.23642,235.123094 C196.23642,235.069271 196.263331,235.015449 196.290242,234.988538 C196.317153,234.934715 196.370976,234.907804 196.451709,234.853982 C196.505532,234.827071 196.613177,234.800159 196.720821,234.800159 C196.855377,234.773248 197.016844,234.773248 197.205223,234.773248 C197.36669,234.773248 197.501246,234.773248 197.635802,234.800159 C197.770358,234.800159 197.851091,234.827071 197.931825,234.853982 C197.985647,234.907804 198.03947,234.934715 198.066381,234.988538 C198.093292,235.015449 198.120203,235.069271 198.120203,235.123094 L198.120203,248.175022 Z M206.38194,243.438652 L206.38194,248.659424 C206.38194,248.740157 206.355028,248.79398 206.328117,248.820891 C206.301206,248.874713 206.247384,248.901625 206.193561,248.928536 C206.112828,248.955447 206.005183,248.982358 205.897538,249.009269 C205.762982,249.009269 205.628426,249.036181 205.440048,249.036181 C205.251669,249.036181 205.117114,249.009269 204.982558,249.009269 C204.874913,248.982358 204.767268,248.955447 204.686534,248.928536 C204.632712,248.901625 204.57889,248.874713 204.551978,248.820891 C204.498156,248.79398 204.498156,248.740157 204.498156,248.659424 L204.498156,243.438652 L200.488388,235.446028 C200.407655,235.284561 200.353832,235.150005 200.353832,235.069271 C200.326921,234.961627 200.353832,234.907804 200.407655,234.853982 C200.461477,234.800159 200.542211,234.773248 200.703678,234.746337 C200.838234,234.746337 201.026612,234.719426 201.268813,234.719426 C201.484102,234.719426 201.672481,234.746337 201.807037,234.746337 C201.941593,234.773248 202.049238,234.773248 202.129971,234.800159 C202.210705,234.827071 202.264527,234.880893 202.291438,234.907804 C202.345261,234.961627 202.372172,235.015449 202.425994,235.096183 L204.3636,239.159773 C204.551978,239.563441 204.740357,239.967109 204.928735,240.397688 C205.090202,240.801356 205.278581,241.231935 205.466959,241.662514 L205.49387,241.662514 C205.655337,241.258846 205.843716,240.828267 206.005183,240.424599 C206.193561,240.020931 206.38194,239.617263 206.543407,239.213595 L208.507924,235.123094 C208.534835,235.04236 208.561746,234.961627 208.615569,234.934715 C208.64248,234.880893 208.723213,234.827071 208.777036,234.800159 C208.857769,234.773248 208.938503,234.773248 209.073059,234.746337 C209.180704,234.746337 209.342171,234.719426 209.530549,234.719426 C209.799661,234.719426 210.014951,234.746337 210.149507,234.746337 C210.310974,234.773248 210.418619,234.800159 210.472441,234.853982 C210.526263,234.907804 210.553175,234.988538 210.526263,235.069271 C210.499352,235.176916 210.472441,235.311472 210.391707,235.446028 L206.38194,243.438652 Z" id="Shape" fill="#FEFEFE"></path>
                </g>
            </g>
        </g>
    </g>
</svg>