<?xml version="1.0" encoding="UTF-8"?>
<svg width="118px" height="38px" viewBox="0 0 118 38" version="1.1" xmlns="http://www.w3.org/2000/svg" xmlns:xlink="http://www.w3.org/1999/xlink">
    <!-- Generator: Sketch 41.2 (35397) - http://www.bohemiancoding.com/sketch -->
    <title>Untitled 2</title>
    <desc>Created with Sketch.</desc>
    <defs></defs>
    <g id="Page-1" stroke="none" stroke-width="1" fill="none" fill-rule="evenodd">
        <g id="Layer_x0020_1">
            <g id="_2903613714528" transform="translate(5.091864, 2.241470)">
                <path d="M21.148294,10.5708661 C21.148294,4.73097113 16.4107612,0 10.5708661,0 C4.73097113,0 0,4.73097113 0,10.5708661 L0,10.5708661 L0,33.5170604 L21.148294,33.5170604 L21.148294,10.5708661 L21.148294,10.5708661 Z" id="Shape" fill="#84B4E3"></path>
                <path d="M18.7795276,10.7283465 C18.7795276,6.19422572 15.1049869,2.51968504 10.5708661,2.51968504 C6.03674541,2.51968504 2.36220472,6.19422572 2.36220472,10.7283465 L2.36220472,10.7283465 L2.36220472,30.8267717 L18.7795276,30.8267717 L18.7795276,10.7283465 L18.7795276,10.7283465 Z M9.04855643,9.13385827 C9.04855643,9.13385827 9.4488189,8.85170604 9.73097113,8.77952756 C10.0131234,8.70734908 10.4461942,8.67454068 10.4461942,8.67454068 L10.4658793,11.1417323 L9.04855643,9.13385827 Z M9.90813648,11.5485564 L8.58923885,9.37007874 C8.58923885,9.37007874 7.69028871,10.2296588 7.67060367,10.4724409 L9.90813648,11.5485564 Z M7.34908136,12.4409449 L9.3503937,12.4409449 L7.49343832,11.003937 C7.49343832,11.003937 7.31627297,11.6404199 7.34908136,12.4409449 Z M12.3622047,9.13385827 C12.3622047,9.13385827 11.9619423,8.85170604 11.67979,8.77952756 C11.3976378,8.70734908 10.9711286,8.67454068 10.9711286,8.67454068 L10.9448819,11.1417323 L12.3622047,9.13385827 Z M11.5026247,11.5485564 L12.8215223,9.37007874 C12.8215223,9.37007874 13.7270341,10.2296588 13.7401575,10.4724409 L11.5026247,11.5485564 Z M14.0682415,12.4409449 L12.0669291,12.4409449 L13.9173228,11.003937 C13.9173228,11.003937 14.0944882,11.6404199 14.0682415,12.4409449 Z M14.5406824,5.42650919 C14.5406824,5.42650919 13.6286089,4.83595801 12.8805774,4.56692913 C12.1325459,4.29790026 11.0695538,4.16666667 11.0695538,4.16666667 L11.0695538,7.87401575 C11.0695538,7.87401575 11.6929134,7.9855643 11.8897638,8.0511811 C12.0866142,8.12335958 12.7427822,8.47769029 12.7427822,8.47769029 L14.5406824,5.42650919 Z M16.8832021,8.26115486 L14.4225722,9.88845144 L13.2677165,8.77952756 L15.1181102,5.75459318 C15.8989501,6.3976378 16.515748,7.35564304 16.8832021,8.26115486 Z M17.2834646,12.4081365 L17.2834646,10.7020997 C17.2834646,10.0787402 17.1587927,9.44225722 17.0144357,9.2519685 L14.6456693,10.675853 L14.6456693,12.4081365 L17.2834646,12.4081365 Z M6.92257218,5.42650919 C6.92257218,5.42650919 7.83464567,4.83595801 8.58267717,4.56692913 C9.33070866,4.29790026 10.3937008,4.16666667 10.3937008,4.16666667 L10.3937008,7.87401575 C10.3937008,7.87401575 9.77034121,7.9855643 9.57349081,8.0511811 C9.37664042,8.12335958 8.71391076,8.47769029 8.71391076,8.47769029 L6.92257218,5.42650919 Z M4.58005249,8.26115486 L7.04068241,9.88845144 L8.19553806,8.77952756 L6.34514436,5.75459318 C5.56430446,6.3976378 4.94750656,7.35564304 4.58005249,8.26115486 Z M4.17979003,12.4081365 L4.17979003,10.7020997 C4.17979003,10.0787402 4.30446194,9.44225722 4.4488189,9.2519685 L6.8175853,10.675853 L6.8175853,12.4081365 L4.17979003,12.4081365 Z M4.09448819,14.1535433 L6.58136483,14.1535433 L6.58136483,18.484252 L4.09448819,18.484252 L4.09448819,14.1535433 Z M14.8228346,14.1535433 L17.3097113,14.1535433 L17.3097113,18.484252 L14.8228346,18.484252 L14.8228346,14.1535433 Z M11.2467192,14.1535433 L13.7335958,14.1535433 L13.7335958,18.484252 L11.2467192,18.484252 L11.2467192,14.1535433 Z M7.67060367,14.1535433 L10.1574803,14.1535433 L10.1574803,18.484252 L7.67060367,18.484252 L7.67060367,14.1535433 Z M4.09448819,24.6456693 L6.58136483,24.6456693 L6.58136483,28.976378 L4.09448819,28.976378 L4.09448819,24.6456693 Z M14.8228346,24.6456693 L17.3097113,24.6456693 L17.3097113,28.976378 L14.8228346,28.976378 L14.8228346,24.6456693 Z M11.2467192,24.6456693 L13.7335958,24.6456693 L13.7335958,28.976378 L11.2467192,28.976378 L11.2467192,24.6456693 Z M7.67060367,24.6456693 L10.1574803,24.6456693 L10.1574803,28.976378 L7.67060367,28.976378 L7.67060367,24.6456693 Z M4.09448819,19.4291339 L6.58136483,19.4291339 L6.58136483,23.7598425 L4.09448819,23.7598425 L4.09448819,19.4291339 Z M14.8228346,19.4291339 L17.3097113,19.4291339 L17.3097113,23.7598425 L14.8228346,23.7598425 L14.8228346,19.4291339 Z M11.2467192,19.4291339 L13.7335958,19.4291339 L13.7335958,23.7598425 L11.2467192,23.7598425 L11.2467192,19.4291339 Z M7.67060367,19.4291339 L10.1574803,19.4291339 L10.1574803,23.7598425 L7.67060367,23.7598425 L7.67060367,19.4291339 Z" id="Shape" fill="#FEFEFE"></path>
                <g id="Group-2" transform="translate(24.101050, 4.685039)" fill="#84B4E3">
                    <path d="M9.23653889,10.7062647 C9.23653889,11.3289231 9.12410911,11.8823972 8.89060111,12.3753351 C8.6570931,12.8596249 8.33710065,13.2747305 7.93062375,13.6120038 C7.52414685,13.9579251 7.03983395,14.2087181 6.48633349,14.3816787 C5.93283303,14.5546394 5.33609035,14.6411197 4.69610545,14.6411197 C4.24638633,14.6411197 3.83126098,14.5978796 3.45072942,14.5286953 C3.07019785,14.450863 2.72426007,14.3557346 2.43021295,14.2433102 C2.12751739,14.1395338 1.87671249,14.0184613 1.67779826,13.9060369 C1.47888404,13.7849645 1.33186048,13.6898361 1.25402448,13.6033558 C1.17618847,13.5168754 1.11564936,13.413099 1.08105558,13.2920266 C1.03781336,13.1623061 1.02051647,12.9893454 1.02051647,12.7817926 C1.02051647,12.6261281 1.02916491,12.5050556 1.03781336,12.4012792 C1.05511025,12.3061508 1.08105558,12.2283185 1.09835247,12.1677823 C1.13294625,12.098598 1.16754003,12.0640059 1.21078225,12.0380618 C1.24537603,12.0121177 1.2972667,12.0034697 1.34915737,12.0034697 C1.44429026,12.0034697 1.58266537,12.0640059 1.75563427,12.1764303 C1.92860316,12.2888548 2.16211116,12.4185753 2.43886139,12.5569438 C2.70696318,12.6866643 3.04425252,12.8163848 3.43343253,12.9374572 C3.82261254,13.0585297 4.27233166,13.1190659 4.77394145,13.1190659 C5.16312146,13.1190659 5.51770769,13.0671777 5.83770014,12.9634013 C6.15769259,12.8596249 6.43444282,12.7212564 6.65930239,12.5309997 C6.89281039,12.340743 7.06577928,12.1072461 7.19550595,11.830509 C7.31658418,11.56242 7.37712329,11.2510908 7.37712329,10.8965215 C7.37712329,10.5246561 7.29063884,10.1960308 7.1263184,9.92794178 C6.9533495,9.65985276 6.72848994,9.42635587 6.44309127,9.21880308 C6.15769259,9.01989833 5.83770014,8.83828964 5.47446547,8.66532898 C5.11123079,8.50101635 4.74799612,8.32805569 4.36746455,8.15509504 C3.99558143,7.97348634 3.62369831,7.78322962 3.26911208,7.5670288 C2.9058774,7.35947601 2.58588495,7.10868305 2.30913472,6.81464993 C2.02373605,6.52926485 1.79887649,6.19199156 1.6259076,5.80283008 C1.44429026,5.4136686 1.35780581,4.94667483 1.35780581,4.40184875 C1.35780581,3.84837465 1.46158715,3.34678874 1.66050137,2.91438709 C1.86806405,2.48198545 2.14481427,2.11012003 2.50804895,1.81608691 C2.87128363,1.52205379 3.29505741,1.29720494 3.7966672,1.14154034 C4.29827699,0.985875752 4.82583212,0.908043456 5.40527791,0.908043456 C5.69932503,0.908043456 6.00202059,0.933987554 6.29606771,0.985875752 C6.59876327,1.03776395 6.8755135,1.10694821 7.14361529,1.19342854 C7.40306863,1.27990887 7.64522508,1.37503723 7.85278775,1.48746166 C8.05170197,1.59123806 8.19007709,1.67771838 8.25926465,1.73825462 C8.31980376,1.80743888 8.36304598,1.85932708 8.38899132,1.89391921 C8.40628821,1.93715937 8.42358509,1.98039954 8.43223354,2.04093577 C8.44953043,2.101472 8.45817887,2.17065626 8.46682732,2.25713659 C8.47547576,2.33496889 8.47547576,2.43874528 8.47547576,2.57711381 C8.47547576,2.69818627 8.47547576,2.8106107 8.46682732,2.90573906 C8.44953043,3.00086742 8.43223354,3.07869972 8.41493665,3.14788398 C8.39763976,3.20842021 8.36304598,3.26030841 8.3284522,3.29490054 C8.29385842,3.32949267 8.2506162,3.3381407 8.19872553,3.3381407 C8.12088953,3.3381407 8.00845975,3.28625251 7.8441393,3.19112414 C7.67981885,3.09599578 7.48090463,2.99221939 7.24739662,2.87114693 C7.01388862,2.75007447 6.73713839,2.63765004 6.41714593,2.54252168 C6.09715348,2.43874528 5.74256725,2.38685708 5.3447388,2.38685708 C4.97285568,2.38685708 4.64421478,2.43874528 4.376113,2.53387364 C4.09936277,2.63765004 3.86585476,2.76737053 3.69288587,2.93168316 C3.51126853,3.09599578 3.38154186,3.29490054 3.28640897,3.51974939 C3.19992452,3.74459825 3.1566823,3.98674317 3.1566823,4.23753613 C3.1566823,4.60940154 3.2345183,4.92937876 3.40748719,5.19746778 C3.58045609,5.4655568 3.81396409,5.69905369 4.09936277,5.90660648 C4.38476144,6.11415927 4.71340234,6.30441599 5.07663701,6.47737665 C5.43987169,6.65033731 5.81175481,6.82329797 6.19228637,6.99625863 C6.57281794,7.16921928 6.94470106,7.35947601 7.30793573,7.57567683 C7.67117041,7.78322962 7.99116286,8.03402257 8.28520998,8.31940766 C8.57060865,8.60479275 8.79546822,8.933418 8.97708555,9.33122751 C9.15005445,9.71174096 9.23653889,10.1700867 9.23653889,10.7062647 Z M20.1941183,9.44365194 C20.1941183,10.1960308 20.0903369,10.8965215 19.8914227,11.5278279 C19.6925085,12.1677823 19.3984614,12.7126084 19.0006329,13.1796022 C18.6028045,13.6379479 18.1098431,13.9925173 17.5217489,14.2519582 C16.9250062,14.5113992 16.2331306,14.6411197 15.4547706,14.6411197 C14.685059,14.6411197 14.0191288,14.5286953 13.4569799,14.2951984 C12.8861825,14.0703495 12.4191665,13.7417243 12.038635,13.3093227 C11.6667518,12.876921 11.3813532,12.349391 11.1997358,11.7353807 C11.00947,11.1127223 10.9143372,10.4122316 10.9143372,9.62526063 C10.9143372,8.87288177 11.0181185,8.1723911 11.2083843,7.5410847 C11.4072985,6.90113026 11.7013456,6.35630419 12.0991741,5.88931041 C12.4883541,5.43096467 12.9813154,5.07639532 13.5780581,4.81695433 C14.1661523,4.56616138 14.8580279,4.43644088 15.6450364,4.43644088 C16.4060995,4.43644088 17.0720298,4.54886531 17.6428271,4.7823622 C18.204976,5.00721106 18.6806405,5.33583631 19.061172,5.76823795 C19.4330551,6.2006396 19.7184538,6.7281696 19.9087196,7.34217994 C20.0989854,7.96483831 20.1941183,8.66532898 20.1941183,9.44365194 Z M18.4211871,9.54742833 C18.4211871,9.04584243 18.3692964,8.57020062 18.2741636,8.1205029 C18.1876791,7.67945323 18.0320071,7.29029174 17.815796,6.94437043 C17.5995849,6.60709714 17.3141862,6.33900812 16.9423031,6.1487514 C16.5790684,5.94984664 16.1207008,5.85471828 15.5758488,5.85471828 C15.074239,5.85471828 14.6418168,5.94119861 14.2785821,6.1228073 C13.9153475,6.30441599 13.6213003,6.55520895 13.3877923,6.8838342 C13.1456359,7.21245945 12.9813154,7.5929729 12.8602372,8.04267061 C12.7478074,8.49236832 12.6959168,8.97665816 12.6959168,9.50418817 C12.6959168,10.0144221 12.739159,10.498712 12.8342919,10.9397616 C12.9207763,11.3894593 13.0764483,11.7786208 13.3013079,12.1158941 C13.517519,12.4445194 13.8115661,12.7126084 14.1748008,12.9115131 C14.5380355,13.1017699 14.996403,13.2055463 15.541255,13.2055463 C16.0342164,13.2055463 16.4666386,13.1190659 16.8298733,12.9374572 C17.2017564,12.7558485 17.4958035,12.5050556 17.73796,12.1850784 C17.971468,11.8564531 18.1444369,11.4759397 18.2482182,11.026242 C18.360648,10.5765443 18.4211871,10.0836064 18.4211871,9.54742833 Z M24.8642784,6.06227107 L24.8642784,14.191422 C24.8642784,14.2519582 24.8556299,14.2951984 24.8210362,14.3384386 C24.7950908,14.3730307 24.7518486,14.4076228 24.6913095,14.4335669 C24.6221219,14.459511 24.5356375,14.4768071 24.4232077,14.4941032 C24.3107779,14.5027512 24.1810513,14.5113992 24.0080824,14.5113992 C23.8437619,14.5113992 23.7053868,14.5027512 23.6016055,14.4941032 C23.4891757,14.4768071 23.4026912,14.459511 23.3335037,14.4335669 C23.2729646,14.4076228 23.2297223,14.3730307 23.1951286,14.3384386 C23.1691832,14.2951984 23.1518863,14.2519582 23.1518863,14.191422 L23.1518863,6.06227107 L21.8373228,6.06227107 C21.7335414,6.06227107 21.647057,6.01038287 21.5951663,5.89795845 C21.5346272,5.78553402 21.5086819,5.61257336 21.5086819,5.3617804 C21.5086819,5.23205991 21.5173303,5.11963548 21.5259787,5.03315515 C21.5432756,4.93802679 21.5605725,4.86884253 21.5951663,4.8083063 C21.6211116,4.74777007 21.6557054,4.71317794 21.6989476,4.68723384 C21.7335414,4.66128974 21.7854321,4.65264171 21.8373228,4.65264171 L23.1518863,4.65264171 L23.1518863,3.68406202 C23.1518863,3.03545955 23.2124255,2.48198545 23.3335037,2.01499167 C23.4545819,1.54799789 23.6361992,1.16748444 23.8870041,0.873451324 C24.1291606,0.579418205 24.4405046,0.354569349 24.8123877,0.216200823 C25.1842708,0.0691842633 25.63399,0 26.1442482,0 C26.3950531,0 26.6372095,0.0259440987 26.8880144,0.0778322962 C27.1215224,0.129720494 27.2944913,0.181608691 27.3982727,0.224848856 C27.502054,0.26808902 27.5712416,0.311329185 27.6144838,0.354569349 C27.657726,0.389161481 27.6923198,0.449697711 27.7182651,0.510233942 C27.7442105,0.579418205 27.7615073,0.657250501 27.7701558,0.752378863 C27.7788042,0.847507225 27.7788042,0.959931653 27.7788042,1.08965215 C27.7788042,1.21937264 27.7788042,1.32314904 27.7701558,1.40098133 C27.7615073,1.47881363 27.7442105,1.54799789 27.7182651,1.59123806 C27.7009682,1.64312625 27.6750229,1.67771838 27.6490776,1.69501445 C27.6231322,1.70366248 27.5885385,1.71231052 27.5539447,1.71231052 C27.502054,1.71231052 27.4328664,1.70366248 27.3723273,1.66907035 C27.3031398,1.64312625 27.2166553,1.59988609 27.112874,1.56529396 C27.0090927,1.53070183 26.8880144,1.49610969 26.7409909,1.46151756 C26.6026158,1.42692543 26.4382953,1.4182774 26.2480295,1.4182774 C25.9972246,1.4182774 25.7810135,1.46151756 25.6080446,1.53934986 C25.4264273,1.62583019 25.2880522,1.75555068 25.1756224,1.92851134 C25.0718411,2.11012003 24.9853566,2.33496889 24.9334659,2.61170594 C24.8815753,2.88844299 24.8556299,3.23436431 24.8556299,3.63217382 L24.8556299,4.65264171 L29.0501256,4.65264171 L29.0501256,2.42144922 C29.0501256,2.37820905 29.0674225,2.33496889 29.0933678,2.29172872 C29.1193132,2.24848856 29.1625554,2.21389643 29.2230945,2.17930429 C29.292282,2.15336019 29.3701181,2.1274161 29.4825478,2.11012003 C29.5949776,2.101472 29.7333527,2.09282396 29.9149701,2.09282396 C30.0792905,2.09282396 30.2176656,2.101472 30.321447,2.11012003 C30.4338767,2.1274161 30.5203612,2.15336019 30.5809003,2.17930429 C30.6500879,2.21389643 30.6933301,2.24848856 30.7192754,2.29172872 C30.7452208,2.33496889 30.7625176,2.37820905 30.7625176,2.42144922 L30.7625176,4.65264171 L33.1148946,4.65264171 C33.1754337,4.65264171 33.2186759,4.66128974 33.2619181,4.68723384 C33.3138088,4.71317794 33.3484026,4.74777007 33.3743479,4.8083063 C33.4002933,4.86884253 33.4262386,4.93802679 33.4435355,5.03315515 C33.4608324,5.11963548 33.4608324,5.23205991 33.4608324,5.3617804 C33.4608324,5.61257336 33.434887,5.78553402 33.3743479,5.89795845 C33.3138088,6.01038287 33.2273244,6.06227107 33.123543,6.06227107 L30.7625176,6.06227107 L30.7625176,11.2251467 C30.7625176,11.8651012 30.8490021,12.349391 31.0392679,12.6693682 C31.2208852,12.9979935 31.5581745,13.1623061 32.0511359,13.1623061 C32.1981595,13.1623061 32.3365346,13.14501 32.4662612,13.1190659 C32.5873395,13.0844738 32.7084177,13.0498817 32.8035506,13.0152895 C32.8986835,12.9806974 32.9765195,12.9547533 33.045707,12.9201612 C33.123543,12.885569 33.1840821,12.876921 33.2273244,12.876921 C33.2705666,12.876921 33.3051604,12.876921 33.3311057,12.8942171 C33.357051,12.9115131 33.3829964,12.9461053 33.4002933,12.9979935 C33.4175902,13.0498817 33.4262386,13.1104179 33.4435355,13.1968982 C33.4608324,13.2747305 33.4608324,13.3785069 33.4608324,13.4995794 C33.4608324,13.7071322 33.4521839,13.8627968 33.4175902,13.9752212 C33.3829964,14.0962936 33.3484026,14.182774 33.2878635,14.2346622 C33.2359728,14.2951984 33.1581368,14.3470866 33.0543555,14.3903268 C32.9505741,14.442215 32.8294959,14.4768071 32.6824724,14.5113992 C32.5440972,14.5459914 32.3970737,14.5632874 32.2327532,14.5892315 C32.0770812,14.6065276 31.9214092,14.6238237 31.7657372,14.6238237 C31.2814243,14.6238237 30.866299,14.5546394 30.5203612,14.4335669 C30.1830718,14.3038464 29.8976732,14.1049417 29.6728136,13.8541487 C29.4566025,13.5947077 29.3009305,13.2660825 29.1971492,12.876921 C29.1020163,12.4791115 29.0501256,12.0121177 29.0501256,11.4759397 L29.0501256,6.06227107 L24.8642784,6.06227107 Z M43.3892468,9.14097079 C43.3892468,9.40905981 43.3287077,9.59931653 43.1903326,9.72038899 C43.0606059,9.83281342 42.9049339,9.88470162 42.731965,9.88470162 L36.6348116,9.88470162 C36.6348116,10.4035836 36.6867022,10.8705774 36.7904836,11.2856829 C36.8942649,11.7007885 37.0672338,12.0553579 37.3093902,12.349391 C37.5428983,12.6434241 37.8628907,12.868273 38.2434223,13.0239376 C38.6326023,13.1882502 39.0996183,13.2660825 39.6617672,13.2660825 C40.0941894,13.2660825 40.4920179,13.2314904 40.8379557,13.1623061 C41.175245,13.0844738 41.4779406,13.0066415 41.7287455,12.9201612 C41.9795504,12.8336808 42.187113,12.7472005 42.3514335,12.6780162 C42.5071055,12.608832 42.6281837,12.5742399 42.7146682,12.5742399 C42.7665588,12.5742399 42.809801,12.5828879 42.8443948,12.608832 C42.8789886,12.6261281 42.9135824,12.6693682 42.9308793,12.7126084 C42.9481762,12.7644966 42.9654731,12.8250328 42.9741215,12.9115131 C42.9914184,12.9979935 42.9914184,13.1017699 42.9914184,13.2228423 C42.9914184,13.3093227 42.9914184,13.3871549 42.9827699,13.4563392 C42.9741215,13.5168754 42.9654731,13.5774117 42.9568246,13.6292999 C42.9481762,13.6811881 42.9308793,13.7330763 42.9049339,13.7676684 C42.8789886,13.8109086 42.8530433,13.8455007 42.809801,13.8887409 C42.7752073,13.923333 42.6627775,13.9838692 42.4811601,14.0703495 C42.2908944,14.1568299 42.0487379,14.2433102 41.7546908,14.3211425 C41.4606437,14.4076228 41.1233543,14.4768071 40.7341743,14.5459914 C40.3449943,14.6065276 39.929869,14.6411197 39.4887983,14.6411197 C38.7277352,14.6411197 38.0618049,14.5373433 37.4910076,14.3211425 C36.9115618,14.1049417 36.4358973,13.7936125 36.0380689,13.3698589 C35.6488889,12.9547533 35.3548418,12.4272233 35.1559275,11.7959169 C34.9570133,11.1646105 34.8618804,10.4295277 34.8618804,9.58202047 C34.8618804,8.78640144 34.9570133,8.06861471 35.164576,7.4373083 C35.3721386,6.79735387 35.6748342,6.26117583 36.0553658,5.81147812 C36.4445458,5.37042844 36.9202102,5.03315515 37.4650622,4.79101023 C38.0185627,4.55751334 38.6326023,4.43644088 39.3158294,4.43644088 C40.0422988,4.43644088 40.6649868,4.55751334 41.175245,4.79101023 C41.6855032,5.02450712 42.1006286,5.33583631 42.4379179,5.73364582 C42.7665588,6.13145533 43.0087153,6.58980108 43.1643873,7.12597912 C43.3200593,7.66215716 43.3892468,8.23292733 43.3892468,8.83828964 L43.3892468,9.14097079 Z M41.6855032,8.63938488 C41.7028001,7.74863749 41.5038859,7.03949879 41.0887606,6.52926485 C40.6649868,6.01903091 40.0509472,5.76823795 39.229345,5.76823795 C38.8055712,5.76823795 38.4423365,5.84607025 38.122344,6.00173484 C37.8023516,6.16604747 37.5428983,6.37360026 37.3266871,6.64168928 C37.110476,6.90113026 36.9461556,7.20381142 36.8337258,7.54973273 C36.7126476,7.89565405 36.64346,8.25887143 36.6348116,8.63938488 L41.6855032,8.63938488 Z M51.4323004,5.50879696 C51.4323004,5.65581352 51.4236519,5.78553402 51.4236519,5.88931041 C51.4150035,5.99308681 51.3977066,6.0709191 51.3804097,6.13145533 C51.3631128,6.19199156 51.3371675,6.23523173 51.3025737,6.26117583 C51.2766284,6.29576796 51.2333861,6.31306403 51.172847,6.31306403 C51.1209564,6.31306403 51.0517688,6.29576796 50.9739328,6.26117583 C50.8960968,6.23523173 50.8009639,6.2006396 50.705831,6.1746955 C50.6106981,6.14010337 50.4982683,6.11415927 50.3685417,6.08821517 C50.2474635,6.05362304 50.1177368,6.044975 49.9707132,6.044975 C49.7977443,6.044975 49.6247754,6.07956714 49.460455,6.1487514 C49.304783,6.21793566 49.1231656,6.33036009 48.9415483,6.49467272 C48.759931,6.65033731 48.5696652,6.8578901 48.370751,7.11733109 C48.1718367,7.38542011 47.9556256,7.70539732 47.7134692,8.08591077 L47.7134692,14.191422 C47.7134692,14.2519582 47.6961723,14.2951984 47.6702269,14.3384386 C47.6442816,14.3730307 47.6010394,14.4076228 47.5405003,14.4335669 C47.4713127,14.459511 47.3934767,14.4768071 47.2810469,14.4941032 C47.1686172,14.5027512 47.030242,14.5113992 46.8572731,14.5113992 C46.6843043,14.5113992 46.5459291,14.5027512 46.4421478,14.4941032 C46.329718,14.4768071 46.2345851,14.459511 46.174046,14.4335669 C46.1048585,14.4076228 46.0616162,14.3730307 46.0356709,14.3384386 C46.0097256,14.2951984 46.0010771,14.2519582 46.0010771,14.191422 L46.0010771,4.90343466 C46.0010771,4.85154646 46.0097256,4.8083063 46.0356709,4.76506613 C46.0529678,4.730474 46.09621,4.69588187 46.1567491,4.66128974 C46.2172882,4.63534564 46.2951242,4.60940154 46.3989056,4.60075351 C46.4940385,4.59210548 46.6237651,4.58345744 46.7794371,4.58345744 C46.9351091,4.58345744 47.0561874,4.59210548 47.1599687,4.60075351 C47.2551016,4.60940154 47.3329376,4.63534564 47.3934767,4.66128974 C47.4453674,4.69588187 47.4886096,4.730474 47.5145549,4.76506613 C47.5318518,4.8083063 47.5491487,4.85154646 47.5491487,4.90343466 L47.5491487,6.26117583 C47.7999536,5.88066238 48.0421101,5.57798123 48.2669696,5.34448434 C48.4918292,5.11098745 48.6993919,4.92937876 48.8983061,4.79101023 C49.0972203,4.66128974 49.2961345,4.56616138 49.4864003,4.51427318 C49.6853145,4.46238498 49.8842288,4.43644088 50.083143,4.43644088 C50.1696274,4.43644088 50.2734088,4.44508892 50.3858386,4.45373695 C50.4982683,4.46238498 50.6193466,4.47968105 50.7404248,4.50562515 C50.861503,4.54021728 50.9739328,4.56616138 51.0777141,4.60075351 C51.172847,4.63534564 51.2420346,4.66993777 51.2852768,4.7045299 C51.328519,4.73912204 51.3544644,4.77371417 51.3717613,4.8083063 C51.3804097,4.8342504 51.3977066,4.87749056 51.406355,4.92073073 C51.4150035,4.97261892 51.4236519,5.04180319 51.4236519,5.12828352 C51.4323004,5.22341188 51.4323004,5.35313237 51.4323004,5.50879696 Z M65.2611634,13.67254 C65.2611634,13.8109086 65.2525149,13.931981 65.2438665,14.0184613 C65.2265696,14.1135897 65.2006243,14.191422 65.1746789,14.2606063 C65.1400851,14.3211425 65.1054914,14.3730307 65.0622491,14.4076228 C65.0190069,14.4335669 64.9584678,14.450863 64.8979287,14.450863 L58.991041,14.450863 C58.835369,14.450863 58.6883454,14.3989748 58.5413219,14.2951984 C58.4029468,14.182774 58.3337592,13.9925173 58.3337592,13.7330763 L58.3337592,1.3663892 C58.3337592,1.314501 58.3424076,1.26261281 58.3770014,1.21937264 C58.4029468,1.18478051 58.446189,1.15018838 58.5153765,1.12424428 C58.5845641,1.09830018 58.679697,1.08100411 58.8007752,1.06370805 C58.913205,1.04641198 59.0515801,1.03776395 59.2159006,1.03776395 C59.3888695,1.03776395 59.535893,1.04641198 59.6483228,1.06370805 C59.7607526,1.08100411 59.8558855,1.09830018 59.9164246,1.12424428 C59.9942606,1.15018838 60.0375028,1.18478051 60.0634481,1.21937264 C60.0893935,1.26261281 60.1066904,1.314501 60.1066904,1.3663892 L60.1066904,12.9115131 L64.8979287,12.9115131 C64.9584678,12.9115131 65.0190069,12.9201612 65.0622491,12.9547533 C65.1054914,12.9893454 65.1400851,13.0325856 65.1746789,13.0844738 C65.2006243,13.14501 65.2265696,13.2228423 65.2438665,13.3266187 C65.2525149,13.4217471 65.2611634,13.5341715 65.2611634,13.67254 Z M68.7291897,14.191422 C68.7291897,14.2519582 68.7205412,14.2951984 68.6945959,14.3384386 C68.6600021,14.3730307 68.6167599,14.4076228 68.5562208,14.4335669 C68.4956817,14.459511 68.4091972,14.4768071 68.2967674,14.4941032 C68.1843377,14.5027512 68.0459626,14.5113992 67.8729937,14.5113992 C67.7086732,14.5113992 67.5702981,14.5027512 67.4578683,14.4941032 C67.3454385,14.4768071 67.2589541,14.459511 67.1897665,14.4335669 C67.1292274,14.4076228 67.0773368,14.3730307 67.0600399,14.3384386 C67.0340945,14.2951984 67.0254461,14.2519582 67.0254461,14.191422 L67.0254461,4.90343466 C67.0254461,4.8601945 67.0340945,4.8083063 67.0600399,4.77371417 C67.0773368,4.730474 67.1292274,4.69588187 67.1897665,4.66993777 C67.2589541,4.64399367 67.3454385,4.61804957 67.4578683,4.60940154 C67.5702981,4.59210548 67.7086732,4.58345744 67.8729937,4.58345744 C68.0459626,4.58345744 68.1843377,4.59210548 68.2967674,4.60940154 C68.4091972,4.61804957 68.4956817,4.64399367 68.5562208,4.66993777 C68.6167599,4.69588187 68.6600021,4.730474 68.6945959,4.77371417 C68.7205412,4.8083063 68.7291897,4.8601945 68.7291897,4.90343466 L68.7291897,14.191422 Z M68.9194555,1.77284675 C68.9194555,2.17930429 68.8416195,2.44739331 68.6945959,2.59440987 C68.5389239,2.74142643 68.2621737,2.8106107 67.8556968,2.8106107 C67.4578683,2.8106107 67.1811181,2.74142643 67.0340945,2.60305791 C66.887071,2.45604135 66.809235,2.18795233 66.809235,1.79879085 C66.809235,1.3923333 66.887071,1.12424428 67.042743,0.977227719 C67.1897665,0.838859192 67.4665168,0.761026896 67.8729937,0.761026896 C68.2794706,0.761026896 68.5562208,0.830211159 68.7032443,0.977227719 C68.8502679,1.11559625 68.9194555,1.38368527 68.9194555,1.77284675 Z M76.6857588,13.4995794 C76.6857588,13.7071322 76.6684619,13.8627968 76.6425165,13.9752212 C76.6165712,14.0962936 76.573329,14.182774 76.5214383,14.2346622 C76.4695476,14.2951984 76.3830632,14.3470866 76.2706334,14.3903268 C76.1668521,14.442215 76.0371254,14.4768071 75.8987503,14.5113992 C75.7603752,14.5459914 75.6047032,14.5632874 75.4490312,14.5892315 C75.2933592,14.6065276 75.1376872,14.6238237 74.9820152,14.6238237 C74.4977023,14.6238237 74.0825769,14.5546394 73.7452876,14.4335669 C73.3993498,14.3038464 73.1225996,14.1049417 72.89774,13.8541487 C72.6815289,13.5947077 72.5172084,13.2660825 72.4220755,12.876921 C72.3182942,12.4791115 72.275052,12.0121177 72.275052,11.4759397 L72.275052,6.06227107 L70.9691368,6.06227107 C70.8653555,6.06227107 70.7788711,6.01038287 70.718332,5.89795845 C70.6577928,5.78553402 70.6231991,5.61257336 70.6231991,5.3617804 C70.6231991,5.23205991 70.6318475,5.11963548 70.6491444,5.03315515 C70.6664413,4.93802679 70.6923866,4.86884253 70.718332,4.8083063 C70.7442773,4.74777007 70.7788711,4.71317794 70.8221133,4.68723384 C70.874004,4.66128974 70.9172462,4.65264171 70.9777853,4.65264171 L72.275052,4.65264171 L72.275052,2.44739331 C72.275052,2.39550512 72.2837004,2.35226495 72.3096458,2.30902479 C72.3269427,2.26578462 72.3788333,2.23119249 72.4393724,2.20524839 C72.50856,2.17065626 72.5950444,2.15336019 72.7074742,2.13606413 C72.819904,2.11876806 72.9582791,2.11012003 73.1225996,2.11012003 C73.2955685,2.11012003 73.4339436,2.11876806 73.5463734,2.13606413 C73.6588031,2.15336019 73.7452876,2.17065626 73.8058267,2.20524839 C73.8663658,2.23119249 73.909608,2.26578462 73.9442018,2.30902479 C73.9701471,2.35226495 73.9787956,2.39550512 73.9787956,2.44739331 L73.9787956,4.65264171 L76.3484694,4.65264171 C76.4003601,4.65264171 76.4522508,4.66128974 76.495493,4.68723384 C76.5300868,4.71317794 76.573329,4.74777007 76.5992743,4.8083063 C76.6338681,4.86884253 76.651165,4.93802679 76.6684619,5.03315515 C76.6771103,5.11963548 76.6857588,5.23205991 76.6857588,5.3617804 C76.6857588,5.61257336 76.651165,5.78553402 76.5906259,5.89795845 C76.5300868,6.01038287 76.4522508,6.06227107 76.3484694,6.06227107 L73.9787956,6.06227107 L73.9787956,11.2251467 C73.9787956,11.8651012 74.0739285,12.349391 74.2641943,12.6693682 C74.45446,12.9979935 74.7917494,13.1623061 75.2760623,13.1623061 C75.4317343,13.1623061 75.5701094,13.14501 75.6911876,13.1190659 C75.8122659,13.0844738 75.9246956,13.0498817 76.0198285,13.0152895 C76.1149614,12.9806974 76.1927974,12.9547533 76.2706334,12.9201612 C76.3311725,12.885569 76.4003601,12.876921 76.4522508,12.876921 C76.4868445,12.876921 76.5214383,12.876921 76.5473836,12.8942171 C76.573329,12.9115131 76.5992743,12.9461053 76.6165712,12.9979935 C76.6338681,13.0498817 76.651165,13.1104179 76.6684619,13.1968982 C76.6771103,13.2747305 76.6857588,13.3785069 76.6857588,13.4995794 Z M86.6141732,9.14097079 C86.6141732,9.40905981 86.5536341,9.59931653 86.415259,9.72038899 C86.2855323,9.83281342 86.1298603,9.88470162 85.9568914,9.88470162 L79.859738,9.88470162 C79.859738,10.4035836 79.9116286,10.8705774 80.01541,11.2856829 C80.1191913,11.7007885 80.2921602,12.0553579 80.5343166,12.349391 C80.7678246,12.6434241 81.0878171,12.868273 81.4683487,13.0239376 C81.8575287,13.1882502 82.3245447,13.2660825 82.8866936,13.2660825 C83.3191158,13.2660825 83.7169443,13.2314904 84.0628821,13.1623061 C84.4001714,13.0844738 84.702867,13.0066415 84.9536719,12.9201612 C85.2044767,12.8336808 85.4120394,12.7472005 85.5763599,12.6780162 C85.7320319,12.608832 85.8531101,12.5742399 85.9395945,12.5742399 C85.9914852,12.5742399 86.0347274,12.5828879 86.0693212,12.608832 C86.103915,12.6261281 86.1385088,12.6693682 86.1558057,12.7126084 C86.1731026,12.7644966 86.1903994,12.8250328 86.1990479,12.9115131 C86.2163448,12.9979935 86.2163448,13.1017699 86.2163448,13.2228423 C86.2163448,13.3093227 86.2163448,13.3871549 86.2076963,13.4563392 C86.1990479,13.5168754 86.1903994,13.5774117 86.181751,13.6292999 C86.1731026,13.6811881 86.1558057,13.7330763 86.1298603,13.7676684 C86.103915,13.8109086 86.0779697,13.8455007 86.0347274,13.8887409 C86.0001337,13.923333 85.8877039,13.9838692 85.7060865,14.0703495 C85.5158208,14.1568299 85.2736643,14.2433102 84.9796172,14.3211425 C84.6855701,14.4076228 84.3482807,14.4768071 83.9591007,14.5459914 C83.5699207,14.6065276 83.1547954,14.6411197 82.7137247,14.6411197 C81.9526616,14.6411197 81.2867313,14.5373433 80.715934,14.3211425 C80.1364882,14.1049417 79.6608237,13.7936125 79.2629953,13.3698589 C78.8738153,12.9547533 78.5797681,12.4272233 78.3808539,11.7959169 C78.1819397,11.1646105 78.0868068,10.4295277 78.0868068,9.58202047 C78.0868068,8.78640144 78.1819397,8.06861471 78.3895024,7.4373083 C78.597065,6.79735387 78.8997606,6.26117583 79.2802922,5.81147812 C79.6694722,5.37042844 80.1451366,5.03315515 80.6899886,4.79101023 C81.2434891,4.55751334 81.8575287,4.43644088 82.5407558,4.43644088 C83.2672251,4.43644088 83.8899132,4.55751334 84.4001714,4.79101023 C84.9104296,5.02450712 85.325555,5.33583631 85.6628443,5.73364582 C85.9914852,6.13145533 86.2336417,6.58980108 86.3893137,7.12597912 C86.5449857,7.66215716 86.6141732,8.23292733 86.6141732,8.83828964 L86.6141732,9.14097079 Z M84.9104296,8.63938488 C84.9277265,7.74863749 84.7288123,7.03949879 84.3136869,6.52926485 C83.8899132,6.01903091 83.2758736,5.76823795 82.4542713,5.76823795 C82.0304976,5.76823795 81.6672629,5.84607025 81.3472704,6.00173484 C81.027278,6.16604747 80.7678246,6.37360026 80.5516135,6.64168928 C80.3354024,6.90113026 80.171082,7.20381142 80.0586522,7.54973273 C79.937574,7.89565405 79.8683864,8.25887143 79.859738,8.63938488 L84.9104296,8.63938488 Z" id="Shape"></path>
                    <g id="Group" transform="translate(0.000000, 16.465855)">
                        <path d="M7.6884673,7.69674929 C7.67117041,7.74863749 7.65387352,7.79187765 7.61927974,7.82646978 C7.59333441,7.86106192 7.55009218,7.87835798 7.49820152,7.89565405 C7.44631085,7.91295011 7.37712329,7.93024618 7.29928729,7.93889421 C7.22145129,7.94754225 7.1263184,7.94754225 7.01388862,7.94754225 C6.89281039,7.94754225 6.78902905,7.94754225 6.71119305,7.93889421 C6.63335705,7.93024618 6.56416949,7.91295011 6.51227883,7.89565405 C6.45173971,7.87835798 6.41714593,7.86106192 6.3912006,7.82646978 C6.36525527,7.79187765 6.33930993,7.74863749 6.33066149,7.69674929 L4.78258989,2.1274161 L4.77394145,2.1274161 L3.34694808,7.69674929 C3.33829964,7.74863749 3.3123543,7.79187765 3.28640897,7.82646978 C3.26046364,7.86106192 3.22586986,7.87835798 3.17397919,7.89565405 C3.12208852,7.91295011 3.06154941,7.93024618 2.98371341,7.93889421 C2.9058774,7.94754225 2.81074451,7.94754225 2.68966629,7.94754225 C2.55993962,7.94754225 2.45615828,7.94754225 2.36967384,7.93889421 C2.29183783,7.93024618 2.22265028,7.91295011 2.17075961,7.89565405 C2.1102205,7.87835798 2.07562672,7.86106192 2.04103294,7.82646978 C2.0150876,7.79187765 1.99779072,7.74863749 1.98049383,7.69674929 L0.0345937786,0.882099357 C0.0172968893,0.795619028 0,0.726434765 0,0.674546567 C0,0.631306403 0.00864844466,0.588066238 0.0432422233,0.562122139 C0.0778360019,0.53617804 0.12972667,0.518881975 0.198914227,0.510233942 C0.268101784,0.501585909 0.37188312,0.501585909 0.492961345,0.501585909 C0.605391126,0.501585909 0.700524017,0.501585909 0.769711574,0.510233942 C0.838899132,0.518881975 0.8907898,0.527530008 0.925383578,0.544826073 C0.959977357,0.553474106 0.985922691,0.579418205 1.00321958,0.605362304 C1.01186802,0.631306403 1.02916491,0.665898534 1.02916491,0.709138699 L2.68966629,6.8838342 L2.69831473,6.8838342 L4.27233166,0.717786732 C4.2809801,0.674546567 4.29827699,0.639954435 4.31557388,0.614010337 C4.33287077,0.579418205 4.35881611,0.562122139 4.39340989,0.544826073 C4.43665211,0.53617804 4.48854278,0.518881975 4.55773033,0.510233942 C4.62691789,0.501585909 4.72205078,0.501585909 4.83448056,0.501585909 C4.9382619,0.501585909 5.02474635,0.501585909 5.08528546,0.510233942 C5.15447301,0.518881975 5.19771524,0.53617804 5.24095746,0.544826073 C5.27555124,0.562122139 5.30149657,0.579418205 5.31879346,0.614010337 C5.33609035,0.639954435 5.35338724,0.674546567 5.36203569,0.717786732 L7.05713084,6.8838342 L7.06577928,6.8838342 L8.69168688,0.709138699 C8.70033532,0.674546567 8.71763221,0.639954435 8.72628066,0.614010337 C8.7349291,0.579418205 8.76087444,0.562122139 8.79546822,0.544826073 C8.83006199,0.53617804 8.88195266,0.518881975 8.95114022,0.510233942 C9.02032778,0.501585909 9.10681222,0.501585909 9.219242,0.501585909 C9.33167178,0.501585909 9.41815623,0.501585909 9.48734379,0.518881975 C9.55653134,0.527530008 9.59977357,0.544826073 9.63436735,0.570770172 C9.66031268,0.596714271 9.67760957,0.631306403 9.67760957,0.6831946 C9.66896113,0.735082797 9.66031268,0.804267061 9.64301579,0.89074739 L7.6884673,7.69674929 Z M11.8483692,7.77458159 C11.8483692,7.80052569 11.8397207,7.82646978 11.8310723,7.85241388 C11.8137754,7.86970995 11.7878301,7.88700602 11.7532363,7.90430208 C11.7186425,7.91295011 11.6754003,7.93024618 11.6148612,7.93889421 C11.5543221,7.94754225 11.4764861,7.94754225 11.3813532,7.94754225 C11.2862203,7.94754225 11.2083843,7.94754225 11.1478452,7.93889421 C11.087306,7.93024618 11.0354154,7.91295011 11.0008216,7.90430208 C10.9662278,7.88700602 10.9402825,7.86970995 10.9229856,7.85241388 C10.9143372,7.82646978 10.9056887,7.80052569 10.9056887,7.77458159 L10.9056887,2.63765004 C10.9056887,2.61170594 10.9143372,2.58576184 10.9229856,2.56846577 C10.9402825,2.54252168 10.9662278,2.52522561 11.0008216,2.50792954 C11.0354154,2.49063348 11.087306,2.48198545 11.1478452,2.47333741 C11.2083843,2.46468938 11.2862203,2.46468938 11.3813532,2.46468938 C11.4764861,2.46468938 11.5543221,2.46468938 11.6148612,2.47333741 C11.6754003,2.48198545 11.7186425,2.49063348 11.7532363,2.50792954 C11.7878301,2.52522561 11.8137754,2.54252168 11.8310723,2.56846577 C11.8397207,2.58576184 11.8483692,2.61170594 11.8483692,2.63765004 L11.8483692,7.77458159 Z M11.960799,0.908043456 C11.960799,1.13289231 11.9175567,1.27990887 11.8310723,1.35774117 C11.7445878,1.4442215 11.5889158,1.47881363 11.3640563,1.47881363 C11.1478452,1.47881363 10.9921732,1.4442215 10.9143372,1.3663892 C10.8278527,1.2885569 10.7932589,1.14154034 10.7932589,0.925339522 C10.7932589,0.700490666 10.8365012,0.553474106 10.9143372,0.466993777 C11.0008216,0.389161481 11.1564936,0.345921316 11.3813532,0.345921316 C11.5975643,0.345921316 11.7532363,0.389161481 11.8310723,0.466993777 C11.9175567,0.544826073 11.960799,0.691842633 11.960799,0.908043456 Z M17.9974133,7.77458159 C17.9974133,7.80052569 17.9887649,7.82646978 17.971468,7.85241388 C17.9541711,7.86970995 17.9368742,7.88700602 17.9022804,7.90430208 C17.8676867,7.91295011 17.815796,7.93024618 17.7552569,7.93889421 C17.6947178,7.94754225 17.6168818,7.94754225 17.5303973,7.94754225 C17.426616,7.94754225 17.34878,7.94754225 17.2882409,7.93889421 C17.2277018,7.93024618 17.1844595,7.91295011 17.1498658,7.90430208 C17.115272,7.88700602 17.0893266,7.86970995 17.0720298,7.85241388 C17.0547329,7.82646978 17.0547329,7.80052569 17.0547329,7.77458159 L17.0547329,4.76506613 C17.0547329,4.47103302 17.0287875,4.23753613 16.9855453,4.05592744 C16.9423031,3.88296678 16.8731155,3.72730218 16.7866311,3.59758169 C16.7001466,3.4678612 16.5877168,3.37273284 16.4493417,3.30354857 C16.3109666,3.23436431 16.1466462,3.19977218 15.9736773,3.19977218 C15.7315208,3.19977218 15.4980128,3.27760447 15.2645048,3.45056513 C15.0309968,3.61487776 14.7888404,3.85702268 14.529387,4.18564793 L14.529387,7.77458159 C14.529387,7.80052569 14.5207386,7.82646978 14.5034417,7.85241388 C14.4947932,7.86970995 14.4688479,7.88700602 14.4342541,7.90430208 C14.3996604,7.91295011 14.3477697,7.93024618 14.2872306,7.93889421 C14.2266915,7.94754225 14.1488555,7.94754225 14.0537226,7.94754225 C13.9585897,7.94754225 13.8894021,7.94754225 13.828863,7.93889421 C13.7596754,7.93024618 13.7164332,7.91295011 13.6818394,7.90430208 C13.6472457,7.88700602 13.6213003,7.86970995 13.6040034,7.85241388 C13.5867066,7.82646978 13.5867066,7.80052569 13.5867066,7.77458159 L13.5867066,2.63765004 C13.5867066,2.61170594 13.5867066,2.58576184 13.6040034,2.55981774 C13.6126519,2.54252168 13.6385972,2.52522561 13.673191,2.50792954 C13.7077848,2.49063348 13.751027,2.47333741 13.8029177,2.47333741 C13.8548083,2.46468938 13.9239959,2.46468938 14.0104803,2.46468938 C14.0969648,2.46468938 14.1661523,2.46468938 14.2266915,2.47333741 C14.2785821,2.47333741 14.3218244,2.49063348 14.3564181,2.50792954 C14.3823635,2.52522561 14.4083088,2.54252168 14.4169572,2.55981774 C14.4342541,2.58576184 14.4429026,2.61170594 14.4429026,2.63765004 L14.4429026,3.32084464 C14.7283012,2.99221939 15.0136999,2.7587225 15.2990986,2.60305791 C15.5844973,2.45604135 15.8785444,2.37820905 16.1639431,2.37820905 C16.5098808,2.37820905 16.7952795,2.43874528 17.0287875,2.55116971 C17.2622955,2.67224217 17.4525613,2.82790676 17.5909364,3.01816349 C17.73796,3.21706824 17.8417413,3.4419171 17.9022804,3.70135809 C17.9628196,3.96079907 17.9974133,4.27212826 17.9974133,4.63534564 L17.9974133,7.77458159 Z M24.1032153,7.77458159 C24.1032153,7.80052569 24.0945668,7.82646978 24.0859184,7.85241388 C24.0686215,7.86970995 24.0513246,7.88700602 24.0167308,7.90430208 C23.982137,7.92159815 23.9388948,7.93024618 23.8870041,7.93889421 C23.8351135,7.94754225 23.7659259,7.94754225 23.6967384,7.94754225 C23.6102539,7.94754225 23.5497148,7.94754225 23.4978241,7.93889421 C23.437285,7.93024618 23.3940428,7.92159815 23.359449,7.90430208 C23.3335037,7.88700602 23.3075583,7.86970995 23.2902615,7.85241388 C23.2729646,7.82646978 23.2643161,7.80052569 23.2643161,7.77458159 L23.2643161,7.09138699 C22.9962143,7.38542011 22.7194641,7.61026896 22.425417,7.77458159 C22.1313699,7.93889421 21.8200259,8.01672651 21.4740881,8.01672651 C21.0935565,8.01672651 20.7735641,7.94754225 20.5141107,7.80052569 C20.2460089,7.65350913 20.0297978,7.45460437 19.8654774,7.20381142 C19.7011569,6.95301846 19.5800787,6.66763337 19.5022427,6.33036009 C19.4244067,5.99308681 19.3898129,5.63851746 19.3898129,5.26665204 C19.3898129,4.82560236 19.4330551,4.42779285 19.528188,4.0732235 C19.6233209,3.71865415 19.7703445,3.40732497 19.9519618,3.15653201 C20.1422276,2.90573906 20.3670872,2.71548233 20.6438374,2.58576184 C20.9205876,2.44739331 21.2405801,2.37820905 21.5951663,2.37820905 C21.8978619,2.37820905 22.1746121,2.44739331 22.425417,2.57711381 C22.6675734,2.7068343 22.9183783,2.90573906 23.1605348,3.15653201 L23.1605348,0.181608691 C23.1605348,0.155664592 23.1605348,0.129720494 23.1778317,0.103776395 C23.1951286,0.0778322962 23.2210739,0.0605362304 23.2556677,0.0518881975 C23.2902615,0.0345921316 23.3421521,0.0259440987 23.4026912,0.0172960658 C23.4632304,-2.98142198e-15 23.5324179,-2.98142198e-15 23.6275508,-2.98142198e-15 C23.7226837,-2.98142198e-15 23.8005197,-2.98142198e-15 23.8610588,0.0172960658 C23.9215979,0.0259440987 23.9648401,0.0345921316 23.9994339,0.0518881975 C24.0340277,0.0605362304 24.059973,0.0778322962 24.0772699,0.103776395 C24.0945668,0.129720494 24.1032153,0.155664592 24.1032153,0.181608691 L24.1032153,7.77458159 Z M23.1605348,4.15970383 C22.9097299,3.83972661 22.658925,3.59758169 22.425417,3.43326907 C22.1832605,3.26895644 21.9411041,3.18247611 21.6816508,3.18247611 C21.4394943,3.18247611 21.2405801,3.24301234 21.0762596,3.35543677 C20.9032907,3.4678612 20.7735641,3.62352579 20.6697827,3.80513448 C20.5660014,3.9953912 20.4881654,4.20294399 20.4449232,4.43644088 C20.3930325,4.6785858 20.3670872,4.91208269 20.3670872,5.15422762 C20.3670872,5.4136686 20.3930325,5.67310959 20.4276263,5.91525451 C20.4708685,6.16604747 20.5400561,6.38224829 20.6351889,6.57250501 C20.7389703,6.77140977 20.868697,6.91842633 21.0330174,7.03949879 C21.1886894,7.15192322 21.3962521,7.21245945 21.6384085,7.21245945 C21.7681352,7.21245945 21.8892134,7.19516338 22.0016432,7.16057125 C22.114073,7.12597912 22.2351512,7.07409092 22.3562294,6.98761059 C22.4773077,6.9097783 22.6070343,6.8060019 22.736761,6.67628141 C22.8751361,6.55520895 23.0135112,6.39954435 23.1605348,6.20928763 L23.1605348,4.15970383 Z M30.6068456,5.14557958 C30.6068456,5.56068516 30.554955,5.94984664 30.4425252,6.29576796 C30.3300954,6.65033731 30.165775,6.95301846 29.9495638,7.21245945 C29.7333527,7.4632524 29.4566025,7.66215716 29.13661,7.80052569 C28.7993207,7.94754225 28.4187891,8.01672651 27.9863669,8.01672651 C27.5712416,8.01672651 27.1993584,7.95619028 26.8880144,7.82646978 C26.5766704,7.70539732 26.3172171,7.52378863 26.1096544,7.28164371 C25.8934433,7.03949879 25.7377713,6.7541137 25.6426384,6.40819239 C25.5388571,6.0709191 25.4869664,5.68175762 25.4869664,5.24935598 C25.4869664,4.82560236 25.5388571,4.44508892 25.6426384,4.09051957 C25.7550682,3.74459825 25.9193886,3.4419171 26.1355997,3.18247611 C26.3518109,2.93168316 26.6285611,2.7327784 26.957202,2.59440987 C27.2771944,2.44739331 27.657726,2.37820905 28.0987967,2.37820905 C28.5225705,2.37820905 28.8858052,2.43874528 29.1971492,2.56846577 C29.5171416,2.69818627 29.776595,2.87979496 29.9841576,3.11329185 C30.1917203,3.35543677 30.3473923,3.64082186 30.4511736,3.98674317 C30.554955,4.33266449 30.6068456,4.71317794 30.6068456,5.14557958 Z M29.6295714,5.20611581 C29.6295714,4.92937876 29.6036261,4.66128974 29.5517354,4.41914482 C29.4998447,4.16835186 29.4133603,3.95215104 29.292282,3.77054235 C29.1798523,3.58028563 29.0155318,3.43326907 28.8166176,3.32949267 C28.6177034,3.21706824 28.35825,3.16518005 28.0642029,3.16518005 C27.7788042,3.16518005 27.5452962,3.20842021 27.346382,3.31219661 C27.1388193,3.40732497 26.9831473,3.54569349 26.8447722,3.72730218 C26.7150455,3.90891088 26.6199127,4.1251117 26.5593735,4.37590465 C26.4988344,4.61804957 26.4642406,4.88613859 26.4642406,5.18017171 C26.4642406,5.4655568 26.490186,5.72499779 26.5420766,5.97579074 C26.5939673,6.21793566 26.6804518,6.43413649 26.80153,6.62439321 C26.9226082,6.8060019 27.0782802,6.95301846 27.2858429,7.05679486 C27.4847571,7.16921928 27.735562,7.22110748 28.0382576,7.22110748 C28.3150078,7.22110748 28.5485158,7.17786732 28.7560785,7.07409092 C28.9549927,6.97896256 29.1193132,6.84059403 29.2490398,6.65898534 C29.3787665,6.47737665 29.4738994,6.26982386 29.5344385,6.01903091 C29.5949776,5.77688598 29.6295714,5.50014893 29.6295714,5.20611581 Z M39.1255636,2.62900201 C39.1255636,2.6549461 39.1255636,2.68953824 39.1169152,2.72413037 C39.1082667,2.7587225 39.0996183,2.8106107 39.073673,2.87114693 L37.5688436,7.73998946 C37.5515467,7.78322962 37.5342498,7.81782175 37.5083045,7.84376585 C37.4910076,7.86970995 37.4564138,7.89565405 37.4131716,7.90430208 C37.3699294,7.92159815 37.3093902,7.93024618 37.2315542,7.93889421 C37.1537182,7.94754225 37.0585854,7.94754225 36.9461556,7.94754225 C36.8250773,7.94754225 36.7299445,7.94754225 36.6521085,7.93889421 C36.565624,7.93024618 36.5050849,7.91295011 36.4618427,7.90430208 C36.409952,7.88700602 36.3753582,7.86970995 36.3494129,7.83511782 C36.332116,7.80917372 36.3148191,7.78322962 36.3061707,7.73998946 L35.2251151,4.0213353 L35.2164666,3.96944711 L35.1991697,4.0213353 L34.2045986,7.73998946 C34.1959502,7.78322962 34.1700048,7.81782175 34.1527079,7.84376585 C34.1267626,7.86970995 34.0921688,7.89565405 34.0402782,7.90430208 C33.9883875,7.92159815 33.9278484,7.93024618 33.8500124,7.93889421 C33.7721764,7.94754225 33.6770435,7.94754225 33.5559653,7.94754225 C33.4435355,7.94754225 33.3484026,7.94754225 33.2705666,7.93889421 C33.201379,7.93024618 33.1408399,7.91295011 33.0889493,7.90430208 C33.045707,7.88700602 33.0111133,7.86970995 32.9851679,7.83511782 C32.9592226,7.80917372 32.9419257,7.78322962 32.9332772,7.73998946 L31.4370963,2.87114693 C31.4197994,2.8106107 31.4025025,2.7587225 31.3938541,2.72413037 C31.3852057,2.68953824 31.3852057,2.6549461 31.3852057,2.62900201 C31.3852057,2.59440987 31.3938541,2.56846577 31.4025025,2.54252168 C31.4197994,2.52522561 31.4457448,2.50792954 31.4803385,2.49063348 C31.5149323,2.48198545 31.566823,2.47333741 31.6273621,2.46468938 L31.8522217,2.46468938 C31.956003,2.46468938 32.0424874,2.46468938 32.1030266,2.47333741 C32.1722141,2.47333741 32.2241048,2.48198545 32.2586986,2.49928151 C32.2932923,2.51657758 32.3105892,2.53387364 32.3278861,2.55981774 C32.345183,2.57711381 32.3538315,2.61170594 32.3711283,2.64629807 L33.6078559,6.8838342 L33.6165044,6.93572239 L33.6251528,6.8838342 L34.7667475,2.64629807 C34.775396,2.61170594 34.7840444,2.57711381 34.8013413,2.55981774 C34.8186382,2.53387364 34.8445835,2.51657758 34.8791773,2.49928151 C34.9137711,2.48198545 34.9570133,2.47333741 35.0175524,2.47333741 C35.0780915,2.46468938 35.1559275,2.46468938 35.2510604,2.46468938 C35.3375449,2.46468938 35.4153809,2.46468938 35.4672715,2.47333741 C35.5278106,2.47333741 35.5797013,2.48198545 35.6142951,2.49928151 C35.6488889,2.51657758 35.6661858,2.53387364 35.6834827,2.55116971 C35.7007795,2.57711381 35.709428,2.60305791 35.7180764,2.63765004 L36.9461556,6.8838342 L36.954804,6.93572239 L36.9634525,6.8838342 L38.1828832,2.64629807 C38.1915316,2.61170594 38.20018,2.57711381 38.2174769,2.55981774 C38.2347738,2.53387364 38.2607192,2.51657758 38.3039614,2.49928151 C38.3385552,2.48198545 38.3817974,2.47333741 38.4509849,2.47333741 C38.5115241,2.46468938 38.5893601,2.46468938 38.6844929,2.46468938 L38.9093525,2.46468938 C38.9612432,2.47333741 39.0044854,2.48198545 39.0390792,2.49928151 C39.073673,2.50792954 39.0996183,2.52522561 39.1082667,2.55116971 C39.1169152,2.56846577 39.1255636,2.59440987 39.1255636,2.62900201 Z M47.9642741,6.87518616 L47.9642741,7.03085076 C47.9556256,7.07409092 47.9556256,7.11733109 47.9383287,7.15192322 C47.9296803,7.18651535 47.9210318,7.21245945 47.9037349,7.24705158 C47.8864381,7.26434765 47.8604927,7.29893978 47.8258989,7.34217994 C47.7826567,7.37677207 47.7048207,7.4373083 47.5837425,7.5151406 C47.4626643,7.5929729 47.3156407,7.67080519 47.1340234,7.73998946 C46.952406,7.81782175 46.7448434,7.87835798 46.5113354,7.93024618 C46.2778274,7.98213438 46.018374,8.00807848 45.7416238,8.00807848 C45.2659593,8.00807848 44.8335371,7.93024618 44.4443571,7.76593355 C44.0551771,7.61026896 43.7265362,7.36812404 43.4584344,7.05679486 C43.1816842,6.74546567 42.9741215,6.36495222 42.8270979,5.90660648 C42.6800744,5.44826073 42.6108868,4.92073073 42.6108868,4.32401646 C42.6108868,3.71000612 42.6887228,3.16518005 42.8443948,2.6808902 C43.0087153,2.20524839 43.2249264,1.79879085 43.5103251,1.47016559 C43.7957237,1.13289231 44.1416615,0.882099357 44.53949,0.709138699 C44.9373184,0.527530008 45.3783891,0.441049678 45.862702,0.441049678 C46.0702647,0.441049678 46.2778274,0.466993777 46.4767416,0.501585909 C46.6843043,0.544826073 46.8659216,0.588066238 47.0388905,0.648602468 C47.2118594,0.709138699 47.3675314,0.778322962 47.497258,0.864803291 C47.6269847,0.942635587 47.7221176,1.00317182 47.7740083,1.05506002 C47.8258989,1.10694821 47.8604927,1.14154034 47.8777896,1.17613248 C47.8950865,1.20207657 47.9037349,1.22802067 47.9123834,1.26261281 C47.9210318,1.30585297 47.9296803,1.34909313 47.9383287,1.3923333 C47.9383287,1.4442215 47.9469772,1.50475773 47.9469772,1.57394199 C47.9469772,1.65177429 47.9383287,1.71231052 47.9296803,1.76419871 C47.9210318,1.82473494 47.9123834,1.86797511 47.8950865,1.90256724 C47.8864381,1.93715937 47.8604927,1.96310347 47.8431958,1.98039954 C47.8258989,1.9976956 47.7999536,2.00634364 47.7653598,2.00634364 C47.7134692,2.00634364 47.6356332,1.9717515 47.5405003,1.89391921 C47.4453674,1.82473494 47.3242892,1.73825462 47.1686172,1.65177429 C47.0215936,1.56529396 46.8399763,1.47881363 46.6237651,1.40962936 C46.3989056,1.33179707 46.1481007,1.29720494 45.8454051,1.29720494 C45.5081158,1.29720494 45.2140687,1.35774117 44.9459669,1.49610969 C44.6778651,1.62583019 44.4443571,1.81608691 44.2540913,2.0755279 C44.0638255,2.32632085 43.9081535,2.63765004 43.8043722,3.00086742 C43.7005908,3.37273284 43.6487002,3.79648645 43.6487002,4.26348023 C43.6487002,4.730474 43.7005908,5.14557958 43.8043722,5.50879696 C43.8995051,5.86336631 44.0465286,6.16604747 44.2367944,6.40819239 C44.4270602,6.65033731 44.6605682,6.831946 44.92867,6.96166649 C45.2054202,7.08273895 45.5167642,7.14327518 45.8713505,7.14327518 C46.1653976,7.14327518 46.4248509,7.10868305 46.641062,7.03085076 C46.8572731,6.96166649 47.0475389,6.8838342 47.2032109,6.78870584 C47.3588829,6.70222551 47.4799612,6.62439321 47.5837425,6.55520895 C47.6788754,6.47737665 47.7567114,6.44278452 47.8172505,6.44278452 C47.8431958,6.44278452 47.8691412,6.45143255 47.8864381,6.46008058 C47.9037349,6.46872862 47.9210318,6.49467272 47.9296803,6.52061682 C47.9469772,6.55520895 47.9556256,6.59844911 47.9556256,6.65898534 C47.9642741,6.71087354 47.9642741,6.78870584 47.9642741,6.87518616 Z M53.9230524,5.14557958 C53.9230524,5.56068516 53.8625133,5.94984664 53.758732,6.29576796 C53.6463022,6.65033731 53.4819818,6.95301846 53.2657706,7.21245945 C53.0495595,7.4632524 52.7728093,7.66215716 52.4441684,7.80052569 C52.1155275,7.94754225 51.7349959,8.01672651 51.3025737,8.01672651 C50.8787999,8.01672651 50.5155652,7.95619028 50.2042212,7.82646978 C49.8842288,7.70539732 49.6247754,7.52378863 49.4172128,7.28164371 C49.2096501,7.03949879 49.0539781,6.7541137 48.9501968,6.40819239 C48.8464154,6.0709191 48.7945247,5.68175762 48.7945247,5.24935598 C48.7945247,4.82560236 48.8550639,4.44508892 48.9588452,4.09051957 C49.071275,3.74459825 49.2355954,3.4419171 49.4518065,3.18247611 C49.6680177,2.93168316 49.9361194,2.7327784 50.2647603,2.59440987 C50.5934012,2.44739331 50.9739328,2.37820905 51.406355,2.37820905 C51.8301288,2.37820905 52.2020119,2.43874528 52.513356,2.56846577 C52.8247,2.69818627 53.0841533,2.87979496 53.291716,3.11329185 C53.4992786,3.35543677 53.6635991,3.64082186 53.7673804,3.98674317 C53.8711618,4.33266449 53.9230524,4.71317794 53.9230524,5.14557958 Z M52.9371297,5.20611581 C52.9371297,4.92937876 52.9111844,4.66128974 52.8592937,4.41914482 C52.8160515,4.16835186 52.7295671,3.95215104 52.6084888,3.77054235 C52.4874106,3.58028563 52.3317386,3.43326907 52.1241759,3.32949267 C51.9252617,3.21706824 51.6744568,3.16518005 51.3717613,3.16518005 C51.095011,3.16518005 50.8528546,3.20842021 50.6539403,3.31219661 C50.4550261,3.40732497 50.2907057,3.54569349 50.160979,3.72730218 C50.0312523,3.90891088 49.9361194,4.1251117 49.8755803,4.37590465 C49.8063928,4.61804957 49.7804474,4.88613859 49.7804474,5.18017171 C49.7804474,5.4655568 49.8063928,5.72499779 49.8582834,5.97579074 C49.9101741,6.21793566 49.9880101,6.43413649 50.1090883,6.62439321 C50.2301666,6.8060019 50.394487,6.95301846 50.5934012,7.05679486 C50.8009639,7.16921928 51.0517688,7.22110748 51.3544644,7.22110748 C51.6225662,7.22110748 51.8647226,7.17786732 52.0636368,7.07409092 C52.2711995,6.97896256 52.4355199,6.84059403 52.5652466,6.65898534 C52.6949733,6.47737665 52.7901062,6.26982386 52.8506453,6.01903091 C52.9111844,5.77688598 52.9371297,5.50014893 52.9371297,5.20611581 Z M62.9260833,7.77458159 C62.9260833,7.80052569 62.9174349,7.82646978 62.900138,7.85241388 C62.8828411,7.86970995 62.8568958,7.88700602 62.822302,7.90430208 C62.7963566,7.91295011 62.744466,7.93024618 62.6839269,7.93889421 C62.6233878,7.94754225 62.5455518,7.94754225 62.4590673,7.94754225 C62.3639344,7.94754225 62.2860984,7.94754225 62.2255593,7.93889421 C62.1650202,7.93024618 62.1131295,7.91295011 62.0785357,7.90430208 C62.043942,7.88700602 62.0179966,7.86970995 62.0006997,7.85241388 C61.9834028,7.82646978 61.9747544,7.80052569 61.9747544,7.77458159 L61.9747544,4.65264171 C61.9747544,4.43644088 61.9574575,4.23753613 61.9228637,4.05592744 C61.8796215,3.88296678 61.8190824,3.72730218 61.7412464,3.59758169 C61.654762,3.4678612 61.5509806,3.37273284 61.4212539,3.30354857 C61.2915273,3.23436431 61.1445037,3.19977218 60.9628864,3.19977218 C60.7466753,3.19977218 60.5304641,3.27760447 60.314253,3.45056513 C60.0980419,3.61487776 59.8558855,3.85702268 59.5964321,4.18564793 L59.5964321,7.77458159 C59.5964321,7.80052569 59.5877837,7.82646978 59.5704868,7.85241388 C59.5618383,7.86970995 59.535893,7.88700602 59.4926508,7.90430208 C59.458057,7.91295011 59.4148148,7.93024618 59.3542757,7.93889421 C59.2937366,7.94754225 59.2159006,7.94754225 59.1207677,7.94754225 C59.0342832,7.94754225 58.9564472,7.94754225 58.8959081,7.93889421 C58.835369,7.93024618 58.7834783,7.91295011 58.7488845,7.90430208 C58.7142908,7.88700602 58.6883454,7.86970995 58.6710485,7.85241388 C58.6537517,7.82646978 58.6537517,7.80052569 58.6537517,7.77458159 L58.6537517,4.65264171 C58.6537517,4.43644088 58.6278063,4.23753613 58.5932125,4.05592744 C58.5499703,3.88296678 58.4807828,3.72730218 58.4029468,3.59758169 C58.3164623,3.4678612 58.212681,3.37273284 58.0829543,3.30354857 C57.9532276,3.23436431 57.8062041,3.19977218 57.6332352,3.19977218 C57.4170241,3.19977218 57.200813,3.27760447 56.9759534,3.45056513 C56.7597423,3.61487776 56.5175858,3.85702268 56.2581325,4.18564793 L56.2581325,7.77458159 C56.2581325,7.80052569 56.249484,7.82646978 56.2321872,7.85241388 C56.2235387,7.86970995 56.1975934,7.88700602 56.1629996,7.90430208 C56.1284058,7.91295011 56.0765151,7.93024618 56.015976,7.93889421 C55.9554369,7.94754225 55.8776009,7.94754225 55.782468,7.94754225 C55.6873351,7.94754225 55.6181476,7.94754225 55.5576085,7.93889421 C55.4970694,7.93024618 55.4451787,7.91295011 55.4105849,7.90430208 C55.3759911,7.88700602 55.3500458,7.86970995 55.3327489,7.85241388 C55.315452,7.82646978 55.315452,7.80052569 55.315452,7.77458159 L55.315452,2.63765004 C55.315452,2.61170594 55.315452,2.58576184 55.3327489,2.55981774 C55.3413974,2.54252168 55.3673427,2.52522561 55.4019365,2.50792954 C55.4365302,2.49063348 55.4797725,2.47333741 55.5316631,2.47333741 C55.5835538,2.46468938 55.6527414,2.46468938 55.7478743,2.46468938 C55.8257103,2.46468938 55.8948978,2.46468938 55.9554369,2.47333741 C56.0073276,2.47333741 56.0505698,2.49063348 56.0851636,2.50792954 C56.1111089,2.52522561 56.1370543,2.54252168 56.1457027,2.55981774 C56.1629996,2.58576184 56.171648,2.61170594 56.171648,2.63765004 L56.171648,3.32084464 C56.4570467,2.99221939 56.7337969,2.7587225 57.0105472,2.60305791 C57.278649,2.45604135 57.5553992,2.37820905 57.8321494,2.37820905 C58.0483605,2.37820905 58.2386263,2.40415315 58.4029468,2.45604135 C58.5759157,2.50792954 58.7229392,2.57711381 58.8526659,2.66359414 C58.9823926,2.75007447 59.0948223,2.86249889 59.1813068,2.98357135 C59.2764397,3.10464382 59.3542757,3.24301234 59.4148148,3.39867693 C59.5877837,3.20842021 59.7434557,3.05275562 59.8991277,2.92303512 C60.0547997,2.79331463 60.2018232,2.68953824 60.3401984,2.61170594 C60.4872219,2.52522561 60.625597,2.47333741 60.7553237,2.43874528 C60.8936988,2.39550512 61.0320739,2.37820905 61.1618006,2.37820905 C61.4990899,2.37820905 61.7758402,2.43874528 61.9920513,2.55116971 C62.2169109,2.67224217 62.3985282,2.82790676 62.5369033,3.01816349 C62.6752784,3.21706824 62.7790598,3.4419171 62.8395989,3.70135809 C62.8914895,3.96079907 62.9260833,4.23753613 62.9260833,4.52292121 L62.9260833,7.77458159 Z M69.3518777,5.11963548 C69.3518777,5.56933319 69.299987,5.97579074 69.2048541,6.33036009 C69.1097212,6.68492944 68.9713461,6.98761059 68.7810803,7.23840355 C68.5908146,7.4891965 68.3573066,7.67945323 68.0805563,7.81782175 C67.8038061,7.94754225 67.4924621,8.01672651 67.1378759,8.01672651 C66.9822039,8.01672651 66.8438287,7.99943044 66.7141021,7.97348634 C66.5843754,7.93889421 66.4632972,7.89565405 66.3335705,7.82646978 C66.2124923,7.76593355 66.0914141,7.67945323 65.9703358,7.58432486 C65.8492576,7.4891965 65.7195309,7.36812404 65.5811558,7.23840355 L65.5811558,9.80686932 C65.5811558,9.84146145 65.5725074,9.86740555 65.5552105,9.88470162 C65.546562,9.91064572 65.5206167,9.92794178 65.4860229,9.94523785 C65.4514292,9.96253391 65.3995385,9.97118195 65.3389994,9.97982998 C65.2784603,9.98847801 65.2006243,9.98847801 65.1054914,9.98847801 C65.0103585,9.98847801 64.9411709,9.98847801 64.8806318,9.97982998 C64.8200927,9.97118195 64.768202,9.96253391 64.7336082,9.94523785 C64.6990145,9.92794178 64.6730691,9.91064572 64.6557722,9.88470162 C64.6384754,9.86740555 64.6384754,9.84146145 64.6384754,9.80686932 L64.6384754,2.63765004 C64.6384754,2.60305791 64.6384754,2.57711381 64.6557722,2.55981774 C64.6644207,2.53387364 64.690366,2.51657758 64.7249598,2.49928151 C64.7595536,2.49063348 64.8027958,2.47333741 64.8546865,2.47333741 C64.9065771,2.46468938 64.9757647,2.46468938 65.0449523,2.46468938 C65.1314367,2.46468938 65.1919758,2.46468938 65.2438665,2.47333741 C65.2957572,2.47333741 65.3389994,2.49063348 65.3735932,2.49928151 C65.4081869,2.51657758 65.4341323,2.53387364 65.4514292,2.55981774 C65.4600776,2.57711381 65.468726,2.60305791 65.468726,2.63765004 L65.468726,3.32949267 C65.624398,3.16518005 65.7714216,3.02681152 65.9184452,2.90573906 C66.0568203,2.79331463 66.2038438,2.69818627 66.3508674,2.62035397 C66.497891,2.54252168 66.6449145,2.48198545 66.8005865,2.43874528 C66.9562585,2.40415315 67.120579,2.37820905 67.2848994,2.37820905 C67.6567825,2.37820905 67.976775,2.45604135 68.2362283,2.59440987 C68.4956817,2.74142643 68.7118928,2.94033119 68.8762132,3.19112414 C69.0405337,3.4419171 69.1616119,3.73595022 69.2394479,4.06457547 C69.3172839,4.40184875 69.3518777,4.74777007 69.3518777,5.11963548 Z M68.3746034,5.23205991 C68.3746034,4.96397089 68.3486581,4.71317794 68.3140643,4.47103302 C68.2708221,4.22024006 68.2016346,4.00403924 68.1065017,3.81378251 C68.0113688,3.62352579 67.8816421,3.4678612 67.7173217,3.35543677 C67.5530012,3.24301234 67.3454385,3.18247611 67.1032821,3.18247611 C66.9822039,3.18247611 66.8611256,3.19977218 66.7486959,3.24301234 C66.6276176,3.27760447 66.5065394,3.3381407 66.3854612,3.40732497 C66.264383,3.48515726 66.1346563,3.58893366 66.0049296,3.71865415 C65.8752029,3.84837465 65.7281794,4.00403924 65.5811558,4.19429596 L65.5811558,6.23523173 C65.8406092,6.55520895 66.0827656,6.78870584 66.3162736,6.96166649 C66.5497816,7.12597912 66.7919381,7.21245945 67.0513914,7.21245945 C67.2848994,7.21245945 67.4838136,7.15192322 67.6567825,7.03949879 C67.821103,6.92707436 67.9594781,6.77140977 68.0632594,6.58115305 C68.1670408,6.39089632 68.2448768,6.18334353 68.2967674,5.94119861 C68.3486581,5.70770172 68.3746034,5.4655568 68.3746034,5.23205991 Z M74.6274289,7.77458159 C74.6274289,7.81782175 74.6187805,7.85241388 74.5841867,7.87835798 C74.5582414,7.90430208 74.5149992,7.92159815 74.4631085,7.93024618 C74.4112178,7.93889421 74.3333818,7.94754225 74.2296005,7.94754225 C74.1258191,7.94754225 74.0479831,7.93889421 73.987444,7.93024618 C73.9355534,7.92159815 73.8923111,7.90430208 73.8663658,7.87835798 C73.831772,7.85241388 73.8231236,7.82646978 73.8231236,7.77458159 L73.8231236,7.26434765 C73.598264,7.49784453 73.3474591,7.68810126 73.0707089,7.81782175 C72.7939587,7.94754225 72.50856,8.01672651 72.197216,8.01672651 C71.9291142,8.01672651 71.6783093,7.98213438 71.4620982,7.91295011 C71.2458871,7.84376585 71.0556213,7.73998946 70.9085977,7.61026896 C70.7529257,7.47190044 70.6318475,7.30758781 70.5453631,7.11733109 C70.4588786,6.91842633 70.4156364,6.70222551 70.4156364,6.45143255 C70.4156364,6.16604747 70.4761755,5.91525451 70.5972537,5.69905369 C70.7096835,5.4915009 70.8826524,5.30989221 71.0988635,5.17152368 C71.3237231,5.03315515 71.5918249,4.92073073 71.9118173,4.85154646 C72.2318098,4.7823622 72.586396,4.74777007 72.9928729,4.74777007 L73.6933969,4.74777007 L73.6933969,4.34996055 C73.6933969,4.1510558 73.6761,3.97809514 73.6328578,3.82243055 C73.5896156,3.67541399 73.5290765,3.54569349 73.4339436,3.4419171 C73.3388107,3.34678874 73.2177325,3.26895644 73.0707089,3.21706824 C72.9236853,3.16518005 72.742068,3.13923595 72.5258569,3.13923595 C72.2923489,3.13923595 72.0847862,3.16518005 71.9031689,3.22571628 C71.7129031,3.27760447 71.5572311,3.3381407 71.418856,3.40732497 C71.2804809,3.47650923 71.1594026,3.53704546 71.0729182,3.58893366 C70.9777853,3.64946989 70.9085977,3.67541399 70.8653555,3.67541399 C70.8307617,3.67541399 70.8048164,3.66676595 70.7875195,3.64946989 C70.7615742,3.64082186 70.7442773,3.61487776 70.7269804,3.58893366 C70.7096835,3.55434153 70.6923866,3.51974939 70.6837382,3.4678612 C70.6750897,3.42462103 70.6750897,3.37273284 70.6750897,3.31219661 C70.6750897,3.21706824 70.6837382,3.13923595 70.6923866,3.08734775 C70.7096835,3.03545955 70.7442773,2.98357135 70.7875195,2.93168316 C70.8394102,2.88844299 70.9345431,2.82790676 71.0556213,2.7587225 C71.1766995,2.68953824 71.3237231,2.62900201 71.4880435,2.57711381 C71.652364,2.51657758 71.8339813,2.47333741 72.0242471,2.43874528 C72.2145129,2.39550512 72.4134271,2.37820905 72.6123413,2.37820905 C72.975576,2.37820905 73.28692,2.42144922 73.5463734,2.50792954 C73.8058267,2.58576184 74.0133894,2.71548233 74.1777098,2.87114693 C74.3333818,3.03545955 74.4458116,3.23436431 74.5236476,3.47650923 C74.5928352,3.71865415 74.6274289,3.9953912 74.6274289,4.31536842 L74.6274289,7.77458159 Z M73.6933969,5.43096467 L72.89774,5.43096467 C72.6382867,5.43096467 72.4134271,5.44826073 72.2231613,5.4915009 C72.0328955,5.53474106 71.8772235,5.60392533 71.7474969,5.69040566 C71.6264186,5.77688598 71.5312857,5.87201435 71.4707466,5.99308681 C71.418856,6.11415927 71.3842622,6.25252779 71.3842622,6.40819239 C71.3842622,6.67628141 71.4707466,6.8838342 71.6350671,7.04814682 C71.808036,7.20381142 72.041544,7.28164371 72.352888,7.28164371 C72.5950444,7.28164371 72.819904,7.22110748 73.0361151,7.09138699 C73.2436778,6.97031453 73.4685374,6.7800578 73.6933969,6.52061682 L73.6933969,5.43096467 Z M80.7678246,7.77458159 C80.7678246,7.80052569 80.7591762,7.82646978 80.7505278,7.85241388 C80.7332309,7.86970995 80.7072855,7.88700602 80.6726917,7.90430208 C80.638098,7.91295011 80.5948557,7.93024618 80.5256682,7.93889421 C80.4651291,7.94754225 80.3959415,7.94754225 80.3008086,7.94754225 C80.2056757,7.94754225 80.1278397,7.94754225 80.0673006,7.93889421 C80.0067615,7.93024618 79.9548708,7.91295011 79.9202771,7.90430208 C79.8856833,7.88700602 79.859738,7.86970995 79.8510895,7.85241388 C79.8337926,7.82646978 79.8251442,7.80052569 79.8251442,7.77458159 L79.8251442,4.76506613 C79.8251442,4.47103302 79.7991988,4.23753613 79.7559566,4.05592744 C79.7127144,3.88296678 79.6435268,3.72730218 79.5570424,3.59758169 C79.4705579,3.4678612 79.3581282,3.37273284 79.219753,3.30354857 C79.0813779,3.23436431 78.9257059,3.19977218 78.7440886,3.19977218 C78.5105806,3.19977218 78.2770726,3.27760447 78.0435646,3.45056513 C77.8014081,3.61487776 77.5592517,3.85702268 77.2997983,4.18564793 L77.2997983,7.77458159 C77.2997983,7.80052569 77.2997983,7.82646978 77.2825014,7.85241388 C77.2652046,7.86970995 77.2392592,7.88700602 77.2046654,7.90430208 C77.1700717,7.91295011 77.1268294,7.93024618 77.0662903,7.93889421 C77.0057512,7.94754225 76.9279152,7.94754225 76.8327823,7.94754225 C76.7376494,7.94754225 76.6598134,7.94754225 76.5992743,7.93889421 C76.5387352,7.93024618 76.4868445,7.91295011 76.4522508,7.90430208 C76.417657,7.88700602 76.3917116,7.86970995 76.3744148,7.85241388 C76.3657663,7.82646978 76.3571179,7.80052569 76.3571179,7.77458159 L76.3571179,2.63765004 C76.3571179,2.61170594 76.3657663,2.58576184 76.3744148,2.55981774 C76.3917116,2.54252168 76.4090085,2.52522561 76.4436023,2.50792954 C76.4781961,2.49063348 76.5214383,2.47333741 76.573329,2.47333741 C76.6252197,2.46468938 76.7030557,2.46468938 76.7895401,2.46468938 C76.8760245,2.46468938 76.9452121,2.46468938 76.9971028,2.47333741 C77.0489934,2.47333741 77.0922357,2.49063348 77.1268294,2.50792954 C77.1527748,2.52522561 77.1787201,2.54252168 77.196017,2.55981774 C77.2046654,2.58576184 77.2133139,2.61170594 77.2133139,2.63765004 L77.2133139,3.32084464 C77.4987126,2.99221939 77.7841112,2.7587225 78.0781584,2.60305791 C78.363557,2.45604135 78.6489557,2.37820905 78.9430028,2.37820905 C79.2802922,2.37820905 79.5656908,2.43874528 79.7991988,2.55116971 C80.0327068,2.67224217 80.2229726,2.82790676 80.3699962,3.01816349 C80.5083713,3.21706824 80.6121526,3.4419171 80.6726917,3.70135809 C80.7418793,3.96079907 80.7678246,4.27212826 80.7678246,4.63534564 L80.7678246,7.77458159 Z" id="Shape"></path>
                        <path d="M84.6077341,7.91295011 L83.9245069,9.79822129 C83.8985616,9.85875752 83.8380225,9.91064572 83.751538,9.94523785 C83.6564052,9.97118195 83.51803,9.98847801 83.3277643,9.98847801 C83.2239829,9.98847801 83.1461469,9.98847801 83.0856078,9.97982998 C83.0250687,9.96253391 82.9818265,9.94523785 82.9472327,9.92794178 C82.9126389,9.90199768 82.895342,9.87605358 82.895342,9.83281342 C82.8866936,9.79822129 82.895342,9.75498112 82.9212874,9.69444489 L83.6304598,7.91295011 C83.595866,7.89565405 83.5612723,7.86970995 83.5266785,7.83511782 C83.5007332,7.80052569 83.4747878,7.76593355 83.4661394,7.73134142 L81.6413176,2.82790676 C81.6067238,2.75007447 81.5894269,2.6808902 81.5894269,2.63765004 C81.5894269,2.59440987 81.6067238,2.55981774 81.6413176,2.53387364 C81.6672629,2.49928151 81.7191536,2.48198545 81.7883411,2.47333741 C81.8575287,2.46468938 81.9440131,2.46468938 82.0564429,2.46468938 C82.1688727,2.46468938 82.2640056,2.46468938 82.3245447,2.47333741 C82.3937322,2.47333741 82.4456229,2.49063348 82.4802167,2.49928151 C82.5148105,2.51657758 82.5494042,2.54252168 82.5667011,2.56846577 C82.583998,2.59440987 82.6012949,2.63765004 82.6185918,2.6808902 L84.0801789,6.79735387 L84.0974758,6.79735387 L85.5158208,2.66359414 C85.5331176,2.58576184 85.559063,2.54252168 85.5936568,2.52522561 C85.6282505,2.49928151 85.6714928,2.48198545 85.7406803,2.47333741 C85.8098679,2.46468938 85.8963523,2.46468938 86.0174305,2.46468938 C86.1298603,2.46468938 86.2163448,2.46468938 86.2855323,2.47333741 C86.3547199,2.48198545 86.3979621,2.49928151 86.4325559,2.53387364 C86.4671497,2.55981774 86.4844466,2.59440987 86.4844466,2.63765004 C86.4844466,2.6808902 86.4671497,2.74142643 86.4498528,2.8106107 L84.6077341,7.91295011 Z" id="Shape"></path>
                    </g>
                </g>
            </g>
            <polygon id="Shape" points="0 0 118 0 118 38 0 38"></polygon>
        </g>
    </g>
</svg>