<?xml version="1.0" encoding="UTF-8"?>
<svg width="155px" height="50px" viewBox="0 0 155 50" version="1.1" xmlns="http://www.w3.org/2000/svg" xmlns:xlink="http://www.w3.org/1999/xlink">
    <!-- Generator: Sketch 41.2 (35397) - http://www.bohemiancoding.com/sketch -->
    <title>Nav-Logo-White</title>
    <desc>Created with Sketch.</desc>
    <defs></defs>
    <g id="Page-1" stroke="none" stroke-width="1" fill="none" fill-rule="evenodd">
        <rect id="Rectangle" x="4" y="0" width="155.259995" height="50"></rect>
        <g id="Layer_x0020_1">
            <g id="_2903613714528" transform="translate(6.679224, 2.949302)">
                <path d="M27.7411578,13.9090344 C27.7411578,6.22496201 21.5267253,0 13.8662753,0 C6.20582525,0 0,6.22496201 0,13.9090344 L0,13.9090344 L0,44.1013952 L27.7411578,44.1013952 L27.7411578,13.9090344 L27.7411578,13.9090344 Z" id="Shape"></path>
                <path d="M24.6339415,14.1162453 C24.6339415,8.150297 19.8138831,3.31537505 13.8662753,3.31537505 C7.91866744,3.31537505 3.098609,8.150297 3.098609,14.1162453 L3.098609,14.1162453 L3.098609,40.5615416 L24.6339415,40.5615416 L24.6339415,14.1162453 L24.6339415,14.1162453 Z M11.8693939,12.0182346 C11.8693939,12.0182346 12.394436,11.6469816 12.7645476,11.5520099 C13.1346593,11.4570383 13.7027376,11.4138693 13.7027376,11.4138693 L13.7285593,14.6601741 L11.8693939,12.0182346 Z M12.9969433,15.195469 L11.2668866,12.329051 C11.2668866,12.329051 10.0876937,13.4600774 10.061872,13.7795276 L12.9969433,15.195469 Z M9.64011689,16.3696643 L12.2653273,16.3696643 L9.82947633,14.4788645 C9.82947633,14.4788645 9.59708065,15.316342 9.64011689,16.3696643 Z M16.2160538,12.0182346 C16.2160538,12.0182346 15.6910117,11.6469816 15.3209001,11.5520099 C14.9507884,11.4570383 14.3913174,11.4138693 14.3913174,11.4138693 L14.3568884,14.6601741 L16.2160538,12.0182346 Z M15.0885044,15.195469 L16.8185611,12.329051 C16.8185611,12.329051 18.0063612,13.4600774 18.0235757,13.7795276 L15.0885044,15.195469 Z M18.453938,16.3696643 L15.8287276,16.3696643 L18.2559714,14.4788645 C18.2559714,14.4788645 18.488367,15.316342 18.453938,16.3696643 Z M19.0736598,7.14014367 C19.0736598,7.14014367 17.8772525,6.36310264 16.8960263,6.00911728 C15.9148001,5.65513192 14.5204261,5.48245614 14.5204261,5.48245614 L14.5204261,10.360547 C14.5204261,10.360547 15.3381145,10.5073215 15.596332,10.5936593 C15.8545494,10.688631 16.7152741,11.1548556 16.7152741,11.1548556 L19.0736598,7.14014367 Z M22.1464471,10.8699406 L18.9187294,13.0111203 L17.4038539,11.5520099 L19.8310976,7.57183313 C20.85536,8.41794447 21.6644413,9.67847769 22.1464471,10.8699406 Z M22.6714892,16.3264954 L22.6714892,14.0817102 C22.6714892,13.2615002 22.5079515,12.4240227 22.318592,12.1736428 L19.2113758,14.047175 L19.2113758,16.3264954 L22.6714892,16.3264954 Z M9.08064582,7.14014367 C9.08064582,7.14014367 10.2770532,6.36310264 11.2582794,6.00911728 C12.2395055,5.65513192 13.6338796,5.48245614 13.6338796,5.48245614 L13.6338796,10.360547 C13.6338796,10.360547 12.8161911,10.5073215 12.5579737,10.5936593 C12.2997563,10.688631 11.4304243,11.1548556 11.4304243,11.1548556 L9.08064582,7.14014367 Z M6.00785856,10.8699406 L9.23557627,13.0111203 L10.7504518,11.5520099 L8.32320806,7.57183313 C7.29894564,8.41794447 6.4898644,9.67847769 6.00785856,10.8699406 Z M5.48281648,16.3264954 L5.48281648,14.0817102 C5.48281648,13.2615002 5.64635418,12.4240227 5.83571362,12.1736428 L8.94292986,14.047175 L8.94292986,16.3264954 L5.48281648,16.3264954 Z M5.37092227,18.6230833 L8.63306896,18.6230833 L8.63306896,24.3213842 L5.37092227,24.3213842 L5.37092227,18.6230833 Z M19.4437715,18.6230833 L22.7059182,18.6230833 L22.7059182,24.3213842 L19.4437715,24.3213842 L19.4437715,18.6230833 Z M14.7528217,18.6230833 L18.0149684,18.6230833 L18.0149684,24.3213842 L14.7528217,24.3213842 L14.7528217,18.6230833 Z M10.061872,18.6230833 L13.3240187,18.6230833 L13.3240187,24.3213842 L10.061872,24.3213842 L10.061872,18.6230833 Z M5.37092227,32.4285122 L8.63306896,32.4285122 L8.63306896,38.1268131 L5.37092227,38.1268131 L5.37092227,32.4285122 Z M19.4437715,32.4285122 L22.7059182,32.4285122 L22.7059182,38.1268131 L19.4437715,38.1268131 L19.4437715,32.4285122 Z M14.7528217,32.4285122 L18.0149684,32.4285122 L18.0149684,38.1268131 L14.7528217,38.1268131 L14.7528217,32.4285122 Z M10.061872,32.4285122 L13.3240187,32.4285122 L13.3240187,38.1268131 L10.061872,38.1268131 L10.061872,32.4285122 Z M5.37092227,25.5646498 L8.63306896,25.5646498 L8.63306896,31.2629507 L5.37092227,31.2629507 L5.37092227,25.5646498 Z M19.4437715,25.5646498 L22.7059182,25.5646498 L22.7059182,31.2629507 L19.4437715,31.2629507 L19.4437715,25.5646498 Z M14.7528217,25.5646498 L18.0149684,25.5646498 L18.0149684,31.2629507 L14.7528217,31.2629507 L14.7528217,25.5646498 Z M10.061872,25.5646498 L13.3240187,25.5646498 L13.3240187,31.2629507 L10.061872,31.2629507 L10.061872,25.5646498 Z" id="Shape" fill="#FFFFFF"></path>
                <g id="Group-2" transform="translate(31.614419, 6.164525)" fill="#FFFFFF">
                    <path d="M12.1159789,14.0871905 C12.1159789,14.9064778 11.9684997,15.6347332 11.6621969,16.2833357 C11.3558941,16.9205591 10.9361457,17.4667507 10.4029519,17.9105313 C9.86975807,18.3656909 9.2344633,18.6956817 8.50841213,18.9232615 C7.78236096,19.1508413 6.99958705,19.2646312 6.16009038,19.2646312 C5.57017381,19.2646312 5.02563543,19.2077363 4.52647525,19.1167043 C4.02731507,19.0142934 3.57353309,18.8891245 3.18781841,18.7411976 C2.79075918,18.6046497 2.46176724,18.4453439 2.2008426,18.297417 C1.93991797,18.1381111 1.74706062,18.0129422 1.64495968,17.8991523 C1.54285873,17.7853624 1.46344689,17.6488145 1.41806869,17.4895087 C1.36134594,17.3188238 1.33865684,17.091244 1.33865684,16.8181482 C1.33865684,16.6133264 1.35000139,16.4540205 1.36134594,16.3174726 C1.38403504,16.1923037 1.41806869,16.0898928 1.44075779,16.0102399 C1.48613599,15.919208 1.53151418,15.873692 1.58823693,15.839555 C1.63361513,15.805418 1.70168243,15.7940391 1.76974972,15.7940391 C1.89453977,15.7940391 2.07605256,15.873692 2.30294355,16.0216189 C2.52983454,16.1695457 2.83613738,16.3402306 3.19916296,16.5222945 C3.550844,16.6929793 3.99328143,16.8636642 4.50378615,17.02297 C5.01429088,17.1822759 5.60420746,17.2619289 6.26219133,17.2619289 C6.77269606,17.2619289 7.23782259,17.1936549 7.65757092,17.057107 C8.07731925,16.9205591 8.44034483,16.7384953 8.73530312,16.4881575 C9.04160596,16.2378197 9.26849695,15.9305869 9.43866519,15.5664592 C9.59748888,15.2137105 9.67690073,14.8040669 9.67690073,14.3375282 C9.67690073,13.8482316 9.56345523,13.41583 9.34790879,13.0630813 C9.1210178,12.7103326 8.82605952,12.4030998 8.45168938,12.1300041 C8.07731925,11.8682873 7.65757092,11.6293285 7.18109984,11.4017487 C6.70462876,11.1855478 6.22815768,10.957968 5.7289975,10.7303882 C5.24118187,10.4914294 4.75336624,10.2410916 4.28823971,9.95661684 C3.81176863,9.68352106 3.3920203,9.35353033 3.02899472,8.96664465 C2.65462458,8.59113796 2.3596663,8.14735732 2.13277531,7.63530274 C1.89453977,7.12324816 1.78109427,6.50878266 1.78109427,5.79190625 C1.78109427,5.06365085 1.91722887,4.40366939 2.17815351,3.83471986 C2.45042269,3.26577032 2.81344828,2.77647372 3.28991936,2.38958804 C3.76639044,2.00270236 4.32227336,1.7068486 4.98025723,1.50202677 C5.6382411,1.29720494 6.33025862,1.19479402 7.09034344,1.19479402 C7.47605813,1.19479402 7.87311736,1.22893099 8.25883204,1.29720494 C8.65589127,1.36547888 9.01891686,1.45651081 9.37059789,1.57030071 C9.71093438,1.68409062 10.0285818,1.80925952 10.300851,1.9571864 C10.5617756,2.09373428 10.7432884,2.20752419 10.8340448,2.28717713 C10.9134566,2.37820905 10.9701794,2.44648299 11.004213,2.49199896 C11.0269021,2.54889391 11.0495912,2.60578886 11.0609358,2.6854418 C11.0836249,2.76509473 11.0949694,2.85612666 11.106314,2.96991657 C11.1176585,3.07232748 11.1176585,3.20887537 11.1176585,3.39093922 C11.1176585,3.55024509 11.1176585,3.69817197 11.106314,3.82334087 C11.0836249,3.94850976 11.0609358,4.05092068 11.0382467,4.1419526 C11.0155576,4.22160554 10.9701794,4.28987948 10.9248012,4.33539545 C10.879423,4.38091141 10.8227002,4.3922904 10.7546329,4.3922904 C10.652532,4.3922904 10.5050528,4.32401646 10.2895064,4.19884756 C10.07396,4.07367866 9.81303532,3.93713077 9.50673249,3.7778249 C9.20042965,3.61851903 8.83740407,3.47059216 8.41765573,3.34542326 C7.9979074,3.20887537 7.53278087,3.14060143 7.0109316,3.14060143 C6.52311597,3.14060143 6.09202309,3.20887537 5.74034205,3.33404427 C5.37731647,3.47059216 5.07101363,3.64127702 4.84412264,3.85747784 C4.6058871,4.07367866 4.43571886,4.33539545 4.31092881,4.6312492 C4.19748332,4.92710296 4.14076057,5.2457147 4.14076057,5.57570543 C4.14076057,6.06500203 4.24286152,6.48602468 4.46975251,6.83877339 C4.6966435,7.19152211 5.00294633,7.49875485 5.37731647,7.77185063 C5.7516866,8.04494641 6.18277948,8.2952842 6.65925056,8.52286401 C7.13572164,8.75044383 7.62353727,8.97802364 8.12269745,9.20560345 C8.62185763,9.43318327 9.10967325,9.68352106 9.58614433,9.96799583 C10.0626154,10.2410916 10.4823637,10.5710823 10.8680784,10.946589 C11.2424486,11.3220957 11.5374068,11.7544974 11.7756424,12.2779309 C12.0025334,12.7786065 12.1159789,13.381693 12.1159789,14.0871905 Z M26.4895231,12.4258578 C26.4895231,13.41583 26.3533885,14.3375282 26.0924639,15.1681946 C25.8315392,16.0102399 25.4458245,16.7271163 24.9239753,17.3415818 C24.402126,17.9446683 23.7554867,18.4112069 22.9840573,18.7525766 C22.2012834,19.0939463 21.2937194,19.2646312 20.27271,19.2646312 C19.2630451,19.2646312 18.3895148,19.1167043 17.652119,18.8094716 C16.9033788,18.5136178 16.2907731,18.0812162 15.7916129,17.5122666 C15.3037973,16.9433171 14.9294272,16.2491987 14.6911916,15.4412903 C14.4416115,14.622003 14.3168215,13.7003048 14.3168215,12.6648166 C14.3168215,11.6748444 14.4529561,10.7531462 14.7025362,9.92247987 C14.9634608,9.08043456 15.3491755,8.36355814 15.8710248,7.74909265 C16.3815295,7.14600614 17.0281688,6.67946752 17.8109427,6.3380978 C18.5823721,6.00810708 19.4899361,5.83742222 20.5222901,5.83742222 C21.5206104,5.83742222 22.3941407,5.98534909 23.142881,6.29258184 C23.8802767,6.5884356 24.5042269,7.02083725 25.0033871,7.58978678 C25.4912027,8.15873631 25.8655729,8.85285474 26.115153,9.66076308 C26.3647331,10.4800504 26.4895231,11.4017487 26.4895231,12.4258578 Z M24.1638904,12.5624057 C24.1638904,11.9024242 24.0958232,11.2765798 23.9710331,10.6848722 C23.8575876,10.1045437 23.6533857,9.59248914 23.369772,9.13732951 C23.0861582,8.69354887 22.7117881,8.34080016 22.2239725,8.09046237 C21.7475014,7.82874558 21.1462403,7.70357669 20.4315337,7.70357669 C19.7735498,7.70357669 19.2063223,7.81736659 18.7298512,8.0563254 C18.2533802,8.2952842 17.8676655,8.62527493 17.5613626,9.05767658 C17.2437153,9.49007822 17.0281688,9.99075381 16.8693451,10.5824613 C16.721866,11.1741688 16.6537987,11.8113923 16.6537987,12.5055107 C16.6537987,13.1768712 16.7105214,13.8140947 16.8353115,14.3944232 C16.948757,14.9861307 17.1529589,15.4981853 17.4479171,15.9419659 C17.7315309,16.3743676 18.1172456,16.7271163 18.5937166,16.9888331 C19.0701877,17.2391709 19.6714488,17.3757188 20.3861555,17.3757188 C21.0327948,17.3757188 21.6000223,17.2619289 22.0764933,17.02297 C22.564309,16.7840112 22.9500237,16.4540205 23.267671,16.0329979 C23.5739739,15.6005962 23.8008649,15.0999206 23.9369995,14.5082131 C24.0844786,13.9165056 24.1638904,13.2679031 24.1638904,12.5624057 Z M32.6155798,7.97667246 L32.6155798,18.6729237 C32.6155798,18.7525766 32.6042353,18.8094716 32.5588571,18.8663665 C32.5248234,18.9118825 32.4681007,18.9573985 32.3886888,18.9915354 C32.2979324,19.0256724 32.184487,19.0484304 32.0370078,19.0711884 C31.8895287,19.0825674 31.7193604,19.0939463 31.4924694,19.0939463 C31.276923,19.0939463 31.0954102,19.0825674 30.9592756,19.0711884 C30.8117965,19.0484304 30.698351,19.0256724 30.6075946,18.9915354 C30.5281827,18.9573985 30.47146,18.9118825 30.4260818,18.8663665 C30.3920481,18.8094716 30.369359,18.7525766 30.369359,18.6729237 L30.369359,7.97667246 L28.6449875,7.97667246 C28.5088529,7.97667246 28.3954074,7.90839852 28.3273401,7.76047164 C28.2479283,7.61254476 28.2138946,7.38496495 28.2138946,7.05497422 C28.2138946,6.88428936 28.2252392,6.73636248 28.2365837,6.62257257 C28.2592728,6.49740367 28.2819619,6.40637175 28.3273401,6.32671881 C28.3613738,6.24706588 28.406752,6.20154992 28.4634747,6.16741294 C28.5088529,6.13327597 28.5769202,6.12189698 28.6449875,6.12189698 L30.369359,6.12189698 L30.369359,4.84745003 C30.369359,3.99402573 30.4487709,3.26577032 30.6075946,2.65130483 C30.7664183,2.03683933 31.0046538,1.53616374 31.3336457,1.14927806 C31.6512931,0.762392375 32.0596969,0.466538618 32.5475125,0.284474767 C33.0353282,0.0910319254 33.6252447,0 34.2945732,0 C34.6235651,0 34.9412125,0.034136972 35.2702044,0.102410916 C35.5765073,0.17068486 35.8033982,0.238958804 35.9395328,0.295853757 C36.0756674,0.352748711 36.1664238,0.409643664 36.2231466,0.466538618 C36.2798693,0.51205458 36.3252475,0.591707515 36.3592812,0.67136045 C36.3933148,0.762392375 36.4160039,0.864803291 36.4273485,0.989972189 C36.438693,1.11514109 36.438693,1.26306796 36.438693,1.43375282 C36.438693,1.60443768 36.438693,1.74098557 36.4273485,1.84339649 C36.4160039,1.94580741 36.3933148,2.03683933 36.3592812,2.09373428 C36.3365921,2.16200823 36.3025584,2.20752419 36.2685248,2.23028217 C36.2344911,2.24166116 36.1891129,2.25304015 36.1437347,2.25304015 C36.0756674,2.25304015 35.984911,2.24166116 35.9054992,2.1961452 C35.8147428,2.16200823 35.7012973,2.10511327 35.5651627,2.05959731 C35.4290281,2.01408135 35.2702044,1.96856539 35.0773471,1.92304942 C34.8958343,1.87753346 34.6802878,1.86615447 34.4307078,1.86615447 C34.1017158,1.86615447 33.8181021,1.92304942 33.5912111,2.02546034 C33.3529756,2.13925025 33.1714628,2.30993511 33.0239836,2.53751492 C32.887849,2.77647372 32.7744035,3.07232748 32.7063362,3.43645518 C32.6382689,3.80058288 32.6042353,4.25574251 32.6042353,4.77917608 L32.6042353,6.12189698 L38.1063418,6.12189698 L38.1063418,3.18611739 C38.1063418,3.12922243 38.1290309,3.07232748 38.1630645,3.01543253 C38.1970982,2.95853757 38.2538209,2.91302161 38.3332328,2.86750565 C38.4239892,2.83336868 38.5260901,2.79923171 38.6735693,2.77647372 C38.8210484,2.76509473 39.0025612,2.75371574 39.2407967,2.75371574 C39.4563432,2.75371574 39.637856,2.76509473 39.7739906,2.77647372 C39.9214697,2.79923171 40.0349152,2.83336868 40.1143271,2.86750565 C40.2050835,2.91302161 40.2618062,2.95853757 40.2958398,3.01543253 C40.3298735,3.07232748 40.3525626,3.12922243 40.3525626,3.18611739 L40.3525626,6.12189698 L43.4382801,6.12189698 C43.5176919,6.12189698 43.5744147,6.13327597 43.6311374,6.16741294 C43.6992047,6.20154992 43.7445829,6.24706588 43.7786165,6.32671881 C43.8126502,6.40637175 43.8466838,6.49740367 43.8693729,6.62257257 C43.892062,6.73636248 43.892062,6.88428936 43.892062,7.05497422 C43.892062,7.38496495 43.8580284,7.61254476 43.7786165,7.76047164 C43.6992047,7.90839852 43.5857592,7.97667246 43.4496246,7.97667246 L40.3525626,7.97667246 L40.3525626,14.7699299 C40.3525626,15.6119752 40.4660081,16.2491987 40.7155882,16.6702213 C40.9538237,17.102623 41.3962612,17.3188238 42.0429005,17.3188238 C42.2357578,17.3188238 42.4172706,17.2960658 42.5874388,17.2619289 C42.7462625,17.2164129 42.9050862,17.1708969 43.0298763,17.125381 C43.1546663,17.079865 43.2567673,17.045728 43.3475237,17.0002121 C43.4496246,16.9546961 43.5290365,16.9433171 43.5857592,16.9433171 C43.642482,16.9433171 43.6878602,16.9433171 43.7218938,16.9660751 C43.7559274,16.9888331 43.7899611,17.034349 43.8126502,17.102623 C43.8353393,17.1708969 43.8466838,17.2505499 43.8693729,17.3643398 C43.892062,17.4667507 43.892062,17.6032986 43.892062,17.7626044 C43.892062,18.0357002 43.8807175,18.240522 43.8353393,18.3884489 C43.7899611,18.5477548 43.7445829,18.6615447 43.6651711,18.7298186 C43.5971038,18.8094716 43.4950028,18.8777455 43.3588682,18.9346405 C43.2227336,19.0029144 43.0639099,19.0484304 42.8710526,19.0939463 C42.6895398,19.1394623 42.4966825,19.1622203 42.281136,19.1963573 C42.0769341,19.2191152 41.8727322,19.2418732 41.6685303,19.2418732 C41.0332356,19.2418732 40.4886972,19.1508413 40.0349152,18.9915354 C39.5924778,18.8208506 39.2181076,18.5591338 38.9231494,18.2291431 C38.6395356,17.8877733 38.4353337,17.4553717 38.2991991,16.9433171 C38.1744091,16.4198835 38.1063418,15.805418 38.1063418,15.0999206 L38.1063418,7.97667246 L32.6155798,7.97667246 Z M56.9156049,12.0275931 C56.9156049,12.3803419 56.836193,12.6306796 56.6546802,12.7899855 C56.484512,12.9379124 56.2803101,13.0061863 56.0534191,13.0061863 L48.0555117,13.0061863 C48.0555117,13.6889258 48.123579,14.3033913 48.2597136,14.8495828 C48.3958482,15.3957744 48.6227392,15.862313 48.9403866,16.2491987 C49.2466894,16.6360844 49.6664377,16.9319381 50.1655979,17.13676 C50.6761026,17.3529608 51.2887083,17.4553717 52.026104,17.4553717 C52.5933315,17.4553717 53.1151808,17.4098557 53.5689628,17.3188238 C54.0114002,17.2164129 54.4084594,17.114002 54.7374514,17.0002121 C55.0664433,16.8864222 55.3387125,16.7726323 55.5542589,16.6816003 C55.7584608,16.5905684 55.9172845,16.5450524 56.03073,16.5450524 C56.0987973,16.5450524 56.1555201,16.5564314 56.2008983,16.5905684 C56.2462765,16.6133264 56.2916547,16.6702213 56.3143438,16.7271163 C56.3370329,16.7953902 56.359722,16.8750432 56.3710665,16.9888331 C56.3937556,17.102623 56.3937556,17.2391709 56.3937556,17.3984767 C56.3937556,17.5122666 56.3937556,17.6146776 56.382411,17.7057095 C56.3710665,17.7853624 56.359722,17.8650154 56.3483774,17.9332893 C56.3370329,18.0015632 56.3143438,18.0698372 56.2803101,18.1153532 C56.2462765,18.1722481 56.2122428,18.2177641 56.1555201,18.274659 C56.1101419,18.320175 55.9626627,18.3998279 55.7244272,18.5136178 C55.4748471,18.6274077 55.1571997,18.7411976 54.771485,18.8436086 C54.3857703,18.9573985 53.9433329,19.0484304 53.4328282,19.1394623 C52.9223234,19.2191152 52.3777851,19.2646312 51.799213,19.2646312 C50.8008927,19.2646312 49.9273624,19.1280833 49.1786221,18.8436086 C48.4185373,18.5591338 47.7945871,18.1494901 47.2727378,17.5919196 C46.7622331,17.045728 46.3765184,16.3516096 46.1155937,15.5209433 C45.8546691,14.690277 45.7298791,13.7230628 45.7298791,12.6079217 C45.7298791,11.5610545 45.8546691,10.6165983 46.1269383,9.78593198 C46.3992075,8.94388667 46.7962667,8.23838925 47.2954269,7.64668173 C47.8059316,7.06635321 48.4298818,6.62257257 49.1445885,6.30396083 C49.8706396,5.99672808 50.6761026,5.83742222 51.5723221,5.83742222 C52.5252642,5.83742222 53.3420718,5.99672808 54.0114002,6.30396083 C54.6807286,6.61119358 55.225267,7.02083725 55.6677044,7.54427082 C56.0987973,8.06770439 56.4164447,8.67079089 56.6206466,9.37628831 C56.8248485,10.0817857 56.9156049,10.8327991 56.9156049,11.6293285 L56.9156049,12.0275931 Z M54.6807286,11.3676117 C54.7034177,10.1955756 54.4424931,9.26249841 53.8979547,8.59113796 C53.3420718,7.91977751 52.5366088,7.58978678 51.4588766,7.58978678 C50.9029936,7.58978678 50.4265226,7.69219769 50.0067742,7.89701953 C49.5870259,8.11322035 49.2466894,8.38631613 48.9630757,8.73906484 C48.6794619,9.08043456 48.4639155,9.47869923 48.3164364,9.93385886 C48.1576127,10.3890185 48.0668563,10.8669361 48.0555117,11.3676117 L54.6807286,11.3676117 Z M67.4660359,7.24841706 C67.4660359,7.4418599 67.4546914,7.61254476 67.4546914,7.74909265 C67.4433468,7.88564054 67.4206577,7.98805145 67.3979686,8.06770439 C67.3752795,8.14735732 67.3412459,8.20425228 67.2958677,8.23838925 C67.261834,8.28390521 67.2051113,8.30666319 67.1256994,8.30666319 C67.0576321,8.30666319 66.9668757,8.28390521 66.8647748,8.23838925 C66.7626738,8.20425228 66.6378838,8.15873631 66.5130938,8.12459934 C66.3883037,8.07908338 66.2408246,8.04494641 66.0706563,8.01080943 C65.9118326,7.96529347 65.7416644,7.95391448 65.5488071,7.95391448 C65.3219161,7.95391448 65.0950251,7.99943044 64.8794786,8.09046237 C64.6752767,8.18149429 64.4370412,8.32942117 64.1988057,8.545622 C63.9605701,8.75044383 63.71099,9.0235396 63.4500654,9.36490932 C63.1891408,9.71765803 62.905527,10.1386807 62.5878796,10.6393563 L62.5878796,18.6729237 C62.5878796,18.7525766 62.5651905,18.8094716 62.5311569,18.8663665 C62.4971232,18.9118825 62.4404005,18.9573985 62.3609886,18.9915354 C62.2702322,19.0256724 62.1681313,19.0484304 62.0206522,19.0711884 C61.873173,19.0825674 61.6916602,19.0939463 61.4647692,19.0939463 C61.2378782,19.0939463 61.0563654,19.0825674 60.9202309,19.0711884 C60.7727517,19.0484304 60.6479617,19.0256724 60.5685498,18.9915354 C60.4777934,18.9573985 60.4210707,18.9118825 60.387037,18.8663665 C60.3530034,18.8094716 60.3416588,18.7525766 60.3416588,18.6729237 L60.3416588,6.45188771 C60.3416588,6.38361377 60.3530034,6.32671881 60.387037,6.26982386 C60.4097261,6.2243079 60.4664489,6.17879194 60.5458607,6.13327597 C60.6252726,6.099139 60.7273735,6.06500203 60.8635081,6.05362304 C60.9882981,6.04224405 61.1584664,6.03086506 61.3626683,6.03086506 C61.5668702,6.03086506 61.7256939,6.04224405 61.8618285,6.05362304 C61.9866185,6.06500203 62.0887195,6.099139 62.1681313,6.13327597 C62.2361986,6.17879194 62.2929213,6.2243079 62.326955,6.26982386 C62.3496441,6.32671881 62.3723332,6.38361377 62.3723332,6.45188771 L62.3723332,8.23838925 C62.7013251,7.73771366 63.0189725,7.33944898 63.3139308,7.03221624 C63.6088891,6.72498349 63.8811583,6.48602468 64.1420829,6.30396083 C64.4030076,6.13327597 64.6639322,6.00810708 64.9135123,5.93983313 C65.1744369,5.87155919 65.4353616,5.83742222 65.6962862,5.83742222 C65.8097317,5.83742222 65.9458663,5.84880121 66.0933454,5.8601802 C66.2408246,5.87155919 66.3996483,5.89431717 66.558472,5.92845414 C66.7172957,5.9739701 66.8647748,6.00810708 67.0009094,6.05362304 C67.1256994,6.099139 67.2164558,6.14465496 67.2731786,6.19017093 C67.3299013,6.23568689 67.363935,6.28120285 67.3866241,6.32671881 C67.3979686,6.36085579 67.4206577,6.41775074 67.4320023,6.47464569 C67.4433468,6.54291964 67.4546914,6.63395156 67.4546914,6.74774147 C67.4660359,6.87291037 67.4660359,7.04359523 67.4660359,7.24841706 Z M85.6059706,17.9901843 C85.6059706,18.1722481 85.594626,18.331554 85.5832815,18.4453439 C85.5605924,18.5705128 85.5265587,18.6729237 85.4925251,18.7639556 C85.4471469,18.8436086 85.4017687,18.9118825 85.3450459,18.9573985 C85.2883232,18.9915354 85.2089113,19.0142934 85.1294995,19.0142934 L77.3811722,19.0142934 C77.1769703,19.0142934 76.984113,18.9460195 76.7912556,18.8094716 C76.6097428,18.6615447 76.5189864,18.4112069 76.5189864,18.0698372 L76.5189864,1.79788053 C76.5189864,1.72960658 76.530331,1.66133264 76.5757092,1.60443768 C76.6097428,1.55892172 76.6664656,1.51340576 76.757222,1.47926879 C76.8479784,1.44513182 76.9727684,1.42237383 77.1315921,1.39961585 C77.2790712,1.37685787 77.460584,1.36547888 77.6761305,1.36547888 C77.9030215,1.36547888 78.0958788,1.37685787 78.2433579,1.39961585 C78.3908371,1.42237383 78.5156271,1.44513182 78.595039,1.47926879 C78.6971399,1.51340576 78.7538627,1.55892172 78.7878963,1.60443768 C78.82193,1.66133264 78.8446191,1.72960658 78.8446191,1.79788053 L78.8446191,16.9888331 L85.1294995,16.9888331 C85.2089113,16.9888331 85.2883232,17.0002121 85.3450459,17.045728 C85.4017687,17.091244 85.4471469,17.1481389 85.4925251,17.2164129 C85.5265587,17.2960658 85.5605924,17.3984767 85.5832815,17.5350246 C85.594626,17.6601935 85.6059706,17.8081204 85.6059706,17.9901843 Z M90.1551349,18.6729237 C90.1551349,18.7525766 90.1437904,18.8094716 90.1097567,18.8663665 C90.0643785,18.9118825 90.0076558,18.9573985 89.9282439,18.9915354 C89.8488321,19.0256724 89.7353866,19.0484304 89.5879075,19.0711884 C89.4404283,19.0825674 89.2589155,19.0939463 89.0320245,19.0939463 C88.8164781,19.0939463 88.6349653,19.0825674 88.4874862,19.0711884 C88.340007,19.0484304 88.2265615,19.0256724 88.1358051,18.9915354 C88.0563933,18.9573985 87.988326,18.9118825 87.9656369,18.8663665 C87.9316032,18.8094716 87.9202587,18.7525766 87.9202587,18.6729237 L87.9202587,6.45188771 C87.9202587,6.39499276 87.9316032,6.32671881 87.9656369,6.28120285 C87.988326,6.2243079 88.0563933,6.17879194 88.1358051,6.14465496 C88.2265615,6.11051799 88.340007,6.07638102 88.4874862,6.06500203 C88.6349653,6.04224405 88.8164781,6.03086506 89.0320245,6.03086506 C89.2589155,6.03086506 89.4404283,6.04224405 89.5879075,6.06500203 C89.7353866,6.07638102 89.8488321,6.11051799 89.9282439,6.14465496 C90.0076558,6.17879194 90.0643785,6.2243079 90.1097567,6.28120285 C90.1437904,6.32671881 90.1551349,6.39499276 90.1551349,6.45188771 L90.1551349,18.6729237 Z M90.404715,2.33269309 C90.404715,2.86750565 90.3026141,3.22025436 90.1097567,3.4136972 C89.9055548,3.60714004 89.5425293,3.69817197 89.0093354,3.69817197 C88.4874862,3.69817197 88.1244606,3.60714004 87.9316032,3.42507619 C87.7387459,3.23163335 87.6366449,2.87888464 87.6366449,2.36683006 C87.6366449,1.8320175 87.7387459,1.47926879 87.9429478,1.28582595 C88.1358051,1.1037621 88.4988307,1.00135118 89.0320245,1.00135118 C89.5652184,1.00135118 89.9282439,1.0923831 90.1211013,1.28582595 C90.3139586,1.4678898 90.404715,1.82063851 90.404715,2.33269309 Z M100.59212,17.7626044 C100.59212,18.0357002 100.569431,18.240522 100.535398,18.3884489 C100.501364,18.5477548 100.444641,18.6615447 100.376574,18.7298186 C100.308507,18.8094716 100.195061,18.8777455 100.047582,18.9346405 C99.9114475,19.0029144 99.7412793,19.0484304 99.5597665,19.0939463 C99.3782537,19.1394623 99.1740518,19.1622203 98.9698499,19.1963573 C98.765648,19.2191152 98.5614461,19.2418732 98.3572442,19.2418732 C97.7219495,19.2418732 97.1774111,19.1508413 96.7349736,18.9915354 C96.2811917,18.8208506 95.9181661,18.5591338 95.6232078,18.2291431 C95.3395941,17.8877733 95.1240476,17.4553717 94.9992576,16.9433171 C94.863123,16.4198835 94.8064002,15.805418 94.8064002,15.0999206 L94.8064002,7.97667246 L93.0933733,7.97667246 C92.9572387,7.97667246 92.8437932,7.90839852 92.7643813,7.76047164 C92.6849695,7.61254476 92.6395913,7.38496495 92.6395913,7.05497422 C92.6395913,6.88428936 92.6509358,6.73636248 92.6736249,6.62257257 C92.696314,6.49740367 92.7303477,6.40637175 92.7643813,6.32671881 C92.798415,6.24706588 92.8437932,6.20154992 92.9005159,6.16741294 C92.9685832,6.13327597 93.025306,6.12189698 93.1047178,6.12189698 L94.8064002,6.12189698 L94.8064002,3.22025436 C94.8064002,3.15198042 94.8177448,3.09508546 94.8517784,3.03819051 C94.8744675,2.98129556 94.9425348,2.93577959 95.0219467,2.90164262 C95.1127031,2.85612666 95.2261486,2.83336868 95.3736277,2.8106107 C95.5211068,2.78785271 95.7026196,2.77647372 95.9181661,2.77647372 C96.1450571,2.77647372 96.3265699,2.78785271 96.474049,2.8106107 C96.6215282,2.83336868 96.7349736,2.85612666 96.8143855,2.90164262 C96.8937973,2.93577959 96.9505201,2.98129556 96.9958983,3.03819051 C97.0299319,3.09508546 97.0412765,3.15198042 97.0412765,3.22025436 L97.0412765,6.12189698 L100.149683,6.12189698 C100.21775,6.12189698 100.285818,6.13327597 100.34254,6.16741294 C100.387919,6.20154992 100.444641,6.24706588 100.478675,6.32671881 C100.524053,6.40637175 100.546742,6.49740367 100.569431,6.62257257 C100.580776,6.73636248 100.59212,6.88428936 100.59212,7.05497422 C100.59212,7.38496495 100.546742,7.61254476 100.46733,7.76047164 C100.387919,7.90839852 100.285818,7.97667246 100.149683,7.97667246 L97.0412765,7.97667246 L97.0412765,14.7699299 C97.0412765,15.6119752 97.1660665,16.2491987 97.4156466,16.6702213 C97.6652267,17.102623 98.1076641,17.3188238 98.7429589,17.3188238 C98.9471608,17.3188238 99.1286736,17.2960658 99.2874973,17.2619289 C99.446321,17.2164129 99.5938001,17.1708969 99.7185902,17.125381 C99.8433802,17.079865 99.9454812,17.045728 100.047582,17.0002121 C100.126994,16.9546961 100.21775,16.9433171 100.285818,16.9433171 C100.331196,16.9433171 100.376574,16.9433171 100.410608,16.9660751 C100.444641,16.9888331 100.478675,17.034349 100.501364,17.102623 C100.524053,17.1708969 100.546742,17.2505499 100.569431,17.3643398 C100.580776,17.4667507 100.59212,17.6032986 100.59212,17.7626044 Z M113.615663,12.0275931 C113.615663,12.3803419 113.536251,12.6306796 113.354739,12.7899855 C113.18457,12.9379124 112.980369,13.0061863 112.753478,13.0061863 L104.75557,13.0061863 C104.75557,13.6889258 104.823637,14.3033913 104.959772,14.8495828 C105.095907,15.3957744 105.322798,15.862313 105.640445,16.2491987 C105.946748,16.6360844 106.366496,16.9319381 106.865656,17.13676 C107.376161,17.3529608 107.988767,17.4553717 108.726162,17.4553717 C109.29339,17.4553717 109.815239,17.4098557 110.269021,17.3188238 C110.711459,17.2164129 111.108518,17.114002 111.43751,17.0002121 C111.766502,16.8864222 112.038771,16.7726323 112.254317,16.6816003 C112.458519,16.5905684 112.617343,16.5450524 112.730788,16.5450524 C112.798856,16.5450524 112.855578,16.5564314 112.900957,16.5905684 C112.946335,16.6133264 112.991713,16.6702213 113.014402,16.7271163 C113.037091,16.7953902 113.05978,16.8750432 113.071125,16.9888331 C113.093814,17.102623 113.093814,17.2391709 113.093814,17.3984767 C113.093814,17.5122666 113.093814,17.6146776 113.082469,17.7057095 C113.071125,17.7853624 113.05978,17.8650154 113.048436,17.9332893 C113.037091,18.0015632 113.014402,18.0698372 112.980369,18.1153532 C112.946335,18.1722481 112.912301,18.2177641 112.855578,18.274659 C112.8102,18.320175 112.662721,18.3998279 112.424486,18.5136178 C112.174906,18.6274077 111.857258,18.7411976 111.471543,18.8436086 C111.085829,18.9573985 110.643391,19.0484304 110.132887,19.1394623 C109.622382,19.2191152 109.077844,19.2646312 108.499271,19.2646312 C107.500951,19.2646312 106.627421,19.1280833 105.878681,18.8436086 C105.118596,18.5591338 104.494646,18.1494901 103.972796,17.5919196 C103.462292,17.045728 103.076577,16.3516096 102.815652,15.5209433 C102.554728,14.690277 102.429937,13.7230628 102.429937,12.6079217 C102.429937,11.5610545 102.554728,10.6165983 102.826997,9.78593198 C103.099266,8.94388667 103.496325,8.23838925 103.995485,7.64668173 C104.50599,7.06635321 105.12994,6.62257257 105.844647,6.30396083 C106.570698,5.99672808 107.376161,5.83742222 108.27238,5.83742222 C109.225323,5.83742222 110.04213,5.99672808 110.711459,6.30396083 C111.380787,6.61119358 111.925325,7.02083725 112.367763,7.54427082 C112.798856,8.06770439 113.116503,8.67079089 113.320705,9.37628831 C113.524907,10.0817857 113.615663,10.8327991 113.615663,11.6293285 L113.615663,12.0275931 Z M111.380787,11.3676117 C111.403476,10.1955756 111.142552,9.26249841 110.598013,8.59113796 C110.04213,7.91977751 109.236667,7.58978678 108.158935,7.58978678 C107.603052,7.58978678 107.126581,7.69219769 106.706833,7.89701953 C106.287084,8.11322035 105.946748,8.38631613 105.663134,8.73906484 C105.37952,9.08043456 105.163974,9.47869923 105.016495,9.93385886 C104.857671,10.3890185 104.766915,10.8669361 104.75557,11.3676117 L111.380787,11.3676117 Z" id="Shape"></path>
                    <g id="Group" transform="translate(0.000000, 21.665598)">
                        <path d="M10.0853045,10.1273017 C10.0626154,10.1955756 10.0399263,10.2524706 9.99454812,10.2979866 C9.96051447,10.3435025 9.90379172,10.3662605 9.83572442,10.3890185 C9.76765713,10.4117765 9.67690073,10.4345344 9.57479978,10.4459134 C9.47269884,10.4572924 9.34790879,10.4572924 9.20042965,10.4572924 C9.04160596,10.4572924 8.90547136,10.4572924 8.80337042,10.4459134 C8.70126947,10.4345344 8.61051308,10.4117765 8.54244578,10.3890185 C8.46303393,10.3662605 8.41765573,10.3435025 8.38362209,10.2979866 C8.34958844,10.2524706 8.31555479,10.1955756 8.30421024,10.1273017 L6.27353588,2.79923171 L6.26219133,2.79923171 L4.39034066,10.1273017 C4.37899611,10.1955756 4.34496246,10.2524706 4.31092881,10.2979866 C4.27689516,10.3435025 4.23151697,10.3662605 4.16344967,10.3890185 C4.09538237,10.4117765 4.01597053,10.4345344 3.91386958,10.4459134 C3.81176863,10.4572924 3.68697859,10.4572924 3.5281549,10.4572924 C3.35798665,10.4572924 3.22185206,10.4572924 3.10840656,10.4459134 C3.00630562,10.4345344 2.91554922,10.4117765 2.84748193,10.3890185 C2.76807008,10.3662605 2.72269188,10.3435025 2.67731368,10.2979866 C2.64328004,10.2524706 2.62059094,10.1955756 2.59790184,10.1273017 L0.045378198,1.16065705 C0.022689099,1.04686714 7.10542736e-15,0.955835217 7.10542736e-15,0.887561272 C7.10542736e-15,0.830666319 0.0113445495,0.773771366 0.0567227475,0.739634394 C0.102100946,0.705497422 0.170168243,0.68273944 0.260924639,0.67136045 C0.351681035,0.659981459 0.487815629,0.659981459 0.646639322,0.659981459 C0.794118465,0.659981459 0.91890851,0.659981459 1.00966491,0.67136045 C1.1004213,0.68273944 1.1684886,0.694118431 1.2138668,0.716876412 C1.259245,0.728255403 1.29327864,0.762392375 1.31596774,0.796529347 C1.32731229,0.830666319 1.35000139,0.876182282 1.35000139,0.933077235 L3.5281549,9.05767658 L3.53949945,9.05767658 L5.60420746,0.944456226 C5.61555201,0.887561272 5.6382411,0.84204531 5.6609302,0.807908338 C5.6836193,0.762392375 5.71765295,0.739634394 5.76303115,0.716876412 C5.8197539,0.705497422 5.88782119,0.68273944 5.97857759,0.67136045 C6.06933399,0.659981459 6.19412403,0.659981459 6.34160317,0.659981459 C6.47773777,0.659981459 6.59118326,0.659981459 6.67059511,0.67136045 C6.76135151,0.68273944 6.81807425,0.705497422 6.874797,0.716876412 C6.9201752,0.739634394 6.95420885,0.762392375 6.97689795,0.807908338 C6.99958705,0.84204531 7.02227614,0.887561272 7.03362069,0.944456226 L9.2571524,9.05767658 L9.26849695,9.05767658 L11.4012723,0.933077235 C11.4126168,0.887561272 11.4353059,0.84204531 11.4466505,0.807908338 C11.457995,0.762392375 11.4920287,0.739634394 11.5374068,0.716876412 C11.582785,0.705497422 11.6508523,0.68273944 11.7416087,0.67136045 C11.8323651,0.659981459 11.9458106,0.659981459 12.0932898,0.659981459 C12.2407689,0.659981459 12.3542144,0.659981459 12.4449708,0.68273944 C12.5357272,0.694118431 12.59245,0.716876412 12.6378282,0.751013384 C12.6718618,0.785150356 12.6945509,0.830666319 12.6945509,0.898940263 C12.6832063,0.967214207 12.6718618,1.05824613 12.6491727,1.17203604 L10.0853045,10.1273017 Z M15.5420328,10.2297126 C15.5420328,10.2638496 15.5306883,10.2979866 15.5193437,10.3321235 C15.4966546,10.3548815 15.462621,10.3776395 15.4172428,10.4003975 C15.3718646,10.4117765 15.3151418,10.4345344 15.23573,10.4459134 C15.1563181,10.4572924 15.0542172,10.4572924 14.9294272,10.4572924 C14.8046371,10.4572924 14.7025362,10.4572924 14.6231243,10.4459134 C14.5437125,10.4345344 14.4756452,10.4117765 14.430267,10.4003975 C14.3848888,10.3776395 14.3508551,10.3548815 14.328166,10.3321235 C14.3168215,10.2979866 14.3054769,10.2638496 14.3054769,10.2297126 L14.3054769,3.47059216 C14.3054769,3.43645518 14.3168215,3.40231821 14.328166,3.37956023 C14.3508551,3.34542326 14.3848888,3.32266528 14.430267,3.2999073 C14.4756452,3.27714931 14.5437125,3.26577032 14.6231243,3.25439133 C14.7025362,3.24301234 14.8046371,3.24301234 14.9294272,3.24301234 C15.0542172,3.24301234 15.1563181,3.24301234 15.23573,3.25439133 C15.3151418,3.26577032 15.3718646,3.27714931 15.4172428,3.2999073 C15.462621,3.32266528 15.4966546,3.34542326 15.5193437,3.37956023 C15.5306883,3.40231821 15.5420328,3.43645518 15.5420328,3.47059216 L15.5420328,10.2297126 Z M15.689512,1.19479402 C15.689512,1.49064778 15.6327892,1.68409062 15.5193437,1.78650154 C15.4058982,1.90029144 15.2016963,1.94580741 14.9067381,1.94580741 C14.6231243,1.94580741 14.4189224,1.90029144 14.3168215,1.79788053 C14.203376,1.69546961 14.1579978,1.50202677 14.1579978,1.217552 C14.1579978,0.921698244 14.2147205,0.728255403 14.3168215,0.614465496 C14.430267,0.51205458 14.6344689,0.455159627 14.9294272,0.455159627 C15.2130409,0.455159627 15.4172428,0.51205458 15.5193437,0.614465496 C15.6327892,0.716876412 15.689512,0.910319254 15.689512,1.19479402 Z M23.6080075,10.2297126 C23.6080075,10.2638496 23.596663,10.2979866 23.5739739,10.3321235 C23.5512848,10.3548815 23.5285957,10.3776395 23.4832175,10.4003975 C23.4378393,10.4117765 23.369772,10.4345344 23.2903601,10.4459134 C23.2109483,10.4572924 23.1088473,10.4572924 22.9954019,10.4572924 C22.8592673,10.4572924 22.7571663,10.4572924 22.6777545,10.4459134 C22.5983426,10.4345344 22.5416199,10.4117765 22.4962417,10.4003975 C22.4508635,10.3776395 22.4168298,10.3548815 22.3941407,10.3321235 C22.3714516,10.2979866 22.3714516,10.2638496 22.3714516,10.2297126 L22.3714516,6.26982386 C22.3714516,5.88293818 22.337418,5.57570543 22.2806952,5.33674663 C22.2239725,5.10916681 22.1332161,4.90434498 22.0197706,4.73366012 C21.9063251,4.56297526 21.758846,4.43780636 21.5773332,4.34677444 C21.3958204,4.25574251 21.1802739,4.21022655 20.9533829,4.21022655 C20.6357356,4.21022655 20.3294327,4.31263746 20.0231299,4.54021728 C19.716827,4.7564181 19.3991797,5.07502984 19.0588432,5.50743149 L19.0588432,10.2297126 C19.0588432,10.2638496 19.0474986,10.2979866 19.0248095,10.3321235 C19.013465,10.3548815 18.9794313,10.3776395 18.9340531,10.4003975 C18.8886749,10.4117765 18.8206076,10.4345344 18.7411958,10.4459134 C18.6617839,10.4572924 18.559683,10.4572924 18.4348929,10.4572924 C18.3101029,10.4572924 18.2193465,10.4572924 18.1399347,10.4459134 C18.0491783,10.4345344 17.9924555,10.4117765 17.9470773,10.4003975 C17.9016991,10.3776395 17.8676655,10.3548815 17.8449764,10.3321235 C17.8222873,10.2979866 17.8222873,10.2638496 17.8222873,10.2297126 L17.8222873,3.47059216 C17.8222873,3.43645518 17.8222873,3.40231821 17.8449764,3.36818124 C17.8563209,3.34542326 17.8903546,3.32266528 17.9357328,3.2999073 C17.981111,3.27714931 18.0378337,3.25439133 18.105901,3.25439133 C18.1739683,3.24301234 18.2647247,3.24301234 18.3781702,3.24301234 C18.4916157,3.24301234 18.5823721,3.24301234 18.6617839,3.25439133 C18.7298512,3.25439133 18.786574,3.27714931 18.8319522,3.2999073 C18.8659858,3.32266528 18.9000195,3.34542326 18.911364,3.36818124 C18.9340531,3.40231821 18.9453977,3.43645518 18.9453977,3.47059216 L18.9453977,4.36953242 C19.3197678,3.93713077 19.6941379,3.62989802 20.0685081,3.42507619 C20.4428782,3.23163335 20.8285929,3.12922243 21.202963,3.12922243 C21.656745,3.12922243 22.0311151,3.20887537 22.337418,3.35680225 C22.6437208,3.51610812 22.8933009,3.72092995 23.0748137,3.97126774 C23.267671,4.23298453 23.4038056,4.52883829 23.4832175,4.87020801 C23.5626293,5.21157773 23.6080075,5.62122139 23.6080075,6.099139 L23.6080075,10.2297126 Z M31.6172595,10.2297126 C31.6172595,10.2638496 31.6059149,10.2979866 31.5945704,10.3321235 C31.5718813,10.3548815 31.5491922,10.3776395 31.503814,10.4003975 C31.4584358,10.4231555 31.401713,10.4345344 31.3336457,10.4459134 C31.2655784,10.4572924 31.174822,10.4572924 31.0840656,10.4572924 C30.9706202,10.4572924 30.8912083,10.4572924 30.823141,10.4459134 C30.7437292,10.4345344 30.6870064,10.4231555 30.6416282,10.4003975 C30.6075946,10.3776395 30.5735609,10.3548815 30.5508718,10.3321235 C30.5281827,10.2979866 30.5168382,10.2638496 30.5168382,10.2297126 L30.5168382,9.33077235 C30.1651571,9.71765803 29.8021316,10.0135118 29.4164169,10.2297126 C29.0307022,10.4459134 28.6222984,10.5483244 28.1685164,10.5483244 C27.6693562,10.5483244 27.2496079,10.4572924 26.9092714,10.2638496 C26.5575904,10.0704067 26.2739767,9.80868996 26.0584302,9.47869923 C25.8428838,9.1487085 25.6840601,8.77320181 25.5819591,8.32942117 C25.4798582,7.88564054 25.43448,7.41910192 25.43448,6.92980532 C25.43448,6.3494768 25.4912027,5.82604322 25.6159928,5.35950461 C25.7407828,4.89296599 25.9336402,4.48332233 26.1718757,4.1533316 C26.4214558,3.82334087 26.7164141,3.57300307 27.0794397,3.40231821 C27.4424653,3.22025436 27.8622136,3.12922243 28.3273401,3.12922243 C28.7243994,3.12922243 29.0874249,3.22025436 29.4164169,3.39093922 C29.7340643,3.56162408 30.0630562,3.82334087 30.3807036,4.1533316 L30.3807036,0.238958804 C30.3807036,0.204821832 30.3807036,0.17068486 30.4033927,0.136547888 C30.4260818,0.102410916 30.4601154,0.0796529347 30.5054936,0.068273944 C30.5508718,0.0455159627 30.6189391,0.034136972 30.698351,0.0227579813 C30.7777628,1.77635684e-14 30.8685192,1.77635684e-14 30.9933093,1.77635684e-14 C31.1180993,1.77635684e-14 31.2202002,1.77635684e-14 31.2996121,0.0227579813 C31.3790239,0.034136972 31.4357467,0.0455159627 31.4811249,0.068273944 C31.5265031,0.0796529347 31.5605367,0.102410916 31.5832258,0.136547888 C31.6059149,0.17068486 31.6172595,0.204821832 31.6172595,0.238958804 L31.6172595,10.2297126 Z M30.3807036,5.47329451 C30.0517116,5.05227186 29.7227197,4.73366012 29.4164169,4.5174593 C29.0987695,4.30125847 28.7811221,4.18746857 28.4407856,4.18746857 C28.1231382,4.18746857 27.8622136,4.2671215 27.6466671,4.41504838 C27.4197762,4.56297526 27.2496079,4.76779709 27.1134733,5.0067559 C26.9773387,5.25709369 26.8752378,5.53018947 26.818515,5.83742222 C26.7504477,6.15603395 26.7164141,6.4632667 26.7164141,6.78187844 C26.7164141,7.12324816 26.7504477,7.46461788 26.7958259,7.78322962 C26.8525487,8.11322035 26.9433051,8.39769512 27.0680951,8.64803291 C27.2042297,8.9097497 27.374398,9.10319254 27.5899444,9.26249841 C27.7941463,9.41042529 28.0664155,9.49007822 28.3840629,9.49007822 C28.5542311,9.49007822 28.7130548,9.46732024 28.8605339,9.42180428 C29.0080131,9.37628831 29.1668368,9.30801437 29.3256605,9.19422446 C29.4844842,9.09181355 29.6546524,8.95526566 29.8248207,8.7845808 C30.0063334,8.62527493 30.1878462,8.4204531 30.3807036,8.1701153 L30.3807036,5.47329451 Z M40.1483607,6.77049945 C40.1483607,7.316691 40.0802934,7.82874558 39.9328143,8.28390521 C39.7853351,8.75044383 39.5697887,9.1487085 39.2861749,9.49007822 C39.0025612,9.82006895 38.6395356,10.0817857 38.2197873,10.2638496 C37.7773499,10.4572924 37.2781897,10.5483244 36.7109622,10.5483244 C36.1664238,10.5483244 35.6786082,10.4686714 35.2702044,10.2979866 C34.8618006,10.1386807 34.5214641,9.89972189 34.249195,9.58111015 C33.9655812,9.26249841 33.7613793,8.88699172 33.6365893,8.43183209 C33.5004547,7.98805145 33.4323874,7.47599687 33.4323874,6.90704734 C33.4323874,6.3494768 33.5004547,5.84880121 33.6365893,5.38226259 C33.7840684,4.92710296 33.9996149,4.52883829 34.2832286,4.18746857 C34.5668423,3.85747784 34.9298679,3.59576105 35.3609608,3.4136972 C35.7807091,3.22025436 36.2798693,3.12922243 36.8584413,3.12922243 C37.4143243,3.12922243 37.8907954,3.20887537 38.2991991,3.37956023 C38.7189475,3.55024509 39.059284,3.78920389 39.3315531,4.09643664 C39.6038223,4.41504838 39.8080242,4.79055507 39.9441588,5.2457147 C40.0802934,5.70087433 40.1483607,6.20154992 40.1483607,6.77049945 Z M38.8664266,6.85015238 C38.8664266,6.48602468 38.832393,6.13327597 38.7643257,5.81466423 C38.6962584,5.4846735 38.5828129,5.20019874 38.4239892,4.96123993 C38.27651,4.71090214 38.0609636,4.5174593 37.800039,4.38091141 C37.5391143,4.23298453 37.1987778,4.16471059 36.8130631,4.16471059 C36.438693,4.16471059 36.1323902,4.22160554 35.8714655,4.35815343 C35.5991964,4.48332233 35.3949945,4.66538618 35.2134817,4.90434498 C35.0433134,5.14330378 34.9185234,5.42777855 34.8391115,5.75776928 C34.7596997,6.07638102 34.7143215,6.42912973 34.7143215,6.81601541 C34.7143215,7.19152211 34.7483551,7.53289183 34.8164224,7.86288255 C34.8844897,8.18149429 34.9979352,8.46596906 35.1567589,8.71630686 C35.3155826,8.95526566 35.5197845,9.1487085 35.7920537,9.28525639 C36.0529783,9.43318327 36.3819703,9.50145721 36.7790295,9.50145721 C37.1420551,9.50145721 37.4483579,9.44456226 37.7206271,9.30801437 C37.9815517,9.18284547 38.1970982,9.00078162 38.3672664,8.76182282 C38.5374347,8.52286401 38.6622247,8.24976824 38.7416366,7.91977751 C38.8210484,7.60116577 38.8664266,7.23703807 38.8664266,6.85015238 Z M51.322742,3.45921316 C51.322742,3.49335014 51.322742,3.5388661 51.3113974,3.58438206 C51.3000529,3.62989802 51.2887083,3.69817197 51.2546747,3.7778249 L49.2807231,10.1841967 C49.258034,10.2410916 49.2353449,10.2866076 49.2013112,10.3207445 C49.1786221,10.3548815 49.1332439,10.3890185 49.0765212,10.4003975 C49.0197984,10.4231555 48.9403866,10.4345344 48.8382856,10.4459134 C48.7361847,10.4572924 48.6113946,10.4572924 48.4639155,10.4572924 C48.3050918,10.4572924 48.1803018,10.4572924 48.0782008,10.4459134 C47.9647553,10.4345344 47.8853435,10.4117765 47.8286207,10.4003975 C47.7605534,10.3776395 47.7151752,10.3548815 47.6811416,10.3093655 C47.6584525,10.2752286 47.6357634,10.2410916 47.6244188,10.1841967 L46.2063501,5.29123066 L46.1950056,5.22295672 L46.1723165,5.29123066 L44.8676933,10.1841967 C44.8563488,10.2410916 44.8223151,10.2866076 44.799626,10.3207445 C44.7655924,10.3548815 44.7202142,10.3890185 44.6521469,10.4003975 C44.5840796,10.4231555 44.5046677,10.4345344 44.4025668,10.4459134 C44.3004658,10.4572924 44.1756758,10.4572924 44.0168521,10.4572924 C43.8693729,10.4572924 43.7445829,10.4572924 43.642482,10.4459134 C43.5517256,10.4345344 43.4723137,10.4117765 43.4042464,10.4003975 C43.3475237,10.3776395 43.3021455,10.3548815 43.2681118,10.3093655 C43.2340782,10.2752286 43.2113891,10.2410916 43.2000445,10.1841967 L41.2374375,3.7778249 C41.2147484,3.69817197 41.1920593,3.62989802 41.1807147,3.58438206 C41.1693702,3.5388661 41.1693702,3.49335014 41.1693702,3.45921316 C41.1693702,3.4136972 41.1807147,3.37956023 41.1920593,3.34542326 C41.2147484,3.32266528 41.248782,3.2999073 41.2941602,3.27714931 C41.3395384,3.26577032 41.4076057,3.25439133 41.4870175,3.24301234 L41.7819758,3.24301234 C41.9181104,3.24301234 42.0315559,3.24301234 42.1109678,3.25439133 C42.2017242,3.25439133 42.2697915,3.26577032 42.3151697,3.2885283 C42.3605479,3.31128629 42.383237,3.33404427 42.4059261,3.36818124 C42.4286152,3.39093922 42.4399597,3.43645518 42.4626488,3.48197115 L44.0849194,9.05767658 L44.0962639,9.12595052 L44.1076085,9.05767658 L45.605089,3.48197115 C45.6164336,3.43645518 45.6277781,3.39093922 45.6504672,3.36818124 C45.6731563,3.33404427 45.70719,3.31128629 45.7525682,3.2885283 C45.7979464,3.26577032 45.8546691,3.25439133 45.934081,3.25439133 C46.0134928,3.24301234 46.1155937,3.24301234 46.2403838,3.24301234 C46.3538293,3.24301234 46.4559302,3.24301234 46.5239975,3.25439133 C46.6034094,3.25439133 46.6714767,3.26577032 46.7168549,3.2885283 C46.7622331,3.31128629 46.7849222,3.33404427 46.8076113,3.35680225 C46.8303004,3.39093922 46.8416449,3.42507619 46.8529895,3.47059216 L48.4639155,9.05767658 L48.47526,9.12595052 L48.4866046,9.05767658 L50.0861861,3.48197115 C50.0975306,3.43645518 50.1088752,3.39093922 50.1315643,3.36818124 C50.1542534,3.33404427 50.188287,3.31128629 50.2450098,3.2885283 C50.290388,3.26577032 50.3471107,3.25439133 50.4378671,3.25439133 C50.517279,3.24301234 50.6193799,3.24301234 50.7441699,3.24301234 L51.0391282,3.24301234 C51.1071955,3.25439133 51.1639183,3.26577032 51.2092965,3.2885283 C51.2546747,3.2999073 51.2887083,3.32266528 51.3000529,3.35680225 C51.3113974,3.37956023 51.322742,3.4136972 51.322742,3.45921316 Z M62.9168716,9.04629758 L62.9168716,9.25111942 C62.905527,9.30801437 62.905527,9.36490932 62.8828379,9.41042529 C62.8714934,9.45594125 62.8601488,9.49007822 62.8374597,9.53559418 C62.8147706,9.55835217 62.780737,9.60386813 62.7353588,9.66076308 C62.678636,9.70627904 62.5765351,9.78593198 62.4177114,9.88834289 C62.2588877,9.99075381 62.0660304,10.0931647 61.8277948,10.1841967 C61.5895593,10.2866076 61.3172901,10.3662605 61.0109872,10.4345344 C60.7046844,10.5028084 60.3643479,10.5369454 60.0013223,10.5369454 C59.3773721,10.5369454 58.8101446,10.4345344 58.2996399,10.2183336 C57.7891352,10.0135118 57.3580423,9.69490005 57.0063613,9.28525639 C56.6433357,8.87561272 56.3710665,8.37493714 56.1782092,7.77185063 C55.9853518,7.16876412 55.8945954,6.47464569 55.8945954,5.68949534 C55.8945954,4.881587 55.9966964,4.16471059 56.2008983,3.52748711 C56.4164447,2.90164262 56.7000584,2.36683006 57.0744286,1.93442841 C57.4487987,1.49064778 57.9025807,1.16065705 58.42443,0.933077235 C58.9462792,0.694118431 59.5248513,0.580328524 60.160146,0.580328524 C60.4324152,0.580328524 60.7046844,0.614465496 60.9656091,0.659981459 C61.2378782,0.716876412 61.4761138,0.773771366 61.7030048,0.8534243 C61.9298958,0.933077235 62.1340976,1.02410916 62.3042659,1.13789907 C62.4744341,1.24030998 62.5992242,1.31996292 62.6672915,1.38823686 C62.7353588,1.45651081 62.780737,1.50202677 62.8034261,1.54754273 C62.8261152,1.5816797 62.8374597,1.61581668 62.8488043,1.66133264 C62.8601488,1.71822759 62.8714934,1.77512254 62.8828379,1.8320175 C62.8828379,1.90029144 62.8941825,1.97994438 62.8941825,2.0709763 C62.8941825,2.17338722 62.8828379,2.25304015 62.8714934,2.3213141 C62.8601488,2.40096703 62.8488043,2.45786199 62.8261152,2.50337795 C62.8147706,2.54889391 62.780737,2.58303088 62.7580479,2.60578886 C62.7353588,2.62854685 62.7013251,2.63992584 62.6559469,2.63992584 C62.5878796,2.63992584 62.4857787,2.59440987 62.3609886,2.49199896 C62.2361986,2.40096703 62.0773749,2.28717713 61.873173,2.17338722 C61.6803157,2.05959731 61.4420801,1.94580741 61.1584664,1.85477548 C60.8635081,1.75236456 60.5345162,1.7068486 60.1374569,1.7068486 C59.6950195,1.7068486 59.3093048,1.78650154 58.9576238,1.96856539 C58.6059428,2.13925025 58.2996399,2.38958804 58.0500598,2.73095776 C57.8004797,3.06094849 57.5962778,3.47059216 57.4601433,3.94850976 C57.3240087,4.43780636 57.2559414,4.99537691 57.2559414,5.6098424 C57.2559414,6.2243079 57.3240087,6.77049945 57.4601433,7.24841706 C57.5849333,7.71495568 57.7777906,8.11322035 58.0273707,8.43183209 C58.2769508,8.75044383 58.5832537,8.98940263 58.9349347,9.16008749 C59.2979603,9.31939336 59.7063641,9.3990463 60.1714906,9.3990463 C60.5572053,9.3990463 60.8975418,9.35353033 61.1811555,9.25111942 C61.4647692,9.16008749 61.7143493,9.05767658 61.9185512,8.93250768 C62.1227531,8.81871777 62.2815768,8.71630686 62.4177114,8.62527493 C62.5425014,8.52286401 62.6446024,8.47734805 62.7240142,8.47734805 C62.7580479,8.47734805 62.7920815,8.48872704 62.8147706,8.50010603 C62.8374597,8.51148502 62.8601488,8.545622 62.8714934,8.57975897 C62.8941825,8.62527493 62.905527,8.68216988 62.905527,8.76182282 C62.9168716,8.83009676 62.9168716,8.93250768 62.9168716,9.04629758 Z M70.7332662,6.77049945 C70.7332662,7.316691 70.6538543,7.82874558 70.5177197,8.28390521 C70.3702406,8.75044383 70.1546942,9.1487085 69.8710804,9.49007822 C69.5874667,9.82006895 69.2244411,10.0817857 68.7933482,10.2638496 C68.3622553,10.4572924 67.8630952,10.5483244 67.2958677,10.5483244 C66.7399847,10.5483244 66.2635137,10.4686714 65.8551099,10.2979866 C65.4353616,10.1386807 65.0950251,9.89972189 64.8227559,9.58111015 C64.5504867,9.26249841 64.3462848,8.88699172 64.2101502,8.43183209 C64.0740156,7.98805145 64.0059483,7.47599687 64.0059483,6.90704734 C64.0059483,6.3494768 64.0853602,5.84880121 64.2214948,5.38226259 C64.3689739,4.92710296 64.5845203,4.52883829 64.8681341,4.18746857 C65.1517478,3.85747784 65.5034289,3.59576105 65.9345217,3.4136972 C66.3656146,3.22025436 66.8647748,3.12922243 67.4320023,3.12922243 C67.9878852,3.12922243 68.4757008,3.20887537 68.8841046,3.37956023 C69.2925084,3.55024509 69.6328449,3.78920389 69.9051141,4.09643664 C70.1773832,4.41504838 70.3929297,4.79055507 70.5290643,5.2457147 C70.6651989,5.70087433 70.7332662,6.20154992 70.7332662,6.77049945 Z M69.4399875,6.85015238 C69.4399875,6.48602468 69.4059539,6.13327597 69.3378866,5.81466423 C69.2811638,5.4846735 69.1677183,5.20019874 69.0088947,4.96123993 C68.850071,4.71090214 68.6458691,4.5174593 68.3735999,4.38091141 C68.1126752,4.23298453 67.7836833,4.16471059 67.3866241,4.16471059 C67.0235985,4.16471059 66.7059511,4.22160554 66.4450265,4.35815343 C66.1841018,4.48332233 65.9685554,4.66538618 65.7983871,4.90434498 C65.6282189,5.14330378 65.5034289,5.42777855 65.424017,5.75776928 C65.3332606,6.07638102 65.299227,6.42912973 65.299227,6.81601541 C65.299227,7.19152211 65.3332606,7.53289183 65.4013279,7.86288255 C65.4693952,8.18149429 65.5714962,8.46596906 65.7303198,8.71630686 C65.8891435,8.95526566 66.10469,9.1487085 66.3656146,9.28525639 C66.6378838,9.43318327 66.9668757,9.50145721 67.363935,9.50145721 C67.715616,9.50145721 68.0332634,9.44456226 68.294188,9.30801437 C68.5664572,9.18284547 68.7820037,9.00078162 68.9521719,8.76182282 C69.1223401,8.52286401 69.2471302,8.24976824 69.326542,7.91977751 C69.4059539,7.60116577 69.4399875,7.23703807 69.4399875,6.85015238 Z M82.5429422,10.2297126 C82.5429422,10.2638496 82.5315977,10.2979866 82.5089086,10.3321235 C82.4862195,10.3548815 82.4521858,10.3776395 82.4068076,10.4003975 C82.372774,10.4117765 82.3047067,10.4345344 82.2252948,10.4459134 C82.145883,10.4572924 82.043782,10.4572924 81.9303365,10.4572924 C81.8055465,10.4572924 81.7034455,10.4572924 81.6240337,10.4459134 C81.5446219,10.4345344 81.4765546,10.4117765 81.4311764,10.4003975 C81.3857982,10.3776395 81.3517645,10.3548815 81.3290754,10.3321235 C81.3063863,10.2979866 81.2950418,10.2638496 81.2950418,10.2297126 L81.2950418,6.12189698 C81.2950418,5.83742222 81.2723527,5.57570543 81.2269745,5.33674663 C81.1702517,5.10916681 81.0908399,4.90434498 80.9887389,4.73366012 C80.8752934,4.56297526 80.7391588,4.43780636 80.5689906,4.34677444 C80.3988224,4.25574251 80.205965,4.21022655 79.9677295,4.21022655 C79.6841157,4.21022655 79.400502,4.31263746 79.1168883,4.54021728 C78.8332745,4.7564181 78.5156271,5.07502984 78.1752907,5.50743149 L78.1752907,10.2297126 C78.1752907,10.2638496 78.1639461,10.2979866 78.141257,10.3321235 C78.1299125,10.3548815 78.0958788,10.3776395 78.0391561,10.4003975 C77.9937779,10.4117765 77.9370551,10.4345344 77.8576433,10.4459134 C77.7782314,10.4572924 77.6761305,10.4572924 77.5513404,10.4572924 C77.4378949,10.4572924 77.335794,10.4572924 77.2563821,10.4459134 C77.1769703,10.4345344 77.108903,10.4117765 77.0635248,10.4003975 C77.0181466,10.3776395 76.984113,10.3548815 76.9614239,10.3321235 C76.9387348,10.2979866 76.9387348,10.2638496 76.9387348,10.2297126 L76.9387348,6.12189698 C76.9387348,5.83742222 76.9047011,5.57570543 76.8593229,5.33674663 C76.8026002,5.10916681 76.7118438,4.90434498 76.6097428,4.73366012 C76.4962973,4.56297526 76.3601627,4.43780636 76.1899945,4.34677444 C76.0198262,4.25574251 75.8269689,4.21022655 75.6000779,4.21022655 C75.3164642,4.21022655 75.0328504,4.31263746 74.7378922,4.54021728 C74.4542784,4.7564181 74.136631,5.07502984 73.7962945,5.50743149 L73.7962945,10.2297126 C73.7962945,10.2638496 73.78495,10.2979866 73.7622609,10.3321235 C73.7509163,10.3548815 73.7168827,10.3776395 73.6715045,10.4003975 C73.6261263,10.4117765 73.558059,10.4345344 73.4786472,10.4459134 C73.3992353,10.4572924 73.2971344,10.4572924 73.1723443,10.4572924 C73.0475543,10.4572924 72.9567979,10.4572924 72.877386,10.4459134 C72.7979742,10.4345344 72.7299069,10.4117765 72.6845287,10.4003975 C72.6391505,10.3776395 72.6051168,10.3548815 72.5824277,10.3321235 C72.5597386,10.2979866 72.5597386,10.2638496 72.5597386,10.2297126 L72.5597386,3.47059216 C72.5597386,3.43645518 72.5597386,3.40231821 72.5824277,3.36818124 C72.5937723,3.34542326 72.6278059,3.32266528 72.6731841,3.2999073 C72.7185623,3.27714931 72.7752851,3.25439133 72.8433524,3.25439133 C72.9114197,3.24301234 73.0021761,3.24301234 73.1269661,3.24301234 C73.2290671,3.24301234 73.3198235,3.24301234 73.3992353,3.25439133 C73.4673026,3.25439133 73.5240254,3.27714931 73.5694036,3.2999073 C73.6034372,3.32266528 73.6374708,3.34542326 73.6488154,3.36818124 C73.6715045,3.40231821 73.682849,3.43645518 73.682849,3.47059216 L73.682849,4.36953242 C74.0572192,3.93713077 74.4202448,3.62989802 74.7832703,3.42507619 C75.1349514,3.23163335 75.497977,3.12922243 75.8610026,3.12922243 C76.1446163,3.12922243 76.3941964,3.16335941 76.6097428,3.23163335 C76.8366338,3.2999073 77.0294912,3.39093922 77.1996594,3.50472913 C77.3698276,3.61851903 77.5173068,3.76644591 77.6307523,3.92575178 C77.7555423,4.08505765 77.8576433,4.2671215 77.9370551,4.47194333 C78.1639461,4.22160554 78.368148,4.01678371 78.5723499,3.84609885 C78.7765518,3.67541399 78.9694091,3.5388661 79.1509219,3.43645518 C79.3437793,3.32266528 79.525292,3.25439133 79.6954603,3.20887537 C79.8769731,3.15198042 80.0584859,3.12922243 80.2286541,3.12922243 C80.6710915,3.12922243 81.0341171,3.20887537 81.3177309,3.35680225 C81.6126892,3.51610812 81.8509247,3.72092995 82.0324375,3.97126774 C82.2139503,4.23298453 82.3500849,4.52883829 82.4294967,4.87020801 C82.497564,5.21157773 82.5429422,5.57570543 82.5429422,5.95121212 L82.5429422,10.2297126 Z M90.9719425,6.73636248 C90.9719425,7.32806999 90.9038752,7.86288255 90.7790852,8.32942117 C90.6542951,8.79595979 90.4727823,9.19422446 90.2232022,9.52421519 C89.9736221,9.85420592 89.6673193,10.1045437 89.3042937,10.2866076 C88.9412681,10.4572924 88.5328644,10.5483244 88.0677378,10.5483244 C87.8635359,10.5483244 87.6820231,10.5255664 87.5118549,10.4914294 C87.3416867,10.4459134 87.182863,10.3890185 87.0126947,10.2979866 C86.853871,10.2183336 86.6950473,10.1045437 86.5362236,9.97937482 C86.3773999,9.85420592 86.2072317,9.69490005 86.0257189,9.52421519 L86.0257189,12.9037754 C86.0257189,12.9492914 86.0143744,12.9834284 85.9916853,13.0061863 C85.9803407,13.0403233 85.9463071,13.0630813 85.9009289,13.0858393 C85.8555507,13.1085973 85.7874834,13.1199762 85.7080715,13.1313552 C85.6286597,13.1427342 85.5265587,13.1427342 85.4017687,13.1427342 C85.2769786,13.1427342 85.1862222,13.1427342 85.1068104,13.1313552 C85.0273986,13.1199762 84.9593313,13.1085973 84.9139531,13.0858393 C84.8685749,13.0630813 84.8345412,13.0403233 84.8118521,13.0061863 C84.789163,12.9834284 84.789163,12.9492914 84.789163,12.9037754 L84.789163,3.47059216 C84.789163,3.42507619 84.789163,3.39093922 84.8118521,3.36818124 C84.8231967,3.33404427 84.8572303,3.31128629 84.9026085,3.2885283 C84.9479867,3.27714931 85.0047095,3.25439133 85.0727768,3.25439133 C85.140844,3.24301234 85.2316004,3.24301234 85.3223568,3.24301234 C85.4358023,3.24301234 85.5152142,3.24301234 85.5832815,3.25439133 C85.6513488,3.25439133 85.7080715,3.27714931 85.7534497,3.2885283 C85.7988279,3.31128629 85.8328616,3.33404427 85.8555507,3.36818124 C85.8668952,3.39093922 85.8782398,3.42507619 85.8782398,3.47059216 L85.8782398,4.38091141 C86.0824417,4.16471059 86.275299,3.98264674 86.4681563,3.82334087 C86.6496691,3.67541399 86.8425265,3.55024509 87.0353838,3.44783417 C87.2282412,3.34542326 87.4210985,3.26577032 87.6253004,3.20887537 C87.8295023,3.16335941 88.0450487,3.12922243 88.2605952,3.12922243 C88.7484108,3.12922243 89.1681591,3.23163335 89.5084956,3.4136972 C89.8488321,3.60714004 90.1324458,3.86885683 90.3479923,4.19884756 C90.5635387,4.52883829 90.7223624,4.91572397 90.8244634,5.34812562 C90.9265643,5.79190625 90.9719425,6.24706588 90.9719425,6.73636248 Z M89.6900084,6.88428936 C89.6900084,6.53154065 89.6559748,6.20154992 89.6105966,5.88293818 C89.5538738,5.55294745 89.4631174,5.26847268 89.3383274,5.01813489 C89.2135373,4.76779709 89.0433691,4.56297526 88.8278226,4.41504838 C88.6122762,4.2671215 88.340007,4.18746857 88.0223596,4.18746857 C87.8635359,4.18746857 87.7047122,4.21022655 87.5572331,4.2671215 C87.3984094,4.31263746 87.2395857,4.3922904 87.080762,4.48332233 C86.9219383,4.58573324 86.7517701,4.72228113 86.5816018,4.89296599 C86.4114336,5.06365085 86.2185763,5.26847268 86.0257189,5.51881048 L86.0257189,8.20425228 C86.3660554,8.62527493 86.6837028,8.93250768 86.9900056,9.16008749 C87.2963085,9.37628831 87.6139558,9.49007822 87.9542923,9.49007822 C88.2605952,9.49007822 88.5215198,9.41042529 88.7484108,9.26249841 C88.9639572,9.11457153 89.14547,8.9097497 89.2816046,8.6594119 C89.4177392,8.40907411 89.5198402,8.13597833 89.5879075,7.81736659 C89.6559748,7.51013384 89.6900084,7.19152211 89.6900084,6.88428936 Z M97.8921177,10.2297126 C97.8921177,10.2866076 97.8807731,10.3321235 97.8353949,10.3662605 C97.8013613,10.4003975 97.7446386,10.4231555 97.6765713,10.4345344 C97.608504,10.4459134 97.506403,10.4572924 97.3702684,10.4572924 C97.2341338,10.4572924 97.1320329,10.4459134 97.052621,10.4345344 C96.9845537,10.4231555 96.927831,10.4003975 96.8937973,10.3662605 C96.8484191,10.3321235 96.8370746,10.2979866 96.8370746,10.2297126 L96.8370746,9.55835217 C96.5421163,9.86558491 96.2131244,10.1159227 95.8500988,10.2866076 C95.4870732,10.4572924 95.1127031,10.5483244 94.7042993,10.5483244 C94.3526182,10.5483244 94.0236263,10.5028084 93.7400126,10.4117765 C93.4563988,10.3207445 93.2068187,10.1841967 93.0139614,10.0135118 C92.8097595,9.83144794 92.6509358,9.61524712 92.5374903,9.36490932 C92.4240448,9.10319254 92.3673221,8.81871777 92.3673221,8.48872704 C92.3673221,8.11322035 92.4467339,7.78322962 92.6055576,7.49875485 C92.7530368,7.22565908 92.9799278,6.98670027 93.2635415,6.80463642 C93.5584998,6.62257257 93.9101808,6.47464569 94.3299292,6.38361377 C94.7496775,6.29258184 95.214804,6.24706588 95.7479978,6.24706588 L96.6669063,6.24706588 L96.6669063,5.72363231 C96.6669063,5.46191552 96.6442172,5.23433571 96.5874945,5.02951388 C96.5307718,4.83607104 96.4513599,4.66538618 96.3265699,4.52883829 C96.2017798,4.40366939 96.0429561,4.30125847 95.8500988,4.23298453 C95.6572414,4.16471059 95.4190059,4.13057361 95.1353922,4.13057361 C94.8290893,4.13057361 94.5568201,4.16471059 94.3185846,4.24436352 C94.0690045,4.31263746 93.8648026,4.3922904 93.6832898,4.48332233 C93.501777,4.57435425 93.3429533,4.65400719 93.2295078,4.72228113 C93.1047178,4.80193406 93.0139614,4.83607104 92.9572387,4.83607104 C92.9118605,4.83607104 92.8778268,4.82469205 92.8551377,4.80193406 C92.8211041,4.79055507 92.798415,4.7564181 92.7757259,4.72228113 C92.7530368,4.67676517 92.7303477,4.6312492 92.7190031,4.56297526 C92.7076586,4.50608031 92.7076586,4.43780636 92.7076586,4.35815343 C92.7076586,4.23298453 92.7190031,4.13057361 92.7303477,4.06229967 C92.7530368,3.99402573 92.798415,3.92575178 92.8551377,3.85747784 C92.923205,3.80058288 93.0479951,3.72092995 93.2068187,3.62989802 C93.3656424,3.5388661 93.5584998,3.45921316 93.7740462,3.39093922 C93.9895927,3.31128629 94.2278282,3.25439133 94.4774083,3.20887537 C94.7269884,3.15198042 94.987913,3.12922243 95.2488377,3.12922243 C95.7253087,3.12922243 96.1337125,3.18611739 96.474049,3.2999073 C96.8143855,3.40231821 97.0866547,3.57300307 97.3022011,3.7778249 C97.506403,3.99402573 97.6538822,4.25574251 97.7559831,4.57435425 C97.8467395,4.89296599 97.8921177,5.25709369 97.8921177,5.67811635 L97.8921177,10.2297126 Z M96.6669063,7.14600614 L95.6232078,7.14600614 C95.2828713,7.14600614 94.987913,7.16876412 94.7383329,7.22565908 C94.4887528,7.28255403 94.284551,7.37358596 94.1143827,7.48737586 C93.955559,7.60116577 93.830769,7.72633467 93.7513571,7.88564054 C93.6832898,8.04494641 93.6379116,8.22701026 93.6379116,8.43183209 C93.6379116,8.7845808 93.7513571,9.05767658 93.9669036,9.2738774 C94.1937946,9.47869923 94.5000974,9.58111015 94.9085012,9.58111015 C95.2261486,9.58111015 95.5211068,9.50145721 95.8047206,9.33077235 C96.0769898,9.17146648 96.3719481,8.92112869 96.6669063,8.57975897 L96.6669063,7.14600614 Z M105.946748,10.2297126 C105.946748,10.2638496 105.935403,10.2979866 105.924059,10.3321235 C105.90137,10.3548815 105.867336,10.3776395 105.821958,10.4003975 C105.77658,10.4117765 105.719857,10.4345344 105.6291,10.4459134 C105.549689,10.4572924 105.458932,10.4572924 105.334142,10.4572924 C105.209352,10.4572924 105.107251,10.4572924 105.027839,10.4459134 C104.948427,10.4345344 104.88036,10.4117765 104.834982,10.4003975 C104.789604,10.3776395 104.75557,10.3548815 104.744226,10.3321235 C104.721536,10.2979866 104.710192,10.2638496 104.710192,10.2297126 L104.710192,6.26982386 C104.710192,5.88293818 104.676158,5.57570543 104.619436,5.33674663 C104.562713,5.10916681 104.471956,4.90434498 104.358511,4.73366012 C104.245065,4.56297526 104.097586,4.43780636 103.916073,4.34677444 C103.734561,4.25574251 103.530359,4.21022655 103.292123,4.21022655 C102.98582,4.21022655 102.679518,4.31263746 102.373215,4.54021728 C102.055567,4.7564181 101.73792,5.07502984 101.397583,5.50743149 L101.397583,10.2297126 C101.397583,10.2638496 101.397583,10.2979866 101.374894,10.3321235 C101.352205,10.3548815 101.318172,10.3776395 101.272793,10.4003975 C101.227415,10.4117765 101.170693,10.4345344 101.091281,10.4459134 C101.011869,10.4572924 100.909768,10.4572924 100.784978,10.4572924 C100.660188,10.4572924 100.558087,10.4572924 100.478675,10.4459134 C100.399263,10.4345344 100.331196,10.4117765 100.285818,10.4003975 C100.240439,10.3776395 100.206406,10.3548815 100.183717,10.3321235 C100.172372,10.2979866 100.161028,10.2638496 100.161028,10.2297126 L100.161028,3.47059216 C100.161028,3.43645518 100.172372,3.40231821 100.183717,3.36818124 C100.206406,3.34542326 100.229095,3.32266528 100.274473,3.2999073 C100.319851,3.27714931 100.376574,3.25439133 100.444641,3.25439133 C100.512709,3.24301234 100.61481,3.24301234 100.728255,3.24301234 C100.841701,3.24301234 100.932457,3.24301234 101.000524,3.25439133 C101.068592,3.25439133 101.125314,3.27714931 101.170693,3.2999073 C101.204726,3.32266528 101.23876,3.34542326 101.261449,3.36818124 C101.272793,3.40231821 101.284138,3.43645518 101.284138,3.47059216 L101.284138,4.36953242 C101.658508,3.93713077 102.032878,3.62989802 102.418593,3.42507619 C102.792963,3.23163335 103.167333,3.12922243 103.553048,3.12922243 C103.995485,3.12922243 104.369855,3.20887537 104.676158,3.35680225 C104.982461,3.51610812 105.232041,3.72092995 105.424899,3.97126774 C105.606411,4.23298453 105.742546,4.52883829 105.821958,4.87020801 C105.912714,5.21157773 105.946748,5.62122139 105.946748,6.099139 L105.946748,10.2297126 Z" id="Shape"></path>
                        <path d="M110.983728,10.4117765 L110.087508,12.8923964 C110.053475,12.9720494 109.974063,13.0403233 109.860617,13.0858393 C109.735827,13.1199762 109.554315,13.1427342 109.304734,13.1427342 C109.1686,13.1427342 109.066499,13.1427342 108.987087,13.1313552 C108.907675,13.1085973 108.850953,13.0858393 108.805574,13.0630813 C108.760196,13.0289443 108.737507,12.9948073 108.737507,12.9379124 C108.726162,12.8923964 108.737507,12.8355015 108.771541,12.7558485 L109.701794,10.4117765 C109.656416,10.3890185 109.611037,10.3548815 109.565659,10.3093655 C109.531625,10.2638496 109.497592,10.2183336 109.486247,10.1728177 L107.092547,3.72092995 C107.047169,3.61851903 107.02448,3.52748711 107.02448,3.47059216 C107.02448,3.4136972 107.047169,3.36818124 107.092547,3.33404427 C107.126581,3.2885283 107.194648,3.26577032 107.285405,3.25439133 C107.376161,3.24301234 107.489607,3.24301234 107.637086,3.24301234 C107.784565,3.24301234 107.909355,3.24301234 107.988767,3.25439133 C108.079523,3.25439133 108.14759,3.27714931 108.192969,3.2885283 C108.238347,3.31128629 108.283725,3.34542326 108.306414,3.37956023 C108.329103,3.4136972 108.351792,3.47059216 108.374481,3.52748711 L110.29171,8.94388667 L110.314399,8.94388667 L112.174906,3.50472913 C112.197595,3.40231821 112.231628,3.34542326 112.277006,3.32266528 C112.322385,3.2885283 112.379107,3.26577032 112.469864,3.25439133 C112.56062,3.24301234 112.674066,3.24301234 112.832889,3.24301234 C112.980369,3.24301234 113.093814,3.24301234 113.18457,3.25439133 C113.275327,3.26577032 113.33205,3.2885283 113.377428,3.33404427 C113.422806,3.36818124 113.445495,3.4136972 113.445495,3.47059216 C113.445495,3.52748711 113.422806,3.60714004 113.400117,3.69817197 L110.983728,10.4117765 Z" id="Shape"></path>
                    </g>
                </g>
            </g>
            <polygon id="Shape" points="0 0 154.785848 0 154.785848 50 0 50"></polygon>
        </g>
    </g>
</svg>