<?xml version="1.0" encoding="UTF-8"?>
<svg width="360px" height="270px" viewBox="0 0 360 270" version="1.1" xmlns="http://www.w3.org/2000/svg" xmlns:xlink="http://www.w3.org/1999/xlink">
    <!-- Generator: Sketch 41.2 (35397) - http://www.bohemiancoding.com/sketch -->
    <title>Team-Page-Logo-Gray</title>
    <desc>Created with Sketch.</desc>
    <defs></defs>
    <g id="Page-1" stroke="none" stroke-width="1" fill="none" fill-rule="evenodd">
        <g id="Group">
            <rect id="Rectangle" x="0" y="0" width="360" height="270"></rect>
            <g id="SofterLight-Logo3" transform="translate(55.000000, 10.000000)">
                <g id="Layer_x0020_1">
                    <g id="_2903525882688" transform="translate(39.763780, 20.620079)" fill="#84B4E3">
                        <path d="M121.309055,47.1456693 C121.309055,27.2145669 105.142717,11.0728346 85.2362205,11.0728346 C65.3297244,11.0728346 49.1633858,27.2145669 49.1633858,47.1456693 L49.1633858,47.1456693 L49.1633858,135.457677 L121.309055,135.457677 L121.309055,47.1456693 L121.309055,47.1456693 Z M78.5433071,40.1574803 C78.5433071,40.1574803 80.3149606,38.9271654 81.5452756,38.5826772 C82.7755906,38.2627953 84.6702756,38.1151575 84.6702756,38.1151575 L84.7687008,48.9665354 L78.5433071,40.1574803 Z M82.3326772,50.7627953 L76.5255906,41.1909449 C76.5255906,41.1909449 72.5639764,44.980315 72.4901575,46.0137795 L82.3326772,50.7627953 Z M71.0629921,54.6751969 L79.8474409,54.6751969 L71.7273622,48.351378 C71.7273622,48.351378 70.9399606,51.1564961 71.0629921,54.6751969 Z M93.1102362,40.1574803 C93.1102362,40.1574803 91.3385827,38.9271654 90.1082677,38.5826772 C88.8779528,38.2627953 86.9832677,38.1151575 86.9832677,38.1151575 L86.8848425,48.9665354 L93.1102362,40.1574803 Z M89.3208661,50.7627953 L95.1279528,41.1909449 C95.1279528,41.1909449 99.0895669,44.980315 99.1633858,46.0137795 L89.3208661,50.7627953 Z M100.590551,54.6751969 L91.8061024,54.6751969 L99.9507874,48.351378 C99.9507874,48.351378 100.713583,51.1564961 100.590551,54.6751969 Z M102.65748,23.8681102 C102.65748,23.8681102 98.6712598,21.2598425 95.3740157,20.0787402 C92.0767717,18.8976378 87.4261811,18.3316929 87.4261811,18.3316929 L87.4261811,34.5964567 C87.4261811,34.5964567 90.1574803,35.113189 91.0433071,35.4084646 C91.9045276,35.7037402 94.7834646,37.2785433 94.7834646,37.2785433 L102.65748,23.8681102 Z M112.942913,36.2942913 L102.140748,43.4547244 L97.0718504,38.5826772 L105.191929,25.2952756 C108.636811,28.1003937 111.343504,32.3326772 112.942913,36.2942913 Z M114.714567,54.5275591 L114.714567,47.0226378 C114.714567,44.2913386 114.197835,41.4862205 113.533465,40.6496063 L103.125,46.8996063 L103.125,54.5275591 L114.714567,54.5275591 Z M69.2175197,23.8681102 C69.2175197,23.8681102 73.2037402,21.2598425 76.5009843,20.0787402 C79.7982283,18.8976378 84.4488189,18.3316929 84.4488189,18.3316929 L84.4488189,34.5964567 C84.4488189,34.5964567 81.6929134,35.113189 80.8316929,35.4084646 C79.9704724,35.7037402 77.0915354,37.2785433 77.0915354,37.2785433 L69.2175197,23.8681102 Z M58.9320866,36.2942913 L69.734252,43.4547244 L74.8031496,38.5826772 L66.6584646,25.2952756 C63.238189,28.1003937 60.5314961,32.3326772 58.9320866,36.2942913 Z M57.1604331,54.5275591 L57.1604331,47.0226378 C57.1604331,44.2913386 57.6771654,41.4862205 58.3415354,40.6496063 L68.75,46.8996063 L68.75,54.5275591 L57.1604331,54.5275591 Z M56.7667323,62.2047244 L67.7165354,62.2047244 L67.7165354,81.2253937 L56.7667323,81.2253937 L56.7667323,62.2047244 Z M103.912402,62.2047244 L114.837598,62.2047244 L114.837598,81.2253937 L103.912402,81.2253937 L103.912402,62.2047244 Z M88.1889764,62.2047244 L99.1387795,62.2047244 L99.1387795,81.2253937 L88.1889764,81.2253937 L88.1889764,62.2047244 Z M72.4901575,62.2047244 L83.4153543,62.2047244 L83.4153543,81.2253937 L72.4901575,81.2253937 L72.4901575,62.2047244 Z M56.7667323,108.292323 L67.7165354,108.292323 L67.7165354,127.312992 L56.7667323,127.312992 L56.7667323,108.292323 Z M103.912402,108.292323 L114.837598,108.292323 L114.837598,127.312992 L103.912402,127.312992 L103.912402,108.292323 Z M88.1889764,108.292323 L99.1387795,108.292323 L99.1387795,127.312992 L88.1889764,127.312992 L88.1889764,108.292323 Z M72.4901575,108.292323 L83.4153543,108.292323 L83.4153543,127.312992 L72.4901575,127.312992 L72.4901575,108.292323 Z M56.7667323,85.3838583 L67.7165354,85.3838583 L67.7165354,104.404528 L56.7667323,104.404528 L56.7667323,85.3838583 Z M103.912402,85.3838583 L114.837598,85.3838583 L114.837598,104.404528 L103.912402,104.404528 L103.912402,85.3838583 Z M88.1889764,85.3838583 L99.1387795,85.3838583 L99.1387795,104.404528 L88.1889764,104.404528 L88.1889764,85.3838583 Z M72.4901575,85.3838583 L83.4153543,85.3838583 L83.4153543,104.404528 L72.4901575,104.404528 L72.4901575,85.3838583 Z" id="Shape"></path>
                        <path d="M131.692913,46.4566929 C131.692913,20.7923228 110.900591,0 85.2362205,0 C59.5718504,0 38.7795276,20.7923228 38.7795276,46.4566929 L38.7795276,46.4566929 L38.7795276,147.293307 L131.692913,147.293307 L131.692913,46.4566929 L131.692913,46.4566929 Z M129.109252,46.9488189 C129.109252,22.7116142 109.473425,3.0757874 85.2362205,3.0757874 C60.9990157,3.0757874 41.363189,22.7116142 41.363189,46.9488189 L41.363189,46.9488189 L41.363189,144.41437 L129.109252,144.41437 L129.109252,46.9488189 L129.109252,46.9488189 Z" id="Shape"></path>
                        <path d="M17.3966535,181.71752 C17.3966535,182.947835 17.1751969,184.030512 16.7322835,185.014764 C16.2647638,185.949803 15.625,186.761811 14.8375984,187.450787 C14.0255906,188.115157 13.0905512,188.607283 12.007874,188.951772 C10.9005906,189.29626 9.74409449,189.443898 8.48917323,189.443898 C7.60334646,189.443898 6.79133858,189.370079 6.05314961,189.222441 C5.29035433,189.074803 4.62598425,188.902559 4.03543307,188.681102 C3.44488189,188.459646 2.95275591,188.238189 2.55905512,188.016732 C2.16535433,187.770669 1.89468504,187.573819 1.72244094,187.401575 C1.57480315,187.253937 1.45177165,187.057087 1.37795276,186.786417 C1.30413386,186.540354 1.27952756,186.220472 1.27952756,185.802165 C1.27952756,185.50689 1.27952756,185.260827 1.32874016,185.063976 C1.35334646,184.867126 1.37795276,184.719488 1.42716535,184.596457 C1.50098425,184.473425 1.55019685,184.399606 1.64862205,184.350394 C1.72244094,184.301181 1.82086614,184.276575 1.91929134,184.276575 C2.11614173,184.276575 2.38681102,184.399606 2.73129921,184.621063 C3.0757874,184.84252 3.51870079,185.088583 4.06003937,185.359252 C4.60137795,185.629921 5.24114173,185.875984 6.00393701,186.122047 C6.76673228,186.343504 7.65255906,186.466535 8.63681102,186.466535 C9.3996063,186.466535 10.0885827,186.36811 10.7283465,186.17126 C11.3435039,185.974409 11.8848425,185.679134 12.3523622,185.310039 C12.7952756,184.940945 13.1397638,184.473425 13.3858268,183.956693 C13.6318898,183.415354 13.7549213,182.800197 13.7549213,182.11122 C13.7549213,181.373031 13.5826772,180.733268 13.238189,180.216535 C12.9183071,179.675197 12.4753937,179.232283 11.9094488,178.813976 C11.3435039,178.420276 10.7283465,178.051181 10.0147638,177.731299 C9.3011811,177.386811 8.58759843,177.066929 7.84940945,176.722441 C7.11122047,176.377953 6.3730315,175.984252 5.68405512,175.565945 C4.97047244,175.172244 4.35531496,174.680118 3.78937008,174.114173 C3.2480315,173.548228 2.80511811,172.883858 2.46062992,172.096457 C2.11614173,171.358268 1.94389764,170.447835 1.94389764,169.365157 C1.94389764,168.28248 2.14074803,167.298228 2.53444882,166.437008 C2.92814961,165.600394 3.49409449,164.886811 4.18307087,164.29626 C4.89665354,163.705709 5.73326772,163.262795 6.71751969,162.96752 C7.70177165,162.672244 8.75984252,162.524606 9.89173228,162.524606 C10.4576772,162.524606 11.0482283,162.573819 11.6387795,162.672244 C12.2293307,162.770669 12.7706693,162.893701 13.2874016,163.065945 C13.8041339,163.238189 14.2716535,163.435039 14.6653543,163.63189 C15.0836614,163.853346 15.3543307,164.025591 15.4773622,164.148622 C15.6003937,164.271654 15.6742126,164.370079 15.7234252,164.443898 C15.7726378,164.517717 15.7972441,164.616142 15.8218504,164.739173 C15.8464567,164.837598 15.871063,164.985236 15.8956693,165.15748 L15.8956693,165.772638 C15.8956693,166.018701 15.8956693,166.240157 15.871063,166.437008 C15.8464567,166.609252 15.8218504,166.781496 15.7726378,166.904528 C15.7480315,167.027559 15.6742126,167.125984 15.625,167.199803 C15.5511811,167.249016 15.4527559,167.273622 15.3543307,167.273622 C15.2066929,167.273622 14.9852362,167.175197 14.6653543,167.002953 C14.3454724,166.806102 13.9517717,166.584646 13.484252,166.363189 C13.0413386,166.117126 12.5,165.895669 11.8602362,165.723425 C11.2450787,165.501969 10.5314961,165.403543 9.74409449,165.403543 C9.03051181,165.403543 8.39074803,165.501969 7.84940945,165.698819 C7.30807087,165.895669 6.86515748,166.166339 6.52066929,166.48622 C6.1761811,166.806102 5.90551181,167.199803 5.73326772,167.642717 C5.56102362,168.08563 5.46259843,168.55315 5.46259843,169.045276 C5.46259843,169.783465 5.63484252,170.398622 5.95472441,170.915354 C6.2992126,171.456693 6.74212598,171.924213 7.30807087,172.317913 C7.87401575,172.73622 8.51377953,173.105315 9.2273622,173.425197 C9.94094488,173.769685 10.6791339,174.114173 11.4173228,174.458661 C12.1555118,174.80315 12.8937008,175.172244 13.6072835,175.590551 C14.3208661,175.984252 14.9606299,176.476378 15.5265748,177.042323 C16.0925197,177.608268 16.5354331,178.272638 16.8799213,179.035433 C17.2244094,179.798228 17.3966535,180.684055 17.3966535,181.71752 Z M38.8779528,179.25689 C38.8779528,180.733268 38.6811024,182.11122 38.2874016,183.341535 C37.9183071,184.596457 37.3277559,185.679134 36.5403543,186.589567 C35.7775591,187.475394 34.7933071,188.188976 33.636811,188.681102 C32.480315,189.197835 31.1269685,189.443898 29.5767717,189.443898 C28.1003937,189.443898 26.7716535,189.222441 25.6643701,188.779528 C24.5570866,188.336614 23.6220472,187.69685 22.8838583,186.83563 C22.1456693,185.999016 21.6043307,184.965551 21.2352362,183.735236 C20.8661417,182.529528 20.6938976,181.151575 20.6938976,179.625984 C20.6938976,178.125 20.890748,176.771654 21.2598425,175.516732 C21.6535433,174.261811 22.2440945,173.20374 23.0068898,172.293307 C23.769685,171.382874 24.753937,170.693898 25.9104331,170.177165 C27.0669291,169.685039 28.4202756,169.438976 29.9704724,169.438976 C31.4714567,169.438976 32.7755906,169.660433 33.882874,170.103346 C34.9901575,170.54626 35.9251969,171.186024 36.6633858,172.047244 C37.4015748,172.883858 37.9675197,173.917323 38.3366142,175.147638 C38.7057087,176.353346 38.8779528,177.731299 38.8779528,179.25689 Z M35.4084646,179.45374 C35.4084646,178.469488 35.3100394,177.534449 35.1377953,176.673228 C34.9409449,175.787402 34.6456693,175.024606 34.2273622,174.360236 C33.8090551,173.695866 33.2431102,173.179134 32.5049213,172.785433 C31.8159449,172.416339 30.9055118,172.219488 29.8474409,172.219488 C28.8385827,172.219488 28.0019685,172.391732 27.2883858,172.73622 C26.5748031,173.080709 25.984252,173.597441 25.5413386,174.237205 C25.0738189,174.876969 24.7293307,175.639764 24.507874,176.500984 C24.2864173,177.386811 24.1633858,178.346457 24.1633858,179.379921 C24.1633858,180.38878 24.261811,181.323819 24.4586614,182.209646 C24.6309055,183.070866 24.9261811,183.833661 25.3690945,184.498031 C25.7874016,185.137795 26.3533465,185.679134 27.0669291,186.048228 C27.7805118,186.441929 28.6909449,186.63878 29.7490157,186.63878 C30.7332677,186.63878 31.5698819,186.466535 32.2834646,186.097441 C33.0216535,185.752953 33.6122047,185.260827 34.0551181,184.621063 C34.5226378,184.005906 34.867126,183.24311 35.0885827,182.357283 C35.2854331,181.471457 35.4084646,180.511811 35.4084646,179.45374 Z M48.0561024,172.637795 L48.0561024,188.582677 C48.0561024,188.681102 48.0314961,188.779528 47.9822835,188.853346 C47.9084646,188.927165 47.8346457,188.976378 47.7116142,189.050197 C47.5639764,189.099409 47.3917323,189.124016 47.1948819,189.148622 C46.9734252,189.197835 46.7027559,189.197835 46.382874,189.197835 C46.0629921,189.197835 45.7923228,189.197835 45.5708661,189.148622 C45.3494094,189.124016 45.1771654,189.099409 45.0541339,189.050197 C44.9311024,188.976378 44.8326772,188.927165 44.7834646,188.853346 C44.734252,188.779528 44.7096457,188.681102 44.7096457,188.582677 L44.7096457,172.637795 L42.1259843,172.637795 C41.9045276,172.637795 41.7322835,172.514764 41.6338583,172.293307 C41.5108268,172.096457 41.4616142,171.727362 41.4616142,171.235236 C41.4616142,170.989173 41.4862205,170.767717 41.5108268,170.595472 C41.5354331,170.423228 41.5846457,170.275591 41.6338583,170.152559 C41.6830709,170.054134 41.7568898,169.955709 41.8307087,169.906496 C41.9045276,169.88189 42.0029528,169.857283 42.1259843,169.857283 L44.7096457,169.857283 L44.7096457,167.962598 C44.7096457,166.683071 44.8080709,165.600394 45.0541339,164.689961 C45.3001969,163.779528 45.644685,163.016732 46.136811,162.426181 C46.6043307,161.860236 47.2194882,161.417323 47.9576772,161.146654 C48.6958661,160.875984 49.5570866,160.728346 50.5659449,160.728346 C51.0580709,160.728346 51.5255906,160.777559 52.0177165,160.875984 C52.4852362,160.999016 52.8297244,161.072835 53.0265748,161.17126 C53.2234252,161.245079 53.371063,161.343504 53.4448819,161.417323 C53.5433071,161.491142 53.5925197,161.614173 53.6417323,161.737205 C53.6909449,161.860236 53.7155512,162.007874 53.7401575,162.204724 C53.7647638,162.376969 53.7647638,162.598425 53.7647638,162.869094 C53.7647638,163.115157 53.7647638,163.312008 53.7401575,163.484252 C53.7155512,163.63189 53.6909449,163.754921 53.6417323,163.853346 C53.617126,163.951772 53.5679134,164.000984 53.5187008,164.050197 C53.4694882,164.074803 53.3956693,164.099409 53.3218504,164.099409 C53.2234252,164.099409 53.1003937,164.074803 52.9773622,164.000984 C52.8297244,163.951772 52.6574803,163.877953 52.4606299,163.804134 C52.2637795,163.730315 52.0177165,163.656496 51.7470472,163.607283 C51.4517717,163.533465 51.1318898,163.508858 50.7627953,163.508858 C50.2706693,163.508858 49.8523622,163.582677 49.507874,163.754921 C49.1633858,163.927165 48.8681102,164.173228 48.6712598,164.517717 C48.4498031,164.862205 48.3021654,165.305118 48.1791339,165.846457 C48.0807087,166.412402 48.0314961,167.076772 48.0314961,167.864173 L48.0314961,169.857283 L56.25,169.857283 L56.25,165.477362 C56.25,165.403543 56.2992126,165.305118 56.3484252,165.231299 C56.3976378,165.132874 56.4714567,165.059055 56.6190945,165.009843 C56.742126,164.936024 56.8897638,164.911417 57.1112205,164.886811 C57.3326772,164.837598 57.6033465,164.837598 57.9478346,164.837598 C58.2677165,164.837598 58.5383858,164.837598 58.7598425,164.886811 C58.9812992,164.911417 59.1535433,164.936024 59.2765748,165.009843 C59.3996063,165.059055 59.4734252,165.132874 59.5472441,165.231299 C59.5964567,165.305118 59.621063,165.403543 59.621063,165.477362 L59.621063,169.857283 L64.2470472,169.857283 C64.3454724,169.857283 64.4438976,169.88189 64.5177165,169.906496 C64.6161417,169.955709 64.6899606,170.054134 64.7391732,170.152559 C64.7883858,170.275591 64.8375984,170.423228 64.886811,170.595472 C64.9114173,170.767717 64.9114173,170.989173 64.9114173,171.235236 C64.9114173,171.727362 64.8622047,172.096457 64.7391732,172.293307 C64.6161417,172.514764 64.4685039,172.637795 64.2716535,172.637795 L59.621063,172.637795 L59.621063,182.750984 C59.621063,184.005906 59.7933071,184.965551 60.1624016,185.580709 C60.5314961,186.220472 61.1958661,186.540354 62.1555118,186.540354 C62.4507874,186.540354 62.7214567,186.515748 62.9675197,186.466535 C63.2135827,186.392717 63.4350394,186.343504 63.6072835,186.269685 C63.8041339,186.195866 63.976378,186.146654 64.0994094,186.072835 C64.2470472,185.999016 64.3700787,185.974409 64.4685039,185.974409 C64.5423228,185.974409 64.6161417,185.999016 64.6653543,186.023622 C64.7145669,186.072835 64.7637795,186.122047 64.7883858,186.220472 C64.8375984,186.318898 64.8622047,186.441929 64.886811,186.614173 C64.9114173,186.761811 64.9114173,186.983268 64.9114173,187.229331 C64.9114173,187.623031 64.886811,187.918307 64.8375984,188.16437 C64.7637795,188.385827 64.6899606,188.558071 64.5669291,188.656496 C64.4685039,188.754921 64.3208661,188.877953 64.1240157,188.951772 C63.9025591,189.050197 63.6811024,189.124016 63.3858268,189.197835 C63.1151575,189.247047 62.8198819,189.29626 62.5246063,189.345472 C62.2047244,189.394685 61.8848425,189.419291 61.5895669,189.419291 C60.6299213,189.419291 59.8179134,189.29626 59.1535433,189.025591 C58.4891732,188.779528 57.9232283,188.410433 57.480315,187.893701 C57.0620079,187.401575 56.742126,186.761811 56.5452756,185.974409 C56.3484252,185.211614 56.25,184.301181 56.25,183.24311 L56.25,172.637795 L48.0561024,172.637795 Z M84.3996063,178.666339 C84.3996063,179.183071 84.2765748,179.576772 84.0059055,179.798228 C83.7352362,180.019685 83.4399606,180.11811 83.0954724,180.11811 L71.136811,180.11811 C71.136811,181.151575 71.2352362,182.062008 71.4320866,182.849409 C71.6535433,183.686024 71.9734252,184.375 72.4655512,184.965551 C72.9330709,185.531496 73.5482283,185.974409 74.2864173,186.294291 C75.0492126,186.589567 75.984252,186.761811 77.0669291,186.761811 C77.9281496,186.761811 78.7155512,186.687992 79.3799213,186.540354 C80.0442913,186.392717 80.6348425,186.245079 81.1269685,186.072835 C81.6190945,185.900591 82.0374016,185.752953 82.3572835,185.605315 C82.6771654,185.457677 82.898622,185.383858 83.0708661,185.383858 C83.1692913,185.383858 83.2431102,185.408465 83.3169291,185.457677 C83.390748,185.50689 83.4645669,185.580709 83.4891732,185.679134 C83.5383858,185.752953 83.5629921,185.900591 83.5875984,186.048228 C83.6122047,186.220472 83.6122047,186.441929 83.6122047,186.663386 C83.6122047,186.83563 83.6122047,187.007874 83.5875984,187.130906 C83.5875984,187.253937 83.5629921,187.376969 83.5383858,187.475394 C83.5137795,187.573819 83.4891732,187.672244 83.4399606,187.746063 C83.390748,187.819882 83.3415354,187.893701 83.2677165,187.96752 C83.1938976,188.041339 82.9724409,188.16437 82.6033465,188.336614 C82.234252,188.508858 81.7667323,188.656496 81.2007874,188.82874 C80.6102362,188.976378 79.9458661,189.124016 79.1830709,189.247047 C78.4202756,189.394685 77.6082677,189.443898 76.7470472,189.443898 C75.246063,189.443898 73.9419291,189.247047 72.8100394,188.82874 C71.7027559,188.410433 70.7431102,187.795276 69.980315,186.958661 C69.2175197,186.146654 68.6269685,185.113189 68.2332677,183.858268 C67.8395669,182.627953 67.6673228,181.176181 67.6673228,179.527559 C67.6673228,177.977362 67.8641732,176.550197 68.257874,175.319882 C68.6761811,174.064961 69.242126,173.00689 70.0049213,172.145669 C70.7677165,171.259843 71.7027559,170.595472 72.7854331,170.127953 C73.8435039,169.660433 75.0738189,169.438976 76.4025591,169.438976 C77.8297244,169.438976 79.0354331,169.660433 80.0442913,170.127953 C81.0531496,170.570866 81.8651575,171.21063 82.5295276,171.973425 C83.1692913,172.760827 83.636811,173.67126 83.9566929,174.704724 C84.2519685,175.762795 84.3996063,176.870079 84.3996063,178.051181 L84.3996063,178.666339 Z M81.0531496,177.682087 C81.0777559,175.935039 80.7086614,174.557087 79.8720472,173.548228 C79.0600394,172.53937 77.8543307,172.047244 76.230315,172.047244 C75.4183071,172.047244 74.6801181,172.194882 74.0649606,172.514764 C73.4498031,172.810039 72.9330709,173.228346 72.4901575,173.745079 C72.0718504,174.261811 71.7519685,174.852362 71.5305118,175.541339 C71.3090551,176.230315 71.1614173,176.943898 71.136811,177.682087 L81.0531496,177.682087 Z M100.172244,171.530512 C100.172244,171.825787 100.172244,172.07185 100.147638,172.268701 C100.123031,172.490157 100.098425,172.637795 100.073819,172.760827 C100.024606,172.883858 99.9753937,172.957677 99.9015748,173.031496 C99.8523622,173.080709 99.7785433,173.105315 99.6555118,173.105315 C99.5570866,173.105315 99.4340551,173.080709 99.261811,173.031496 C99.1141732,172.957677 98.9419291,172.883858 98.7450787,172.834646 C98.5482283,172.785433 98.3267717,172.711614 98.0807087,172.662402 C97.859252,172.613189 97.5885827,172.588583 97.2933071,172.588583 C96.9734252,172.588583 96.628937,172.662402 96.3090551,172.785433 C95.9891732,172.933071 95.644685,173.154528 95.3001969,173.449803 C94.9311024,173.769685 94.5620079,174.187992 94.1683071,174.704724 C93.7746063,175.221457 93.3562992,175.836614 92.8641732,176.599409 L92.8641732,188.582677 C92.8641732,188.681102 92.8395669,188.779528 92.7903543,188.853346 C92.7411417,188.927165 92.6427165,188.976378 92.519685,189.050197 C92.3966535,189.099409 92.2490157,189.124016 92.0275591,189.148622 C91.8061024,189.197835 91.5354331,189.197835 91.1909449,189.197835 C90.8464567,189.197835 90.6003937,189.197835 90.378937,189.148622 C90.1574803,189.124016 89.9852362,189.099409 89.8622047,189.050197 C89.7145669,188.976378 89.640748,188.927165 89.5915354,188.853346 C89.5423228,188.779528 89.5177165,188.681102 89.5177165,188.582677 L89.5177165,170.349409 C89.5177165,170.250984 89.5423228,170.152559 89.5915354,170.07874 C89.6161417,170.004921 89.6899606,169.931102 89.8129921,169.88189 C89.9360236,169.808071 90.1082677,169.783465 90.2805118,169.758858 C90.4773622,169.734252 90.7234252,169.734252 91.0433071,169.734252 C91.3385827,169.734252 91.5846457,169.734252 91.7814961,169.758858 C91.9783465,169.783465 92.1259843,169.808071 92.2490157,169.88189 C92.3474409,169.931102 92.4212598,170.004921 92.4704724,170.07874 C92.519685,170.152559 92.5442913,170.250984 92.5442913,170.349409 L92.5442913,173.00689 C93.0364173,172.268701 93.5285433,171.67815 93.9468504,171.21063 C94.3897638,170.767717 94.8080709,170.398622 95.2017717,170.127953 C95.5954724,169.88189 95.9645669,169.685039 96.3582677,169.586614 C96.7519685,169.488189 97.121063,169.438976 97.5147638,169.438976 C97.6870079,169.438976 97.9084646,169.438976 98.105315,169.463583 C98.3267717,169.488189 98.5728346,169.512795 98.8188976,169.562008 C99.0649606,169.635827 99.2864173,169.685039 99.4832677,169.758858 C99.6555118,169.832677 99.8031496,169.88189 99.8769685,169.955709 C99.9753937,170.029528 100.024606,170.07874 100.049213,170.152559 C100.073819,170.226378 100.098425,170.300197 100.123031,170.374016 C100.147638,170.472441 100.147638,170.620079 100.172244,170.792323 L100.172244,171.530512 Z M127.288386,187.549213 C127.288386,187.819882 127.288386,188.065945 127.26378,188.238189 C127.239173,188.410433 127.189961,188.582677 127.116142,188.705709 C127.066929,188.82874 126.99311,188.927165 126.894685,188.976378 C126.820866,189.050197 126.722441,189.074803 126.599409,189.074803 L115.009843,189.074803 C114.689961,189.074803 114.394685,188.976378 114.124016,188.754921 C113.853346,188.558071 113.705709,188.188976 113.705709,187.672244 L113.705709,163.410433 C113.705709,163.312008 113.730315,163.213583 113.779528,163.139764 C113.853346,163.041339 113.927165,162.992126 114.074803,162.942913 C114.197835,162.893701 114.394685,162.844488 114.616142,162.819882 C114.837598,162.770669 115.132874,162.770669 115.452756,162.770669 C115.797244,162.770669 116.067913,162.770669 116.28937,162.819882 C116.510827,162.844488 116.683071,162.893701 116.830709,162.942913 C116.95374,162.992126 117.052165,163.041339 117.101378,163.139764 C117.150591,163.213583 117.175197,163.312008 117.175197,163.410433 L117.175197,186.048228 L126.599409,186.048228 C126.722441,186.048228 126.820866,186.072835 126.894685,186.146654 C126.99311,186.195866 127.066929,186.294291 127.116142,186.392717 C127.189961,186.515748 127.239173,186.663386 127.26378,186.860236 C127.288386,187.057087 127.288386,187.278543 127.288386,187.549213 Z M134.104331,188.582677 C134.104331,188.681102 134.079724,188.779528 134.030512,188.853346 C133.981299,188.927165 133.882874,188.976378 133.759843,189.050197 C133.636811,189.099409 133.464567,189.124016 133.24311,189.148622 C133.04626,189.197835 132.750984,189.197835 132.431102,189.197835 C132.086614,189.197835 131.815945,189.197835 131.619094,189.148622 C131.397638,189.124016 131.225394,189.099409 131.102362,189.050197 C130.954724,188.976378 130.880906,188.927165 130.831693,188.853346 C130.78248,188.779528 130.757874,188.681102 130.757874,188.582677 L130.757874,170.349409 C130.757874,170.250984 130.78248,170.177165 130.831693,170.07874 C130.880906,170.004921 130.954724,169.931102 131.102362,169.88189 C131.225394,169.832677 131.397638,169.783465 131.619094,169.758858 C131.815945,169.734252 132.086614,169.734252 132.431102,169.734252 C132.750984,169.734252 133.04626,169.734252 133.24311,169.758858 C133.464567,169.783465 133.636811,169.832677 133.759843,169.88189 C133.882874,169.931102 133.981299,170.004921 134.030512,170.07874 C134.079724,170.177165 134.104331,170.250984 134.104331,170.349409 L134.104331,188.582677 Z M134.473425,164.222441 C134.473425,165.009843 134.325787,165.526575 134.030512,165.82185 C133.735236,166.09252 133.193898,166.240157 132.38189,166.240157 C131.594488,166.240157 131.05315,166.117126 130.78248,165.82185 C130.487205,165.551181 130.339567,165.034449 130.339567,164.247047 C130.339567,163.459646 130.487205,162.942913 130.78248,162.647638 C131.077756,162.376969 131.619094,162.229331 132.431102,162.229331 C133.218504,162.229331 133.759843,162.352362 134.055118,162.647638 C134.325787,162.918307 134.473425,163.435039 134.473425,164.222441 Z M149.704724,187.229331 C149.704724,187.623031 149.680118,187.918307 149.630906,188.16437 C149.581693,188.385827 149.507874,188.558071 149.384843,188.656496 C149.286417,188.754921 149.114173,188.877953 148.892717,188.951772 C148.695866,189.050197 148.449803,189.124016 148.154528,189.197835 C147.883858,189.247047 147.588583,189.29626 147.293307,189.345472 C146.973425,189.394685 146.67815,189.419291 146.358268,189.419291 C145.423228,189.419291 144.61122,189.29626 143.94685,189.025591 C143.257874,188.779528 142.716535,188.410433 142.273622,187.893701 C141.855315,187.401575 141.535433,186.761811 141.338583,185.974409 C141.141732,185.211614 141.043307,184.301181 141.043307,183.24311 L141.043307,172.637795 L138.484252,172.637795 C138.287402,172.637795 138.115157,172.514764 137.992126,172.293307 C137.869094,172.096457 137.819882,171.727362 137.819882,171.235236 C137.819882,170.989173 137.819882,170.767717 137.869094,170.595472 C137.893701,170.423228 137.942913,170.275591 137.992126,170.152559 C138.041339,170.054134 138.139764,169.955709 138.213583,169.906496 C138.312008,169.88189 138.385827,169.857283 138.508858,169.857283 L141.043307,169.857283 L141.043307,165.526575 C141.043307,165.42815 141.067913,165.329724 141.117126,165.255906 C141.166339,165.182087 141.264764,165.108268 141.387795,165.059055 C141.510827,164.985236 141.683071,164.936024 141.904528,164.911417 C142.125984,164.886811 142.396654,164.886811 142.716535,164.886811 C143.061024,164.886811 143.331693,164.886811 143.55315,164.911417 C143.774606,164.936024 143.94685,164.985236 144.069882,165.059055 C144.192913,165.108268 144.266732,165.182087 144.315945,165.255906 C144.389764,165.329724 144.41437,165.42815 144.41437,165.526575 L144.41437,169.857283 L149.040354,169.857283 C149.163386,169.857283 149.237205,169.88189 149.33563,169.906496 C149.409449,169.955709 149.483268,170.054134 149.53248,170.152559 C149.606299,170.275591 149.630906,170.423228 149.680118,170.595472 C149.704724,170.767717 149.704724,170.989173 149.704724,171.235236 C149.704724,171.727362 149.655512,172.096457 149.53248,172.293307 C149.409449,172.514764 149.237205,172.637795 149.040354,172.637795 L144.41437,172.637795 L144.41437,182.750984 C144.41437,184.005906 144.586614,184.965551 144.955709,185.580709 C145.324803,186.220472 145.989173,186.540354 146.948819,186.540354 C147.244094,186.540354 147.514764,186.515748 147.760827,186.466535 C148.00689,186.392717 148.228346,186.343504 148.400591,186.269685 C148.597441,186.195866 148.745079,186.146654 148.892717,186.072835 C149.015748,185.999016 149.13878,185.974409 149.237205,185.974409 C149.311024,185.974409 149.384843,185.999016 149.434055,186.023622 C149.507874,186.072835 149.557087,186.122047 149.581693,186.220472 C149.606299,186.318898 149.630906,186.441929 149.680118,186.614173 C149.704724,186.761811 149.704724,186.983268 149.704724,187.229331 Z M169.192913,178.666339 C169.192913,179.183071 169.069882,179.576772 168.799213,179.798228 C168.528543,180.019685 168.233268,180.11811 167.88878,180.11811 L155.930118,180.11811 C155.930118,181.151575 156.028543,182.062008 156.25,182.849409 C156.44685,183.686024 156.766732,184.375 157.258858,184.965551 C157.726378,185.531496 158.341535,185.974409 159.079724,186.294291 C159.84252,186.589567 160.777559,186.761811 161.860236,186.761811 C162.721457,186.761811 163.508858,186.687992 164.173228,186.540354 C164.862205,186.392717 165.42815,186.245079 165.920276,186.072835 C166.412402,185.900591 166.830709,185.752953 167.150591,185.605315 C167.470472,185.457677 167.691929,185.383858 167.864173,185.383858 C167.962598,185.383858 168.036417,185.408465 168.110236,185.457677 C168.184055,185.50689 168.257874,185.580709 168.28248,185.679134 C168.331693,185.752953 168.356299,185.900591 168.380906,186.048228 C168.405512,186.220472 168.405512,186.441929 168.405512,186.663386 C168.405512,186.83563 168.405512,187.007874 168.380906,187.130906 C168.380906,187.253937 168.356299,187.376969 168.331693,187.475394 C168.307087,187.573819 168.28248,187.672244 168.233268,187.746063 C168.184055,187.819882 168.134843,187.893701 168.061024,187.96752 C167.987205,188.041339 167.765748,188.16437 167.396654,188.336614 C167.027559,188.508858 166.560039,188.656496 165.994094,188.82874 C165.403543,188.976378 164.739173,189.124016 163.976378,189.247047 C163.213583,189.394685 162.401575,189.443898 161.540354,189.443898 C160.03937,189.443898 158.735236,189.247047 157.603346,188.82874 C156.496063,188.410433 155.536417,187.795276 154.773622,186.958661 C154.010827,186.146654 153.420276,185.113189 153.051181,183.858268 C152.65748,182.627953 152.46063,181.176181 152.46063,179.527559 C152.46063,177.977362 152.65748,176.550197 153.051181,175.319882 C153.469488,174.064961 154.060039,173.00689 154.798228,172.145669 C155.561024,171.259843 156.496063,170.595472 157.57874,170.127953 C158.636811,169.660433 159.867126,169.438976 161.195866,169.438976 C162.623031,169.438976 163.82874,169.660433 164.837598,170.127953 C165.846457,170.570866 166.658465,171.21063 167.322835,171.973425 C167.962598,172.760827 168.430118,173.67126 168.75,174.704724 C169.045276,175.762795 169.192913,176.870079 169.192913,178.051181 L169.192913,178.666339 Z M165.846457,177.682087 C165.871063,175.935039 165.501969,174.557087 164.665354,173.548228 C163.853346,172.53937 162.647638,172.047244 161.023622,172.047244 C160.211614,172.047244 159.473425,172.194882 158.858268,172.514764 C158.24311,172.810039 157.726378,173.228346 157.283465,173.745079 C156.865157,174.261811 156.545276,174.852362 156.323819,175.541339 C156.102362,176.230315 155.954724,176.943898 155.930118,177.682087 L165.846457,177.682087 Z" id="Shape"></path>
                        <path d="M13.5088583,208.193898 C13.484252,208.292323 13.4596457,208.366142 13.4104331,208.415354 C13.3366142,208.489173 13.2627953,208.51378 13.1643701,208.562992 C13.0905512,208.587598 12.9675197,208.612205 12.8198819,208.612205 C12.6968504,208.636811 12.5246063,208.636811 12.3277559,208.636811 C12.1309055,208.636811 11.9340551,208.636811 11.8110236,208.612205 C11.6633858,208.612205 11.5403543,208.587598 11.4419291,208.562992 C11.3435039,208.51378 11.2942913,208.489173 11.2450787,208.415354 C11.1958661,208.366142 11.1466535,208.292323 11.1220472,208.193898 L8.41535433,198.425197 L8.39074803,198.425197 L5.88090551,208.193898 C5.88090551,208.292323 5.83169291,208.366142 5.78248031,208.415354 C5.75787402,208.489173 5.68405512,208.51378 5.58562992,208.562992 C5.51181102,208.587598 5.38877953,208.612205 5.26574803,208.612205 C5.11811024,208.636811 4.94586614,208.636811 4.72440945,208.636811 C4.50295276,208.636811 4.33070866,208.636811 4.18307087,208.612205 C4.03543307,208.612205 3.91240157,208.587598 3.81397638,208.562992 C3.74015748,208.51378 3.66633858,208.489173 3.61712598,208.415354 C3.56791339,208.366142 3.51870079,208.292323 3.49409449,208.193898 L0.0738188976,196.235236 C0.0492125984,196.087598 0.0246062992,195.964567 0.0246062992,195.866142 C1.13346832e-14,195.792323 0.0492125984,195.718504 0.0984251969,195.669291 C0.147637795,195.620079 0.246062992,195.595472 0.369094488,195.595472 C0.492125984,195.570866 0.664370079,195.570866 0.885826772,195.570866 L1.37795276,195.570866 C1.50098425,195.595472 1.57480315,195.620079 1.64862205,195.644685 C1.69783465,195.669291 1.74704724,195.693898 1.77165354,195.74311 C1.79625984,195.792323 1.82086614,195.841535 1.82086614,195.915354 L4.74901575,206.766732 L4.74901575,206.766732 L7.50492126,195.939961 C7.52952756,195.866142 7.55413386,195.816929 7.57874016,195.767717 C7.62795276,195.718504 7.67716535,195.669291 7.72637795,195.644685 C7.80019685,195.620079 7.89862205,195.595472 8.02165354,195.595472 C8.14468504,195.570866 8.29232283,195.570866 8.51377953,195.570866 C8.68602362,195.570866 8.83366142,195.570866 8.95669291,195.595472 C9.05511811,195.595472 9.15354331,195.620079 9.20275591,195.644685 C9.2765748,195.669291 9.3257874,195.718504 9.3503937,195.767717 C9.3996063,195.816929 9.4242126,195.866142 9.4488189,195.939961 L12.4015748,206.766732 L12.4261811,206.766732 L15.2805118,195.939961 C15.3051181,195.866142 15.3051181,195.816929 15.3297244,195.767717 C15.3543307,195.718504 15.4035433,195.669291 15.4527559,195.644685 C15.5265748,195.620079 15.625,195.595472 15.7234252,195.595472 C15.8464567,195.570866 15.9940945,195.570866 16.1909449,195.570866 C16.3877953,195.570866 16.5600394,195.570866 16.6830709,195.595472 C16.7814961,195.595472 16.8799213,195.644685 16.9291339,195.693898 C16.9783465,195.74311 17.0029528,195.792323 17.0029528,195.890748 C17.0029528,195.964567 16.9783465,196.087598 16.9537402,196.235236 L13.5088583,208.193898 Z M21.0629921,208.316929 C21.0629921,208.366142 21.0629921,208.415354 21.0383858,208.464567 C21.0137795,208.489173 20.9645669,208.538386 20.890748,208.562992 C20.8169291,208.587598 20.7431102,208.587598 20.6200787,208.612205 C20.5216535,208.636811 20.3740157,208.636811 20.2017717,208.636811 C20.0541339,208.636811 19.9064961,208.636811 19.8080709,208.612205 C19.6850394,208.587598 19.5866142,208.587598 19.5374016,208.562992 C19.4635827,208.538386 19.4143701,208.489173 19.3897638,208.464567 C19.3651575,208.415354 19.3405512,208.366142 19.3405512,208.316929 L19.3405512,195.890748 C19.3405512,195.841535 19.3651575,195.792323 19.3897638,195.74311 C19.4143701,195.693898 19.488189,195.669291 19.5374016,195.644685 C19.6112205,195.620079 19.7096457,195.595472 19.8080709,195.595472 C19.9311024,195.570866 20.0541339,195.570866 20.2017717,195.570866 C20.3740157,195.570866 20.5216535,195.570866 20.6200787,195.595472 C20.7431102,195.595472 20.8169291,195.620079 20.890748,195.644685 C20.9645669,195.669291 21.0137795,195.693898 21.0383858,195.74311 C21.0629921,195.792323 21.0629921,195.841535 21.0629921,195.890748 L21.0629921,208.316929 Z M34.3011811,207.849409 C34.3011811,207.997047 34.2765748,208.095472 34.2273622,208.193898 C34.2027559,208.292323 34.128937,208.366142 34.0551181,208.415354 C33.9812992,208.489173 33.9074803,208.538386 33.8336614,208.562992 C33.7352362,208.587598 33.636811,208.587598 33.5629921,208.587598 L32.9724409,208.587598 C32.8001969,208.587598 32.6525591,208.587598 32.5049213,208.538386 C32.3818898,208.51378 32.2588583,208.439961 32.1358268,208.341535 C32.0127953,208.24311 31.8897638,208.120079 31.7667323,207.947835 C31.6437008,207.800197 31.5206693,207.57874 31.3730315,207.308071 L27.4360236,199.950787 C27.2145669,199.581693 27.0177165,199.163386 26.7962598,198.745079 C26.5994094,198.326772 26.4025591,197.933071 26.2057087,197.53937 L26.1811024,197.53937 C26.2057087,198.00689 26.2057087,198.499016 26.230315,199.015748 L26.230315,200.492126 L26.230315,208.316929 C26.230315,208.366142 26.230315,208.415354 26.1811024,208.464567 C26.1564961,208.489173 26.1072835,208.538386 26.0580709,208.562992 C25.984252,208.587598 25.8858268,208.587598 25.7874016,208.612205 C25.6889764,208.636811 25.5413386,208.636811 25.3690945,208.636811 C25.1968504,208.636811 25.0492126,208.636811 24.9507874,208.612205 C24.8523622,208.587598 24.753937,208.587598 24.7047244,208.562992 C24.6309055,208.538386 24.5816929,208.489173 24.5570866,208.464567 C24.5324803,208.415354 24.507874,208.366142 24.507874,208.316929 L24.507874,196.358268 C24.507874,196.112205 24.5816929,195.915354 24.753937,195.792323 C24.9015748,195.693898 25.0492126,195.620079 25.246063,195.620079 L26.0826772,195.620079 C26.2795276,195.620079 26.4517717,195.644685 26.5748031,195.669291 C26.7224409,195.718504 26.8454724,195.767717 26.9438976,195.841535 C27.0423228,195.915354 27.1653543,196.038386 27.2637795,196.161417 C27.3622047,196.309055 27.4606299,196.481299 27.5590551,196.67815 L30.6102362,202.362205 C30.8070866,202.706693 30.9793307,203.051181 31.1515748,203.371063 C31.3238189,203.715551 31.496063,204.035433 31.6683071,204.355315 C31.8159449,204.675197 31.988189,204.995079 32.1358268,205.290354 C32.2834646,205.610236 32.4557087,205.930118 32.6033465,206.225394 L32.6279528,206.225394 C32.6033465,205.708661 32.6033465,205.167323 32.5787402,204.601378 L32.5787402,202.952756 L32.5787402,195.915354 C32.5787402,195.890748 32.6033465,195.841535 32.6279528,195.792323 C32.6525591,195.767717 32.7017717,195.718504 32.7755906,195.693898 C32.8494094,195.669291 32.9232283,195.644685 33.0216535,195.620079 C33.144685,195.620079 33.2923228,195.595472 33.4645669,195.595472 C33.6122047,195.595472 33.7598425,195.620079 33.8582677,195.620079 C33.9812992,195.644685 34.0551181,195.669291 34.128937,195.693898 C34.2027559,195.718504 34.2273622,195.767717 34.2765748,195.792323 C34.3011811,195.841535 34.3011811,195.890748 34.3011811,195.915354 L34.3011811,207.849409 Z M47.6870079,201.919291 C47.6870079,203.026575 47.5639764,204.010827 47.2687008,204.847441 C46.9734252,205.684055 46.5551181,206.373031 46.0137795,206.938976 C45.4478346,207.480315 44.7834646,207.898622 43.996063,208.169291 C43.1840551,208.439961 42.2244094,208.587598 41.117126,208.587598 L38.3858268,208.587598 C38.238189,208.587598 38.0905512,208.51378 37.9429134,208.415354 C37.7952756,208.316929 37.746063,208.144685 37.746063,207.874016 L37.746063,196.333661 C37.746063,196.062992 37.7952756,195.890748 37.9429134,195.792323 C38.0905512,195.669291 38.238189,195.620079 38.3858268,195.620079 L41.3139764,195.620079 C42.4458661,195.620079 43.3809055,195.767717 44.1437008,196.062992 C44.9311024,196.358268 45.5708661,196.776575 46.1122047,197.317913 C46.628937,197.859252 47.0226378,198.523622 47.2933071,199.286417 C47.5639764,200.073819 47.6870079,200.935039 47.6870079,201.919291 Z M45.890748,201.99311 C45.890748,201.279528 45.8169291,200.639764 45.644685,200.024606 C45.4478346,199.434055 45.1771654,198.892717 44.8080709,198.449803 C44.4389764,198.031496 43.9714567,197.687008 43.4055118,197.440945 C42.8395669,197.194882 42.101378,197.07185 41.2155512,197.07185 L39.4685039,197.07185 L39.4685039,207.135827 L41.2401575,207.135827 C42.0521654,207.135827 42.765748,207.037402 43.3316929,206.840551 C43.8976378,206.619094 44.3651575,206.299213 44.7588583,205.880906 C45.1279528,205.462598 45.4232283,204.92126 45.5954724,204.281496 C45.7923228,203.641732 45.890748,202.854331 45.890748,201.99311 Z M61.1712598,201.943898 C61.1712598,203.001969 61.0482283,203.937008 60.8021654,204.773622 C60.5561024,205.610236 60.1870079,206.323819 59.6948819,206.91437 C59.2027559,207.504921 58.5875984,207.972441 57.8494094,208.292323 C57.1112205,208.612205 56.25,208.759843 55.265748,208.759843 C54.2814961,208.759843 53.4448819,208.612205 52.7312992,208.316929 C52.0177165,208.04626 51.4517717,207.603346 50.984252,207.062008 C50.5167323,206.496063 50.1722441,205.831693 49.9507874,204.995079 C49.7293307,204.183071 49.6062992,203.248031 49.6062992,202.165354 C49.6062992,201.156496 49.7293307,200.221457 49.9753937,199.384843 C50.2214567,198.548228 50.5905512,197.859252 51.0826772,197.268701 C51.5748031,196.67815 52.1899606,196.235236 52.9281496,195.915354 C53.6663386,195.595472 54.5275591,195.447835 55.5364173,195.447835 C56.4714567,195.447835 57.3080709,195.595472 58.0216535,195.866142 C58.7352362,196.161417 59.3257874,196.579724 59.7933071,197.121063 C60.2608268,197.687008 60.605315,198.351378 60.8267717,199.163386 C61.0728346,199.975394 61.1712598,200.910433 61.1712598,201.943898 Z M59.3503937,202.066929 C59.3503937,201.32874 59.3011811,200.66437 59.1535433,200.024606 C59.0305118,199.409449 58.8090551,198.843504 58.5137795,198.400591 C58.2185039,197.933071 57.8001969,197.563976 57.3080709,197.317913 C56.7913386,197.047244 56.1761811,196.924213 55.4133858,196.924213 C54.6751969,196.924213 54.0600394,197.047244 53.5433071,197.34252 C53.0511811,197.613189 52.632874,197.982283 52.3129921,198.449803 C51.9931102,198.917323 51.7716535,199.458661 51.6240157,200.098425 C51.5009843,200.713583 51.4271654,201.353346 51.4271654,202.042323 C51.4271654,202.805118 51.5009843,203.518701 51.6240157,204.158465 C51.7470472,204.798228 51.9685039,205.339567 52.2637795,205.807087 C52.5590551,206.274606 52.9527559,206.619094 53.4694882,206.889764 C53.9616142,207.135827 54.601378,207.258858 55.3641732,207.258858 C56.1023622,207.258858 56.742126,207.135827 57.2588583,206.840551 C57.7509843,206.569882 58.1692913,206.200787 58.4891732,205.708661 C58.8090551,205.241142 59.0305118,204.675197 59.1535433,204.060039 C59.3011811,203.444882 59.3503937,202.780512 59.3503937,202.066929 Z M76.0826772,208.193898 C76.0580709,208.292323 76.0088583,208.366142 75.9596457,208.415354 C75.9104331,208.489173 75.8366142,208.51378 75.738189,208.562992 C75.6397638,208.587598 75.5413386,208.612205 75.3937008,208.612205 C75.2706693,208.636811 75.0984252,208.636811 74.9015748,208.636811 C74.6801181,208.636811 74.507874,208.636811 74.3602362,208.612205 C74.2125984,208.612205 74.1141732,208.587598 74.015748,208.562992 C73.9173228,208.51378 73.8435039,208.489173 73.7942913,208.415354 C73.7450787,208.366142 73.7204724,208.292323 73.6958661,208.193898 L70.9891732,198.425197 L70.9645669,198.425197 L68.4547244,208.193898 C68.4301181,208.292323 68.4055118,208.366142 68.3562992,208.415354 C68.3070866,208.489173 68.257874,208.51378 68.1594488,208.562992 C68.0610236,208.587598 67.9625984,208.612205 67.8149606,208.612205 C67.6919291,208.636811 67.519685,208.636811 67.2982283,208.636811 C67.0767717,208.636811 66.9045276,208.636811 66.7568898,208.612205 C66.609252,208.612205 66.4862205,208.587598 66.3877953,208.562992 C66.2893701,208.51378 66.2155512,208.489173 66.1663386,208.415354 C66.117126,208.366142 66.0925197,208.292323 66.0679134,208.193898 L62.6476378,196.235236 C62.5984252,196.087598 62.5738189,195.964567 62.5738189,195.866142 C62.5738189,195.792323 62.5984252,195.718504 62.6722441,195.669291 C62.7214567,195.620079 62.8198819,195.595472 62.9429134,195.595472 C63.0659449,195.570866 63.238189,195.570866 63.4596457,195.570866 L63.9271654,195.570866 C64.0501969,195.595472 64.148622,195.620079 64.2224409,195.644685 C64.2716535,195.669291 64.3208661,195.693898 64.3454724,195.74311 C64.3700787,195.792323 64.394685,195.841535 64.394685,195.915354 L67.3228346,206.766732 L67.3228346,206.766732 L70.0787402,195.939961 C70.1033465,195.866142 70.1279528,195.816929 70.1525591,195.767717 C70.1771654,195.718504 70.226378,195.669291 70.3001969,195.644685 C70.3740157,195.620079 70.4724409,195.595472 70.5954724,195.595472 C70.7185039,195.570866 70.8661417,195.570866 71.0629921,195.570866 C71.2598425,195.570866 71.4074803,195.570866 71.5059055,195.595472 C71.628937,195.595472 71.7273622,195.620079 71.7765748,195.644685 C71.8503937,195.669291 71.8996063,195.718504 71.9242126,195.767717 C71.9488189,195.816929 71.9734252,195.866142 71.9980315,195.939961 L74.9753937,206.766732 L75,206.766732 L77.8297244,195.939961 C77.8543307,195.866142 77.878937,195.816929 77.9035433,195.767717 C77.9281496,195.718504 77.9527559,195.669291 78.0265748,195.644685 C78.1003937,195.620079 78.1742126,195.595472 78.2972441,195.595472 C78.4202756,195.570866 78.5679134,195.570866 78.7647638,195.570866 C78.9616142,195.570866 79.1338583,195.570866 79.2322835,195.595472 C79.355315,195.595472 79.4291339,195.644685 79.5029528,195.693898 C79.5521654,195.74311 79.5767717,195.792323 79.5767717,195.890748 C79.5767717,195.964567 79.5521654,196.087598 79.5029528,196.235236 L76.0826772,208.193898 Z M95.2017717,206.742126 C95.2017717,206.865157 95.1771654,206.938976 95.1771654,207.037402 C95.1771654,207.11122 95.1771654,207.185039 95.1525591,207.234252 C95.1279528,207.308071 95.1033465,207.357283 95.0787402,207.406496 C95.0541339,207.455709 95.0049213,207.504921 94.9311024,207.57874 C94.8818898,207.627953 94.734252,207.750984 94.5127953,207.874016 C94.3159449,208.021654 94.0452756,208.144685 93.7253937,208.267717 C93.4055118,208.415354 93.0364173,208.51378 92.6427165,208.612205 C92.2244094,208.686024 91.7814961,208.735236 91.2893701,208.735236 C90.4527559,208.735236 89.6899606,208.587598 89.0009843,208.316929 C88.3366142,208.04626 87.746063,207.627953 87.2785433,207.086614 C86.7864173,206.520669 86.4419291,205.856299 86.1712598,205.044291 C85.9251969,204.25689 85.7775591,203.32185 85.7775591,202.26378 C85.7775591,201.205709 85.9251969,200.246063 86.1958661,199.384843 C86.4911417,198.548228 86.8602362,197.834646 87.3769685,197.268701 C87.8690945,196.67815 88.4596457,196.235236 89.1732283,195.915354 C89.8622047,195.620079 90.6496063,195.472441 91.4862205,195.472441 C91.855315,195.472441 92.2244094,195.497047 92.5935039,195.570866 C92.9379921,195.644685 93.257874,195.718504 93.5777559,195.816929 C93.8730315,195.939961 94.1437008,196.062992 94.3651575,196.186024 C94.6112205,196.333661 94.7588583,196.456693 94.8572835,196.530512 C94.9557087,196.628937 95.0049213,196.702756 95.0295276,196.751969 C95.0541339,196.776575 95.0787402,196.850394 95.1033465,196.899606 C95.1033465,196.973425 95.1279528,197.047244 95.1279528,197.121063 C95.1525591,197.219488 95.1525591,197.317913 95.1525591,197.440945 C95.1525591,197.588583 95.1525591,197.687008 95.1279528,197.785433 C95.1279528,197.883858 95.1033465,197.957677 95.0787402,198.031496 C95.0541339,198.080709 95.0049213,198.129921 94.980315,198.154528 C94.9311024,198.20374 94.8818898,198.20374 94.8326772,198.20374 C94.734252,198.20374 94.6112205,198.154528 94.4389764,198.00689 C94.2667323,197.883858 94.0698819,197.73622 93.7992126,197.588583 C93.5285433,197.416339 93.2086614,197.293307 92.8395669,197.145669 C92.4458661,197.022638 92.0029528,196.948819 91.4616142,196.948819 C90.871063,196.948819 90.3543307,197.07185 89.886811,197.293307 C89.4192913,197.53937 89.0009843,197.883858 88.6811024,198.326772 C88.3366142,198.769685 88.0659449,199.311024 87.8937008,199.950787 C87.6968504,200.615157 87.6230315,201.353346 87.6230315,202.165354 C87.6230315,203.001969 87.6968504,203.715551 87.8690945,204.355315 C88.0659449,204.995079 88.3120079,205.511811 88.6318898,205.930118 C88.976378,206.348425 89.394685,206.692913 89.8622047,206.889764 C90.3543307,207.11122 90.8956693,207.234252 91.5108268,207.234252 C92.0275591,207.234252 92.4704724,207.160433 92.8641732,207.037402 C93.257874,206.91437 93.5777559,206.766732 93.8484252,206.619094 C94.1190945,206.44685 94.3405512,206.323819 94.5127953,206.176181 C94.6850394,206.05315 94.8326772,206.003937 94.9311024,206.003937 C94.980315,206.003937 95.0295276,206.003937 95.0541339,206.028543 C95.0787402,206.05315 95.1033465,206.077756 95.1279528,206.126969 C95.1525591,206.200787 95.1771654,206.274606 95.1771654,206.373031 C95.1771654,206.471457 95.2017717,206.594488 95.2017717,206.742126 Z M108.120079,201.943898 C108.120079,203.001969 107.997047,203.937008 107.750984,204.773622 C107.504921,205.610236 107.135827,206.323819 106.643701,206.91437 C106.151575,207.504921 105.536417,207.972441 104.798228,208.292323 C104.060039,208.612205 103.198819,208.759843 102.214567,208.759843 C101.230315,208.759843 100.393701,208.612205 99.6801181,208.316929 C98.9665354,208.04626 98.4005906,207.603346 97.9330709,207.062008 C97.4655512,206.496063 97.121063,205.831693 96.8996063,204.995079 C96.6535433,204.183071 96.5551181,203.248031 96.5551181,202.165354 C96.5551181,201.156496 96.6781496,200.221457 96.9242126,199.384843 C97.1702756,198.548228 97.5393701,197.859252 98.0314961,197.268701 C98.523622,196.67815 99.1387795,196.235236 99.8769685,195.915354 C100.615157,195.595472 101.476378,195.447835 102.485236,195.447835 C103.420276,195.447835 104.25689,195.595472 104.970472,195.866142 C105.684055,196.161417 106.274606,196.579724 106.742126,197.121063 C107.209646,197.687008 107.554134,198.351378 107.775591,199.163386 C108.021654,199.975394 108.120079,200.910433 108.120079,201.943898 Z M106.299213,202.066929 C106.299213,201.32874 106.25,200.66437 106.102362,200.024606 C105.979331,199.409449 105.757874,198.843504 105.462598,198.400591 C105.167323,197.933071 104.749016,197.563976 104.25689,197.317913 C103.740157,197.047244 103.125,196.924213 102.362205,196.924213 C101.624016,196.924213 101.008858,197.047244 100.492126,197.34252 C99.9753937,197.613189 99.5816929,197.982283 99.261811,198.449803 C98.9419291,198.917323 98.7204724,199.458661 98.5728346,200.098425 C98.4498031,200.713583 98.3759843,201.353346 98.3759843,202.042323 C98.3759843,202.805118 98.4498031,203.518701 98.5728346,204.158465 C98.6958661,204.798228 98.8927165,205.339567 99.2125984,205.807087 C99.507874,206.274606 99.9015748,206.619094 100.418307,206.889764 C100.910433,207.135827 101.550197,207.258858 102.288386,207.258858 C103.051181,207.258858 103.690945,207.135827 104.207677,206.840551 C104.699803,206.569882 105.11811,206.200787 105.437992,205.708661 C105.757874,205.241142 105.979331,204.675197 106.102362,204.060039 C106.25,203.444882 106.299213,202.780512 106.299213,202.066929 Z M124.926181,208.316929 C124.926181,208.366142 124.926181,208.415354 124.901575,208.464567 C124.852362,208.489173 124.80315,208.538386 124.753937,208.562992 C124.680118,208.587598 124.581693,208.587598 124.483268,208.612205 C124.384843,208.636811 124.237205,208.636811 124.064961,208.636811 C123.917323,208.636811 123.769685,208.636811 123.646654,208.612205 C123.548228,208.587598 123.449803,208.587598 123.400591,208.562992 C123.326772,208.538386 123.277559,208.489173 123.252953,208.464567 C123.228346,208.415354 123.20374,208.366142 123.20374,208.316929 L123.20374,197.047244 L123.179134,197.047244 L118.626969,208.366142 C118.602362,208.415354 118.577756,208.464567 118.55315,208.489173 C118.503937,208.51378 118.454724,208.538386 118.380906,208.562992 C118.307087,208.587598 118.233268,208.612205 118.134843,208.612205 C118.036417,208.636811 117.913386,208.636811 117.790354,208.636811 C117.642717,208.636811 117.519685,208.636811 117.42126,208.612205 C117.322835,208.612205 117.249016,208.587598 117.175197,208.562992 C117.125984,208.538386 117.052165,208.51378 117.027559,208.489173 C117.002953,208.439961 116.95374,208.415354 116.95374,208.366142 L112.598425,197.047244 L112.573819,197.047244 L112.573819,208.316929 C112.573819,208.366142 112.573819,208.415354 112.524606,208.464567 C112.5,208.489173 112.450787,208.538386 112.401575,208.562992 C112.327756,208.587598 112.229331,208.587598 112.130906,208.612205 C112.007874,208.636811 111.884843,208.636811 111.712598,208.636811 C111.540354,208.636811 111.392717,208.636811 111.294291,208.612205 C111.17126,208.587598 111.097441,208.587598 111.023622,208.562992 C110.949803,208.538386 110.925197,208.489173 110.900591,208.464567 C110.875984,208.415354 110.851378,208.366142 110.851378,208.316929 L110.851378,196.40748 C110.851378,196.136811 110.925197,195.915354 111.072835,195.816929 C111.220472,195.693898 111.392717,195.620079 111.564961,195.620079 L112.623031,195.620079 C112.844488,195.620079 113.041339,195.644685 113.213583,195.693898 C113.36122,195.718504 113.508858,195.792323 113.63189,195.866142 C113.754921,195.964567 113.853346,196.062992 113.927165,196.21063 C114.025591,196.333661 114.074803,196.505906 114.148622,196.67815 L117.864173,206.05315 L117.913386,206.05315 L121.751969,196.702756 C121.825787,196.505906 121.899606,196.333661 121.998031,196.186024 C122.07185,196.062992 122.170276,195.939961 122.293307,195.866142 C122.391732,195.767717 122.514764,195.718504 122.637795,195.693898 C122.760827,195.644685 122.908465,195.620079 123.080709,195.620079 L124.187992,195.620079 C124.286417,195.620079 124.384843,195.644685 124.483268,195.669291 C124.581693,195.693898 124.655512,195.74311 124.704724,195.816929 C124.778543,195.866142 124.827756,195.964567 124.876969,196.062992 C124.901575,196.161417 124.926181,196.259843 124.926181,196.40748 L124.926181,208.316929 Z M136.318898,199.409449 C136.318898,200.073819 136.220472,200.66437 135.999016,201.181102 C135.802165,201.697835 135.482283,202.140748 135.088583,202.509843 C134.694882,202.878937 134.202756,203.149606 133.636811,203.346457 C133.04626,203.567913 132.357283,203.666339 131.569882,203.666339 L130.093504,203.666339 L130.093504,208.316929 C130.093504,208.366142 130.068898,208.415354 130.044291,208.464567 C130.019685,208.489173 129.970472,208.538386 129.92126,208.562992 C129.847441,208.587598 129.749016,208.587598 129.650591,208.612205 C129.527559,208.636811 129.404528,208.636811 129.232283,208.636811 C129.060039,208.636811 128.937008,208.636811 128.813976,208.612205 C128.715551,208.587598 128.617126,208.587598 128.543307,208.562992 C128.494094,208.538386 128.444882,208.489173 128.420276,208.464567 C128.395669,208.415354 128.371063,208.366142 128.371063,208.316929 L128.371063,196.358268 C128.371063,196.112205 128.444882,195.915354 128.59252,195.792323 C128.715551,195.693898 128.887795,195.620079 129.060039,195.620079 L131.815945,195.620079 C132.11122,195.620079 132.38189,195.644685 132.627953,195.669291 C132.874016,195.693898 133.193898,195.74311 133.538386,195.816929 C133.882874,195.890748 134.251969,196.038386 134.621063,196.235236 C134.965551,196.456693 135.285433,196.702756 135.531496,197.022638 C135.777559,197.317913 135.974409,197.687008 136.122047,198.080709 C136.245079,198.499016 136.318898,198.941929 136.318898,199.409449 Z M134.522638,199.557087 C134.522638,199.040354 134.424213,198.597441 134.227362,198.228346 C134.030512,197.883858 133.784449,197.613189 133.489173,197.440945 C133.193898,197.268701 132.898622,197.145669 132.603346,197.121063 C132.283465,197.07185 131.988189,197.047244 131.692913,197.047244 L130.093504,197.047244 L130.093504,202.239173 L131.643701,202.239173 C132.160433,202.239173 132.603346,202.165354 132.947835,202.042323 C133.292323,201.919291 133.562992,201.722441 133.809055,201.476378 C134.030512,201.254921 134.227362,200.959646 134.350394,200.639764 C134.448819,200.295276 134.522638,199.950787 134.522638,199.557087 Z M147.145669,207.972441 C147.194882,208.120079 147.219488,208.24311 147.219488,208.316929 C147.219488,208.415354 147.194882,208.489173 147.145669,208.538386 C147.096457,208.562992 146.998031,208.612205 146.875,208.612205 C146.751969,208.636811 146.604331,208.636811 146.382874,208.636811 C146.186024,208.636811 146.01378,208.636811 145.890748,208.612205 C145.767717,208.612205 145.669291,208.587598 145.620079,208.562992 C145.54626,208.538386 145.497047,208.51378 145.472441,208.489173 C145.447835,208.439961 145.423228,208.390748 145.398622,208.316929 L144.291339,205.167323 L138.902559,205.167323 L137.844488,208.292323 C137.819882,208.341535 137.795276,208.390748 137.746063,208.439961 C137.721457,208.489173 137.672244,208.51378 137.598425,208.562992 C137.549213,208.587598 137.450787,208.612205 137.352362,208.612205 C137.229331,208.636811 137.081693,208.636811 136.884843,208.636811 C136.687992,208.636811 136.540354,208.636811 136.417323,208.612205 C136.294291,208.587598 136.195866,208.562992 136.146654,208.51378 C136.097441,208.464567 136.072835,208.390748 136.072835,208.316929 C136.072835,208.218504 136.122047,208.095472 136.17126,207.947835 L140.501969,195.915354 C140.526575,195.841535 140.575787,195.792323 140.600394,195.74311 C140.649606,195.693898 140.723425,195.669291 140.797244,195.644685 C140.895669,195.620079 140.994094,195.595472 141.117126,195.570866 L141.609252,195.570866 L142.150591,195.570866 C142.298228,195.595472 142.396654,195.620079 142.495079,195.644685 C142.568898,195.669291 142.642717,195.693898 142.691929,195.74311 C142.741142,195.792323 142.765748,195.866142 142.790354,195.939961 L147.145669,207.972441 Z M141.560039,197.34252 L141.560039,197.34252 L139.320866,203.813976 L143.823819,203.813976 L141.560039,197.34252 Z M159.104331,207.849409 C159.104331,207.997047 159.079724,208.095472 159.030512,208.193898 C158.981299,208.292323 158.932087,208.366142 158.858268,208.415354 C158.784449,208.489173 158.71063,208.538386 158.612205,208.562992 C158.51378,208.587598 158.439961,208.587598 158.341535,208.587598 L157.775591,208.587598 C157.603346,208.587598 157.431102,208.587598 157.308071,208.538386 C157.160433,208.51378 157.037402,208.439961 156.91437,208.341535 C156.791339,208.24311 156.668307,208.120079 156.545276,207.947835 C156.44685,207.800197 156.299213,207.57874 156.176181,207.308071 L152.214567,199.950787 C152.017717,199.581693 151.79626,199.163386 151.599409,198.745079 C151.377953,198.326772 151.181102,197.933071 151.008858,197.53937 L150.984252,197.53937 C150.984252,198.00689 151.008858,198.499016 151.008858,199.015748 C151.008858,199.507874 151.033465,200 151.033465,200.492126 L151.033465,208.316929 C151.033465,208.366142 151.008858,208.415354 150.984252,208.464567 C150.959646,208.489173 150.910433,208.538386 150.836614,208.562992 C150.762795,208.587598 150.688976,208.587598 150.565945,208.612205 C150.46752,208.636811 150.319882,208.636811 150.147638,208.636811 C150,208.636811 149.852362,208.636811 149.729331,208.612205 C149.630906,208.587598 149.557087,208.587598 149.483268,208.562992 C149.409449,208.538386 149.384843,208.489173 149.33563,208.464567 C149.311024,208.415354 149.311024,208.366142 149.311024,208.316929 L149.311024,196.358268 C149.311024,196.112205 149.384843,195.915354 149.53248,195.792323 C149.680118,195.693898 149.852362,195.620079 150.024606,195.620079 L150.86122,195.620079 C151.082677,195.620079 151.230315,195.644685 151.377953,195.669291 C151.500984,195.718504 151.624016,195.767717 151.722441,195.841535 C151.845472,195.915354 151.943898,196.038386 152.042323,196.161417 C152.140748,196.309055 152.239173,196.481299 152.362205,196.67815 L155.38878,202.362205 C155.58563,202.706693 155.757874,203.051181 155.930118,203.371063 C156.126969,203.715551 156.274606,204.035433 156.44685,204.355315 C156.619094,204.675197 156.766732,204.995079 156.91437,205.290354 C157.086614,205.610236 157.234252,205.930118 157.406496,206.225394 L157.406496,206.225394 C157.38189,205.708661 157.38189,205.167323 157.38189,204.601378 L157.38189,202.952756 L157.38189,195.915354 C157.38189,195.890748 157.38189,195.841535 157.406496,195.792323 C157.455709,195.767717 157.504921,195.718504 157.554134,195.693898 C157.627953,195.669291 157.726378,195.644685 157.824803,195.620079 C157.923228,195.620079 158.070866,195.595472 158.24311,195.595472 C158.415354,195.595472 158.538386,195.620079 158.661417,195.620079 C158.759843,195.644685 158.858268,195.669291 158.90748,195.693898 C158.981299,195.718504 159.030512,195.767717 159.055118,195.792323 C159.079724,195.841535 159.104331,195.890748 159.104331,195.915354 L159.104331,207.849409 Z M166.658465,203.543307 L166.658465,208.316929 C166.658465,208.366142 166.633858,208.415354 166.609252,208.464567 C166.584646,208.489173 166.535433,208.538386 166.461614,208.562992 C166.412402,208.587598 166.313976,208.587598 166.190945,208.612205 C166.09252,208.636811 165.944882,208.636811 165.797244,208.636811 C165.625,208.636811 165.477362,208.636811 165.378937,208.612205 C165.280512,208.587598 165.182087,208.587598 165.108268,208.562992 C165.034449,208.538386 164.985236,208.489173 164.96063,208.464567 C164.936024,208.415354 164.936024,208.366142 164.936024,208.316929 L164.936024,203.543307 L161.269685,196.235236 C161.195866,196.087598 161.146654,195.964567 161.122047,195.866142 C161.122047,195.792323 161.122047,195.718504 161.17126,195.669291 C161.220472,195.620079 161.318898,195.595472 161.441929,195.595472 C161.589567,195.570866 161.761811,195.570866 161.983268,195.570866 C162.180118,195.570866 162.327756,195.570866 162.450787,195.595472 C162.573819,195.595472 162.672244,195.620079 162.746063,195.644685 C162.819882,195.669291 162.893701,195.693898 162.918307,195.74311 C162.942913,195.792323 162.992126,195.841535 163.016732,195.915354 L164.812992,199.630906 C164.985236,199.975394 165.15748,200.344488 165.305118,200.738189 C165.477362,201.13189 165.649606,201.525591 165.82185,201.919291 L165.846457,201.919291 C165.994094,201.525591 166.141732,201.156496 166.313976,200.787402 C166.48622,200.393701 166.633858,200.024606 166.806102,199.655512 L168.602362,195.915354 C168.626969,195.841535 168.651575,195.792323 168.700787,195.74311 C168.725394,195.693898 168.774606,195.669291 168.848425,195.644685 C168.897638,195.620079 168.996063,195.595472 169.119094,195.595472 C169.21752,195.570866 169.365157,195.570866 169.537402,195.570866 C169.783465,195.570866 169.955709,195.570866 170.103346,195.595472 C170.226378,195.595472 170.324803,195.644685 170.398622,195.693898 C170.447835,195.74311 170.472441,195.792323 170.447835,195.890748 C170.423228,195.964567 170.374016,196.087598 170.300197,196.235236 L166.658465,203.543307 Z" id="Shape"></path>
                    </g>
                    <rect id="Rectangle-path" x="0" y="0" width="250" height="250"></rect>
                </g>
            </g>
        </g>
    </g>
</svg>