<?xml version="1.0" encoding="UTF-8"?>
<svg width="360px" height="270px" viewBox="0 0 360 270" version="1.1" xmlns="http://www.w3.org/2000/svg" xmlns:xlink="http://www.w3.org/1999/xlink" style="background: #FFFFFF;">
    <!-- Generator: Sketch 41.2 (35397) - http://www.bohemiancoding.com/sketch -->
    <title>Team-Page-Logo-Gray</title>
    <desc>Created with Sketch.</desc>
    <defs></defs>
    <g id="Page-1" stroke="none" stroke-width="1" fill="none" fill-rule="evenodd">
        <rect id="Rectangle" fill-opacity="0.309244792" fill="#C4C4C4" x="0" y="0" width="360" height="270"></rect>
        <g id="SofterLight-Logo3" transform="translate(30.000000, 10.000000)">
            <g id="Layer_x0020_1">
                <g id="_2903525882688" transform="translate(47.716535, 20.620079)" fill="#84B4E3">
                    <path d="M145.570866,47.1456693 C145.570866,27.2145669 126.17126,11.0728346 102.283465,11.0728346 C78.3956693,11.0728346 58.996063,27.2145669 58.996063,47.1456693 L58.996063,47.1456693 L58.996063,135.457677 L145.570866,135.457677 L145.570866,47.1456693 L145.570866,47.1456693 Z M94.2519685,40.1574803 C94.2519685,40.1574803 96.3779528,38.9271654 97.8543307,38.5826772 C99.3307087,38.2627953 101.604331,38.1151575 101.604331,38.1151575 L101.722441,48.9665354 L94.2519685,40.1574803 Z M98.7992126,50.7627953 L91.8307087,41.1909449 C91.8307087,41.1909449 87.0767717,44.980315 86.988189,46.0137795 L98.7992126,50.7627953 Z M85.2755906,54.6751969 L95.8169291,54.6751969 L86.0728346,48.351378 C86.0728346,48.351378 85.1279528,51.1564961 85.2755906,54.6751969 Z M111.732283,40.1574803 C111.732283,40.1574803 109.606299,38.9271654 108.129921,38.5826772 C106.653543,38.2627953 104.379921,38.1151575 104.379921,38.1151575 L104.261811,48.9665354 L111.732283,40.1574803 Z M107.185039,50.7627953 L114.153543,41.1909449 C114.153543,41.1909449 118.90748,44.980315 118.996063,46.0137795 L107.185039,50.7627953 Z M120.708661,54.6751969 L110.167323,54.6751969 L119.940945,48.351378 C119.940945,48.351378 120.856299,51.1564961 120.708661,54.6751969 Z M123.188976,23.8681102 C123.188976,23.8681102 118.405512,21.2598425 114.448819,20.0787402 C110.492126,18.8976378 104.911417,18.3316929 104.911417,18.3316929 L104.911417,34.5964567 C104.911417,34.5964567 108.188976,35.113189 109.251969,35.4084646 C110.285433,35.7037402 113.740157,37.2785433 113.740157,37.2785433 L123.188976,23.8681102 Z M135.531496,36.2942913 L122.568898,43.4547244 L116.48622,38.5826772 L126.230315,25.2952756 C130.364173,28.1003937 133.612205,32.3326772 135.531496,36.2942913 Z M137.65748,54.5275591 L137.65748,47.0226378 C137.65748,44.2913386 137.037402,41.4862205 136.240157,40.6496063 L123.75,46.8996063 L123.75,54.5275591 L137.65748,54.5275591 Z M83.0610236,23.8681102 C83.0610236,23.8681102 87.8444882,21.2598425 91.8011811,20.0787402 C95.757874,18.8976378 101.338583,18.3316929 101.338583,18.3316929 L101.338583,34.5964567 C101.338583,34.5964567 98.0314961,35.113189 96.9980315,35.4084646 C95.9645669,35.7037402 92.5098425,37.2785433 92.5098425,37.2785433 L83.0610236,23.8681102 Z M70.7185039,36.2942913 L83.6811024,43.4547244 L89.7637795,38.5826772 L79.9901575,25.2952756 C75.8858268,28.1003937 72.6377953,32.3326772 70.7185039,36.2942913 Z M68.5925197,54.5275591 L68.5925197,47.0226378 C68.5925197,44.2913386 69.2125984,41.4862205 70.0098425,40.6496063 L82.5,46.8996063 L82.5,54.5275591 L68.5925197,54.5275591 Z M68.1200787,62.2047244 L81.2598425,62.2047244 L81.2598425,81.2253937 L68.1200787,81.2253937 L68.1200787,62.2047244 Z M124.694882,62.2047244 L137.805118,62.2047244 L137.805118,81.2253937 L124.694882,81.2253937 L124.694882,62.2047244 Z M105.826772,62.2047244 L118.966535,62.2047244 L118.966535,81.2253937 L105.826772,81.2253937 L105.826772,62.2047244 Z M86.988189,62.2047244 L100.098425,62.2047244 L100.098425,81.2253937 L86.988189,81.2253937 L86.988189,62.2047244 Z M68.1200787,108.292323 L81.2598425,108.292323 L81.2598425,127.312992 L68.1200787,127.312992 L68.1200787,108.292323 Z M124.694882,108.292323 L137.805118,108.292323 L137.805118,127.312992 L124.694882,127.312992 L124.694882,108.292323 Z M105.826772,108.292323 L118.966535,108.292323 L118.966535,127.312992 L105.826772,127.312992 L105.826772,108.292323 Z M86.988189,108.292323 L100.098425,108.292323 L100.098425,127.312992 L86.988189,127.312992 L86.988189,108.292323 Z M68.1200787,85.3838583 L81.2598425,85.3838583 L81.2598425,104.404528 L68.1200787,104.404528 L68.1200787,85.3838583 Z M124.694882,85.3838583 L137.805118,85.3838583 L137.805118,104.404528 L124.694882,104.404528 L124.694882,85.3838583 Z M105.826772,85.3838583 L118.966535,85.3838583 L118.966535,104.404528 L105.826772,104.404528 L105.826772,85.3838583 Z M86.988189,85.3838583 L100.098425,85.3838583 L100.098425,104.404528 L86.988189,104.404528 L86.988189,85.3838583 Z" id="Shape"></path>
                    <path d="M158.031496,46.4566929 C158.031496,20.7923228 133.080709,0 102.283465,0 C71.4862205,0 46.5354331,20.7923228 46.5354331,46.4566929 L46.5354331,46.4566929 L46.5354331,147.293307 L158.031496,147.293307 L158.031496,46.4566929 L158.031496,46.4566929 Z M154.931102,46.9488189 C154.931102,22.7116142 131.36811,3.0757874 102.283465,3.0757874 C73.1988189,3.0757874 49.6358268,22.7116142 49.6358268,46.9488189 L49.6358268,46.9488189 L49.6358268,144.41437 L154.931102,144.41437 L154.931102,46.9488189 L154.931102,46.9488189 Z" id="Shape"></path>
                    <path d="M20.8759843,181.71752 C20.8759843,182.947835 20.6102362,184.030512 20.0787402,185.014764 C19.5177165,185.949803 18.75,186.761811 17.8051181,187.450787 C16.8307087,188.115157 15.7086614,188.607283 14.4094488,188.951772 C13.0807087,189.29626 11.6929134,189.443898 10.1870079,189.443898 C9.12401575,189.443898 8.1496063,189.370079 7.26377953,189.222441 C6.3484252,189.074803 5.5511811,188.902559 4.84251969,188.681102 C4.13385827,188.459646 3.54330709,188.238189 3.07086614,188.016732 C2.5984252,187.770669 2.27362205,187.573819 2.06692913,187.401575 C1.88976378,187.253937 1.74212598,187.057087 1.65354331,186.786417 C1.56496063,186.540354 1.53543307,186.220472 1.53543307,185.802165 C1.53543307,185.50689 1.53543307,185.260827 1.59448819,185.063976 C1.62401575,184.867126 1.65354331,184.719488 1.71259843,184.596457 C1.8011811,184.473425 1.86023622,184.399606 1.97834646,184.350394 C2.06692913,184.301181 2.18503937,184.276575 2.30314961,184.276575 C2.53937008,184.276575 2.86417323,184.399606 3.27755906,184.621063 C3.69094488,184.84252 4.22244094,185.088583 4.87204724,185.359252 C5.52165354,185.629921 6.28937008,185.875984 7.20472441,186.122047 C8.12007874,186.343504 9.18307087,186.466535 10.3641732,186.466535 C11.2795276,186.466535 12.1062992,186.36811 12.8740157,186.17126 C13.6122047,185.974409 14.261811,185.679134 14.8228346,185.310039 C15.3543307,184.940945 15.7677165,184.473425 16.0629921,183.956693 C16.3582677,183.415354 16.5059055,182.800197 16.5059055,182.11122 C16.5059055,181.373031 16.2992126,180.733268 15.8858268,180.216535 C15.5019685,179.675197 14.9704724,179.232283 14.2913386,178.813976 C13.6122047,178.420276 12.8740157,178.051181 12.0177165,177.731299 C11.1614173,177.386811 10.3051181,177.066929 9.41929134,176.722441 C8.53346457,176.377953 7.6476378,175.984252 6.82086614,175.565945 C5.96456693,175.172244 5.22637795,174.680118 4.54724409,174.114173 C3.8976378,173.548228 3.36614173,172.883858 2.95275591,172.096457 C2.53937008,171.358268 2.33267717,170.447835 2.33267717,169.365157 C2.33267717,168.28248 2.56889764,167.298228 3.04133858,166.437008 C3.51377953,165.600394 4.19291339,164.886811 5.01968504,164.29626 C5.87598425,163.705709 6.87992126,163.262795 8.06102362,162.96752 C9.24212598,162.672244 10.511811,162.524606 11.8700787,162.524606 C12.5492126,162.524606 13.257874,162.573819 13.9665354,162.672244 C14.6751969,162.770669 15.3248031,162.893701 15.9448819,163.065945 C16.5649606,163.238189 17.1259843,163.435039 17.5984252,163.63189 C18.1003937,163.853346 18.4251969,164.025591 18.5728346,164.148622 C18.7204724,164.271654 18.8090551,164.370079 18.8681102,164.443898 C18.9271654,164.517717 18.9566929,164.616142 18.9862205,164.739173 C19.015748,164.837598 19.0452756,164.985236 19.0748031,165.15748 L19.0748031,165.772638 C19.0748031,166.018701 19.0748031,166.240157 19.0452756,166.437008 C19.015748,166.609252 18.9862205,166.781496 18.9271654,166.904528 C18.8976378,167.027559 18.8090551,167.125984 18.75,167.199803 C18.6614173,167.249016 18.5433071,167.273622 18.4251969,167.273622 C18.2480315,167.273622 17.9822835,167.175197 17.5984252,167.002953 C17.2145669,166.806102 16.742126,166.584646 16.1811024,166.363189 C15.6496063,166.117126 15,165.895669 14.2322835,165.723425 C13.4940945,165.501969 12.6377953,165.403543 11.6929134,165.403543 C10.8366142,165.403543 10.0688976,165.501969 9.41929134,165.698819 C8.76968504,165.895669 8.23818898,166.166339 7.82480315,166.48622 C7.41141732,166.806102 7.08661417,167.199803 6.87992126,167.642717 C6.67322835,168.08563 6.55511811,168.55315 6.55511811,169.045276 C6.55511811,169.783465 6.76181102,170.398622 7.14566929,170.915354 C7.55905512,171.456693 8.09055118,171.924213 8.76968504,172.317913 C9.4488189,172.73622 10.2165354,173.105315 11.0728346,173.425197 C11.9291339,173.769685 12.8149606,174.114173 13.7007874,174.458661 C14.5866142,174.80315 15.4724409,175.172244 16.3287402,175.590551 C17.1850394,175.984252 17.9527559,176.476378 18.6318898,177.042323 C19.3110236,177.608268 19.8425197,178.272638 20.2559055,179.035433 C20.6692913,179.798228 20.8759843,180.684055 20.8759843,181.71752 Z M46.6535433,179.25689 C46.6535433,180.733268 46.4173228,182.11122 45.9448819,183.341535 C45.5019685,184.596457 44.7933071,185.679134 43.8484252,186.589567 C42.9330709,187.475394 41.7519685,188.188976 40.3641732,188.681102 C38.976378,189.197835 37.3523622,189.443898 35.492126,189.443898 C33.7204724,189.443898 32.1259843,189.222441 30.7972441,188.779528 C29.4685039,188.336614 28.3464567,187.69685 27.4606299,186.83563 C26.5748031,185.999016 25.9251969,184.965551 25.4822835,183.735236 C25.0393701,182.529528 24.8326772,181.151575 24.8326772,179.625984 C24.8326772,178.125 25.0688976,176.771654 25.511811,175.516732 C25.984252,174.261811 26.6929134,173.20374 27.6082677,172.293307 C28.523622,171.382874 29.7047244,170.693898 31.0925197,170.177165 C32.480315,169.685039 34.1043307,169.438976 35.9645669,169.438976 C37.765748,169.438976 39.3307087,169.660433 40.6594488,170.103346 C41.988189,170.54626 43.1102362,171.186024 43.996063,172.047244 C44.8818898,172.883858 45.5610236,173.917323 46.003937,175.147638 C46.4468504,176.353346 46.6535433,177.731299 46.6535433,179.25689 Z M42.4901575,179.45374 C42.4901575,178.469488 42.3720472,177.534449 42.1653543,176.673228 C41.9291339,175.787402 41.5748031,175.024606 41.0728346,174.360236 C40.5708661,173.695866 39.8917323,173.179134 39.0059055,172.785433 C38.1791339,172.416339 37.0866142,172.219488 35.8169291,172.219488 C34.6062992,172.219488 33.6023622,172.391732 32.746063,172.73622 C31.8897638,173.080709 31.1811024,173.597441 30.6496063,174.237205 C30.0885827,174.876969 29.6751969,175.639764 29.4094488,176.500984 C29.1437008,177.386811 28.996063,178.346457 28.996063,179.379921 C28.996063,180.38878 29.1141732,181.323819 29.3503937,182.209646 C29.5570866,183.070866 29.9114173,183.833661 30.4429134,184.498031 C30.9448819,185.137795 31.6240157,185.679134 32.480315,186.048228 C33.3366142,186.441929 34.4291339,186.63878 35.6988189,186.63878 C36.8799213,186.63878 37.8838583,186.466535 38.7401575,186.097441 C39.6259843,185.752953 40.3346457,185.260827 40.8661417,184.621063 C41.4271654,184.005906 41.8405512,183.24311 42.1062992,182.357283 C42.3425197,181.471457 42.4901575,180.511811 42.4901575,179.45374 Z M57.6673228,172.637795 L57.6673228,188.582677 C57.6673228,188.681102 57.6377953,188.779528 57.5787402,188.853346 C57.4901575,188.927165 57.4015748,188.976378 57.253937,189.050197 C57.0767717,189.099409 56.8700787,189.124016 56.6338583,189.148622 C56.3681102,189.197835 56.0433071,189.197835 55.6594488,189.197835 C55.2755906,189.197835 54.9507874,189.197835 54.6850394,189.148622 C54.4192913,189.124016 54.2125984,189.099409 54.0649606,189.050197 C53.9173228,188.976378 53.7992126,188.927165 53.7401575,188.853346 C53.6811024,188.779528 53.6515748,188.681102 53.6515748,188.582677 L53.6515748,172.637795 L50.5511811,172.637795 C50.2854331,172.637795 50.0787402,172.514764 49.9606299,172.293307 C49.8129921,172.096457 49.753937,171.727362 49.753937,171.235236 C49.753937,170.989173 49.7834646,170.767717 49.8129921,170.595472 C49.8425197,170.423228 49.9015748,170.275591 49.9606299,170.152559 C50.019685,170.054134 50.1082677,169.955709 50.1968504,169.906496 C50.2854331,169.88189 50.4035433,169.857283 50.5511811,169.857283 L53.6515748,169.857283 L53.6515748,167.962598 C53.6515748,166.683071 53.769685,165.600394 54.0649606,164.689961 C54.3602362,163.779528 54.773622,163.016732 55.3641732,162.426181 C55.9251969,161.860236 56.6633858,161.417323 57.5492126,161.146654 C58.4350394,160.875984 59.4685039,160.728346 60.6791339,160.728346 C61.269685,160.728346 61.8307087,160.777559 62.4212598,160.875984 C62.9822835,160.999016 63.3956693,161.072835 63.6318898,161.17126 C63.8681102,161.245079 64.0452756,161.343504 64.1338583,161.417323 C64.2519685,161.491142 64.3110236,161.614173 64.3700787,161.737205 C64.4291339,161.860236 64.4586614,162.007874 64.488189,162.204724 C64.5177165,162.376969 64.5177165,162.598425 64.5177165,162.869094 C64.5177165,163.115157 64.5177165,163.312008 64.488189,163.484252 C64.4586614,163.63189 64.4291339,163.754921 64.3700787,163.853346 C64.3405512,163.951772 64.2814961,164.000984 64.2224409,164.050197 C64.1633858,164.074803 64.0748031,164.099409 63.9862205,164.099409 C63.8681102,164.099409 63.7204724,164.074803 63.5728346,164.000984 C63.3956693,163.951772 63.1889764,163.877953 62.9527559,163.804134 C62.7165354,163.730315 62.4212598,163.656496 62.0964567,163.607283 C61.742126,163.533465 61.3582677,163.508858 60.9153543,163.508858 C60.3248031,163.508858 59.8228346,163.582677 59.4094488,163.754921 C58.996063,163.927165 58.6417323,164.173228 58.4055118,164.517717 C58.1397638,164.862205 57.9625984,165.305118 57.8149606,165.846457 C57.6968504,166.412402 57.6377953,167.076772 57.6377953,167.864173 L57.6377953,169.857283 L67.5,169.857283 L67.5,165.477362 C67.5,165.403543 67.5590551,165.305118 67.6181102,165.231299 C67.6771654,165.132874 67.765748,165.059055 67.9429134,165.009843 C68.0905512,164.936024 68.2677165,164.911417 68.5334646,164.886811 C68.7992126,164.837598 69.1240157,164.837598 69.5374016,164.837598 C69.9212598,164.837598 70.246063,164.837598 70.511811,164.886811 C70.7775591,164.911417 70.984252,164.936024 71.1318898,165.009843 C71.2795276,165.059055 71.3681102,165.132874 71.4566929,165.231299 C71.515748,165.305118 71.5452756,165.403543 71.5452756,165.477362 L71.5452756,169.857283 L77.0964567,169.857283 C77.2145669,169.857283 77.3326772,169.88189 77.4212598,169.906496 C77.5393701,169.955709 77.6279528,170.054134 77.6870079,170.152559 C77.746063,170.275591 77.8051181,170.423228 77.8641732,170.595472 C77.8937008,170.767717 77.8937008,170.989173 77.8937008,171.235236 C77.8937008,171.727362 77.8346457,172.096457 77.6870079,172.293307 C77.5393701,172.514764 77.3622047,172.637795 77.1259843,172.637795 L71.5452756,172.637795 L71.5452756,182.750984 C71.5452756,184.005906 71.7519685,184.965551 72.1948819,185.580709 C72.6377953,186.220472 73.4350394,186.540354 74.5866142,186.540354 C74.9409449,186.540354 75.265748,186.515748 75.5610236,186.466535 C75.8562992,186.392717 76.1220472,186.343504 76.3287402,186.269685 C76.5649606,186.195866 76.7716535,186.146654 76.9192913,186.072835 C77.0964567,185.999016 77.2440945,185.974409 77.3622047,185.974409 C77.4507874,185.974409 77.5393701,185.999016 77.5984252,186.023622 C77.6574803,186.072835 77.7165354,186.122047 77.746063,186.220472 C77.8051181,186.318898 77.8346457,186.441929 77.8641732,186.614173 C77.8937008,186.761811 77.8937008,186.983268 77.8937008,187.229331 C77.8937008,187.623031 77.8641732,187.918307 77.8051181,188.16437 C77.7165354,188.385827 77.6279528,188.558071 77.480315,188.656496 C77.3622047,188.754921 77.1850394,188.877953 76.9488189,188.951772 C76.6830709,189.050197 76.4173228,189.124016 76.0629921,189.197835 C75.738189,189.247047 75.3838583,189.29626 75.0295276,189.345472 C74.6456693,189.394685 74.261811,189.419291 73.9074803,189.419291 C72.7559055,189.419291 71.7814961,189.29626 70.984252,189.025591 C70.1870079,188.779528 69.507874,188.410433 68.976378,187.893701 C68.4744094,187.401575 68.0905512,186.761811 67.8543307,185.974409 C67.6181102,185.211614 67.5,184.301181 67.5,183.24311 L67.5,172.637795 L57.6673228,172.637795 Z M101.279528,178.666339 C101.279528,179.183071 101.13189,179.576772 100.807087,179.798228 C100.482283,180.019685 100.127953,180.11811 99.7145669,180.11811 L85.3641732,180.11811 C85.3641732,181.151575 85.4822835,182.062008 85.7185039,182.849409 C85.984252,183.686024 86.3681102,184.375 86.9586614,184.965551 C87.519685,185.531496 88.257874,185.974409 89.1437008,186.294291 C90.0590551,186.589567 91.1811024,186.761811 92.480315,186.761811 C93.5137795,186.761811 94.4586614,186.687992 95.2559055,186.540354 C96.0531496,186.392717 96.761811,186.245079 97.3523622,186.072835 C97.9429134,185.900591 98.4448819,185.752953 98.8287402,185.605315 C99.2125984,185.457677 99.4783465,185.383858 99.6850394,185.383858 C99.8031496,185.383858 99.8917323,185.408465 99.980315,185.457677 C100.068898,185.50689 100.15748,185.580709 100.187008,185.679134 C100.246063,185.752953 100.275591,185.900591 100.305118,186.048228 C100.334646,186.220472 100.334646,186.441929 100.334646,186.663386 C100.334646,186.83563 100.334646,187.007874 100.305118,187.130906 C100.305118,187.253937 100.275591,187.376969 100.246063,187.475394 C100.216535,187.573819 100.187008,187.672244 100.127953,187.746063 C100.068898,187.819882 100.009843,187.893701 99.9212598,187.96752 C99.8326772,188.041339 99.5669291,188.16437 99.1240157,188.336614 C98.6811024,188.508858 98.1200787,188.656496 97.4409449,188.82874 C96.7322835,188.976378 95.9350394,189.124016 95.019685,189.247047 C94.1043307,189.394685 93.1299213,189.443898 92.0964567,189.443898 C90.2952756,189.443898 88.730315,189.247047 87.3720472,188.82874 C86.0433071,188.410433 84.8917323,187.795276 83.976378,186.958661 C83.0610236,186.146654 82.3523622,185.113189 81.8799213,183.858268 C81.4074803,182.627953 81.2007874,181.176181 81.2007874,179.527559 C81.2007874,177.977362 81.4370079,176.550197 81.9094488,175.319882 C82.4114173,174.064961 83.0905512,173.00689 84.0059055,172.145669 C84.9212598,171.259843 86.0433071,170.595472 87.3425197,170.127953 C88.6122047,169.660433 90.0885827,169.438976 91.6830709,169.438976 C93.3956693,169.438976 94.8425197,169.660433 96.0531496,170.127953 C97.2637795,170.570866 98.238189,171.21063 99.0354331,171.973425 C99.8031496,172.760827 100.364173,173.67126 100.748031,174.704724 C101.102362,175.762795 101.279528,176.870079 101.279528,178.051181 L101.279528,178.666339 Z M97.2637795,177.682087 C97.2933071,175.935039 96.8503937,174.557087 95.8464567,173.548228 C94.8720472,172.53937 93.4251969,172.047244 91.476378,172.047244 C90.5019685,172.047244 89.6161417,172.194882 88.8779528,172.514764 C88.1397638,172.810039 87.519685,173.228346 86.988189,173.745079 C86.4862205,174.261811 86.1023622,174.852362 85.8366142,175.541339 C85.5708661,176.230315 85.3937008,176.943898 85.3641732,177.682087 L97.2637795,177.682087 Z M120.206693,171.530512 C120.206693,171.825787 120.206693,172.07185 120.177165,172.268701 C120.147638,172.490157 120.11811,172.637795 120.088583,172.760827 C120.029528,172.883858 119.970472,172.957677 119.88189,173.031496 C119.822835,173.080709 119.734252,173.105315 119.586614,173.105315 C119.468504,173.105315 119.320866,173.080709 119.114173,173.031496 C118.937008,172.957677 118.730315,172.883858 118.494094,172.834646 C118.257874,172.785433 117.992126,172.711614 117.69685,172.662402 C117.431102,172.613189 117.106299,172.588583 116.751969,172.588583 C116.36811,172.588583 115.954724,172.662402 115.570866,172.785433 C115.187008,172.933071 114.773622,173.154528 114.360236,173.449803 C113.917323,173.769685 113.474409,174.187992 113.001969,174.704724 C112.529528,175.221457 112.027559,175.836614 111.437008,176.599409 L111.437008,188.582677 C111.437008,188.681102 111.40748,188.779528 111.348425,188.853346 C111.28937,188.927165 111.17126,188.976378 111.023622,189.050197 C110.875984,189.099409 110.698819,189.124016 110.433071,189.148622 C110.167323,189.197835 109.84252,189.197835 109.429134,189.197835 C109.015748,189.197835 108.720472,189.197835 108.454724,189.148622 C108.188976,189.124016 107.982283,189.099409 107.834646,189.050197 C107.65748,188.976378 107.568898,188.927165 107.509843,188.853346 C107.450787,188.779528 107.42126,188.681102 107.42126,188.582677 L107.42126,170.349409 C107.42126,170.250984 107.450787,170.152559 107.509843,170.07874 C107.53937,170.004921 107.627953,169.931102 107.775591,169.88189 C107.923228,169.808071 108.129921,169.783465 108.336614,169.758858 C108.572835,169.734252 108.86811,169.734252 109.251969,169.734252 C109.606299,169.734252 109.901575,169.734252 110.137795,169.758858 C110.374016,169.783465 110.551181,169.808071 110.698819,169.88189 C110.816929,169.931102 110.905512,170.004921 110.964567,170.07874 C111.023622,170.152559 111.05315,170.250984 111.05315,170.349409 L111.05315,173.00689 C111.643701,172.268701 112.234252,171.67815 112.73622,171.21063 C113.267717,170.767717 113.769685,170.398622 114.242126,170.127953 C114.714567,169.88189 115.15748,169.685039 115.629921,169.586614 C116.102362,169.488189 116.545276,169.438976 117.017717,169.438976 C117.224409,169.438976 117.490157,169.438976 117.726378,169.463583 C117.992126,169.488189 118.287402,169.512795 118.582677,169.562008 C118.877953,169.635827 119.143701,169.685039 119.379921,169.758858 C119.586614,169.832677 119.76378,169.88189 119.852362,169.955709 C119.970472,170.029528 120.029528,170.07874 120.059055,170.152559 C120.088583,170.226378 120.11811,170.300197 120.147638,170.374016 C120.177165,170.472441 120.177165,170.620079 120.206693,170.792323 L120.206693,171.530512 Z M152.746063,187.549213 C152.746063,187.819882 152.746063,188.065945 152.716535,188.238189 C152.687008,188.410433 152.627953,188.582677 152.53937,188.705709 C152.480315,188.82874 152.391732,188.927165 152.273622,188.976378 C152.185039,189.050197 152.066929,189.074803 151.919291,189.074803 L138.011811,189.074803 C137.627953,189.074803 137.273622,188.976378 136.948819,188.754921 C136.624016,188.558071 136.44685,188.188976 136.44685,187.672244 L136.44685,163.410433 C136.44685,163.312008 136.476378,163.213583 136.535433,163.139764 C136.624016,163.041339 136.712598,162.992126 136.889764,162.942913 C137.037402,162.893701 137.273622,162.844488 137.53937,162.819882 C137.805118,162.770669 138.159449,162.770669 138.543307,162.770669 C138.956693,162.770669 139.281496,162.770669 139.547244,162.819882 C139.812992,162.844488 140.019685,162.893701 140.19685,162.942913 C140.344488,162.992126 140.462598,163.041339 140.521654,163.139764 C140.580709,163.213583 140.610236,163.312008 140.610236,163.410433 L140.610236,186.048228 L151.919291,186.048228 C152.066929,186.048228 152.185039,186.072835 152.273622,186.146654 C152.391732,186.195866 152.480315,186.294291 152.53937,186.392717 C152.627953,186.515748 152.687008,186.663386 152.716535,186.860236 C152.746063,187.057087 152.746063,187.278543 152.746063,187.549213 Z M160.925197,188.582677 C160.925197,188.681102 160.895669,188.779528 160.836614,188.853346 C160.777559,188.927165 160.659449,188.976378 160.511811,189.050197 C160.364173,189.099409 160.15748,189.124016 159.891732,189.148622 C159.655512,189.197835 159.301181,189.197835 158.917323,189.197835 C158.503937,189.197835 158.179134,189.197835 157.942913,189.148622 C157.677165,189.124016 157.470472,189.099409 157.322835,189.050197 C157.145669,188.976378 157.057087,188.927165 156.998031,188.853346 C156.938976,188.779528 156.909449,188.681102 156.909449,188.582677 L156.909449,170.349409 C156.909449,170.250984 156.938976,170.177165 156.998031,170.07874 C157.057087,170.004921 157.145669,169.931102 157.322835,169.88189 C157.470472,169.832677 157.677165,169.783465 157.942913,169.758858 C158.179134,169.734252 158.503937,169.734252 158.917323,169.734252 C159.301181,169.734252 159.655512,169.734252 159.891732,169.758858 C160.15748,169.783465 160.364173,169.832677 160.511811,169.88189 C160.659449,169.931102 160.777559,170.004921 160.836614,170.07874 C160.895669,170.177165 160.925197,170.250984 160.925197,170.349409 L160.925197,188.582677 Z M161.36811,164.222441 C161.36811,165.009843 161.190945,165.526575 160.836614,165.82185 C160.482283,166.09252 159.832677,166.240157 158.858268,166.240157 C157.913386,166.240157 157.26378,166.117126 156.938976,165.82185 C156.584646,165.551181 156.40748,165.034449 156.40748,164.247047 C156.40748,163.459646 156.584646,162.942913 156.938976,162.647638 C157.293307,162.376969 157.942913,162.229331 158.917323,162.229331 C159.862205,162.229331 160.511811,162.352362 160.866142,162.647638 C161.190945,162.918307 161.36811,163.435039 161.36811,164.222441 Z M179.645669,187.229331 C179.645669,187.623031 179.616142,187.918307 179.557087,188.16437 C179.498031,188.385827 179.409449,188.558071 179.261811,188.656496 C179.143701,188.754921 178.937008,188.877953 178.67126,188.951772 C178.435039,189.050197 178.139764,189.124016 177.785433,189.197835 C177.46063,189.247047 177.106299,189.29626 176.751969,189.345472 C176.36811,189.394685 176.01378,189.419291 175.629921,189.419291 C174.507874,189.419291 173.533465,189.29626 172.73622,189.025591 C171.909449,188.779528 171.259843,188.410433 170.728346,187.893701 C170.226378,187.401575 169.84252,186.761811 169.606299,185.974409 C169.370079,185.211614 169.251969,184.301181 169.251969,183.24311 L169.251969,172.637795 L166.181102,172.637795 C165.944882,172.637795 165.738189,172.514764 165.590551,172.293307 C165.442913,172.096457 165.383858,171.727362 165.383858,171.235236 C165.383858,170.989173 165.383858,170.767717 165.442913,170.595472 C165.472441,170.423228 165.531496,170.275591 165.590551,170.152559 C165.649606,170.054134 165.767717,169.955709 165.856299,169.906496 C165.974409,169.88189 166.062992,169.857283 166.21063,169.857283 L169.251969,169.857283 L169.251969,165.526575 C169.251969,165.42815 169.281496,165.329724 169.340551,165.255906 C169.399606,165.182087 169.517717,165.108268 169.665354,165.059055 C169.812992,164.985236 170.019685,164.936024 170.285433,164.911417 C170.551181,164.886811 170.875984,164.886811 171.259843,164.886811 C171.673228,164.886811 171.998031,164.886811 172.26378,164.911417 C172.529528,164.936024 172.73622,164.985236 172.883858,165.059055 C173.031496,165.108268 173.120079,165.182087 173.179134,165.255906 C173.267717,165.329724 173.297244,165.42815 173.297244,165.526575 L173.297244,169.857283 L178.848425,169.857283 C178.996063,169.857283 179.084646,169.88189 179.202756,169.906496 C179.291339,169.955709 179.379921,170.054134 179.438976,170.152559 C179.527559,170.275591 179.557087,170.423228 179.616142,170.595472 C179.645669,170.767717 179.645669,170.989173 179.645669,171.235236 C179.645669,171.727362 179.586614,172.096457 179.438976,172.293307 C179.291339,172.514764 179.084646,172.637795 178.848425,172.637795 L173.297244,172.637795 L173.297244,182.750984 C173.297244,184.005906 173.503937,184.965551 173.94685,185.580709 C174.389764,186.220472 175.187008,186.540354 176.338583,186.540354 C176.692913,186.540354 177.017717,186.515748 177.312992,186.466535 C177.608268,186.392717 177.874016,186.343504 178.080709,186.269685 C178.316929,186.195866 178.494094,186.146654 178.67126,186.072835 C178.818898,185.999016 178.966535,185.974409 179.084646,185.974409 C179.173228,185.974409 179.261811,185.999016 179.320866,186.023622 C179.409449,186.072835 179.468504,186.122047 179.498031,186.220472 C179.527559,186.318898 179.557087,186.441929 179.616142,186.614173 C179.645669,186.761811 179.645669,186.983268 179.645669,187.229331 Z M203.031496,178.666339 C203.031496,179.183071 202.883858,179.576772 202.559055,179.798228 C202.234252,180.019685 201.879921,180.11811 201.466535,180.11811 L187.116142,180.11811 C187.116142,181.151575 187.234252,182.062008 187.5,182.849409 C187.73622,183.686024 188.120079,184.375 188.71063,184.965551 C189.271654,185.531496 190.009843,185.974409 190.895669,186.294291 C191.811024,186.589567 192.933071,186.761811 194.232283,186.761811 C195.265748,186.761811 196.21063,186.687992 197.007874,186.540354 C197.834646,186.392717 198.51378,186.245079 199.104331,186.072835 C199.694882,185.900591 200.19685,185.752953 200.580709,185.605315 C200.964567,185.457677 201.230315,185.383858 201.437008,185.383858 C201.555118,185.383858 201.643701,185.408465 201.732283,185.457677 C201.820866,185.50689 201.909449,185.580709 201.938976,185.679134 C201.998031,185.752953 202.027559,185.900591 202.057087,186.048228 C202.086614,186.220472 202.086614,186.441929 202.086614,186.663386 C202.086614,186.83563 202.086614,187.007874 202.057087,187.130906 C202.057087,187.253937 202.027559,187.376969 201.998031,187.475394 C201.968504,187.573819 201.938976,187.672244 201.879921,187.746063 C201.820866,187.819882 201.761811,187.893701 201.673228,187.96752 C201.584646,188.041339 201.318898,188.16437 200.875984,188.336614 C200.433071,188.508858 199.872047,188.656496 199.192913,188.82874 C198.484252,188.976378 197.687008,189.124016 196.771654,189.247047 C195.856299,189.394685 194.88189,189.443898 193.848425,189.443898 C192.047244,189.443898 190.482283,189.247047 189.124016,188.82874 C187.795276,188.410433 186.643701,187.795276 185.728346,186.958661 C184.812992,186.146654 184.104331,185.113189 183.661417,183.858268 C183.188976,182.627953 182.952756,181.176181 182.952756,179.527559 C182.952756,177.977362 183.188976,176.550197 183.661417,175.319882 C184.163386,174.064961 184.872047,173.00689 185.757874,172.145669 C186.673228,171.259843 187.795276,170.595472 189.094488,170.127953 C190.364173,169.660433 191.840551,169.438976 193.435039,169.438976 C195.147638,169.438976 196.594488,169.660433 197.805118,170.127953 C199.015748,170.570866 199.990157,171.21063 200.787402,171.973425 C201.555118,172.760827 202.116142,173.67126 202.5,174.704724 C202.854331,175.762795 203.031496,176.870079 203.031496,178.051181 L203.031496,178.666339 Z M199.015748,177.682087 C199.045276,175.935039 198.602362,174.557087 197.598425,173.548228 C196.624016,172.53937 195.177165,172.047244 193.228346,172.047244 C192.253937,172.047244 191.36811,172.194882 190.629921,172.514764 C189.891732,172.810039 189.271654,173.228346 188.740157,173.745079 C188.238189,174.261811 187.854331,174.852362 187.588583,175.541339 C187.322835,176.230315 187.145669,176.943898 187.116142,177.682087 L199.015748,177.682087 Z" id="Shape"></path>
                    <path d="M16.2106299,208.193898 C16.1811024,208.292323 16.1515748,208.366142 16.0925197,208.415354 C16.003937,208.489173 15.9153543,208.51378 15.7972441,208.562992 C15.7086614,208.587598 15.5610236,208.612205 15.3838583,208.612205 C15.2362205,208.636811 15.0295276,208.636811 14.7933071,208.636811 C14.5570866,208.636811 14.3208661,208.636811 14.1732283,208.612205 C13.996063,208.612205 13.8484252,208.587598 13.730315,208.562992 C13.6122047,208.51378 13.5531496,208.489173 13.4940945,208.415354 C13.4350394,208.366142 13.3759843,208.292323 13.3464567,208.193898 L10.0984252,198.425197 L10.0688976,198.425197 L7.05708661,208.193898 C7.05708661,208.292323 6.9980315,208.366142 6.93897638,208.415354 C6.90944882,208.489173 6.82086614,208.51378 6.70275591,208.562992 C6.61417323,208.587598 6.46653543,208.612205 6.31889764,208.612205 C6.14173228,208.636811 5.93503937,208.636811 5.66929134,208.636811 C5.40354331,208.636811 5.19685039,208.636811 5.01968504,208.612205 C4.84251969,208.612205 4.69488189,208.587598 4.57677165,208.562992 C4.48818898,208.51378 4.3996063,208.489173 4.34055118,208.415354 C4.28149606,208.366142 4.22244094,208.292323 4.19291339,208.193898 L0.0885826772,196.235236 C0.0590551181,196.087598 0.0295275591,195.964567 0.0295275591,195.866142 C6.2105876e-13,195.792323 0.0590551181,195.718504 0.118110236,195.669291 C0.177165354,195.620079 0.295275591,195.595472 0.442913386,195.595472 C0.590551181,195.570866 0.797244094,195.570866 1.06299213,195.570866 L1.65354331,195.570866 C1.8011811,195.595472 1.88976378,195.620079 1.97834646,195.644685 C2.03740157,195.669291 2.09645669,195.693898 2.12598425,195.74311 C2.15551181,195.792323 2.18503937,195.841535 2.18503937,195.915354 L5.6988189,206.766732 L5.6988189,206.766732 L9.00590551,195.939961 C9.03543307,195.866142 9.06496063,195.816929 9.09448819,195.767717 C9.15354331,195.718504 9.21259843,195.669291 9.27165354,195.644685 C9.36023622,195.620079 9.47834646,195.595472 9.62598425,195.595472 C9.77362205,195.570866 9.9507874,195.570866 10.2165354,195.570866 C10.4232283,195.570866 10.6003937,195.570866 10.7480315,195.595472 C10.8661417,195.595472 10.984252,195.620079 11.0433071,195.644685 C11.1318898,195.669291 11.1909449,195.718504 11.2204724,195.767717 C11.2795276,195.816929 11.3090551,195.866142 11.3385827,195.939961 L14.8818898,206.766732 L14.9114173,206.766732 L18.3366142,195.939961 C18.3661417,195.866142 18.3661417,195.816929 18.3956693,195.767717 C18.4251969,195.718504 18.484252,195.669291 18.5433071,195.644685 C18.6318898,195.620079 18.75,195.595472 18.8681102,195.595472 C19.015748,195.570866 19.1929134,195.570866 19.4291339,195.570866 C19.6653543,195.570866 19.8720472,195.570866 20.019685,195.595472 C20.1377953,195.595472 20.2559055,195.644685 20.3149606,195.693898 C20.3740157,195.74311 20.4035433,195.792323 20.4035433,195.890748 C20.4035433,195.964567 20.3740157,196.087598 20.3444882,196.235236 L16.2106299,208.193898 Z M25.2755906,208.316929 C25.2755906,208.366142 25.2755906,208.415354 25.246063,208.464567 C25.2165354,208.489173 25.1574803,208.538386 25.0688976,208.562992 C24.980315,208.587598 24.8917323,208.587598 24.7440945,208.612205 C24.6259843,208.636811 24.4488189,208.636811 24.242126,208.636811 C24.0649606,208.636811 23.8877953,208.636811 23.769685,208.612205 C23.6220472,208.587598 23.503937,208.587598 23.4448819,208.562992 C23.3562992,208.538386 23.2972441,208.489173 23.2677165,208.464567 C23.238189,208.415354 23.2086614,208.366142 23.2086614,208.316929 L23.2086614,195.890748 C23.2086614,195.841535 23.238189,195.792323 23.2677165,195.74311 C23.2972441,195.693898 23.3858268,195.669291 23.4448819,195.644685 C23.5334646,195.620079 23.6515748,195.595472 23.769685,195.595472 C23.9173228,195.570866 24.0649606,195.570866 24.242126,195.570866 C24.4488189,195.570866 24.6259843,195.570866 24.7440945,195.595472 C24.8917323,195.595472 24.980315,195.620079 25.0688976,195.644685 C25.1574803,195.669291 25.2165354,195.693898 25.246063,195.74311 C25.2755906,195.792323 25.2755906,195.841535 25.2755906,195.890748 L25.2755906,208.316929 Z M41.1614173,207.849409 C41.1614173,207.997047 41.1318898,208.095472 41.0728346,208.193898 C41.0433071,208.292323 40.9547244,208.366142 40.8661417,208.415354 C40.7775591,208.489173 40.6889764,208.538386 40.6003937,208.562992 C40.4822835,208.587598 40.3641732,208.587598 40.2755906,208.587598 L39.5669291,208.587598 C39.3602362,208.587598 39.1830709,208.587598 39.0059055,208.538386 C38.8582677,208.51378 38.7106299,208.439961 38.5629921,208.341535 C38.4153543,208.24311 38.2677165,208.120079 38.1200787,207.947835 C37.9724409,207.800197 37.8248031,207.57874 37.6476378,207.308071 L32.9232283,199.950787 C32.6574803,199.581693 32.4212598,199.163386 32.1555118,198.745079 C31.9192913,198.326772 31.6830709,197.933071 31.4468504,197.53937 L31.4173228,197.53937 C31.4468504,198.00689 31.4468504,198.499016 31.476378,199.015748 L31.476378,200.492126 L31.476378,208.316929 C31.476378,208.366142 31.476378,208.415354 31.4173228,208.464567 C31.3877953,208.489173 31.3287402,208.538386 31.269685,208.562992 C31.1811024,208.587598 31.0629921,208.587598 30.9448819,208.612205 C30.8267717,208.636811 30.6496063,208.636811 30.4429134,208.636811 C30.2362205,208.636811 30.0590551,208.636811 29.9409449,208.612205 C29.8228346,208.587598 29.7047244,208.587598 29.6456693,208.562992 C29.5570866,208.538386 29.4980315,208.489173 29.4685039,208.464567 C29.4389764,208.415354 29.4094488,208.366142 29.4094488,208.316929 L29.4094488,196.358268 C29.4094488,196.112205 29.4980315,195.915354 29.7047244,195.792323 C29.8818898,195.693898 30.0590551,195.620079 30.2952756,195.620079 L31.2992126,195.620079 C31.5354331,195.620079 31.742126,195.644685 31.8897638,195.669291 C32.0669291,195.718504 32.2145669,195.767717 32.3326772,195.841535 C32.4507874,195.915354 32.5984252,196.038386 32.7165354,196.161417 C32.8346457,196.309055 32.9527559,196.481299 33.0708661,196.67815 L36.7322835,202.362205 C36.9685039,202.706693 37.1751969,203.051181 37.3818898,203.371063 C37.5885827,203.715551 37.7952756,204.035433 38.0019685,204.355315 C38.1791339,204.675197 38.3858268,204.995079 38.5629921,205.290354 C38.7401575,205.610236 38.9468504,205.930118 39.1240157,206.225394 L39.1535433,206.225394 C39.1240157,205.708661 39.1240157,205.167323 39.0944882,204.601378 L39.0944882,202.952756 L39.0944882,195.915354 C39.0944882,195.890748 39.1240157,195.841535 39.1535433,195.792323 C39.1830709,195.767717 39.242126,195.718504 39.3307087,195.693898 C39.4192913,195.669291 39.507874,195.644685 39.6259843,195.620079 C39.773622,195.620079 39.9507874,195.595472 40.1574803,195.595472 C40.3346457,195.595472 40.511811,195.620079 40.6299213,195.620079 C40.7775591,195.644685 40.8661417,195.669291 40.9547244,195.693898 C41.0433071,195.718504 41.0728346,195.767717 41.1318898,195.792323 C41.1614173,195.841535 41.1614173,195.890748 41.1614173,195.915354 L41.1614173,207.849409 Z M57.2244094,201.919291 C57.2244094,203.026575 57.0767717,204.010827 56.7224409,204.847441 C56.3681102,205.684055 55.8661417,206.373031 55.2165354,206.938976 C54.5374016,207.480315 53.7401575,207.898622 52.7952756,208.169291 C51.8208661,208.439961 50.6692913,208.587598 49.3405512,208.587598 L46.0629921,208.587598 C45.8858268,208.587598 45.7086614,208.51378 45.5314961,208.415354 C45.3543307,208.316929 45.2952756,208.144685 45.2952756,207.874016 L45.2952756,196.333661 C45.2952756,196.062992 45.3543307,195.890748 45.5314961,195.792323 C45.7086614,195.669291 45.8858268,195.620079 46.0629921,195.620079 L49.5767717,195.620079 C50.9350394,195.620079 52.0570866,195.767717 52.9724409,196.062992 C53.9173228,196.358268 54.6850394,196.776575 55.3346457,197.317913 C55.9547244,197.859252 56.4271654,198.523622 56.7519685,199.286417 C57.0767717,200.073819 57.2244094,200.935039 57.2244094,201.919291 Z M55.0688976,201.99311 C55.0688976,201.279528 54.980315,200.639764 54.773622,200.024606 C54.5374016,199.434055 54.2125984,198.892717 53.769685,198.449803 C53.3267717,198.031496 52.765748,197.687008 52.0866142,197.440945 C51.4074803,197.194882 50.5216535,197.07185 49.4586614,197.07185 L47.3622047,197.07185 L47.3622047,207.135827 L49.488189,207.135827 C50.4625984,207.135827 51.3188976,207.037402 51.9980315,206.840551 C52.6771654,206.619094 53.238189,206.299213 53.7106299,205.880906 C54.1535433,205.462598 54.507874,204.92126 54.7145669,204.281496 C54.9507874,203.641732 55.0688976,202.854331 55.0688976,201.99311 Z M73.4055118,201.943898 C73.4055118,203.001969 73.257874,203.937008 72.9625984,204.773622 C72.6673228,205.610236 72.2244094,206.323819 71.6338583,206.91437 C71.0433071,207.504921 70.3051181,207.972441 69.4192913,208.292323 C68.5334646,208.612205 67.5,208.759843 66.3188976,208.759843 C65.1377953,208.759843 64.1338583,208.612205 63.2775591,208.316929 C62.4212598,208.04626 61.742126,207.603346 61.1811024,207.062008 C60.6200787,206.496063 60.2066929,205.831693 59.9409449,204.995079 C59.6751969,204.183071 59.5275591,203.248031 59.5275591,202.165354 C59.5275591,201.156496 59.6751969,200.221457 59.9704724,199.384843 C60.265748,198.548228 60.7086614,197.859252 61.2992126,197.268701 C61.8897638,196.67815 62.6279528,196.235236 63.5137795,195.915354 C64.3996063,195.595472 65.4330709,195.447835 66.6437008,195.447835 C67.765748,195.447835 68.769685,195.595472 69.6259843,195.866142 C70.4822835,196.161417 71.1909449,196.579724 71.7519685,197.121063 C72.3129921,197.687008 72.726378,198.351378 72.992126,199.163386 C73.2874016,199.975394 73.4055118,200.910433 73.4055118,201.943898 Z M71.2204724,202.066929 C71.2204724,201.32874 71.1614173,200.66437 70.984252,200.024606 C70.8366142,199.409449 70.5708661,198.843504 70.2165354,198.400591 C69.8622047,197.933071 69.3602362,197.563976 68.769685,197.317913 C68.1496063,197.047244 67.4114173,196.924213 66.496063,196.924213 C65.6102362,196.924213 64.8720472,197.047244 64.2519685,197.34252 C63.6614173,197.613189 63.1594488,197.982283 62.7755906,198.449803 C62.3917323,198.917323 62.1259843,199.458661 61.9488189,200.098425 C61.8011811,200.713583 61.7125984,201.353346 61.7125984,202.042323 C61.7125984,202.805118 61.8011811,203.518701 61.9488189,204.158465 C62.0964567,204.798228 62.3622047,205.339567 62.7165354,205.807087 C63.0708661,206.274606 63.5433071,206.619094 64.1633858,206.889764 C64.753937,207.135827 65.5216535,207.258858 66.4370079,207.258858 C67.3228346,207.258858 68.0905512,207.135827 68.7106299,206.840551 C69.3011811,206.569882 69.8031496,206.200787 70.1870079,205.708661 C70.5708661,205.241142 70.8366142,204.675197 70.984252,204.060039 C71.1614173,203.444882 71.2204724,202.780512 71.2204724,202.066929 Z M91.2992126,208.193898 C91.269685,208.292323 91.2106299,208.366142 91.1515748,208.415354 C91.0925197,208.489173 91.003937,208.51378 90.8858268,208.562992 C90.7677165,208.587598 90.6496063,208.612205 90.4724409,208.612205 C90.3248031,208.636811 90.1181102,208.636811 89.8818898,208.636811 C89.6161417,208.636811 89.4094488,208.636811 89.2322835,208.612205 C89.0551181,208.612205 88.9370079,208.587598 88.8188976,208.562992 C88.7007874,208.51378 88.6122047,208.489173 88.5531496,208.415354 C88.4940945,208.366142 88.4645669,208.292323 88.4350394,208.193898 L85.1870079,198.425197 L85.1574803,198.425197 L82.1456693,208.193898 C82.1161417,208.292323 82.0866142,208.366142 82.0275591,208.415354 C81.9685039,208.489173 81.9094488,208.51378 81.7913386,208.562992 C81.6732283,208.587598 81.5551181,208.612205 81.3779528,208.612205 C81.230315,208.636811 81.023622,208.636811 80.757874,208.636811 C80.492126,208.636811 80.2854331,208.636811 80.1082677,208.612205 C79.9311024,208.612205 79.7834646,208.587598 79.6653543,208.562992 C79.5472441,208.51378 79.4586614,208.489173 79.3996063,208.415354 C79.3405512,208.366142 79.3110236,208.292323 79.2814961,208.193898 L75.1771654,196.235236 C75.1181102,196.087598 75.0885827,195.964567 75.0885827,195.866142 C75.0885827,195.792323 75.1181102,195.718504 75.2066929,195.669291 C75.265748,195.620079 75.3838583,195.595472 75.5314961,195.595472 C75.6791339,195.570866 75.8858268,195.570866 76.1515748,195.570866 L76.7125984,195.570866 C76.8602362,195.595472 76.9783465,195.620079 77.0669291,195.644685 C77.1259843,195.669291 77.1850394,195.693898 77.2145669,195.74311 C77.2440945,195.792323 77.273622,195.841535 77.273622,195.915354 L80.7874016,206.766732 L80.7874016,206.766732 L84.0944882,195.939961 C84.1240157,195.866142 84.1535433,195.816929 84.1830709,195.767717 C84.2125984,195.718504 84.2716535,195.669291 84.3602362,195.644685 C84.4488189,195.620079 84.5669291,195.595472 84.7145669,195.595472 C84.8622047,195.570866 85.0393701,195.570866 85.2755906,195.570866 C85.511811,195.570866 85.6889764,195.570866 85.8070866,195.595472 C85.9547244,195.595472 86.0728346,195.620079 86.1318898,195.644685 C86.2204724,195.669291 86.2795276,195.718504 86.3090551,195.767717 C86.3385827,195.816929 86.3681102,195.866142 86.3976378,195.939961 L89.9704724,206.766732 L90,206.766732 L93.3956693,195.939961 C93.4251969,195.866142 93.4547244,195.816929 93.484252,195.767717 C93.5137795,195.718504 93.5433071,195.669291 93.6318898,195.644685 C93.7204724,195.620079 93.8090551,195.595472 93.9566929,195.595472 C94.1043307,195.570866 94.2814961,195.570866 94.5177165,195.570866 C94.753937,195.570866 94.9606299,195.570866 95.0787402,195.595472 C95.226378,195.595472 95.3149606,195.644685 95.4035433,195.693898 C95.4625984,195.74311 95.492126,195.792323 95.492126,195.890748 C95.492126,195.964567 95.4625984,196.087598 95.4035433,196.235236 L91.2992126,208.193898 Z M114.242126,206.742126 C114.242126,206.865157 114.212598,206.938976 114.212598,207.037402 C114.212598,207.11122 114.212598,207.185039 114.183071,207.234252 C114.153543,207.308071 114.124016,207.357283 114.094488,207.406496 C114.064961,207.455709 114.005906,207.504921 113.917323,207.57874 C113.858268,207.627953 113.681102,207.750984 113.415354,207.874016 C113.179134,208.021654 112.854331,208.144685 112.470472,208.267717 C112.086614,208.415354 111.643701,208.51378 111.17126,208.612205 C110.669291,208.686024 110.137795,208.735236 109.547244,208.735236 C108.543307,208.735236 107.627953,208.587598 106.801181,208.316929 C106.003937,208.04626 105.295276,207.627953 104.734252,207.086614 C104.143701,206.520669 103.730315,205.856299 103.405512,205.044291 C103.110236,204.25689 102.933071,203.32185 102.933071,202.26378 C102.933071,201.205709 103.110236,200.246063 103.435039,199.384843 C103.78937,198.548228 104.232283,197.834646 104.852362,197.268701 C105.442913,196.67815 106.151575,196.235236 107.007874,195.915354 C107.834646,195.620079 108.779528,195.472441 109.783465,195.472441 C110.226378,195.472441 110.669291,195.497047 111.112205,195.570866 C111.525591,195.644685 111.909449,195.718504 112.293307,195.816929 C112.647638,195.939961 112.972441,196.062992 113.238189,196.186024 C113.533465,196.333661 113.71063,196.456693 113.82874,196.530512 C113.94685,196.628937 114.005906,196.702756 114.035433,196.751969 C114.064961,196.776575 114.094488,196.850394 114.124016,196.899606 C114.124016,196.973425 114.153543,197.047244 114.153543,197.121063 C114.183071,197.219488 114.183071,197.317913 114.183071,197.440945 C114.183071,197.588583 114.183071,197.687008 114.153543,197.785433 C114.153543,197.883858 114.124016,197.957677 114.094488,198.031496 C114.064961,198.080709 114.005906,198.129921 113.976378,198.154528 C113.917323,198.20374 113.858268,198.20374 113.799213,198.20374 C113.681102,198.20374 113.533465,198.154528 113.326772,198.00689 C113.120079,197.883858 112.883858,197.73622 112.559055,197.588583 C112.234252,197.416339 111.850394,197.293307 111.40748,197.145669 C110.935039,197.022638 110.403543,196.948819 109.753937,196.948819 C109.045276,196.948819 108.425197,197.07185 107.864173,197.293307 C107.30315,197.53937 106.801181,197.883858 106.417323,198.326772 C106.003937,198.769685 105.679134,199.311024 105.472441,199.950787 C105.23622,200.615157 105.147638,201.353346 105.147638,202.165354 C105.147638,203.001969 105.23622,203.715551 105.442913,204.355315 C105.679134,204.995079 105.974409,205.511811 106.358268,205.930118 C106.771654,206.348425 107.273622,206.692913 107.834646,206.889764 C108.425197,207.11122 109.074803,207.234252 109.812992,207.234252 C110.433071,207.234252 110.964567,207.160433 111.437008,207.037402 C111.909449,206.91437 112.293307,206.766732 112.61811,206.619094 C112.942913,206.44685 113.208661,206.323819 113.415354,206.176181 C113.622047,206.05315 113.799213,206.003937 113.917323,206.003937 C113.976378,206.003937 114.035433,206.003937 114.064961,206.028543 C114.094488,206.05315 114.124016,206.077756 114.153543,206.126969 C114.183071,206.200787 114.212598,206.274606 114.212598,206.373031 C114.212598,206.471457 114.242126,206.594488 114.242126,206.742126 Z M129.744094,201.943898 C129.744094,203.001969 129.596457,203.937008 129.301181,204.773622 C129.005906,205.610236 128.562992,206.323819 127.972441,206.91437 C127.38189,207.504921 126.643701,207.972441 125.757874,208.292323 C124.872047,208.612205 123.838583,208.759843 122.65748,208.759843 C121.476378,208.759843 120.472441,208.612205 119.616142,208.316929 C118.759843,208.04626 118.080709,207.603346 117.519685,207.062008 C116.958661,206.496063 116.545276,205.831693 116.279528,204.995079 C115.984252,204.183071 115.866142,203.248031 115.866142,202.165354 C115.866142,201.156496 116.01378,200.221457 116.309055,199.384843 C116.604331,198.548228 117.047244,197.859252 117.637795,197.268701 C118.228346,196.67815 118.966535,196.235236 119.852362,195.915354 C120.738189,195.595472 121.771654,195.447835 122.982283,195.447835 C124.104331,195.447835 125.108268,195.595472 125.964567,195.866142 C126.820866,196.161417 127.529528,196.579724 128.090551,197.121063 C128.651575,197.687008 129.064961,198.351378 129.330709,199.163386 C129.625984,199.975394 129.744094,200.910433 129.744094,201.943898 Z M127.559055,202.066929 C127.559055,201.32874 127.5,200.66437 127.322835,200.024606 C127.175197,199.409449 126.909449,198.843504 126.555118,198.400591 C126.200787,197.933071 125.698819,197.563976 125.108268,197.317913 C124.488189,197.047244 123.75,196.924213 122.834646,196.924213 C121.948819,196.924213 121.21063,197.047244 120.590551,197.34252 C119.970472,197.613189 119.498031,197.982283 119.114173,198.449803 C118.730315,198.917323 118.464567,199.458661 118.287402,200.098425 C118.139764,200.713583 118.051181,201.353346 118.051181,202.042323 C118.051181,202.805118 118.139764,203.518701 118.287402,204.158465 C118.435039,204.798228 118.67126,205.339567 119.055118,205.807087 C119.409449,206.274606 119.88189,206.619094 120.501969,206.889764 C121.09252,207.135827 121.860236,207.258858 122.746063,207.258858 C123.661417,207.258858 124.429134,207.135827 125.049213,206.840551 C125.639764,206.569882 126.141732,206.200787 126.525591,205.708661 C126.909449,205.241142 127.175197,204.675197 127.322835,204.060039 C127.5,203.444882 127.559055,202.780512 127.559055,202.066929 Z M149.911417,208.316929 C149.911417,208.366142 149.911417,208.415354 149.88189,208.464567 C149.822835,208.489173 149.76378,208.538386 149.704724,208.562992 C149.616142,208.587598 149.498031,208.587598 149.379921,208.612205 C149.261811,208.636811 149.084646,208.636811 148.877953,208.636811 C148.700787,208.636811 148.523622,208.636811 148.375984,208.612205 C148.257874,208.587598 148.139764,208.587598 148.080709,208.562992 C147.992126,208.538386 147.933071,208.489173 147.903543,208.464567 C147.874016,208.415354 147.844488,208.366142 147.844488,208.316929 L147.844488,197.047244 L147.814961,197.047244 L142.352362,208.366142 C142.322835,208.415354 142.293307,208.464567 142.26378,208.489173 C142.204724,208.51378 142.145669,208.538386 142.057087,208.562992 C141.968504,208.587598 141.879921,208.612205 141.761811,208.612205 C141.643701,208.636811 141.496063,208.636811 141.348425,208.636811 C141.17126,208.636811 141.023622,208.636811 140.905512,208.612205 C140.787402,208.612205 140.698819,208.587598 140.610236,208.562992 C140.551181,208.538386 140.462598,208.51378 140.433071,208.489173 C140.403543,208.439961 140.344488,208.415354 140.344488,208.366142 L135.11811,197.047244 L135.088583,197.047244 L135.088583,208.316929 C135.088583,208.366142 135.088583,208.415354 135.029528,208.464567 C135,208.489173 134.940945,208.538386 134.88189,208.562992 C134.793307,208.587598 134.675197,208.587598 134.557087,208.612205 C134.409449,208.636811 134.261811,208.636811 134.055118,208.636811 C133.848425,208.636811 133.67126,208.636811 133.55315,208.612205 C133.405512,208.587598 133.316929,208.587598 133.228346,208.562992 C133.139764,208.538386 133.110236,208.489173 133.080709,208.464567 C133.051181,208.415354 133.021654,208.366142 133.021654,208.316929 L133.021654,196.40748 C133.021654,196.136811 133.110236,195.915354 133.287402,195.816929 C133.464567,195.693898 133.67126,195.620079 133.877953,195.620079 L135.147638,195.620079 C135.413386,195.620079 135.649606,195.644685 135.856299,195.693898 C136.033465,195.718504 136.21063,195.792323 136.358268,195.866142 C136.505906,195.964567 136.624016,196.062992 136.712598,196.21063 C136.830709,196.333661 136.889764,196.505906 136.978346,196.67815 L141.437008,206.05315 L141.496063,206.05315 L146.102362,196.702756 C146.190945,196.505906 146.279528,196.333661 146.397638,196.186024 C146.48622,196.062992 146.604331,195.939961 146.751969,195.866142 C146.870079,195.767717 147.017717,195.718504 147.165354,195.693898 C147.312992,195.644685 147.490157,195.620079 147.69685,195.620079 L149.025591,195.620079 C149.143701,195.620079 149.261811,195.644685 149.379921,195.669291 C149.498031,195.693898 149.586614,195.74311 149.645669,195.816929 C149.734252,195.866142 149.793307,195.964567 149.852362,196.062992 C149.88189,196.161417 149.911417,196.259843 149.911417,196.40748 L149.911417,208.316929 Z M163.582677,199.409449 C163.582677,200.073819 163.464567,200.66437 163.198819,201.181102 C162.962598,201.697835 162.57874,202.140748 162.106299,202.509843 C161.633858,202.878937 161.043307,203.149606 160.364173,203.346457 C159.655512,203.567913 158.82874,203.666339 157.883858,203.666339 L156.112205,203.666339 L156.112205,208.316929 C156.112205,208.366142 156.082677,208.415354 156.05315,208.464567 C156.023622,208.489173 155.964567,208.538386 155.905512,208.562992 C155.816929,208.587598 155.698819,208.587598 155.580709,208.612205 C155.433071,208.636811 155.285433,208.636811 155.07874,208.636811 C154.872047,208.636811 154.724409,208.636811 154.576772,208.612205 C154.458661,208.587598 154.340551,208.587598 154.251969,208.562992 C154.192913,208.538386 154.133858,208.489173 154.104331,208.464567 C154.074803,208.415354 154.045276,208.366142 154.045276,208.316929 L154.045276,196.358268 C154.045276,196.112205 154.133858,195.915354 154.311024,195.792323 C154.458661,195.693898 154.665354,195.620079 154.872047,195.620079 L158.179134,195.620079 C158.533465,195.620079 158.858268,195.644685 159.153543,195.669291 C159.448819,195.693898 159.832677,195.74311 160.246063,195.816929 C160.659449,195.890748 161.102362,196.038386 161.545276,196.235236 C161.958661,196.456693 162.34252,196.702756 162.637795,197.022638 C162.933071,197.317913 163.169291,197.687008 163.346457,198.080709 C163.494094,198.499016 163.582677,198.941929 163.582677,199.409449 Z M161.427165,199.557087 C161.427165,199.040354 161.309055,198.597441 161.072835,198.228346 C160.836614,197.883858 160.541339,197.613189 160.187008,197.440945 C159.832677,197.268701 159.478346,197.145669 159.124016,197.121063 C158.740157,197.07185 158.385827,197.047244 158.031496,197.047244 L156.112205,197.047244 L156.112205,202.239173 L157.972441,202.239173 C158.59252,202.239173 159.124016,202.165354 159.537402,202.042323 C159.950787,201.919291 160.275591,201.722441 160.570866,201.476378 C160.836614,201.254921 161.072835,200.959646 161.220472,200.639764 C161.338583,200.295276 161.427165,199.950787 161.427165,199.557087 Z M176.574803,207.972441 C176.633858,208.120079 176.663386,208.24311 176.663386,208.316929 C176.663386,208.415354 176.633858,208.489173 176.574803,208.538386 C176.515748,208.562992 176.397638,208.612205 176.25,208.612205 C176.102362,208.636811 175.925197,208.636811 175.659449,208.636811 C175.423228,208.636811 175.216535,208.636811 175.068898,208.612205 C174.92126,208.612205 174.80315,208.587598 174.744094,208.562992 C174.655512,208.538386 174.596457,208.51378 174.566929,208.489173 C174.537402,208.439961 174.507874,208.390748 174.478346,208.316929 L173.149606,205.167323 L166.683071,205.167323 L165.413386,208.292323 C165.383858,208.341535 165.354331,208.390748 165.295276,208.439961 C165.265748,208.489173 165.206693,208.51378 165.11811,208.562992 C165.059055,208.587598 164.940945,208.612205 164.822835,208.612205 C164.675197,208.636811 164.498031,208.636811 164.261811,208.636811 C164.025591,208.636811 163.848425,208.636811 163.700787,208.612205 C163.55315,208.587598 163.435039,208.562992 163.375984,208.51378 C163.316929,208.464567 163.287402,208.390748 163.287402,208.316929 C163.287402,208.218504 163.346457,208.095472 163.405512,207.947835 L168.602362,195.915354 C168.63189,195.841535 168.690945,195.792323 168.720472,195.74311 C168.779528,195.693898 168.86811,195.669291 168.956693,195.644685 C169.074803,195.620079 169.192913,195.595472 169.340551,195.570866 L169.931102,195.570866 L170.580709,195.570866 C170.757874,195.595472 170.875984,195.620079 170.994094,195.644685 C171.082677,195.669291 171.17126,195.693898 171.230315,195.74311 C171.28937,195.792323 171.318898,195.866142 171.348425,195.939961 L176.574803,207.972441 Z M169.872047,197.34252 L169.872047,197.34252 L167.185039,203.813976 L172.588583,203.813976 L169.872047,197.34252 Z M190.925197,207.849409 C190.925197,207.997047 190.895669,208.095472 190.836614,208.193898 C190.777559,208.292323 190.718504,208.366142 190.629921,208.415354 C190.541339,208.489173 190.452756,208.538386 190.334646,208.562992 C190.216535,208.587598 190.127953,208.587598 190.009843,208.587598 L189.330709,208.587598 C189.124016,208.587598 188.917323,208.587598 188.769685,208.538386 C188.59252,208.51378 188.444882,208.439961 188.297244,208.341535 C188.149606,208.24311 188.001969,208.120079 187.854331,207.947835 C187.73622,207.800197 187.559055,207.57874 187.411417,207.308071 L182.65748,199.950787 C182.42126,199.581693 182.155512,199.163386 181.919291,198.745079 C181.653543,198.326772 181.417323,197.933071 181.21063,197.53937 L181.181102,197.53937 C181.181102,198.00689 181.21063,198.499016 181.21063,199.015748 C181.21063,199.507874 181.240157,200 181.240157,200.492126 L181.240157,208.316929 C181.240157,208.366142 181.21063,208.415354 181.181102,208.464567 C181.151575,208.489173 181.09252,208.538386 181.003937,208.562992 C180.915354,208.587598 180.826772,208.587598 180.679134,208.612205 C180.561024,208.636811 180.383858,208.636811 180.177165,208.636811 C180,208.636811 179.822835,208.636811 179.675197,208.612205 C179.557087,208.587598 179.468504,208.587598 179.379921,208.562992 C179.291339,208.538386 179.261811,208.489173 179.202756,208.464567 C179.173228,208.415354 179.173228,208.366142 179.173228,208.316929 L179.173228,196.358268 C179.173228,196.112205 179.261811,195.915354 179.438976,195.792323 C179.616142,195.693898 179.822835,195.620079 180.029528,195.620079 L181.033465,195.620079 C181.299213,195.620079 181.476378,195.644685 181.653543,195.669291 C181.801181,195.718504 181.948819,195.767717 182.066929,195.841535 C182.214567,195.915354 182.332677,196.038386 182.450787,196.161417 C182.568898,196.309055 182.687008,196.481299 182.834646,196.67815 L186.466535,202.362205 C186.702756,202.706693 186.909449,203.051181 187.116142,203.371063 C187.352362,203.715551 187.529528,204.035433 187.73622,204.355315 C187.942913,204.675197 188.120079,204.995079 188.297244,205.290354 C188.503937,205.610236 188.681102,205.930118 188.887795,206.225394 L188.887795,206.225394 C188.858268,205.708661 188.858268,205.167323 188.858268,204.601378 L188.858268,202.952756 L188.858268,195.915354 C188.858268,195.890748 188.858268,195.841535 188.887795,195.792323 C188.94685,195.767717 189.005906,195.718504 189.064961,195.693898 C189.153543,195.669291 189.271654,195.644685 189.389764,195.620079 C189.507874,195.620079 189.685039,195.595472 189.891732,195.595472 C190.098425,195.595472 190.246063,195.620079 190.393701,195.620079 C190.511811,195.644685 190.629921,195.669291 190.688976,195.693898 C190.777559,195.718504 190.836614,195.767717 190.866142,195.792323 C190.895669,195.841535 190.925197,195.890748 190.925197,195.915354 L190.925197,207.849409 Z M199.990157,203.543307 L199.990157,208.316929 C199.990157,208.366142 199.96063,208.415354 199.931102,208.464567 C199.901575,208.489173 199.84252,208.538386 199.753937,208.562992 C199.694882,208.587598 199.576772,208.587598 199.429134,208.612205 C199.311024,208.636811 199.133858,208.636811 198.956693,208.636811 C198.75,208.636811 198.572835,208.636811 198.454724,208.612205 C198.336614,208.587598 198.218504,208.587598 198.129921,208.562992 C198.041339,208.538386 197.982283,208.489173 197.952756,208.464567 C197.923228,208.415354 197.923228,208.366142 197.923228,208.316929 L197.923228,203.543307 L193.523622,196.235236 C193.435039,196.087598 193.375984,195.964567 193.346457,195.866142 C193.346457,195.792323 193.346457,195.718504 193.405512,195.669291 C193.464567,195.620079 193.582677,195.595472 193.730315,195.595472 C193.90748,195.570866 194.114173,195.570866 194.379921,195.570866 C194.616142,195.570866 194.793307,195.570866 194.940945,195.595472 C195.088583,195.595472 195.206693,195.620079 195.295276,195.644685 C195.383858,195.669291 195.472441,195.693898 195.501969,195.74311 C195.531496,195.792323 195.590551,195.841535 195.620079,195.915354 L197.775591,199.630906 C197.982283,199.975394 198.188976,200.344488 198.366142,200.738189 C198.572835,201.13189 198.779528,201.525591 198.98622,201.919291 L199.015748,201.919291 C199.192913,201.525591 199.370079,201.156496 199.576772,200.787402 C199.783465,200.393701 199.96063,200.024606 200.167323,199.655512 L202.322835,195.915354 C202.352362,195.841535 202.38189,195.792323 202.440945,195.74311 C202.470472,195.693898 202.529528,195.669291 202.61811,195.644685 C202.677165,195.620079 202.795276,195.595472 202.942913,195.595472 C203.061024,195.570866 203.238189,195.570866 203.444882,195.570866 C203.740157,195.570866 203.94685,195.570866 204.124016,195.595472 C204.271654,195.595472 204.389764,195.644685 204.478346,195.693898 C204.537402,195.74311 204.566929,195.792323 204.537402,195.890748 C204.507874,195.964567 204.448819,196.087598 204.360236,196.235236 L199.990157,203.543307 Z" id="Shape"></path>
                </g>
                <rect id="Rectangle-path" x="0" y="0" width="300" height="250"></rect>
            </g>
        </g>
    </g>
</svg>